<?xml version="1.0" encoding="UTF-8" standalone="no"?>
<svg
   xmlns:dc="http://purl.org/dc/elements/1.1/"
   xmlns:cc="http://creativecommons.org/ns#"
   xmlns:rdf="http://www.w3.org/1999/02/22-rdf-syntax-ns#"
   xmlns:svg="http://www.w3.org/2000/svg"
   xmlns="http://www.w3.org/2000/svg"
   xmlns:sodipodi="http://sodipodi.sourceforge.net/DTD/sodipodi-0.dtd"
   xmlns:inkscape="http://www.inkscape.org/namespaces/inkscape"
   inkscape:version="1.0 (4035a4fb49, 2020-05-01)"
   sodipodi:docname="Firewatch.svg"
   viewBox="0 0 500 500"
   height="500"
   width="500"
   id="svg10"
   version="1.1">
  <metadata
     id="metadata16">
    <rdf:RDF>
      <cc:Work
         rdf:about="">
        <dc:format>image/svg+xml</dc:format>
        <dc:type
           rdf:resource="http://purl.org/dc/dcmitype/StillImage" />
        <dc:title></dc:title>
      </cc:Work>
    </rdf:RDF>
  </metadata>
  <defs
     id="defs14" />
  <sodipodi:namedview
     inkscape:current-layer="g18"
     inkscape:window-maximized="0"
     inkscape:window-y="0"
     inkscape:window-x="76"
     inkscape:cy="250"
     inkscape:cx="250"
     inkscape:zoom="1.03"
     showgrid="false"
     id="namedview12"
     inkscape:window-height="728"
     inkscape:window-width="1274"
     inkscape:pageshadow="2"
     inkscape:pageopacity="0"
     guidetolerance="10"
     gridtolerance="10"
     objecttolerance="10"
     borderopacity="1"
     bordercolor="#666666"
     pagecolor="#ffffff" />
  <g
     id="g18"
     inkscape:label="Image"
     inkscape:groupmode="layer">
    <g
       style="opacity:1"
       id="g24">
      <path
         id="path26"
         d="m 245.88349,492.61197 c -2.475,-1.30882 -6.075,-3.22613 -8,-4.26069 -7.1626,-3.84945 -37.01795,-24.27775 -40,-27.36971 -0.275,-0.28513 -3.425,-2.92425 -7,-5.8647 -12.08223,-9.93769 -37.90458,-35.75669 -50.15483,-50.14835 C 129.00033,391.19002 105.34902,357.14447 94.205891,338 69.939981,296.30993 48.517871,244.31928 32.400211,188 c -1.81011,-6.325 -3.60381,-13.075 -3.98599,-15 -0.38218,-1.925 -1.09222,-4.85 -1.57786,-6.5 -4.43869,-15.08081 -10.69869,-49.74815 -10.86848,-60.18873 l -0.0844,-5.18872 4.25,-0.51608 c 2.3375,-0.28383 9.78418,-0.775293 16.54818,-1.092126 19.95652,-0.934784 41.90563,-5.200878 60.20182,-11.701004 4.674999,-1.660897 9.624999,-3.261508 10.999999,-3.556914 2.69364,-0.578704 22.87518,-8.598343 26.99476,-10.727045 1.37788,-0.711991 4.98024,-2.42908 8.00524,-3.815753 3.025,-1.386673 8.90045,-4.139515 13.05655,-6.117426 C 160.09614,61.618291 163.80191,60 164.17507,60 c 1.08412,0 33.42541,-18.718226 42.20841,-24.429035 4.4,-2.860931 10.475,-6.741431 13.5,-8.623334 3.025,-1.881903 11.54446,-7.81499 18.93214,-13.184637 C 246.2033,8.3933475 253.23975,4 254.45219,4 c 1.21243,0 6.94281,3.5338435 12.73416,7.852985 9.25647,6.903387 24.89144,17.67498 29.94078,20.627459 0.959,0.560756 6.51308,3.944556 12.34239,7.519556 19.04939,11.682606 30.8508,17.891233 59.79144,31.455794 23.21081,10.878975 53.30309,21.059589 71.12252,24.061684 4.4,0.741281 10.25,1.821295 13,2.400029 2.75,0.578734 11.75,1.312478 20,1.630541 19.67611,0.758572 19.5,0.715252 19.5,4.796932 0,6.91457 -5.44987,40.32261 -8.01869,49.15502 -0.47988,1.65 -2.52272,9.975 -4.53963,18.5 -3.82014,16.1468 -5.56469,21.98459 -15.98774,53.5 -5.98105,18.08447 -7.83698,23.17197 -10.94402,30 -0.75082,1.65 -2.11884,5.25 -3.04004,8 -3.51906,10.50523 -19.28661,44.3683 -27.9376,60 -15.99919,28.90934 -41.5573,67.36844 -53.17729,80.01961 -1.02024,1.11078 -3.60477,4.03578 -5.7434,6.5 -9.85636,11.35693 -35.54584,36.71821 -46.08968,45.50086 -3.28795,2.73874 -6.66295,5.57732 -7.5,6.30796 -5.47875,4.78221 -24.04635,17.22095 -39.61019,26.53552 -12.8067,7.66448 -16.67739,8.33804 -24.41172,4.24802 z m 14,-2.38948 c 4.97694,-2.49711 5.58369,-2.85448 15.21774,-8.96304 3.69476,-2.3427 6.98121,-4.25945 7.30323,-4.25945 0.32201,0 3.82403,-2.38116 7.78226,-5.29146 3.95822,-2.9103 8.77177,-6.25548 10.69677,-7.43373 1.925,-1.17825 4.40346,-2.95959 5.5077,-3.95854 1.10423,-0.99895 5.82923,-5.04594 10.5,-8.99332 8.51832,-7.19903 39.7898,-38.45485 47.84692,-47.82295 5.04328,-5.86388 17.68519,-22.68771 24.95484,-33.20986 4.25011,-6.15166 16.19054,-24.44886 16.19054,-24.80998 0,-0.15167 1.73261,-3.13424 3.85025,-6.62796 6.83556,-11.27744 21.11037,-38.57231 26.38342,-50.44778 0.95353,-2.14743 3.13226,-7.05442 4.84165,-10.90442 1.70938,-3.85 4.24284,-10.15 5.62992,-14 1.38708,-3.85 3.44177,-9.025 4.566,-11.5 3.40151,-7.48851 15.03649,-41.01034 18.04849,-52 0.82908,-3.025 1.96547,-6.85 2.52532,-8.5 1.70356,-5.02085 5.17773,-17.73042 6.15039,-22.5 0.50472,-2.475 1.87188,-8.55 3.03813,-13.5 3.80991,-16.17068 8.75051,-43.88428 8.93371,-50.11232 0.0386,-1.31132 -5.69506,-2.06075 -26.29426,-3.43687 -8.34516,-0.5575 -16.52302,-1.42821 -18.17302,-1.93491 -1.65,-0.50671 -6.6,-1.611017 -11,-2.45402 -9.38032,-1.79719 -22.5158,-5.35283 -23.97769,-6.490512 -0.56227,-0.437576 -2.37231,-1.107464 -4.02231,-1.48864 -7.7092,-1.780945 -24.63003,-8.51679 -43.0022,-17.118325 -25.73485,-12.048613 -37.47793,-18.186922 -51.269,-26.799191 -4.54916,-2.840867 -9.44972,-5.782494 -10.89014,-6.536949 -1.44043,-0.754455 -6.17327,-3.791955 -10.51744,-6.75 C 286.36054,29.420218 282.5637,27 282.26729,27 c -0.2964,0 -5.65695,-3.825 -11.91231,-8.5 -6.25537,-4.675 -11.84547,-8.5 -12.42244,-8.5 -0.57698,0 -1.04905,-0.401855 -1.04905,-0.8930112 0,-0.4911562 -0.69787,-1.1608084 -1.55082,-1.4881162 -1.33937,-0.5139665 -7.75951,3.7505884 -20.94914,13.9153974 -1.09998,0.847717 -6.41002,4.336799 -11.80009,7.753517 -5.39008,3.416717 -13.94009,8.872637 -19.00004,12.124266 -5.05995,3.251629 -11.22491,6.981201 -13.69991,8.287939 -2.475,1.306738 -6.75,3.70056 -9.5,5.319604 -9.28321,5.465432 -41.03776,20.591413 -54.5,25.960564 -31.751319,12.663398 -52.039939,18.216274 -73.499999,20.11652 -6.05,0.53572 -16.10863,1.46681 -22.35253,2.0691 l -11.35253,1.09507 0.66053,6.61957 c 0.36328,3.64077 1.04895,7.96958 1.52371,9.61958 0.47476,1.65 1.1391,5.7 1.47632,9 0.33722,3.3 1.47555,9.6 2.52963,14 1.05407,4.4 3.06191,12.95 4.46186,19 1.39996,6.05 2.98082,12.575 3.51303,14.5 0.53221,1.925 2.13768,7.775 3.56772,13 1.43003,5.225 2.96777,10.4 3.4172,11.5 0.44942,1.1 3.83994,11.225 7.53449,22.5 5.95289,18.16698 7.89867,23.4885 12.98031,35.5 0.69806,1.65 2.5362,6.28601 4.08475,10.30224 1.54856,4.01623 3.18454,7.53029 3.63553,7.80902 0.45099,0.27873 0.81998,1.16439 0.81998,1.96813 0,2.0286 10.20422,23.69154 16.77384,35.60985 1.72482,3.12908 4.50264,8.30408 6.17294,11.5 1.67031,3.19592 4.15388,7.61076 5.51906,9.81076 1.36517,2.2 3.227609,5.35 4.138739,7 2.37561,4.30207 12.61054,19.75649 14.12046,21.32143 0.70123,0.72678 1.27496,1.69079 1.27496,2.14224 0,0.68254 22.03467,30.65755 25.83426,35.14381 12.06888,14.24999 34.17585,36.45384 50.19629,50.41628 5.41666,4.72083 25.55172,19.50024 35.24465,25.87005 8.81448,5.79253 25.68161,14.86809 26.68664,14.35906 0.29599,-0.14991 2.56316,-1.28858 5.03816,-2.53038 z m -9,-46.93229 c -2.23991,-0.82414 -14.78863,-9.75439 -26.3096,-18.72314 -11.30386,-8.79973 -37.31627,-34.43066 -48.27873,-47.5707 -10.1194,-12.12954 -24.19337,-31.15985 -29.96468,-40.51716 -2.72085,-4.41144 -5.50102,-8.91144 -6.17817,-10 -6.55115,-10.53139 -10.01543,-16.83477 -19.22428,-34.9792 -5.86198,-11.55 -12.06034,-24.15 -13.77415,-28 -1.7138,-3.85 -4.27573,-9.60084 -5.69319,-12.77964 -1.41746,-3.17879 -2.577199,-6.2224 -2.577199,-6.76356 0,-0.54117 -0.43665,-1.76533 -0.97034,-2.72037 -1.38486,-2.4782 -11.02966,-28.8611 -11.02966,-30.17111 0,-0.60085 -0.41699,-1.87385 -0.92665,-2.82889 -1.03873,-1.94642 -5.7902,-16.8347 -9.01144,-28.23643 -1.1654,-4.125 -2.79402,-9.5478 -3.61916,-12.05067 -1.73247,-5.25506 -3.38978,-13.37463 -4.12507,-20.20974 -0.50911,-4.73255 -0.4896,-4.77008 3.33511,-6.41349 2.11597,-0.9092 6.54721,-2.22152 9.84721,-2.91626 7.16695,-1.50883 19.808319,-4.72418 24.575219,-6.25073 17.41167,-5.57591 25.42405,-8.45896 32.57591,-11.72159 1.73312,-0.79063 3.78062,-1.43752 4.55,-1.43752 0.76938,0 1.82637,-0.37788 2.34887,-0.83972 0.5225,-0.46185 2.525,-1.43393 4.45,-2.16017 4.49521,-1.6959 41.93589,-20.086082 48.5,-23.822327 8.13309,-4.629296 12.81217,-7.346538 16,-9.291559 1.65,-1.006729 4.35,-2.582914 6,-3.502632 1.65,-0.919718 9.075,-5.515775 16.5,-10.21346 9.37115,-5.928984 14.41752,-8.530843 16.5,-8.507235 2.01909,0.02289 8.06801,3.194648 18.5,9.700504 8.525,5.316572 16.175,10.087285 17,10.601585 12.77385,7.963138 46.87372,25.807784 61.5,32.183294 3.85,1.67819 8.30664,3.68136 9.90364,4.45149 1.597,0.77013 3.31333,1.40023 3.81408,1.40023 0.50074,0 3.2857,1.08647 6.1888,2.41437 11.09438,5.07468 48.2507,16.58563 53.53694,16.58563 1.01523,0 4.85816,0.9304 8.53984,2.06756 l 6.69397,2.06755 -0.46702,5.18245 c -0.78445,8.70504 -11.84328,48.48885 -16.72909,60.18244 -0.45961,1.1 -2.4791,7.05801 -4.48776,13.24003 -2.00866,6.18201 -4.01539,11.46454 -4.45939,11.73895 -0.44401,0.27441 -1.11408,2.1343 -1.48906,4.13308 -0.37497,1.99879 -1.06874,4.36626 -1.54171,5.26105 -1.15827,2.19127 -4.48341,9.71452 -6.46481,14.62689 -6.24916,15.49315 -23.50065,49.48345 -33.98831,66.96658 -18.34163,30.57585 -36.63675,53.92 -61.93955,79.03342 -15.70858,15.591 -25.66312,23.87405 -42.01801,34.96267 -9.02389,6.1182 -11.89063,7.1896 -15.59256,5.82753 z m 10.37869,-6.42473 c 25.40421,-17.15884 46.16842,-36.0704 69.64168,-63.42803 5.31424,-6.19364 19.50602,-25.16189 24.96225,-33.3637 15.84289,-23.81502 32.53284,-54.81864 44.98963,-83.57374 0.47652,-1.1 2.02771,-4.55963 3.44708,-7.68807 1.41937,-3.12845 2.58067,-6.17205 2.58067,-6.76357 0,-0.59153 0.45049,-1.85689 1.00108,-2.81193 1.9836,-3.44066 16.74499,-46.43247 20.51072,-59.73643 0.93408,-3.3 2.51383,-8.7 3.51055,-12 0.99673,-3.3 2.34971,-8.7 3.00663,-12 2.37122,-11.91182 2.51629,-10.87796 -1.70682,-12.16333 -2.10219,-0.63983 -6.74716,-1.69438 -10.32216,-2.34345 -3.575,-0.64907 -9.2,-2.00132 -12.5,-3.005 -3.3,-1.00368 -9.375,-2.80665 -13.5,-4.00659 -10.35178,-3.0113 -19.31545,-6.14242 -20.45,-7.14344 -0.5225,-0.461 -1.56383,-0.83819 -2.31408,-0.83819 -0.75024,0 -3.69774,-1.06301 -6.55,-2.36224 -2.85225,-1.29923 -6.31092,-2.71111 -7.68592,-3.13752 -4.58823,-1.42287 -42.98876,-19.89425 -51,-24.531966 -9.23904,-5.348486 -22.08297,-12.917666 -24.93089,-14.69226 -1.96301,-1.223193 -4.91911,-2.971479 -6.56911,-3.885082 -3.66241,-2.027868 -12.51619,-7.650656 -18.21596,-11.568437 l -4.21596,-2.897875 -3.78404,2.048604 c -2.08122,1.126732 -8.28404,4.977013 -13.78404,8.55618 -5.5,3.579167 -11.125,7.117511 -12.5,7.862987 -1.375,0.745475 -9.475,5.350794 -18,10.234043 -21.27751,12.188076 -46.78086,24.686296 -62,30.383836 -1.925,0.72065 -3.9275,1.68816 -4.45,2.15001 -0.5225,0.46184 -1.57949,0.83972 -2.34887,0.83972 -0.76938,0 -2.81688,0.65489 -4.55,1.45531 -7.56224,3.49253 -19.57361,7.21779 -43.141199,13.37999 -13.35757,3.49259 -18.07076,5.12281 -18.30341,6.33085 -0.82092,4.2627 11.51636,46.6204 21.79642,74.83385 1.70342,4.675 3.79457,10.525 4.647,13 1.601319,4.64939 6.351859,16.23384 8.816689,21.5 0.77228,1.65 2.60262,5.7 4.0674,9 6.90049,15.54601 23.39721,47.43959 28.44834,55 1.46983,2.2 4.1945,6.7 6.05483,10 3.8528,6.83442 15.63956,23.6419 23.84353,34 19.09421,24.1078 48.53701,53.24412 67.11927,66.4206 7.88324,5.58992 16.47088,11.06008 17.37869,11.0699 0.48328,0.005 3.63328,-1.85104 7,-4.12503 z m -32.57148,-93.0983 c -0.10604,-13.34694 -0.0795,-26.34634 0.059,-28.88755 0.31151,-5.71649 -0.60795,-6.18518 -9.66904,-4.92881 -10.77251,1.49367 -38.13807,3.2372 -45.18711,2.87899 -5.1446,-0.26143 -6.55689,-0.68133 -6.81288,-2.02556 -0.1776,-0.93267 3.8289,-8.58267 8.90335,-17 13.68199,-22.69524 29.71897,-55.17974 27.82044,-56.3531 -0.52235,-0.32283 -3.30575,-0.13558 -6.18534,0.41611 -13.79889,2.64369 -20.73563,2.48652 -20.73563,-0.46982 0,-1.58357 0.20001,-1.92739 9.82989,-16.89743 13.89412,-21.599 15.54826,-24.15109 18.47224,-28.5 1.66406,-2.475 4.3649,-6.975 6.00187,-10 1.63698,-3.025 3.50874,-6.175 4.15948,-7 0.65074,-0.825 5.8238,-9.375 11.49569,-19 11.08769,-18.81544 12.75165,-21.55301 18.2347,-30 1.96357,-3.025 4.18905,-6.85 4.94551,-8.5 0.92206,-2.01119 2.22028,-3.09859 3.93871,-3.29912 2.87786,-0.33583 1.50468,-2.36128 23.44335,34.57922 4.90546,8.25985 10.77812,18.07359 11.76837,19.66598 0.6656,1.07034 3.12269,5.01244 5.46019,8.76022 2.3375,3.74779 4.25,7.03917 4.25,7.31418 0,0.27502 1.575,2.7408 3.5,5.47952 1.925,2.73872 3.5,5.21208 3.5,5.49636 0,0.48684 8.5952,13.85659 20.64626,32.11506 5.69643,8.63063 6.36444,10.78676 3.66311,11.82336 -2.03774,0.78195 -13.95675,-0.1471 -20.61335,-1.60675 -2.64218,-0.57937 -5.01599,-0.84139 -5.27513,-0.58225 -0.62585,0.62584 1.06995,4.49851 13.02905,29.75422 2.20398,4.65446 3.39606,6.72396 14.86857,25.81248 5.39224,8.97187 9.65448,17.07187 9.47166,18 -0.29428,1.49389 -1.99374,1.68031 -14.8113,1.62467 -7.96338,-0.0346 -19.87887,-0.62112 -26.47887,-1.30345 -6.6,-0.68233 -13.8,-1.32904 -16,-1.43715 l -4,-0.19655 -0.5,29 -0.5,29 -25.25,0.26717 -25.25,0.26717 z M 276.88349,336.7 c 0,-20.67778 0.3232,-28.6232 1.2,-29.5 1.45242,-1.45242 6.04244,-1.53608 12.50078,-0.22785 6.93909,1.40562 42.57517,3.23361 45.03056,2.30989 1.99496,-0.7505 1.90266,-1.06437 -2.2885,-7.78204 -2.40202,-3.85 -4.99921,-8.125 -5.77152,-9.5 -0.77232,-1.375 -3.63896,-6.325 -6.37032,-11 -6.73514,-11.52786 -6.58657,-11.24679 -11.62841,-22 -8.79254,-18.75271 -9.74758,-21.18836 -9.10365,-23.2172 0.57211,-1.80257 1.21576,-1.94463 6.28423,-1.38701 15.80714,1.73906 20.34664,2.08993 20.65176,1.59623 0.18382,-0.29743 -2.66709,-5.07054 -6.33536,-10.60692 -3.66826,-5.53638 -8.94955,-13.62541 -11.7362,-17.97562 -2.78664,-4.35021 -5.93118,-9.25948 -6.98787,-10.90948 -3.17478,-4.95741 -3.86248,-6.09054 -5.83804,-9.61941 -1.0409,-1.85933 -4.3034,-7.08902 -7.25,-11.62155 -2.9466,-4.53253 -5.35746,-8.48825 -5.35746,-8.7905 0,-0.30224 -0.8464,-1.7688 -1.8809,-3.25903 -2.27518,-3.2775 -17.1191,-28.2494 -17.1191,-28.79944 0,-0.21429 -2.025,-3.54882 -4.5,-7.41007 -2.475,-3.86125 -4.5,-7.4393 -4.5,-7.95121 0,-2.68197 -2.25407,-1.7063 -3.76882,1.63132 -0.9535,2.10094 -3.08308,5.85231 -4.73241,8.33639 -3.73566,5.62634 -4.46865,6.82167 -9.49463,15.4835 -2.23393,3.85 -8.77515,14.65 -14.53604,24 -5.76088,9.35 -10.77136,17.675 -11.1344,18.5 -0.36303,0.825 -2.324,3.975 -4.35771,7 -2.03371,3.025 -5.13233,7.9051 -6.88583,10.84467 -1.75349,2.93956 -3.63732,5.86456 -4.18627,6.5 -1.08741,1.2587 -5.01616,7.31279 -11.69408,18.0202 l -4.28143,6.86487 7.28581,-0.68357 c 4.00719,-0.37597 9.98581,-0.76516 13.28581,-0.86488 l 6,-0.18129 -0.11548,3.76598 c -0.0728,2.37509 -2.2354,8.09968 -5.85542,15.5 -3.15697,6.45371 -6.28857,12.85902 -6.95911,14.23402 -2.91416,5.97569 -10.9411,20.62922 -12.05122,22 -0.66813,0.825 -1.4774,2.175 -1.79839,3 -0.32099,0.825 -2.81293,4.875 -5.53764,9 -2.72471,4.125 -4.85227,7.61571 -4.72792,7.75712 0.57995,0.65955 46.39143,-1.96524 48.9444,-2.80428 5.00867,-1.64612 10.40442,-1.18825 11.5656,0.98142 0.64176,1.19914 1.03518,12.41058 1.03518,29.5 V 365 h 22.5 22.5 z"
         style="color:#000000;font-style:normal;font-variant:normal;font-weight:normal;font-stretch:normal;font-size:medium;line-height:normal;font-family:sans-serif;font-variant-ligatures:normal;font-variant-position:normal;font-variant-caps:normal;font-variant-numeric:normal;font-variant-alternates:normal;font-variant-east-asian:normal;font-feature-settings:normal;font-variation-settings:normal;text-indent:0;text-align:start;text-decoration:none;text-decoration-line:none;text-decoration-style:solid;text-decoration-color:#000000;letter-spacing:normal;word-spacing:normal;text-transform:none;writing-mode:lr-tb;direction:ltr;text-orientation:mixed;dominant-baseline:auto;baseline-shift:baseline;text-anchor:start;white-space:normal;shape-padding:0;shape-margin:0;inline-size:0;clip-rule:nonzero;display:inline;overflow:visible;visibility:visible;isolation:auto;mix-blend-mode:normal;color-interpolation:sRGB;color-interpolation-filters:linearRGB;solid-color:#000000;solid-opacity:1;vector-effect:none;fill:#000000;fill-opacity:1;fill-rule:nonzero;stroke-width:1;stroke-linecap:butt;stroke-linejoin:miter;stroke-miterlimit:4;stroke-dasharray:none;stroke-dashoffset:0;stroke-opacity:1.0;color-rendering:auto;image-rendering:auto;shape-rendering:auto;text-rendering:auto;enable-background:accumulate;stop-color:#000000;stop-opacity:1;stroke:none;" />
      <path
         id="path28"
         d="M 254.45312 3.5 C 254.15059 3.5 253.89399 3.5959005 253.54688 3.7363281 C 253.19976 3.8767558 252.78669 4.0754101 252.30469 4.328125 C 251.34068 4.8335549 250.1094 5.5543471 248.68555 6.4433594 C 245.83783 8.221384 242.22393 10.668294 238.52148 13.359375 C 231.13999 18.724523 222.60144 24.668098 219.61914 26.523438 C 216.58732 28.409585 210.51443 32.289394 206.11133 35.152344 C 201.74566 37.99095 191.45765 44.102838 182.14258 49.494141 C 177.48504 52.189792 173.06732 54.707188 169.75 56.548828 C 168.09134 57.469648 166.70679 58.221122 165.70898 58.740234 C 165.21008 58.99979 164.8076 59.201272 164.52148 59.333984 C 164.37843 59.400341 164.26239 59.449933 164.1875 59.478516 C 164.11261 59.507098 164.02981 59.5 164.17578 59.5 C 163.94844 59.5 163.88632 59.546657 163.72656 59.599609 C 163.5668 59.652562 163.37024 59.72508 163.13281 59.818359 C 162.65796 60.004918 162.02519 60.270221 161.27539 60.597656 C 159.77579 61.252526 157.80695 62.153534 155.72461 63.144531 C 151.57107 65.121225 145.69586 67.875351 142.67578 69.259766 C 139.64534 70.648934 136.0508 72.361293 134.64844 73.085938 C 132.65698 74.11498 126.55357 76.668646 120.66211 79.009766 C 117.71638 80.180325 114.81418 81.301528 112.48438 82.166016 C 110.15457 83.030503 108.3462 83.645784 107.7793 83.767578 C 106.2826 84.089129 101.40122 85.677551 96.716797 87.341797 C 78.474444 93.822796 56.560817 98.083366 36.658203 99.015625 C 29.887196 99.332786 22.467346 99.818553 20.072266 100.10938 L 15.376953 100.67969 L 15.46875 106.32031 C 15.555123 111.6315 17.165459 122.88541 19.308594 134.75391 C 21.451729 146.62241 24.126752 159.06174 26.357422 166.64062 C 26.835142 168.26372 27.545844 171.19379 27.923828 173.09766 C 28.320723 175.09677 30.107962 181.80525 31.919922 188.13672 C 48.047431 244.49041 69.480972 296.51626 93.773438 338.25195 C 104.94166 357.43953 128.57088 391.45755 140.34766 405.29297 C 152.63138 419.72395 178.42597 445.51834 190.56641 455.50391 C 192.35287 456.97328 194.03365 458.36611 195.30078 459.42773 C 195.93435 459.95854 196.46393 460.40672 196.85156 460.73828 C 197.23919 461.06985 197.51824 461.32274 197.52344 461.32812 C 198.36737 462.20316 200.75619 464.01177 204.0918 466.42578 C 207.4274 468.8398 211.66442 471.80562 216.0332 474.79492 C 224.77076 480.77353 233.99548 486.82883 237.64648 488.79102 C 239.57355 489.82669 243.17413 491.7452 245.65039 493.05469 C 249.55805 495.12111 252.61561 496.02519 256.27344 495.38867 C 259.93126 494.75215 264.13588 492.63329 270.55273 488.79297 C 286.13452 479.46766 304.65759 467.07286 310.23438 462.20508 C 311.05314 461.4904 314.43792 458.64199 317.72461 455.9043 C 328.32528 447.07431 353.97632 421.7511 363.87305 410.34766 C 366.00935 407.88612 368.59842 404.95597 369.60742 403.85742 C 381.32183 391.10346 406.83606 352.68453 422.85352 323.74219 C 431.52801 308.06802 447.26898 274.28311 450.82812 263.6582 C 451.74371 260.92495 453.11556 257.31588 453.84766 255.70703 C 456.96239 248.8621 458.83055 243.74345 464.8125 225.65625 C 475.23611 194.13915 476.99072 188.26895 480.8125 172.11523 C 482.82879 163.59287 484.88551 155.221 485.3457 153.63867 C 486.65084 149.15119 488.64508 138.61234 490.33008 128.2832 C 492.01508 117.95406 493.38281 107.93435 493.38281 104.3457 C 493.38281 103.32888 493.42214 102.49848 493.05078 101.75586 C 492.67942 101.01324 491.90307 100.5278 490.63086 100.21484 C 488.08644 99.588924 483.24009 99.428102 473.40234 99.048828 C 465.16794 98.731366 456.10454 97.978733 453.48633 97.427734 C 450.71916 96.845388 444.87366 95.767828 440.4668 95.025391 C 422.73904 92.03874 392.64163 81.863274 369.47266 71.003906 C 340.53781 57.44206 328.76871 51.249985 309.73047 39.574219 C 303.90037 35.998732 298.36835 32.627387 297.37891 32.048828 C 292.39876 29.136811 276.72436 18.344216 267.48438 11.453125 C 264.57773 9.2853749 261.68995 7.3144788 259.36523 5.8808594 C 258.20288 5.1640497 257.18291 4.5813592 256.36328 4.171875 C 255.54365 3.7623908 254.99912 3.5 254.45312 3.5 z M 254.45312 4.5 C 254.51334 4.5 255.13922 4.6783216 255.91602 5.0664062 C 256.69281 5.4544909 257.69413 6.025878 258.83984 6.7324219 C 261.13126 8.1455096 264.00201 10.102515 266.88672 12.253906 C 276.15968 19.169589 291.75646 29.919168 296.875 32.912109 C 297.80355 33.455062 303.38047 36.851268 309.20898 40.425781 C 328.26953 52.115227 340.1024 58.340928 369.04883 71.908203 C 392.30147 82.806785 422.38968 92.992226 440.30078 96.009766 C 444.69392 96.749891 450.54841 97.831128 453.28125 98.40625 C 456.16304 99.012719 465.09769 99.728211 473.36328 100.04688 C 483.20164 100.42617 488.10603 100.62306 490.39258 101.18555 C 491.53585 101.46679 491.94575 101.78219 492.15625 102.20312 C 492.36675 102.62406 492.38281 103.32169 492.38281 104.3457 C 492.38281 107.67163 491.02589 117.81142 489.34375 128.12305 C 487.66161 138.43467 485.64845 149.0164 484.38477 153.36133 C 483.8852 155.079 481.85543 163.35713 479.83789 171.88477 C 476.01939 188.02465 474.28577 193.83003 463.86328 225.34375 C 457.88314 243.42549 456.03685 248.48184 452.9375 255.29297 C 452.16795 256.98412 450.80572 260.57505 449.87891 263.3418 C 446.39994 273.72735 430.606 307.66858 421.97852 323.25781 C 405.99759 352.13415 380.39667 390.63326 368.87109 403.18164 C 367.83962 404.30465 365.25814 407.22451 363.11719 409.69141 C 353.3012 421.00182 327.57295 446.40141 317.08594 455.13672 C 313.79673 457.87651 310.4315 460.70457 309.57617 461.45117 C 304.19545 466.14781 285.58495 478.63172 270.03906 487.93555 C 263.64922 491.7597 259.51434 493.80847 256.10156 494.40234 C 252.68879 494.99622 249.94385 494.19352 246.11719 492.16992 C 243.64345 490.86177 240.04403 488.94361 238.12109 487.91016 C 234.6095 486.02289 225.32393 479.93964 216.59766 473.96875 C 212.23452 470.9833 208.00254 468.02144 204.67773 465.61523 C 201.35293 463.20903 198.89123 461.30571 198.24414 460.63477 C 198.11183 460.49759 197.89401 460.31387 197.50195 459.97852 C 197.10989 459.64316 196.57659 459.19428 195.94141 458.66211 C 194.67104 457.59778 192.98971 456.20155 191.20117 454.73047 C 179.17715 444.84066 153.32615 418.99687 141.10938 404.64453 C 129.4295 390.92295 105.75671 356.84941 94.638672 337.74805 C 70.399318 296.1036 48.988671 244.14815 32.880859 187.86328 C 31.072599 181.54475 29.271762 174.75323 28.904297 172.90234 C 28.517921 170.95621 27.809966 168.03628 27.316406 166.35938 C 25.108386 158.85745 22.431954 146.42169 20.292969 134.57617 C 18.153984 122.73065 16.552167 111.43213 16.46875 106.30273 L 16.390625 101.56445 L 20.193359 101.10352 C 22.473279 100.82668 29.948085 100.33018 36.705078 100.01367 C 56.715504 99.076363 78.700754 94.804409 97.050781 88.285156 C 101.71636 86.627608 106.73498 85.015355 107.98828 84.746094 C 108.7682 84.578535 110.49147 83.971993 112.83203 83.103516 C 115.17259 82.235039 118.07994 81.112229 121.03125 79.939453 C 126.93386 77.593902 132.9793 75.072316 135.10742 73.972656 C 136.46082 73.273318 140.07224 71.552147 143.0918 70.167969 C 146.12172 68.779038 151.99564 66.026003 156.1543 64.046875 C 158.22806 63.059961 160.19018 62.162426 161.67578 61.513672 C 162.41858 61.189295 163.04324 60.928681 163.49805 60.75 C 163.72545 60.66066 163.91046 60.592102 164.04102 60.548828 C 164.17158 60.505554 164.30983 60.5 164.17578 60.5 C 164.38951 60.5 164.4333 60.456662 164.54492 60.414062 C 164.65654 60.371463 164.78589 60.314322 164.94141 60.242188 C 165.25243 60.097919 165.66358 59.892331 166.16992 59.628906 C 167.1826 59.102057 168.57135 58.347073 170.23438 57.423828 C 173.56043 55.577338 177.9814 53.057132 182.64258 50.359375 C 191.96493 44.963862 202.23892 38.862437 206.65625 35.990234 C 211.05315 33.131322 217.13026 29.250705 220.14844 27.373047 C 223.21614 25.46458 231.71551 19.542115 239.10938 14.167969 C 242.79461 11.489403 246.3943 9.0540295 249.21484 7.2929688 C 250.62512 6.4124384 251.84039 5.6990149 252.76758 5.2128906 C 253.23117 4.9698285 253.62326 4.7829181 253.92188 4.6621094 C 254.22049 4.5413006 254.45255 4.5 254.45312 4.5 z M 255.51172 7.1523438 C 255.17396 7.0227349 254.84065 7.0693466 254.46094 7.1699219 C 254.08123 7.2704972 253.64507 7.4453023 253.12891 7.6972656 C 252.09658 8.2011923 250.74585 9.01344 249.02539 10.15625 C 245.58447 12.44187 240.67723 16.052961 234.07812 21.138672 C 233.57355 21.52753 231.95428 22.625839 229.81836 24.029297 C 227.68243 25.432754 225.00915 27.158329 222.31641 28.865234 C 216.92498 32.282805 208.37396 37.739588 203.3125 40.992188 C 198.26166 44.237965 192.08119 47.974414 189.65039 49.257812 C 187.16266 50.571274 182.88845 52.963227 180.12891 54.587891 C 170.92771 60.005036 139.11262 75.165952 125.69922 80.515625 C 93.969259 93.170504 73.742237 98.702517 52.339844 100.59766 C 46.287643 101.13357 36.228384 102.06548 29.982422 102.66797 L 18.130859 103.81055 L 18.841797 110.92969 C 19.207361 114.59335 19.879168 118.88829 20.382812 120.63867 C 20.831727 122.19885 21.507122 126.27569 21.841797 129.55078 C 22.184043 132.89996 23.322541 139.19134 24.382812 143.61719 C 25.436208 148.01437 27.444147 156.56478 28.84375 162.61328 C 30.244547 168.6669 31.819554 175.17322 32.361328 177.13281 C 32.893028 179.05597 34.499716 184.90806 35.929688 190.13281 C 36.645653 192.74879 37.387162 195.35076 38.007812 197.43945 C 38.628463 199.52814 39.112202 201.07015 39.365234 201.68945 C 39.553301 202.14976 40.539144 205.01704 41.904297 209.09375 C 43.26945 213.17046 45.041699 218.51967 46.888672 224.15625 C 52.842604 242.32641 54.79837 247.67719 59.882812 259.69531 C 60.572647 261.32587 62.413703 265.9696 63.960938 269.98242 C 64.73887 272.00001 65.537626 273.89084 66.203125 275.32031 C 66.535874 276.03505 66.834918 276.63268 67.085938 277.08203 C 67.211447 277.30671 67.325552 277.49409 67.431641 277.64648 C 67.537729 277.79888 67.602068 277.9143 67.800781 278.03711 C 67.876687 278.08402 68.058654 278.29465 68.181641 278.58984 C 68.304627 278.88504 68.382812 279.25472 68.382812 279.58008 C 68.382812 280.04324 68.568129 280.54871 68.865234 281.37305 C 69.16234 282.19739 69.58737 283.26137 70.119141 284.51758 C 71.182681 287.03 72.665447 290.305 74.353516 293.88867 C 77.729652 301.05601 81.924947 309.45422 85.21875 315.42969 C 86.940621 318.55342 89.719196 323.72932 91.386719 326.91992 C 93.063715 330.12864 95.543882 334.53988 96.923828 336.76367 C 98.283678 338.9551 100.14886 342.10886 101.05078 343.74219 C 102.263 345.93743 105.40931 350.86093 108.45703 355.46289 C 109.98089 357.76387 111.47709 359.9797 112.68945 361.7207 C 113.90182 363.46171 114.78103 364.68393 115.24805 365.16797 C 115.56927 365.5009 115.87077 365.90026 116.08008 366.25195 C 116.28939 366.60364 116.38281 366.94898 116.38281 366.96289 C 116.38281 367.1417 116.41876 367.16458 116.43945 367.21289 C 116.46015 367.2612 116.4824 367.30484 116.50781 367.35156 C 116.55864 367.44501 116.6247 367.55346 116.70898 367.6875 C 116.87756 367.95558 117.11698 368.31796 117.42383 368.76758 C 118.03753 369.66682 118.91484 370.91266 119.97852 372.40234 C 122.10587 375.38171 124.97986 379.33498 127.97266 383.40625 C 133.95825 391.54879 140.38927 400.13122 142.33594 402.42969 C 154.43388 416.714 176.53932 438.91513 192.58594 452.90039 C 198.07561 457.68485 218.16078 472.42228 227.88477 478.8125 C 232.31417 481.72333 238.73816 485.44172 244.19336 488.37695 C 246.92096 489.84457 249.4044 491.11563 251.2793 491.99219 C 252.21674 492.43047 253.00059 492.76857 253.59961 492.98828 C 253.89912 493.09814 254.15065 493.17834 254.36914 493.22656 C 254.58764 493.27478 254.7482 493.36236 255.07031 493.19922 C 255.35864 493.05319 257.63253 491.91167 260.10742 490.66992 C 265.08689 488.17154 265.73452 487.79056 275.36914 481.68164 C 277.21198 480.51317 278.95344 479.45117 280.26953 478.68359 C 280.92758 478.2998 281.47905 477.98967 281.87891 477.7793 C 282.07884 477.67411 282.24275 477.59232 282.35352 477.54297 C 282.4089 477.51829 282.4523 477.50307 282.47266 477.49609 C 282.49301 477.48912 282.50818 477.5 282.4043 477.5 C 282.57848 477.5 282.62306 477.46355 282.69141 477.43555 C 282.75975 477.40755 282.82643 477.374 282.90234 477.33398 C 283.05418 477.25395 283.23962 477.14559 283.46289 477.00781 C 283.90942 476.73226 284.50397 476.3414 285.21289 475.85938 C 286.63074 474.89532 288.49904 473.56961 290.48242 472.11133 C 294.4321 469.20731 299.26239 465.85319 301.14453 464.70117 C 303.09793 463.50554 305.56559 461.73777 306.72656 460.6875 C 307.80278 459.71389 312.54578 455.65101 317.21484 451.70508 C 325.81733 444.43492 357.00153 413.26234 365.11719 403.82617 C 370.19941 397.91702 382.82145 381.11434 390.10352 370.57422 C 392.23588 367.48781 396.28301 361.37687 399.80078 355.98633 C 401.55967 353.29106 403.18551 350.77706 404.37305 348.91211 C 404.96681 347.97963 405.45134 347.20987 405.78906 346.6582 C 405.95792 346.38237 406.09019 346.16202 406.18359 345.99805 C 406.23029 345.91606 406.26691 345.84892 406.29688 345.78906 C 406.31186 345.75913 406.32372 345.73245 406.33789 345.69727 C 406.35207 345.66208 406.38281 345.65832 406.38281 345.48047 C 406.38281 345.59472 406.367 345.60194 406.36328 345.61328 C 406.36969 345.59833 406.38548 345.56492 406.4082 345.51953 C 406.45442 345.42721 406.52895 345.28794 406.625 345.11328 C 406.8171 344.76397 407.09948 344.2686 407.44727 343.66992 C 408.14283 342.47256 409.10465 340.85594 410.16211 339.11133 C 417.0231 327.79194 431.28066 300.52907 436.57422 288.60742 C 437.52776 286.45998 439.70662 281.55313 441.41602 277.70312 C 443.13313 273.83569 445.66466 267.53893 447.05859 263.66992 C 448.44073 259.83364 450.49881 254.65195 451.60938 252.20703 C 455.06569 244.59786 466.6553 211.18907 469.68555 200.13281 C 470.51224 197.11652 471.65072 193.28246 472.20117 191.66016 C 473.92077 186.59205 477.38465 173.9272 478.36914 169.09961 C 478.87055 166.64086 480.23899 160.56125 481.4043 155.61523 C 483.31281 147.51479 485.50069 136.53855 487.23633 126.80273 C 488.97197 117.06692 490.25477 108.62662 490.34961 105.40234 C 490.35981 105.05578 490.15103 104.73122 489.88086 104.52344 C 489.61069 104.31566 489.2657 104.16345 488.80859 104.01562 C 487.89439 103.71998 486.52291 103.46066 484.50781 103.19727 C 480.47761 102.67049 473.89239 102.13943 463.58984 101.45117 C 459.4237 101.17285 455.29734 100.81662 452.01172 100.4668 C 448.72609 100.11697 446.20953 99.746003 445.5293 99.537109 C 443.80591 99.007864 438.88971 97.91546 434.47852 97.070312 C 429.80584 96.175068 424.1838 94.838462 419.55664 93.585938 C 417.24306 92.959675 415.17554 92.354846 413.60547 91.837891 C 412.82043 91.579413 412.15916 91.343577 411.6582 91.140625 C 411.15725 90.937673 410.80223 90.747263 410.71289 90.677734 C 410.32413 90.375187 409.72724 90.115714 408.97656 89.837891 C 408.22588 89.560067 407.34461 89.291725 406.49609 89.095703 C 398.89995 87.340877 381.94993 80.605769 363.59375 72.011719 C 337.86506 59.965991 326.1504 53.841496 312.37695 45.240234 C 307.82249 42.396053 302.9558 39.471585 301.45508 38.685547 C 300.1045 37.978155 295.32247 34.917424 290.98633 31.964844 C 288.81067 30.483385 286.77178 29.136948 285.23633 28.158203 C 284.4686 27.66883 283.82848 27.270847 283.35352 26.992188 C 283.11603 26.852858 282.91958 26.743812 282.76367 26.664062 C 282.68572 26.624188 282.61957 26.59176 282.55273 26.564453 C 282.4859 26.537146 282.45621 26.5 282.26758 26.5 C 282.39274 26.5 282.40007 26.521039 282.40625 26.523438 C 282.41243 26.525836 282.39985 26.519467 282.38086 26.509766 C 282.34288 26.490363 282.27506 26.451642 282.1875 26.398438 C 282.01237 26.292028 281.75694 26.127531 281.43945 25.914062 C 280.80447 25.487125 279.91329 24.864445 278.83594 24.095703 C 276.68123 22.55822 273.77949 20.435254 270.6543 18.099609 C 267.52178 15.758499 264.55666 13.630229 262.29688 12.083984 C 261.16698 11.310862 260.21329 10.683331 259.49805 10.244141 C 259.14042 10.024545 258.84476 9.8520478 258.60547 9.7285156 C 258.48582 9.6667495 258.38054 9.6171574 258.28125 9.578125 C 258.18196 9.5390926 258.10582 9.5 257.93164 9.5 C 257.58682 9.5 257.38281 9.278198 257.38281 9.1074219 C 257.38281 8.6250318 257.10922 8.2636154 256.77344 7.9414062 C 256.43765 7.6191971 256.00209 7.3405186 255.51172 7.1523438 z M 255.1543 8.0859375 C 255.51687 8.2250704 255.85564 8.4448764 256.08203 8.6621094 C 256.30842 8.8793423 256.38281 9.0986557 256.38281 9.1074219 C 256.38281 9.9189582 257.1225 10.5 257.93164 10.5 C 257.82959 10.5 257.86697 10.490485 257.91602 10.509766 C 257.96506 10.529046 258.04584 10.565233 258.14648 10.617188 C 258.34777 10.721097 258.63124 10.885611 258.97656 11.097656 C 259.66722 11.521747 260.61074 12.142654 261.73242 12.910156 C 263.97578 14.445161 266.93183 16.566501 270.05469 18.900391 C 273.18485 21.239746 276.09235 23.366389 278.25586 24.910156 C 279.33761 25.68204 280.23189 26.307797 280.88086 26.744141 C 281.20534 26.962312 281.46877 27.132874 281.66797 27.253906 C 281.76757 27.314422 281.84962 27.36148 281.92578 27.400391 C 281.96386 27.419846 282.00069 27.437919 282.04492 27.455078 C 282.08916 27.472237 282.12389 27.5 282.26758 27.5 C 282.116 27.5 282.15036 27.480645 282.17383 27.490234 C 282.1973 27.499824 282.24588 27.522607 282.30859 27.554688 C 282.43403 27.618848 282.61962 27.721683 282.84766 27.855469 C 283.30372 28.123039 283.93766 28.516516 284.69922 29.001953 C 286.22233 29.972828 288.25532 31.314429 290.42383 32.791016 C 294.77602 35.754525 299.45995 38.768794 300.99023 39.570312 C 302.37036 40.293185 307.3038 43.252291 311.84766 46.089844 C 325.65635 54.71312 337.42891 60.866471 363.16992 72.917969 C 381.55808 81.526989 398.44923 88.263249 406.27148 90.070312 C 407.07296 90.255467 407.9215 90.513582 408.62891 90.775391 C 409.33631 91.037199 409.9261 91.331768 410.09961 91.466797 C 410.37574 91.681688 410.74936 91.850129 411.2832 92.066406 C 411.81705 92.282683 412.49441 92.524178 413.29297 92.787109 C 414.89009 93.312972 416.96936 93.923228 419.29492 94.552734 C 423.94605 95.811748 429.58141 97.150789 434.28906 98.052734 C 438.67787 98.893593 443.65971 100.00997 445.23633 100.49414 C 446.2061 100.79195 448.60416 101.10936 451.90625 101.46094 C 455.20834 101.81252 459.34442 102.17004 463.52344 102.44922 C 473.82009 103.13708 480.40213 103.66966 484.37891 104.18945 C 486.36729 104.44935 487.70823 104.71011 488.50195 104.9668 C 488.89882 105.09514 489.15501 105.22683 489.27148 105.31641 C 489.38795 105.40598 489.35101 105.39178 489.35156 105.37305 C 489.26321 108.37681 487.98489 116.90629 486.25195 126.62695 C 484.51902 136.34762 482.33108 147.31453 480.42969 155.38477 C 479.2625 160.33875 477.89671 166.40914 477.38867 168.90039 C 476.42784 173.61196 472.94339 186.36625 471.25586 191.33984 C 470.68661 193.01754 469.55217 196.83348 468.7207 199.86719 C 465.72695 210.79025 454.04592 244.42512 450.69922 251.79297 C 449.56132 254.29805 447.51116 259.46636 446.11914 263.33008 C 444.73891 267.16107 442.20359 273.46431 440.50195 277.29688 C 438.79256 281.14687 436.61368 286.05376 435.66016 288.20117 C 430.40761 300.03046 416.11677 327.35826 409.30664 338.59375 C 408.24646 340.34285 407.28218 341.9627 406.58203 343.16797 C 406.23195 343.7706 405.94894 344.2691 405.75 344.63086 C 405.65053 344.81174 405.57243 344.95685 405.51562 345.07031 C 405.48722 345.12704 405.4636 345.17511 405.44336 345.22266 C 405.43324 345.24643 405.42446 345.271 405.41406 345.30273 C 405.4128 345.30657 405.41163 345.32045 405.41016 345.32422 C 405.41282 345.31761 405.41009 345.32633 405.40234 345.3418 C 405.38686 345.37273 405.35624 345.43054 405.31445 345.50391 C 405.23087 345.65064 405.10148 345.86566 404.93555 346.13672 C 404.60367 346.67883 404.12135 347.44521 403.5293 348.375 C 402.34519 350.23458 400.72038 352.74828 398.96289 355.44141 C 395.44792 360.82766 391.399 366.9406 389.28125 370.00586 C 382.02401 380.51004 369.36372 397.35522 364.35938 403.17383 C 356.3608 412.47386 325.00251 443.81351 316.56836 450.94141 C 311.89588 454.89023 307.18888 458.92102 306.05664 459.94531 C 305.00913 460.89294 302.51965 462.68679 300.62305 463.84766 C 298.65519 465.05214 293.85739 468.39006 289.89062 471.30664 C 287.91578 472.75865 286.05361 474.07715 284.65039 475.03125 C 283.94878 475.5083 283.36186 475.89438 282.9375 476.15625 C 282.72532 476.28718 282.55233 476.38766 282.43555 476.44922 C 282.37716 476.48 282.33276 476.50146 282.3125 476.50977 C 282.29224 476.51807 282.27037 476.5 282.4043 476.5 C 282.26016 476.5 282.2134 476.52658 282.14844 476.54883 C 282.08347 476.57108 282.01783 476.59855 281.94531 476.63086 C 281.80028 476.69548 281.62525 476.78342 281.41406 476.89453 C 280.99168 477.11676 280.43129 477.43012 279.76562 477.81836 C 278.43429 478.59483 276.6859 479.66366 274.83398 480.83789 C 265.2005 486.94609 264.63456 487.27955 259.66016 489.77539 C 257.18505 491.01725 254.92279 492.15285 254.61914 492.30664 C 254.81562 492.20713 254.72729 492.28163 254.58398 492.25 C 254.44068 492.21837 254.21846 492.15168 253.94336 492.05078 C 253.39316 491.84898 252.62603 491.51742 251.70312 491.08594 C 249.85732 490.22298 247.38459 488.95781 244.66797 487.49609 C 239.23472 484.57267 232.81866 480.85826 228.43359 477.97656 C 218.77172 471.62716 198.58584 456.80369 193.24219 452.14648 C 177.24793 438.20686 155.13942 416.00083 143.09961 401.78516 C 141.24668 399.59737 134.76094 390.94967 128.7793 382.8125 C 125.78848 378.74392 122.91585 374.79537 120.79297 371.82227 C 119.73153 370.33571 118.85616 369.09131 118.25 368.20312 C 117.94692 367.75903 117.71075 367.40443 117.55469 367.15625 C 117.47666 367.03216 117.41951 366.93333 117.38672 366.87305 C 117.37032 366.8429 117.35989 366.82152 117.35938 366.82031 C 117.35886 366.8191 117.38281 366.80541 117.38281 366.96289 C 117.38281 366.52536 117.19232 366.16511 116.93945 365.74023 C 116.68659 365.31536 116.34875 364.86846 115.96875 364.47461 C 115.68081 364.17618 114.71535 362.87971 113.50977 361.14844 C 112.30418 359.41716 110.80963 357.20616 109.28906 354.91016 C 106.24793 350.31815 103.08918 345.36464 101.92578 343.25781 C 101.00545 341.59114 99.143928 338.4449 97.773438 336.23633 C 96.423023 334.06012 93.937061 329.64016 92.273438 326.45703 C 90.600361 323.2558 87.823472 318.08169 86.095703 314.94727 C 82.819886 309.00442 78.628144 300.61375 75.259766 293.46289 C 73.575576 289.88746 72.096067 286.62128 71.041016 284.12891 C 70.51349 282.88272 70.091288 281.8284 69.804688 281.0332 C 69.518087 280.23801 69.382813 279.62406 69.382812 279.58008 C 69.382812 279.10169 69.277772 278.62528 69.103516 278.20703 C 68.929259 277.78878 68.701256 277.41736 68.326172 277.18555 C 68.412138 277.23868 68.327704 277.18304 68.251953 277.07422 C 68.176203 276.9654 68.074464 276.80047 67.958984 276.59375 C 67.728025 276.18031 67.437517 275.59713 67.111328 274.89648 C 66.45895 273.49519 65.665158 271.62169 64.894531 269.62305 C 63.344665 265.6034 61.510973 260.97413 60.804688 259.30469 C 55.72585 247.29981 53.789738 242.00755 47.837891 223.84375 C 45.990313 218.20533 44.219615 212.85493 42.853516 208.77539 C 41.487416 204.69585 40.552369 201.95024 40.291016 201.31055 C 40.094618 200.82985 39.584882 199.23436 38.966797 197.1543 C 38.348712 195.07424 37.606642 192.47621 36.892578 189.86719 C 35.46247 184.64194 33.858892 178.79403 33.326172 176.86719 C 32.803526 174.97678 31.217482 168.4331 29.818359 162.38672 C 28.418063 156.33522 26.410213 147.78563 25.355469 143.38281 C 24.30758 139.00866 23.168132 132.70004 22.835938 129.44922 C 22.496172 126.12431 21.844356 122.10115 21.34375 120.36133 C 20.897874 118.81171 20.196934 114.44796 19.835938 110.83008 L 19.224609 104.70898 L 30.078125 103.66406 C 36.319963 103.06197 46.379935 102.13123 52.427734 101.5957 C 73.945461 99.690351 94.295681 94.117229 126.06836 81.445312 C 139.57944 76.056683 171.27149 60.96489 180.63672 55.451172 C 183.37717 53.837747 187.65492 51.442593 190.11719 50.142578 C 192.63639 48.812501 198.78446 45.089512 203.85352 41.832031 C 208.91196 38.581373 217.46283 33.126801 222.85156 29.710938 C 225.54889 28.001125 228.22558 26.272427 230.36719 24.865234 C 232.5088 23.458042 234.09405 22.388547 234.68945 21.929688 C 241.27998 16.850589 246.17673 13.247649 249.57812 10.988281 C 251.27882 9.8585972 252.60804 9.0644777 253.56836 8.5957031 C 254.04852 8.3613158 254.43752 8.2087381 254.7168 8.1347656 C 254.99607 8.0607932 255.15721 8.0870547 255.1543 8.0859375 z M 254.38867 60.162109 C 253.13466 60.147893 251.35385 60.839306 248.63672 62.240234 C 245.91958 63.641163 242.30715 65.779542 237.61523 68.748047 C 230.19299 73.44399 222.72906 78.061867 221.14062 78.947266 C 219.48104 79.872326 216.78199 81.446797 215.12305 82.458984 C 211.94417 84.398542 207.26836 87.115671 199.13672 91.744141 C 195.90334 93.584555 184.87643 99.131097 174.13672 104.40625 C 168.76686 107.04383 163.46269 109.6171 159.2207 111.63672 C 154.97871 113.65634 151.76607 115.13366 150.70703 115.5332 C 149.72917 115.90212 148.73629 116.33133 147.91406 116.73047 C 147.09184 117.1296 146.46988 117.4596 146.10156 117.78516 C 145.72837 118.11502 144.68965 118.5 144.08398 118.5 C 143.55916 118.5 142.86551 118.67803 142.01953 118.94531 C 141.17355 119.21259 140.21353 119.57762 139.32617 119.98242 C 132.20141 123.23269 124.21307 126.10936 106.80664 131.68359 C 102.09005 133.19403 89.424056 136.41617 82.28125 137.91992 C 78.945338 138.62222 74.528109 139.92692 72.339844 140.86719 C 71.383174 141.27825 70.653001 141.59022 70.078125 141.92383 C 69.503249 142.25744 69.066179 142.63416 68.800781 143.14453 C 68.269986 144.16526 68.448482 145.42588 68.703125 147.79297 C 69.442457 154.66565 71.100829 162.79501 72.851562 168.10547 C 73.670716 170.59018 75.301408 176.01867 76.464844 180.13672 C 78.07747 185.84469 80.070824 192.42024 81.792969 197.81641 C 82.654041 200.51449 83.447741 202.9175 84.091797 204.77148 C 84.735853 206.62547 85.205834 207.89216 85.515625 208.47266 C 85.753678 208.91874 85.977757 209.45417 86.136719 209.93945 C 86.295681 210.42474 86.382813 210.87969 86.382812 211.06445 C 86.382813 211.29971 86.435663 211.44516 86.509766 211.72266 C 86.583868 212.00015 86.689775 212.35542 86.824219 212.78516 C 87.093107 213.64463 87.475677 214.79582 87.939453 216.14648 C 88.867006 218.84782 90.117148 222.3478 91.410156 225.88477 C 92.703165 229.42173 94.03806 232.99513 95.138672 235.8418 C 96.239284 238.68847 97.066617 240.74687 97.476562 241.48047 C 97.727356 241.92927 97.960803 242.45412 98.126953 242.91992 C 98.293103 243.38573 98.382813 243.82092 98.382812 243.95703 C 98.382813 244.27091 98.475905 244.52186 98.611328 244.94727 C 98.746752 245.37267 98.93809 245.90868 99.173828 246.52734 C 99.645304 247.76468 100.29166 249.32655 101.00391 250.92383 C 102.42128 254.10243 104.98352 259.85326 106.69727 263.70312 C 108.4284 267.59204 114.6184 280.17254 120.48242 291.72656 C 129.69302 309.87445 133.17186 316.2039 139.72852 326.74414 C 140.40344 327.82912 143.18358 332.33097 145.9043 336.74219 C 151.70726 346.15082 165.774 365.16444 175.91211 377.31641 C 186.91892 390.50961 212.88575 416.10052 224.26758 424.96094 C 230.03402 429.44995 236.05549 433.92887 240.91992 437.39062 C 243.35214 439.1215 245.49361 440.59829 247.17383 441.69727 C 248.85404 442.79624 250.01832 443.50493 250.71094 443.75977 C 252.64103 444.46991 254.47046 444.54322 256.85938 443.65039 C 259.24829 442.75756 262.23478 440.94225 266.75586 437.87695 C 283.12848 426.77631 293.12501 418.45849 308.8457 402.85547 C 334.17293 377.7178 352.50395 354.32996 370.86328 323.72461 C 381.37358 306.20375 398.61109 272.24143 404.88477 256.6875 C 406.85982 251.79086 410.20606 244.23021 411.32812 242.10742 C 411.87697 241.06908 412.53754 238.74339 412.91992 236.70508 C 413.10264 235.73111 413.35881 234.78551 413.61719 234.06836 C 413.74637 233.70978 413.8767 233.40674 413.99023 233.19531 C 414.10376 232.98388 414.23571 232.86967 414.17969 232.9043 C 414.32419 232.81499 414.36864 232.73995 414.42578 232.66016 C 414.48292 232.58036 414.53522 232.49468 414.5918 232.39258 C 414.70495 232.18838 414.83021 231.92441 414.97461 231.60156 C 415.2634 230.95586 415.62115 230.07123 416.02734 229.00195 C 416.83974 226.8634 417.84504 223.99227 418.85156 220.89453 C 419.85526 217.80546 420.86324 214.7722 421.67578 212.375 C 422.48832 209.9778 423.11974 208.18743 423.32617 207.69336 C 425.7951 201.78427 429.77185 188.92741 433.24805 176.42188 C 436.72425 163.91634 439.68683 151.85717 440.0918 147.36328 L 440.5957 141.77734 L 433.51367 139.58984 C 431.6627 139.01813 429.77484 138.49878 428.21484 138.12109 C 426.65485 137.74341 425.48653 137.5 424.82617 137.5 C 424.25612 137.5 423.09705 137.3278 421.56641 137.00586 C 420.03576 136.68391 418.11475 136.21651 415.91992 135.63867 C 411.53027 134.48299 406.04785 132.88722 400.38477 131.13281 C 389.0586 127.62399 376.98327 123.46798 371.49805 120.95898 C 370.03841 120.29133 368.61002 119.68632 367.47656 119.24414 C 366.90984 119.02305 366.41691 118.84222 366.02539 118.71484 C 365.63387 118.58747 365.40756 118.5 365.10156 118.5 C 365.06091 118.5 364.45031 118.3662 363.77734 118.11914 C 363.10437 117.87208 362.28734 117.52624 361.50391 117.14844 C 359.88464 116.36757 355.43802 114.3694 351.58398 112.68945 C 337.01003 106.33675 302.86786 88.470224 290.14844 80.541016 C 289.32387 80.026985 281.67343 75.256023 273.14844 69.939453 C 267.92658 66.682869 263.79909 64.25795 260.71094 62.638672 C 259.16686 61.829033 257.88354 61.221041 256.84375 60.808594 C 255.80396 60.396147 255.0215 60.169284 254.38867 60.162109 z M 254.37695 61.162109 C 254.75367 61.16638 255.48636 61.346278 256.47461 61.738281 C 257.46286 62.130285 258.72156 62.725997 260.24609 63.525391 C 263.29517 65.124178 267.40901 67.537837 272.61914 70.787109 C 281.14414 76.103684 288.79371 80.874103 289.61914 81.388672 C 302.44742 89.38574 336.50498 107.2091 351.18359 113.60742 C 355.02956 115.28385 359.49558 117.29139 361.07031 118.05078 C 361.88388 118.44311 362.72396 118.79807 363.43359 119.05859 C 364.14323 119.31912 364.64147 119.5 365.10156 119.5 C 365.04594 119.5 365.35458 119.54818 365.7168 119.66602 C 366.07901 119.78385 366.55829 119.95927 367.11328 120.17578 C 368.22327 120.60881 369.63857 121.20889 371.08203 121.86914 C 376.69119 124.43482 388.74074 128.57257 400.08789 132.08789 C 405.76147 133.84555 411.25345 135.44427 415.66406 136.60547 C 417.86937 137.18607 419.80483 137.65699 421.36133 137.98438 C 422.91782 138.31176 424.07466 138.5 424.82617 138.5 C 425.18105 138.5 426.44282 138.72195 427.97852 139.09375 C 429.51421 139.46555 431.38804 139.97947 433.21875 140.54492 L 439.52734 142.49414 L 439.0957 147.27344 C 438.71622 151.48459 435.75593 163.66827 432.28516 176.1543 C 428.81438 188.64032 424.81922 201.52214 422.40234 207.30664 C 422.14917 207.91257 421.54279 209.65237 420.72852 212.05469 C 419.91424 214.457 418.90535 217.49299 417.90039 220.58594 C 416.89825 223.67021 415.89789 226.52967 415.09375 228.64648 C 414.69168 229.70489 414.33762 230.57822 414.0625 231.19336 C 413.92494 231.50093 413.80622 231.74488 413.7168 231.90625 C 413.67209 231.98693 413.63335 232.04738 413.61133 232.07812 C 413.58931 232.10887 413.5653 232.10774 413.6543 232.05273 C 413.37627 232.22456 413.25808 232.44572 413.10938 232.72266 C 412.96067 232.99959 412.81649 233.33797 412.67578 233.72852 C 412.39437 234.50961 412.12976 235.49472 411.9375 236.51953 C 411.56995 238.47879 410.84241 240.88743 410.44531 241.63867 C 409.25084 243.89843 405.94673 251.3844 403.95898 256.3125 C 397.73434 271.74487 380.46893 305.76359 370.00391 323.20898 C 351.67998 353.75533 333.42095 377.05536 308.14258 402.14453 C 292.44611 417.72351 282.53248 425.97223 266.19531 437.04883 C 261.6925 440.10173 258.73568 441.88098 256.50977 442.71289 C 254.28385 443.5448 252.82848 443.47223 251.05664 442.82031 C 250.6293 442.66308 249.38338 441.94688 247.7207 440.85938 C 246.05803 439.77187 243.92312 438.30197 241.49805 436.57617 C 236.6479 433.12458 230.63538 428.65161 224.88086 424.17188 C 213.65496 415.43284 187.59779 389.76266 176.67969 376.67578 C 166.579 364.56867 152.49552 345.52278 146.75586 336.2168 C 144.03487 331.80514 141.25555 327.30698 140.57617 326.21484 C 134.03053 315.69231 130.58014 309.41441 121.37305 291.27344 C 115.51311 279.72746 109.30781 267.10796 107.61133 263.29688 C 105.89747 259.44674 103.33552 253.69657 101.91797 250.51758 C 101.21276 248.93607 100.57018 247.38633 100.10742 246.17188 C 99.876042 245.56465 99.688823 245.03939 99.5625 244.64258 C 99.436177 244.24576 99.382813 243.91373 99.382812 243.95703 C 99.382813 243.55197 99.25591 243.10431 99.070312 242.58398 C 98.884715 242.06366 98.632506 241.49843 98.349609 240.99219 C 98.067125 240.48668 97.169546 238.31852 96.072266 235.48047 C 94.974986 232.64241 93.638955 229.0733 92.347656 225.54102 C 91.056357 222.00873 89.80889 218.51361 88.884766 215.82227 C 88.422704 214.47659 88.041315 213.33009 87.777344 212.48633 C 87.645358 212.06445 87.542464 211.71699 87.474609 211.46289 C 87.406754 211.20879 87.382812 210.99295 87.382812 211.06445 C 87.382812 210.64836 87.262885 210.1691 87.085938 209.62891 C 86.90899 209.08872 86.670045 208.51091 86.398438 208.00195 C 86.188863 207.60924 85.674807 206.28466 85.035156 204.44336 C 84.395505 202.60206 83.605385 200.20422 82.746094 197.51172 C 81.027511 192.12671 79.034395 185.55704 77.425781 179.86328 C 76.258417 175.73133 74.631907 170.314 73.800781 167.79297 C 72.086574 162.59331 70.430467 154.48308 69.699219 147.68555 C 69.444751 145.32009 69.37964 144.19749 69.6875 143.60547 C 69.84143 143.30946 70.091506 143.07259 70.580078 142.78906 C 71.06865 142.50554 71.77869 142.1958 72.734375 141.78516 C 74.77805 140.90702 79.22224 139.58562 82.486328 138.89844 C 89.677422 137.38452 102.29412 134.17743 107.11133 132.63477 C 124.52824 127.05718 132.56323 124.16757 139.74219 120.89258 C 140.58795 120.50675 141.51887 120.15226 142.32227 119.89844 C 143.12566 119.64461 143.83943 119.5 144.08398 119.5 C 145.01708 119.5 146.09187 119.12897 146.76367 118.53516 C 146.91786 118.39887 147.56066 118.01283 148.35156 117.62891 C 149.14246 117.24498 150.11341 116.82608 151.06055 116.46875 C 152.24911 116.02034 155.40285 114.56133 159.65039 112.53906 C 163.89793 110.5168 169.2054 107.94172 174.57812 105.30273 C 185.32358 100.02476 196.30012 94.509112 199.63086 92.613281 C 207.7654 87.983159 212.44775 85.262984 215.64453 83.3125 C 217.28558 82.31123 219.98654 80.734688 221.62695 79.820312 C 223.33852 78.866275 230.72264 74.291224 238.15039 69.591797 C 242.82962 66.631318 246.42625 64.505251 249.0957 63.128906 C 251.76516 61.752561 253.54848 61.152717 254.37695 61.162109 z M 254.98242 62.339844 L 250.92969 64.533203 C 248.79486 65.688959 242.61797 69.525883 237.11133 73.109375 C 231.61569 76.685705 225.93905 80.251285 224.64453 80.953125 C 223.23432 81.717691 215.16065 86.309606 206.63477 91.193359 C 185.37886 103.36906 159.87504 115.8653 144.70898 121.54297 C 143.73099 121.90909 142.73642 122.3351 141.91406 122.73242 C 141.09171 123.12974 140.47049 123.45905 140.10156 123.78516 C 139.72837 124.11502 138.68965 124.5 138.08398 124.5 C 137.55743 124.5 136.86571 124.68052 136.01953 124.95117 C 135.17336 125.22182 134.2117 125.59208 133.32422 126.00195 C 125.82207 129.46673 113.82768 133.19132 90.267578 139.35156 C 83.584298 141.09903 79.060893 142.3801 76.15625 143.38477 C 74.703929 143.8871 73.657386 144.31782 72.927734 144.7207 C 72.198083 145.12359 71.713108 145.48292 71.599609 146.07227 C 71.460465 146.79478 71.59501 147.89401 71.876953 149.5332 C 72.158896 151.1724 72.614359 153.29458 73.216797 155.80664 C 74.421673 160.83076 76.210835 167.41252 78.345703 174.74219 C 82.61544 189.40152 88.270457 207.04998 93.416016 221.17188 C 95.118565 225.84449 97.211109 231.6958 98.060547 234.16211 C 99.677742 238.8576 104.41687 250.41515 106.89648 255.71289 C 107.66418 257.3531 109.49728 261.40564 110.96094 264.70312 C 114.41968 272.49528 120.26932 284.35678 125.89062 295.22461 C 131.51193 306.09244 136.88291 315.93616 139.44922 319.77734 C 140.90265 321.9528 143.63112 326.45864 145.48438 329.74609 C 149.37919 336.65505 161.15035 353.4288 169.37305 363.81055 C 188.50084 387.96075 217.93107 417.09462 236.59375 430.32812 C 240.54248 433.12812 244.66537 435.89762 247.91992 437.9707 C 249.5472 439.00725 250.95724 439.86805 252.02539 440.47656 C 252.55946 440.78082 253.0059 441.0212 253.36133 441.19141 C 253.53904 441.27651 253.69376 441.34589 253.83203 441.39648 C 253.9703 441.44708 254.07574 441.48829 254.25586 441.49023 L 254.25781 441.49023 C 254.48103 441.49254 254.58445 441.43669 254.74609 441.37305 C 254.90774 441.3094 255.09423 441.22386 255.31055 441.11523 C 255.74318 440.89799 256.29508 440.5903 256.93555 440.21289 C 258.21647 439.45808 259.85196 438.42146 261.54297 437.2793 C 286.98367 420.09581 307.78921 401.14547 331.2832 373.76367 C 336.63949 367.52102 350.80242 348.59028 356.2832 340.35156 C 372.14724 316.50475 388.84502 285.48351 401.31445 256.69922 C 401.78565 255.61151 403.33912 252.14453 404.75781 249.01758 C 405.47151 247.44452 406.11928 245.89466 406.5918 244.65625 C 406.82806 244.03705 407.02042 243.49709 407.15625 243.06445 C 407.29208 242.63182 407.38281 242.36031 407.38281 242.04883 C 407.38281 241.87999 407.47724 241.42814 407.64844 240.94727 C 407.81963 240.46639 408.06132 239.93219 408.31836 239.48633 C 408.61182 238.97731 409.04316 237.94735 409.64648 236.41016 C 410.24981 234.87297 411.00551 232.85757 411.86719 230.49414 C 413.59055 225.76728 415.74005 219.65123 417.94531 213.22852 C 422.35584 200.38308 426.9859 186.31763 428.87695 179.63672 C 429.80973 176.34133 431.38942 170.93999 432.38477 167.64453 C 433.38894 164.31989 434.74015 158.92415 435.40234 155.59766 C 436.58703 149.64638 437.25556 146.98965 437.02734 145.36328 C 436.91323 144.5501 436.44746 143.97276 435.81055 143.65625 C 435.17363 143.33974 434.39024 143.17356 433.35156 142.85742 C 431.1995 142.20241 426.56642 141.15443 422.97266 140.50195 C 419.42705 139.85822 413.79758 138.5038 410.5293 137.50977 C 407.22534 136.50488 401.151 134.70264 397.02344 133.50195 C 391.85501 131.99847 387.03236 130.46389 383.36719 129.18359 C 381.5346 128.54345 379.99111 127.96764 378.84375 127.49219 C 377.69639 127.01674 376.89935 126.5826 376.76367 126.46289 C 376.0955 125.87336 375.03697 125.5 374.11914 125.5 C 374.04966 125.5 373.7254 125.44709 373.31641 125.33203 C 372.90742 125.21697 372.38842 125.04716 371.80273 124.83594 C 370.63136 124.41348 369.19116 123.8276 367.77734 123.18359 C 364.91069 121.8778 361.47792 120.47207 360.03125 120.02344 C 358.98805 119.69993 355.68066 118.26598 351.31445 116.26367 C 346.94824 114.26137 341.47016 111.67496 335.88477 108.98828 C 324.71398 103.61492 313.0897 97.824671 309.13477 95.535156 C 299.89886 90.188482 287.03365 82.6068 284.2168 80.851562 C 282.24406 79.622307 279.29008 77.875079 277.625 76.953125 C 274.0065 74.949568 265.13579 69.317522 259.45117 65.410156 L 254.98242 62.339844 z M 254.91992 63.509766 L 258.88477 66.234375 C 264.59969 70.162571 273.43431 75.775946 277.14062 77.828125 C 278.77554 78.733377 281.73422 80.484041 283.6875 81.701172 C 286.56648 83.495122 299.39064 91.050093 308.63281 96.400391 C 312.68912 98.748592 324.27183 104.51315 335.45117 109.89062 C 341.04084 112.57936 346.52181 115.16764 350.89648 117.17383 C 355.27116 119.18002 358.48541 120.59059 359.73633 120.97852 C 361.03966 121.3827 364.52349 122.80108 367.36133 124.09375 C 368.79977 124.74897 370.25989 125.34349 371.46289 125.77734 C 372.06439 125.99427 372.60112 126.17007 373.04492 126.29492 C 373.48873 126.41978 373.81351 126.5 374.11914 126.5 C 374.70181 126.5 375.72669 126.88042 376.10352 127.21289 C 376.53511 127.59369 377.28503 127.92874 378.46094 128.41602 C 379.63685 128.90329 381.19299 129.48473 383.03711 130.12891 C 386.72535 131.41725 391.56079 132.95312 396.74414 134.46094 C 400.86658 135.66013 406.94224 137.46432 410.23828 138.4668 C 413.57 139.48012 419.19053 140.82997 422.79492 141.48438 C 426.35116 142.13004 431.00823 143.1898 433.06055 143.81445 C 434.13342 144.141 434.9157 144.32934 435.36523 144.55273 C 435.81477 144.77613 435.956 144.92395 436.03711 145.50195 C 436.19933 146.65795 435.60841 149.4418 434.42188 155.40234 C 433.77023 158.67585 432.41702 164.08011 431.42773 167.35547 C 430.42964 170.66001 428.84945 176.05867 427.91406 179.36328 C 426.03939 185.98633 421.40555 200.06767 416.99805 212.9043 C 414.7943 219.32261 412.6477 225.43285 410.92773 230.15039 C 410.06775 232.50916 409.31317 234.52047 408.71484 236.04492 C 408.11652 237.56938 407.65362 238.63518 407.45117 238.98633 C 407.15762 239.49551 406.89873 240.07288 406.70703 240.61133 C 406.51534 241.14978 406.38281 241.62614 406.38281 242.04883 C 406.38281 242.0331 406.32939 242.36346 406.20312 242.76562 C 406.07686 243.16779 405.88969 243.69409 405.6582 244.30078 C 405.19523 245.51416 404.55333 247.05008 403.84766 248.60547 C 402.42761 251.73539 400.87833 255.18849 400.39648 256.30078 C 387.95234 285.02669 371.27096 316.01364 355.44922 339.79688 C 350.01754 347.96178 335.79563 366.9667 330.52344 373.11133 C 307.07091 400.44479 286.35014 419.31698 260.98242 436.45117 C 259.30671 437.583 257.68431 438.6111 256.42773 439.35156 C 255.79945 439.72179 255.26045 440.02029 254.86133 440.2207 C 254.66177 440.32091 254.49714 440.39758 254.38086 440.44336 C 254.26458 440.48914 254.16518 440.48918 254.26758 440.49023 C 254.33422 440.49096 254.26689 440.49037 254.17578 440.45703 C 254.08467 440.42369 253.95431 440.36734 253.79492 440.29102 C 253.47615 440.13836 253.04138 439.90472 252.51953 439.60742 C 251.47582 439.01283 250.07555 438.15792 248.45703 437.12695 C 245.22 435.06502 241.10639 432.30359 237.17188 429.51367 C 218.67003 416.39421 189.21688 387.25485 170.15625 363.18945 C 161.97101 352.855 150.16625 336.01379 146.35547 329.25391 C 144.48807 325.94136 141.76748 321.4472 140.28125 319.22266 C 137.79642 315.50343 132.39426 305.62119 126.7793 294.76562 C 121.16434 283.91006 115.31674 272.05073 111.875 264.29688 C 110.4091 260.99436 108.5796 256.9469 107.80273 255.28711 C 105.35269 250.05253 100.5913 238.44118 99.005859 233.83789 C 98.150437 231.3542 96.059759 225.50551 94.355469 220.82812 C 89.220967 206.73657 83.568376 189.0995 79.304688 174.46094 C 77.172843 167.14166 75.388186 160.57077 74.189453 155.57227 C 73.590087 153.07301 73.137107 150.96664 72.861328 149.36328 C 72.585549 147.75992 72.513992 146.60292 72.580078 146.25977 C 72.582904 146.24509 72.775181 145.94739 73.412109 145.5957 C 74.049038 145.24402 75.057668 144.82288 76.482422 144.33008 C 79.331929 143.34448 83.845242 142.06348 90.519531 140.31836 C 114.09461 134.1542 126.12181 130.43044 133.74414 126.91016 C 134.58978 126.51961 135.52102 126.1612 136.32422 125.9043 C 137.12742 125.64739 137.84116 125.5 138.08398 125.5 C 139.01708 125.5 140.09187 125.12897 140.76367 124.53516 C 140.91725 124.39941 141.55884 124.01487 142.34961 123.63281 C 143.14038 123.25075 144.11159 122.83304 145.05859 122.47852 C 160.33082 116.7611 185.8337 104.261 207.13281 92.060547 C 215.65693 87.177802 223.78131 82.558415 225.12109 81.832031 C 226.57658 81.042919 232.15189 77.531223 237.65625 73.949219 C 243.1496 70.374377 249.37864 66.509817 251.40625 65.412109 L 254.91992 63.509766 z M 254.86719 113.57617 C 254.52462 113.59493 254.23302 113.66672 253.9043 113.70508 C 252.00797 113.92637 250.53606 115.18027 249.56836 117.29102 C 248.84473 118.86941 246.61091 122.72025 244.6582 125.72852 C 239.17344 134.17814 237.50014 136.93008 226.41211 155.74609 C 223.57704 160.5571 220.86541 165.09956 218.7832 168.54102 C 217.7421 170.26174 216.85849 171.70661 216.19531 172.77148 C 215.53213 173.83636 215.05718 174.56001 214.95508 174.68945 C 214.58244 175.16188 213.96492 176.14447 213.20703 177.41992 C 212.44915 178.69537 211.56993 180.24295 210.74805 181.76172 C 209.12185 184.7668 206.41874 189.2707 204.77148 191.7207 C 201.84569 196.07232 200.18716 198.63135 186.29297 220.23047 C 181.47794 227.71563 179.02298 231.53864 177.75586 233.7168 C 177.1223 234.80588 176.78048 235.48619 176.5918 236.03125 C 176.40311 236.57631 176.38281 236.99007 176.38281 237.39648 C 176.38281 238.3311 177.00471 239.10728 177.97852 239.54492 C 178.95232 239.98257 180.29935 240.19243 182.06445 240.23242 C 185.59467 240.31241 190.79644 239.68252 197.71289 238.35742 C 199.13371 238.08521 200.53424 237.90372 201.62891 237.83008 C 202.17624 237.79326 202.64933 237.78311 202.99805 237.80078 C 203.28897 237.81552 203.4179 237.86198 203.45117 237.86328 C 203.45498 237.90312 203.45912 237.92658 203.45508 238.00195 C 203.44198 238.24618 203.36915 238.64459 203.23242 239.14844 C 202.95897 240.15613 202.43982 241.59857 201.71875 243.37109 C 200.27662 246.91614 198.02684 251.79029 195.28906 257.33594 C 189.8135 268.42723 182.38777 282.21561 175.55664 293.54688 C 173.01488 297.76307 170.73943 301.78513 169.11914 304.87891 C 168.309 306.42579 167.66249 307.74029 167.22461 308.73828 C 167.00567 309.23728 166.83955 309.65489 166.72852 309.99609 C 166.61748 310.33729 166.52359 310.55048 166.58984 310.89844 C 166.66875 311.31279 166.85983 311.70943 167.1875 312.01562 C 167.51517 312.32182 167.95239 312.53683 168.51172 312.70312 C 169.63039 313.03572 171.28561 313.19879 173.86914 313.33008 C 181.06582 313.69579 208.31425 311.94753 219.14844 310.44531 C 223.66833 309.81861 226.14116 309.70475 227.20312 310.24609 C 227.73411 310.51676 227.9927 310.89266 228.15625 311.62891 C 228.3198 312.36516 228.32713 313.43615 228.25 314.85156 C 228.10665 317.48183 228.08534 330.4213 228.19141 343.77148 L 228.38672 368.53906 L 254.13867 368.26758 L 279.875 367.99414 L 280.38281 338.50781 L 280.87305 310.02539 L 284.35938 310.19531 C 286.51516 310.30125 293.73689 310.94903 300.33203 311.63086 C 306.96411 312.31651 318.87361 312.9028 326.85938 312.9375 C 333.27067 312.96533 336.89772 312.93587 339.01953 312.70312 C 340.08044 312.58675 340.77226 312.42948 341.2832 312.14062 C 341.79415 311.85177 342.07324 311.36928 342.16406 310.9082 C 342.23584 310.54381 342.13185 310.33596 342.01367 309.98242 C 341.8955 309.62888 341.71926 309.18975 341.48633 308.66602 C 341.02046 307.61855 340.3322 306.23289 339.4707 304.5957 C 337.74771 301.32132 335.33124 297.04771 332.63086 292.55469 C 321.15869 273.46674 319.98383 271.4284 317.78516 266.78516 C 311.80592 254.15797 308.39124 246.87519 306.55664 242.68555 C 305.63934 240.59072 305.11816 239.26491 304.87305 238.46094 C 304.75257 238.06577 304.70508 237.80141 304.69727 237.6582 C 304.75104 237.65352 304.79094 237.64724 304.87109 237.64648 C 305.13767 237.64398 305.5284 237.66734 305.99414 237.71875 C 306.92563 237.82157 308.16676 238.03005 309.47266 238.31641 C 312.84026 239.05485 317.49443 239.65224 321.58008 239.9707 C 323.6229 240.12994 325.52129 240.21881 327.04883 240.21875 C 328.57637 240.21869 329.67853 240.16811 330.37109 239.90234 C 331.10699 239.61995 331.71086 239.21861 332.01367 238.57812 C 332.31648 237.93764 332.27844 237.15919 331.98828 236.22266 C 331.40797 234.3496 329.80108 231.65973 326.94727 227.33594 C 320.92254 218.20792 315.76085 210.30201 312.10742 204.61914 C 310.28071 201.77771 308.83109 199.49123 307.83984 197.88867 C 307.34422 197.08739 306.96279 196.45716 306.70898 196.01758 C 306.58208 195.79778 306.48652 195.62496 306.42773 195.50977 C 306.39834 195.45217 306.37925 195.40834 306.37109 195.38867 C 306.36294 195.369 306.38281 195.3274 306.38281 195.49609 C 306.38281 195.22971 306.32168 195.20002 306.26562 195.08008 C 306.20957 194.96014 306.13559 194.82021 306.04297 194.65625 C 305.85773 194.32832 305.59742 193.90304 305.27734 193.40039 C 304.63718 192.39509 303.7593 191.0877 302.79297 189.71289 C 301.83417 188.3488 300.96077 187.05075 300.33203 186.06641 C 300.01766 185.57424 299.76412 185.16101 299.59375 184.86133 C 299.50856 184.71149 299.4439 184.58944 299.40625 184.50977 C 299.3686 184.43009 299.38281 184.31529 299.38281 184.51953 C 299.38281 184.35746 299.35426 184.32486 299.33203 184.26367 C 299.3098 184.20248 299.28392 184.14177 299.25195 184.07227 C 299.18802 183.93326 299.10075 183.76248 298.99023 183.55469 C 298.76921 183.13911 298.45345 182.58016 298.06641 181.91406 C 297.29232 180.58187 296.22972 178.81911 295.05859 176.94141 C 292.72115 173.19371 290.26258 169.2509 289.59766 168.18164 C 288.62575 166.61875 282.73877 156.7841 277.83398 148.52539 C 266.86494 130.05563 261.73244 121.33575 258.94922 117.23047 C 257.55761 115.17783 256.77205 114.25764 255.99414 113.83008 C 255.60518 113.6163 255.20975 113.55741 254.86719 113.57617 z M 254.92188 114.57422 C 255.14075 114.56223 255.28387 114.57878 255.51367 114.70508 C 255.97327 114.95768 256.75393 115.77639 258.12109 117.79297 C 260.85541 121.82613 266.00498 130.56442 276.97461 149.03516 C 281.88075 157.29614 287.73945 167.08904 288.74805 168.71094 C 289.41432 169.78236 291.87143 173.72284 294.20898 177.4707 C 295.37536 179.34079 296.43659 181.09681 297.20312 182.41602 C 297.58639 183.07562 297.8968 183.62742 298.10742 184.02344 C 298.21273 184.22145 298.292 184.38197 298.3418 184.49023 C 298.36669 184.54437 298.3837 184.5864 298.39062 184.60547 C 298.39755 184.62453 298.38281 184.64722 298.38281 184.51953 C 298.38281 184.79253 298.44595 184.81703 298.50195 184.93555 C 298.55796 185.05406 298.63206 185.19268 298.72461 185.35547 C 298.90971 185.68106 299.17023 186.10448 299.49023 186.60547 C 300.13024 187.60745 301.0084 188.91248 301.97461 190.28711 C 302.93328 191.65102 303.80501 192.95037 304.43359 193.9375 C 304.74789 194.43106 305.00164 194.84707 305.17188 195.14844 C 305.25699 195.29912 305.32178 195.42152 305.35938 195.50195 C 305.39697 195.58238 305.38281 195.69141 305.38281 195.49609 C 305.38281 195.69521 305.42216 195.71089 305.44727 195.77148 C 305.47238 195.83208 305.50061 195.89332 305.53711 195.96484 C 305.61011 196.1079 305.71209 196.28954 305.84375 196.51758 C 306.10707 196.97366 306.49176 197.61013 306.99023 198.41602 C 307.98718 200.02779 309.43911 202.31599 311.26758 205.16016 C 314.92452 210.84849 320.08695 218.75627 326.11328 227.88672 C 328.9559 232.19356 330.53073 234.89772 331.0332 236.51953 C 331.28444 237.33044 331.26305 237.82535 331.10938 238.15039 C 330.9557 238.47543 330.62844 238.73284 330.01367 238.96875 C 329.68737 239.09396 328.53724 239.21869 327.04883 239.21875 C 325.56042 239.21881 323.67997 239.1304 321.65625 238.97266 C 317.60881 238.65717 312.97649 238.06105 309.6875 237.33984 C 308.35121 237.04683 307.08426 236.83286 306.10352 236.72461 C 305.61314 236.67048 305.1953 236.64334 304.86133 236.64648 C 304.69434 236.64806 304.55021 236.65566 304.41211 236.67969 C 304.27401 236.70371 304.1334 236.71035 303.95117 236.89258 C 303.74187 237.10188 303.6821 237.40238 303.69531 237.69141 C 303.70852 237.98044 303.78074 238.3102 303.91602 238.75391 C 304.18657 239.64131 304.71732 240.97935 305.64062 243.08789 C 307.48724 247.30497 310.90099 254.58632 316.88086 267.21484 C 319.09015 271.88052 320.30059 273.98122 331.77344 293.07031 C 334.4653 297.54916 336.87545 301.81188 338.58594 305.0625 C 339.44118 306.68781 340.12187 308.06153 340.57227 309.07422 C 340.79746 309.58056 340.96542 309.9967 341.06641 310.29883 C 341.16739 310.60095 341.15752 310.84916 341.18359 310.7168 C 341.12728 311.00267 341.08204 311.10501 340.79102 311.26953 C 340.5 311.43405 339.9131 311.59897 338.91016 311.70898 C 336.90428 311.92901 333.27149 311.96531 326.86523 311.9375 C 318.92424 311.903 307.00347 311.31573 300.43555 310.63672 C 293.83069 309.95389 286.65242 309.30755 284.4082 309.19727 L 279.89258 308.97461 L 279.38281 338.49219 L 278.89258 367.00586 L 254.12891 367.26758 L 229.37891 367.5293 L 229.19141 343.76367 C 229.08539 330.41997 229.1144 317.35841 229.24805 314.90625 C 229.32667 313.46341 229.33721 312.33224 229.13281 311.41211 C 228.92842 310.49198 228.44883 309.75949 227.65625 309.35547 C 226.07109 308.54743 223.55292 308.82542 219.01172 309.45508 C 208.30088 310.9402 180.81937 312.68079 173.91797 312.33008 C 171.3569 312.19993 169.7345 312.02291 168.79688 311.74414 C 168.32806 311.60476 168.04099 311.44392 167.87109 311.28516 C 167.70119 311.12639 167.62135 310.9687 167.57227 310.71094 C 167.59412 310.82572 167.58579 310.5952 167.67969 310.30664 C 167.77359 310.01808 167.92964 309.61954 168.14062 309.13867 C 168.56259 308.17694 169.20227 306.87811 170.00586 305.34375 C 171.61303 302.27502 173.87942 298.26364 176.41211 294.0625 C 183.26297 282.69852 190.69675 268.8974 196.18555 257.7793 C 198.92994 252.22024 201.18808 247.33308 202.64648 243.74805 C 203.37569 241.95553 203.90364 240.4922 204.19727 239.41016 C 204.34408 238.86913 204.43515 238.4263 204.45508 238.05469 C 204.46504 237.86888 204.45876 237.70057 204.41406 237.52734 C 204.36936 237.35412 204.26892 237.15055 204.06641 237.02539 C 203.7485 236.82892 203.4589 236.82351 203.04883 236.80273 C 202.63876 236.78196 202.13626 236.79343 201.5625 236.83203 C 200.41498 236.90923 198.98416 237.09747 197.52539 237.37695 C 190.64295 238.69554 185.47577 239.30918 182.08789 239.23242 C 180.39395 239.19404 179.14672 238.97349 178.38867 238.63281 C 177.63062 238.29213 177.38281 237.94004 177.38281 237.39648 C 177.38281 237.01112 177.38736 236.79002 177.53711 236.35742 C 177.68686 235.92482 177.99896 235.28678 178.61914 234.2207 C 179.8595 232.08855 182.31992 228.25441 187.13477 220.76953 C 201.02881 199.17065 202.67745 196.6255 205.59961 192.2793 C 207.28047 189.7793 209.97921 185.2832 211.62695 182.23828 C 212.44205 180.73205 213.31648 179.19174 214.06641 177.92969 C 214.81633 176.66764 215.46213 175.66312 215.74023 175.31055 C 215.9635 175.02749 216.37789 174.37184 217.04492 173.30078 C 217.71196 172.22972 218.59813 170.78162 219.64062 169.05859 C 221.72561 165.61255 224.43661 161.0679 227.27344 156.25391 C 238.36079 137.43904 240.01475 134.71584 245.49609 126.27148 C 247.47053 123.22975 249.68727 119.43059 250.47656 117.70898 C 251.35298 115.79735 252.479 114.87704 254.01953 114.69727 C 254.41027 114.65167 254.703 114.58621 254.92188 114.57422 z M 254.36914 117.14844 C 253.38683 117.57363 252.44853 118.73555 251.66016 120.47266 C 250.72987 122.52244 248.59557 126.28418 246.96484 128.74023 C 243.2278 134.36865 242.48163 135.58719 237.45508 144.25 C 235.23008 148.08462 228.68514 158.89077 222.92578 168.23828 C 220.04454 172.91459 217.3514 177.33424 215.33203 180.68945 C 214.32235 182.36706 213.48165 183.77872 212.86914 184.82422 C 212.25663 185.86972 211.89644 186.48824 211.75977 186.79883 C 211.61744 187.12228 211.0263 188.14746 210.24023 189.41016 C 209.45417 190.67286 208.45885 192.21314 207.44531 193.7207 C 205.40388 196.75718 202.30646 201.63485 200.54492 204.58789 C 199.67116 206.05268 198.76279 207.51525 198.00781 208.6875 C 197.25283 209.85975 196.61954 210.77294 196.4082 211.01758 C 195.79999 211.7216 194.57291 213.52535 192.61719 216.53906 C 190.66146 219.55277 188.00979 223.74445 184.66992 229.09961 L 179.85352 236.82227 L 188.14453 236.04492 C 192.13762 235.67027 198.11947 235.28073 201.39844 235.18164 L 206.86719 235.01562 L 206.76758 238.25 C 206.73545 239.2983 206.19737 241.3232 205.20312 243.95508 C 204.20888 246.58695 202.76781 249.85713 200.96289 253.54688 C 197.80589 260.00065 194.67513 266.40485 194.00391 267.78125 C 192.55553 270.75126 189.81986 275.90904 187.3125 280.48633 C 186.05882 282.77497 184.86165 284.92093 183.91016 286.57617 C 182.95867 288.23141 182.20247 289.45242 182.01367 289.68555 C 181.30192 290.56441 180.4958 291.90048 180.13867 292.81836 C 180.08757 292.9497 179.87005 293.37262 179.55273 293.92578 C 179.23541 294.47894 178.81058 295.18732 178.31055 296 C 177.31047 297.62536 176.00795 299.66641 174.64844 301.72461 C 173.28332 303.79129 172.0687 305.69758 171.20703 307.11133 C 170.7762 307.8182 170.43479 308.40152 170.20312 308.82617 C 170.08729 309.0385 169.99794 309.21004 169.93555 309.35156 C 169.90435 309.42232 169.8807 309.48279 169.85938 309.56055 C 169.84871 309.59942 169.83706 309.64049 169.83398 309.71289 C 169.83091 309.7853 169.81644 309.92135 169.96289 310.08789 C 170.11346 310.25913 170.19416 310.24846 170.26172 310.26758 C 170.32928 310.2867 170.38752 310.29561 170.45312 310.30469 C 170.58433 310.32283 170.74116 310.33496 170.93359 310.34375 C 171.31847 310.36132 171.84651 310.36651 172.50781 310.36133 C 173.83041 310.35096 175.67979 310.29816 177.89062 310.21484 C 182.31229 310.04821 188.17494 309.75547 194.09961 309.41602 C 200.02428 309.07656 206.01003 308.69006 210.67773 308.33594 C 213.01159 308.15888 215.01426 307.98939 216.51953 307.83789 C 217.27217 307.76214 217.90097 307.6915 218.38672 307.625 C 218.87247 307.5585 219.19291 307.50876 219.43945 307.42773 C 221.88013 306.6256 224.42716 306.33864 226.4668 306.51172 C 228.50643 306.6848 229.97274 307.35626 230.4082 308.16992 C 230.41696 308.18629 230.51492 308.4887 230.58398 308.92383 C 230.65305 309.35896 230.72026 309.95338 230.7832 310.68945 C 230.90909 312.16159 231.01831 314.20262 231.10742 316.74219 C 231.28565 321.82132 231.38281 328.89272 231.38281 337.43359 L 231.38281 365.5 L 254.38281 365.5 L 277.38281 365.5 L 277.38281 336.69922 C 277.38281 326.36293 277.4645 319.21066 277.6543 314.54492 C 277.74919 312.21205 277.87138 310.50008 278.02148 309.33594 C 278.09654 308.75386 278.18073 308.30737 278.26367 308.00195 C 278.34661 307.69653 278.45596 307.53427 278.4375 307.55273 C 278.98088 307.00935 280.38409 306.58871 282.46484 306.55078 C 284.5456 306.51286 287.27983 306.81376 290.48438 307.46289 C 294.07582 308.19039 304.66389 308.98232 314.75586 309.5 C 319.80184 309.75884 324.70605 309.94422 328.50977 310.00781 C 330.41162 310.03961 332.0373 310.04192 333.27344 310.00586 C 333.89151 309.98783 334.41152 309.96047 334.82617 309.92188 C 335.24083 309.88328 335.53157 309.8476 335.79102 309.75 C 336.30169 309.55788 336.74006 309.39889 337.06641 309.01953 C 337.39275 308.64017 337.44202 308.07483 337.26953 307.48828 C 336.92455 306.31519 335.84656 304.59478 333.75 301.23438 C 331.35029 297.38808 328.74486 293.09937 327.99023 291.75586 C 327.21013 290.367 324.34728 285.42421 321.61523 280.74805 C 314.87992 269.2199 315.04983 269.54071 310.00781 258.78711 C 305.61212 249.41199 303.17714 244.11392 301.93164 240.9375 C 301.30889 239.34929 300.98562 238.29368 300.85938 237.54688 C 300.73313 236.80007 300.78821 236.37934 300.92969 235.93359 C 301.06511 235.50691 301.19565 235.22453 301.34375 235.05078 C 301.49185 234.87703 301.65773 234.77235 302.01562 234.69336 C 302.73141 234.53538 304.15428 234.61452 306.68164 234.89258 C 314.58675 235.76228 319.67542 236.28486 322.83789 236.5293 C 324.41913 236.65151 325.51542 236.70508 326.26172 236.69531 C 326.63487 236.69043 326.91807 236.67248 327.15234 236.62891 C 327.38662 236.58534 327.6236 236.56466 327.81445 236.25586 C 327.98051 235.98717 327.89861 235.87498 327.87695 235.77734 C 327.8553 235.67971 327.82265 235.59138 327.7832 235.49219 C 327.7043 235.29379 327.58912 235.05381 327.43555 234.75781 C 327.12841 234.16581 326.67085 233.36269 326.09375 232.39648 C 324.93954 230.46407 323.30844 227.883 321.4707 225.10938 C 317.80425 219.57573 312.52201 211.48628 309.73828 207.14062 C 306.95165 202.79043 303.80665 197.8804 302.75 196.23047 C 299.5762 191.27458 298.90142 190.16224 296.92773 186.63672 C 295.86451 184.73751 292.61063 179.52481 289.66016 174.98633 C 288.18912 172.72355 286.85215 170.60486 285.88477 169.01758 C 285.40107 168.22394 285.0091 167.5629 284.74219 167.08789 C 284.60873 166.85039 284.50585 166.65855 284.44141 166.52734 C 284.40919 166.46174 284.38709 166.41052 284.37695 166.38477 C 284.36681 166.35901 284.38281 166.32147 284.38281 166.46875 C 284.38281 166.15982 284.29261 166.05182 284.1875 165.82812 C 284.08239 165.60443 283.93874 165.3385 283.76367 165.03516 C 283.41353 164.42847 282.9387 163.67959 282.41406 162.92383 C 281.32522 161.3553 277.01338 154.25009 273.01953 147.53125 C 271.02261 144.17183 269.09733 140.89836 267.67188 138.43164 C 266.95915 137.19828 266.37037 136.16639 265.96289 135.42969 C 265.75915 135.06134 265.6007 134.76532 265.49609 134.56055 C 265.44379 134.45816 265.40438 134.37674 265.38281 134.32812 C 265.37203 134.30382 265.36519 134.28698 265.36523 134.28711 C 265.36528 134.28724 265.38281 134.27819 265.38281 134.41016 C 265.38281 134.19989 265.3457 134.19896 265.32227 134.14258 C 265.29883 134.0862 265.27165 134.02897 265.23828 133.96289 C 265.17155 133.83073 265.07937 133.66443 264.96289 133.45898 C 264.72994 133.04808 264.39762 132.48656 263.98828 131.8125 C 263.16959 130.46438 262.04404 128.66399 260.80469 126.73047 C 259.57162 124.80676 258.45 122.9516 257.64062 121.52148 C 257.23594 120.80643 256.90855 120.19661 256.6875 119.74414 C 256.57698 119.5179 256.49344 119.33068 256.44141 119.19727 C 256.38937 119.06385 256.38281 118.94799 256.38281 119.04883 C 256.38281 118.3083 256.24717 117.73306 255.85938 117.34766 C 255.47158 116.96226 254.8603 116.93584 254.36914 117.14844 z M 255.1543 118.05664 C 255.23647 118.13831 255.38281 118.44837 255.38281 119.04883 C 255.38281 119.27764 255.44139 119.38522 255.50977 119.56055 C 255.57814 119.73587 255.67107 119.94207 255.78906 120.18359 C 256.02505 120.66664 256.35859 121.28952 256.76953 122.01562 C 257.59141 123.46783 258.72096 125.33199 259.96289 127.26953 C 261.19854 129.19726 262.3222 130.994 263.13477 132.33203 C 263.54105 133.00105 263.86967 133.55592 264.09375 133.95117 C 264.20579 134.1488 264.29203 134.30777 264.3457 134.41406 C 264.37254 134.46721 264.391 134.5075 264.39844 134.52539 C 264.40588 134.54328 264.38281 134.59363 264.38281 134.41016 C 264.38281 134.55931 264.40754 134.57832 264.42188 134.61914 C 264.43621 134.65996 264.45138 134.6952 264.46875 134.73438 C 264.5035 134.81272 264.5485 134.9041 264.60547 135.01562 C 264.71942 135.23868 264.8813 135.53859 265.08789 135.91211 C 265.50108 136.65914 266.09025 137.69532 266.80469 138.93164 C 268.23356 141.40427 270.1617 144.68097 272.16016 148.04297 C 276.15706 154.76696 280.40546 161.78517 281.5918 163.49414 C 282.10166 164.22861 282.56675 164.96045 282.89844 165.53516 C 283.06428 165.82251 283.19728 166.07105 283.2832 166.25391 C 283.36912 166.43676 283.38281 166.62656 283.38281 166.46875 C 283.38281 166.65382 283.4187 166.68239 283.44531 166.75 C 283.47193 166.81761 283.50546 166.88646 283.54492 166.9668 C 283.62384 167.12748 283.73249 167.3295 283.87109 167.57617 C 284.1483 168.06951 284.5439 168.73747 285.03125 169.53711 C 286.00595 171.13639 287.3467 173.2615 288.82227 175.53125 C 291.765 180.05783 295.03611 185.30554 296.05469 187.125 C 298.03212 190.65722 298.73245 191.8106 301.9082 196.76953 C 302.96494 198.4196 306.10984 203.32947 308.89648 207.67969 C 311.68605 212.03446 316.96665 220.123 320.63672 225.66211 C 322.46725 228.42486 324.09397 230.99757 325.23633 232.91016 C 325.80751 233.86645 326.25849 234.65913 326.54883 235.21875 C 326.64816 235.41021 326.69876 235.5297 326.75781 235.66016 C 326.61807 235.67535 326.49118 235.69216 326.25 235.69531 C 325.56535 235.70427 324.48173 235.65437 322.91406 235.5332 C 319.77872 235.29086 314.69305 234.7678 306.79102 233.89844 C 304.24991 233.61887 302.81697 233.49251 301.80078 233.7168 C 301.29269 233.82894 300.87391 234.05991 300.58203 234.40234 C 300.29015 234.74478 300.1272 235.15626 299.97656 235.63086 C 299.79607 236.19953 299.72656 236.84638 299.87305 237.71289 C 300.01953 238.5794 300.36541 239.68434 301 241.30273 C 302.26917 244.53953 304.70667 249.8353 309.10352 259.21289 C 314.14517 269.96571 314.01698 269.72438 320.75195 281.25195 C 323.48263 285.92579 326.35461 290.883 327.11914 292.24414 C 327.90914 293.65063 330.49801 297.91192 332.90234 301.76562 C 334.99695 305.12289 336.06032 306.91865 336.31055 307.76953 C 336.43566 308.19497 336.39505 308.26669 336.30859 308.36719 C 336.22214 308.46769 335.92625 308.63132 335.43945 308.81445 C 335.39197 308.83232 335.11488 308.89036 334.73438 308.92578 C 334.35387 308.9612 333.84904 308.98821 333.24414 309.00586 C 332.03435 309.04115 330.42008 309.03946 328.52734 309.00781 C 324.74187 308.94453 319.84399 308.76035 314.80664 308.50195 C 304.73195 307.98516 294.03124 307.16054 290.68359 306.48242 C 287.4298 305.82332 284.63921 305.51083 282.44727 305.55078 C 280.25532 305.59073 278.6395 305.93667 277.73047 306.8457 C 277.49281 307.08337 277.39944 307.36254 277.29688 307.74023 C 277.19431 308.11793 277.10785 308.59783 277.0293 309.20703 C 276.8722 310.42543 276.7498 312.1561 276.6543 314.50391 C 276.46329 319.19952 276.38281 326.35772 276.38281 336.69922 L 276.38281 364.5 L 254.38281 364.5 L 232.38281 364.5 L 232.38281 337.43359 C 232.38281 328.88505 232.28439 321.80576 232.10547 316.70703 C 232.01601 314.15767 231.90767 312.10483 231.7793 310.60352 C 231.71511 309.85286 231.6456 309.24185 231.57031 308.76758 C 231.49503 308.2933 231.44074 307.98263 231.28906 307.69922 C 230.56334 306.34321 228.75148 305.70042 226.55078 305.51367 C 224.35008 305.32693 221.69495 305.63453 219.12695 306.47852 C 219.05437 306.50237 218.71608 306.57096 218.25 306.63477 C 217.78392 306.69857 217.1654 306.76872 216.41992 306.84375 C 214.92896 306.99381 212.93061 307.16315 210.60156 307.33984 C 205.94347 307.69324 199.96279 308.07879 194.04297 308.41797 C 188.12315 308.75715 182.26439 309.04861 177.85352 309.21484 C 175.64808 309.29796 173.8037 309.35111 172.5 309.36133 C 171.88329 309.36616 171.4097 309.35784 171.06055 309.34375 C 171.06952 309.32713 171.07066 309.32195 171.08008 309.30469 C 171.2975 308.90615 171.63445 308.33192 172.06055 307.63281 C 172.91275 306.2346 174.12478 304.33371 175.48438 302.27539 C 176.84957 300.20859 178.15479 298.16253 179.16211 296.52539 C 179.66577 295.70682 180.09458 294.99098 180.41992 294.42383 C 180.74527 293.85668 180.96092 293.4628 181.07031 293.18164 C 181.35516 292.44952 182.1665 291.08559 182.79102 290.31445 C 183.15728 289.86219 183.82049 288.73879 184.77734 287.07422 C 185.73419 285.40965 186.93336 283.25985 188.18945 280.9668 C 190.70164 276.3807 193.43656 271.22443 194.90234 268.21875 C 195.5722 266.84515 198.70439 260.43997 201.86133 253.98633 C 203.67643 250.27576 205.12841 246.98287 206.13867 244.30859 C 207.14893 241.63432 207.72691 239.60804 207.76758 238.28125 L 207.90039 233.98438 L 201.36914 234.18164 C 198.04811 234.282 192.07207 234.67154 188.05078 235.04883 L 181.76953 235.63867 L 185.51758 229.62891 C 188.85563 224.27666 191.50705 220.08885 193.45703 217.08398 C 195.40701 214.07912 196.68682 212.22655 197.16602 211.67188 C 197.50363 211.28107 198.08706 210.41251 198.84961 209.22852 C 199.61215 208.04452 200.52262 206.57634 201.40234 205.10156 C 203.14781 202.17546 206.2494 197.29282 208.27539 194.2793 C 209.29556 192.76186 210.29624 191.21425 211.08984 189.93945 C 211.88345 188.66465 212.45508 187.70272 212.67578 187.20117 C 212.72063 187.09926 213.12138 186.36778 213.73047 185.32812 C 214.33956 184.28847 215.18103 182.8806 216.18945 181.20508 C 218.20631 177.85404 220.89771 173.43541 223.77734 168.76172 C 229.53977 159.40923 236.07746 148.61538 238.32031 144.75 C 243.34572 136.08915 244.06455 134.91723 247.79883 129.29297 C 249.46676 126.78087 251.59359 123.03882 252.57031 120.88672 C 253.29669 119.2862 254.24221 118.29296 254.76562 118.06641 C 255.02733 117.95313 255.07212 117.97497 255.1543 118.05664 z "
         style="color:#000000;font-style:normal;font-variant:normal;font-weight:normal;font-stretch:normal;font-size:medium;line-height:normal;font-family:sans-serif;font-variant-ligatures:normal;font-variant-position:normal;font-variant-caps:normal;font-variant-numeric:normal;font-variant-alternates:normal;font-variant-east-asian:normal;font-feature-settings:normal;font-variation-settings:normal;text-indent:0;text-align:start;text-decoration:none;text-decoration-line:none;text-decoration-style:solid;text-decoration-color:#000000;letter-spacing:normal;word-spacing:normal;text-transform:none;writing-mode:lr-tb;direction:ltr;text-orientation:mixed;dominant-baseline:auto;baseline-shift:baseline;text-anchor:start;white-space:normal;shape-padding:0;shape-margin:0;inline-size:0;clip-rule:nonzero;display:inline;overflow:visible;visibility:visible;isolation:auto;mix-blend-mode:normal;color-interpolation:sRGB;color-interpolation-filters:linearRGB;solid-color:#000000;solid-opacity:1;vector-effect:none;fill-opacity:1;fill-rule:nonzero;stroke-width:1;stroke-linecap:butt;stroke-linejoin:miter;stroke-miterlimit:4;stroke-dasharray:none;stroke-dashoffset:0;stroke-opacity:1.0;color-rendering:auto;image-rendering:auto;shape-rendering:auto;text-rendering:auto;enable-background:accumulate;stop-color:#000000;stop-opacity:1;stroke:none;" />
    </g>
  </g>
</svg>
