<?xml version="1.0" encoding="UTF-8" standalone="no"?>
<svg
   xmlns:dc="http://purl.org/dc/elements/1.1/"
   xmlns:cc="http://creativecommons.org/ns#"
   xmlns:rdf="http://www.w3.org/1999/02/22-rdf-syntax-ns#"
   xmlns:svg="http://www.w3.org/2000/svg"
   xmlns="http://www.w3.org/2000/svg"
   xmlns:sodipodi="http://sodipodi.sourceforge.net/DTD/sodipodi-0.dtd"
   xmlns:inkscape="http://www.inkscape.org/namespaces/inkscape"
   version="1.1"
   id="svg10"
   width="500"
   height="500"
   viewBox="0 0 500 500"
   sodipodi:docname="Firewatch.svg"
   inkscape:version="1.0 (4035a4fb49, 2020-05-01)">
  <metadata
     id="metadata16">
    <rdf:RDF>
      <cc:Work
         rdf:about="">
        <dc:format>image/svg+xml</dc:format>
        <dc:type
           rdf:resource="http://purl.org/dc/dcmitype/StillImage" />
        <dc:title />
      </cc:Work>
    </rdf:RDF>
  </metadata>
  <defs
     id="defs14" />
  <sodipodi:namedview
     inkscape:document-rotation="0"
     pagecolor="#ffffff"
     bordercolor="#666666"
     borderopacity="1"
     objecttolerance="10"
     gridtolerance="10"
     guidetolerance="10"
     inkscape:pageopacity="0"
     inkscape:pageshadow="2"
     inkscape:window-width="1366"
     inkscape:window-height="705"
     id="namedview12"
     showgrid="false"
     inkscape:zoom="1.03"
     inkscape:cx="250"
     inkscape:cy="250"
     inkscape:window-x="-8"
     inkscape:window-y="-8"
     inkscape:window-maximized="1"
     inkscape:current-layer="g18" />
  <g
     inkscape:groupmode="layer"
     inkscape:label="Image"
     id="g18">
    <g
       transform="matrix(0.71161602,0,0,0.71161602,4.4347218,1.0094039)"
       id="g24"
       style="opacity:1">
      <path
         style="color:#000000;font-style:normal;font-variant:normal;font-weight:normal;font-stretch:normal;font-size:medium;line-height:normal;font-family:sans-serif;font-variant-ligatures:normal;font-variant-position:normal;font-variant-caps:normal;font-variant-numeric:normal;font-variant-alternates:normal;font-variant-east-asian:normal;font-feature-settings:normal;font-variation-settings:normal;text-indent:0;text-align:start;text-decoration:none;text-decoration-line:none;text-decoration-style:solid;text-decoration-color:#000000;letter-spacing:normal;word-spacing:normal;text-transform:none;writing-mode:lr-tb;direction:ltr;text-orientation:mixed;dominant-baseline:auto;baseline-shift:baseline;text-anchor:start;white-space:normal;shape-padding:0;shape-margin:0;inline-size:0;clip-rule:nonzero;display:inline;overflow:visible;visibility:visible;isolation:auto;mix-blend-mode:normal;color-interpolation:sRGB;color-interpolation-filters:linearRGB;solid-color:#000000;solid-opacity:1;vector-effect:none;fill:#000000;fill-opacity:1;fill-rule:nonzero;stroke:none;stroke-width:1;stroke-linecap:butt;stroke-linejoin:miter;stroke-miterlimit:4;stroke-dasharray:none;stroke-dashoffset:0;stroke-opacity:1;color-rendering:auto;image-rendering:auto;shape-rendering:auto;text-rendering:auto;enable-background:accumulate;stop-color:#000000;stop-opacity:1"
         d="m 245.88349,492.61197 c -2.475,-1.30882 -6.075,-3.22613 -8,-4.26069 -7.1626,-3.84945 -37.01795,-24.27775 -40,-27.36971 -0.275,-0.28513 -3.425,-2.92425 -7,-5.8647 -12.08223,-9.93769 -37.90458,-35.75669 -50.15483,-50.14835 C 129.00033,391.19002 105.34902,357.14447 94.205891,338 69.939981,296.30993 48.517871,244.31928 32.400211,188 c -1.81011,-6.325 -3.60381,-13.075 -3.98599,-15 -0.38218,-1.925 -1.09222,-4.85 -1.57786,-6.5 -4.43869,-15.08081 -10.69869,-49.74815 -10.86848,-60.18873 l -0.0844,-5.18872 4.25,-0.51608 c 2.3375,-0.28383 9.78418,-0.775293 16.54818,-1.092126 19.95652,-0.934784 41.90563,-5.200878 60.20182,-11.701004 4.674999,-1.660897 9.624999,-3.261508 10.999999,-3.556914 2.69364,-0.578704 22.87518,-8.598343 26.99476,-10.727045 1.37788,-0.711991 4.98024,-2.42908 8.00524,-3.815753 3.025,-1.386673 8.90045,-4.139515 13.05655,-6.117426 C 160.09614,61.618291 163.80191,60 164.17507,60 c 1.08412,0 33.42541,-18.718226 42.20841,-24.429035 4.4,-2.860931 10.475,-6.741431 13.5,-8.623334 3.025,-1.881903 11.54446,-7.81499 18.93214,-13.184637 C 246.2033,8.3933475 253.23975,4 254.45219,4 c 1.21243,0 6.94281,3.5338435 12.73416,7.852985 9.25647,6.903387 24.89144,17.67498 29.94078,20.627459 0.959,0.560756 6.51308,3.944556 12.34239,7.519556 19.04939,11.682606 30.8508,17.891233 59.79144,31.455794 23.21081,10.878975 53.30309,21.059589 71.12252,24.061684 4.4,0.741281 10.25,1.821295 13,2.400029 2.75,0.578734 11.75,1.312478 20,1.630541 19.67611,0.758572 19.5,0.715252 19.5,4.796932 0,6.91457 -5.44987,40.32261 -8.01869,49.15502 -0.47988,1.65 -2.52272,9.975 -4.53963,18.5 -3.82014,16.1468 -5.56469,21.98459 -15.98774,53.5 -5.98105,18.08447 -7.83698,23.17197 -10.94402,30 -0.75082,1.65 -2.11884,5.25 -3.04004,8 -3.51906,10.50523 -19.28661,44.3683 -27.9376,60 -15.99919,28.90934 -41.5573,67.36844 -53.17729,80.01961 -1.02024,1.11078 -3.60477,4.03578 -5.7434,6.5 -9.85636,11.35693 -35.54584,36.71821 -46.08968,45.50086 -3.28795,2.73874 -6.66295,5.57732 -7.5,6.30796 -5.47875,4.78221 -24.04635,17.22095 -39.61019,26.53552 -12.8067,7.66448 -16.67739,8.33804 -24.41172,4.24802 z m 14,-2.38948 c 4.97694,-2.49711 5.58369,-2.85448 15.21774,-8.96304 3.69476,-2.3427 6.98121,-4.25945 7.30323,-4.25945 0.32201,0 3.82403,-2.38116 7.78226,-5.29146 3.95822,-2.9103 8.77177,-6.25548 10.69677,-7.43373 1.925,-1.17825 4.40346,-2.95959 5.5077,-3.95854 1.10423,-0.99895 5.82923,-5.04594 10.5,-8.99332 8.51832,-7.19903 39.7898,-38.45485 47.84692,-47.82295 5.04328,-5.86388 17.68519,-22.68771 24.95484,-33.20986 4.25011,-6.15166 16.19054,-24.44886 16.19054,-24.80998 0,-0.15167 1.73261,-3.13424 3.85025,-6.62796 6.83556,-11.27744 21.11037,-38.57231 26.38342,-50.44778 0.95353,-2.14743 3.13226,-7.05442 4.84165,-10.90442 1.70938,-3.85 4.24284,-10.15 5.62992,-14 1.38708,-3.85 3.44177,-9.025 4.566,-11.5 3.40151,-7.48851 15.03649,-41.01034 18.04849,-52 0.82908,-3.025 1.96547,-6.85 2.52532,-8.5 1.70356,-5.02085 5.17773,-17.73042 6.15039,-22.5 0.50472,-2.475 1.87188,-8.55 3.03813,-13.5 3.80991,-16.17068 8.75051,-43.88428 8.93371,-50.11232 0.0386,-1.31132 -5.69506,-2.06075 -26.29426,-3.43687 -8.34516,-0.5575 -16.52302,-1.42821 -18.17302,-1.93491 -1.65,-0.50671 -6.6,-1.611017 -11,-2.45402 -9.38032,-1.79719 -22.5158,-5.35283 -23.97769,-6.490512 -0.56227,-0.437576 -2.37231,-1.107464 -4.02231,-1.48864 -7.7092,-1.780945 -24.63003,-8.51679 -43.0022,-17.118325 -25.73485,-12.048613 -37.47793,-18.186922 -51.269,-26.799191 -4.54916,-2.840867 -9.44972,-5.782494 -10.89014,-6.536949 -1.44043,-0.754455 -6.17327,-3.791955 -10.51744,-6.75 C 286.36054,29.420218 282.5637,27 282.26729,27 c -0.2964,0 -5.65695,-3.825 -11.91231,-8.5 -6.25537,-4.675 -11.84547,-8.5 -12.42244,-8.5 -0.57698,0 -1.04905,-0.401855 -1.04905,-0.8930112 0,-0.4911562 -0.69787,-1.1608084 -1.55082,-1.4881162 -1.33937,-0.5139665 -7.75951,3.7505884 -20.94914,13.9153974 -1.09998,0.847717 -6.41002,4.336799 -11.80009,7.753517 -5.39008,3.416717 -13.94009,8.872637 -19.00004,12.124266 -5.05995,3.251629 -11.22491,6.981201 -13.69991,8.287939 -2.475,1.306738 -6.75,3.70056 -9.5,5.319604 -9.28321,5.465432 -41.03776,20.591413 -54.5,25.960564 -31.751319,12.663398 -52.039939,18.216274 -73.499999,20.11652 -6.05,0.53572 -16.10863,1.46681 -22.35253,2.0691 l -11.35253,1.09507 0.66053,6.61957 c 0.36328,3.64077 1.04895,7.96958 1.52371,9.61958 0.47476,1.65 1.1391,5.7 1.47632,9 0.33722,3.3 1.47555,9.6 2.52963,14 1.05407,4.4 3.06191,12.95 4.46186,19 1.39996,6.05 2.98082,12.575 3.51303,14.5 0.53221,1.925 2.13768,7.775 3.56772,13 1.43003,5.225 2.96777,10.4 3.4172,11.5 0.44942,1.1 3.83994,11.225 7.53449,22.5 5.95289,18.16698 7.89867,23.4885 12.98031,35.5 0.69806,1.65 2.5362,6.28601 4.08475,10.30224 1.54856,4.01623 3.18454,7.53029 3.63553,7.80902 0.45099,0.27873 0.81998,1.16439 0.81998,1.96813 0,2.0286 10.20422,23.69154 16.77384,35.60985 1.72482,3.12908 4.50264,8.30408 6.17294,11.5 1.67031,3.19592 4.15388,7.61076 5.51906,9.81076 1.36517,2.2 3.227609,5.35 4.138739,7 2.37561,4.30207 12.61054,19.75649 14.12046,21.32143 0.70123,0.72678 1.27496,1.69079 1.27496,2.14224 0,0.68254 22.03467,30.65755 25.83426,35.14381 12.06888,14.24999 34.17585,36.45384 50.19629,50.41628 5.41666,4.72083 25.55172,19.50024 35.24465,25.87005 8.81448,5.79253 25.68161,14.86809 26.68664,14.35906 0.29599,-0.14991 2.56316,-1.28858 5.03816,-2.53038 z m -9,-46.93229 c -2.23991,-0.82414 -14.78863,-9.75439 -26.3096,-18.72314 -11.30386,-8.79973 -37.31627,-34.43066 -48.27873,-47.5707 -10.1194,-12.12954 -24.19337,-31.15985 -29.96468,-40.51716 -2.72085,-4.41144 -5.50102,-8.91144 -6.17817,-10 -6.55115,-10.53139 -10.01543,-16.83477 -19.22428,-34.9792 -5.86198,-11.55 -12.06034,-24.15 -13.77415,-28 -1.7138,-3.85 -4.27573,-9.60084 -5.69319,-12.77964 -1.41746,-3.17879 -2.577199,-6.2224 -2.577199,-6.76356 0,-0.54117 -0.43665,-1.76533 -0.97034,-2.72037 -1.38486,-2.4782 -11.02966,-28.8611 -11.02966,-30.17111 0,-0.60085 -0.41699,-1.87385 -0.92665,-2.82889 -1.03873,-1.94642 -5.7902,-16.8347 -9.01144,-28.23643 -1.1654,-4.125 -2.79402,-9.5478 -3.61916,-12.05067 -1.73247,-5.25506 -3.38978,-13.37463 -4.12507,-20.20974 -0.50911,-4.73255 -0.4896,-4.77008 3.33511,-6.41349 2.11597,-0.9092 6.54721,-2.22152 9.84721,-2.91626 7.16695,-1.50883 19.808319,-4.72418 24.575219,-6.25073 17.41167,-5.57591 25.42405,-8.45896 32.57591,-11.72159 1.73312,-0.79063 3.78062,-1.43752 4.55,-1.43752 0.76938,0 1.82637,-0.37788 2.34887,-0.83972 0.5225,-0.46185 2.525,-1.43393 4.45,-2.16017 4.49521,-1.6959 41.93589,-20.086082 48.5,-23.822327 8.13309,-4.629296 12.81217,-7.346538 16,-9.291559 1.65,-1.006729 4.35,-2.582914 6,-3.502632 1.65,-0.919718 9.075,-5.515775 16.5,-10.21346 9.37115,-5.928984 14.41752,-8.530843 16.5,-8.507235 2.01909,0.02289 8.06801,3.194648 18.5,9.700504 8.525,5.316572 16.175,10.087285 17,10.601585 12.77385,7.963138 46.87372,25.807784 61.5,32.183294 3.85,1.67819 8.30664,3.68136 9.90364,4.45149 1.597,0.77013 3.31333,1.40023 3.81408,1.40023 0.50074,0 3.2857,1.08647 6.1888,2.41437 11.09438,5.07468 48.2507,16.58563 53.53694,16.58563 1.01523,0 4.85816,0.9304 8.53984,2.06756 l 6.69397,2.06755 -0.46702,5.18245 c -0.78445,8.70504 -11.84328,48.48885 -16.72909,60.18244 -0.45961,1.1 -2.4791,7.05801 -4.48776,13.24003 -2.00866,6.18201 -4.01539,11.46454 -4.45939,11.73895 -0.44401,0.27441 -1.11408,2.1343 -1.48906,4.13308 -0.37497,1.99879 -1.06874,4.36626 -1.54171,5.26105 -1.15827,2.19127 -4.48341,9.71452 -6.46481,14.62689 -6.24916,15.49315 -23.50065,49.48345 -33.98831,66.96658 -18.34163,30.57585 -36.63675,53.92 -61.93955,79.03342 -15.70858,15.591 -25.66312,23.87405 -42.01801,34.96267 -9.02389,6.1182 -11.89063,7.1896 -15.59256,5.82753 z m 10.37869,-6.42473 c 25.40421,-17.15884 46.16842,-36.0704 69.64168,-63.42803 5.31424,-6.19364 19.50602,-25.16189 24.96225,-33.3637 15.84289,-23.81502 32.53284,-54.81864 44.98963,-83.57374 0.47652,-1.1 2.02771,-4.55963 3.44708,-7.68807 1.41937,-3.12845 2.58067,-6.17205 2.58067,-6.76357 0,-0.59153 0.45049,-1.85689 1.00108,-2.81193 1.9836,-3.44066 16.74499,-46.43247 20.51072,-59.73643 0.93408,-3.3 2.51383,-8.7 3.51055,-12 0.99673,-3.3 2.34971,-8.7 3.00663,-12 2.37122,-11.91182 2.51629,-10.87796 -1.70682,-12.16333 -2.10219,-0.63983 -6.74716,-1.69438 -10.32216,-2.34345 -3.575,-0.64907 -9.2,-2.00132 -12.5,-3.005 -3.3,-1.00368 -9.375,-2.80665 -13.5,-4.00659 -10.35178,-3.0113 -19.31545,-6.14242 -20.45,-7.14344 -0.5225,-0.461 -1.56383,-0.83819 -2.31408,-0.83819 -0.75024,0 -3.69774,-1.06301 -6.55,-2.36224 -2.85225,-1.29923 -6.31092,-2.71111 -7.68592,-3.13752 -4.58823,-1.42287 -42.98876,-19.89425 -51,-24.531966 -9.23904,-5.348486 -22.08297,-12.917666 -24.93089,-14.69226 -1.96301,-1.223193 -4.91911,-2.971479 -6.56911,-3.885082 -3.66241,-2.027868 -12.51619,-7.650656 -18.21596,-11.568437 l -4.21596,-2.897875 -3.78404,2.048604 c -2.08122,1.126732 -8.28404,4.977013 -13.78404,8.55618 -5.5,3.579167 -11.125,7.117511 -12.5,7.862987 -1.375,0.745475 -9.475,5.350794 -18,10.234043 -21.27751,12.188076 -46.78086,24.686296 -62,30.383836 -1.925,0.72065 -3.9275,1.68816 -4.45,2.15001 -0.5225,0.46184 -1.57949,0.83972 -2.34887,0.83972 -0.76938,0 -2.81688,0.65489 -4.55,1.45531 -7.56224,3.49253 -19.57361,7.21779 -43.141199,13.37999 -13.35757,3.49259 -18.07076,5.12281 -18.30341,6.33085 -0.82092,4.2627 11.51636,46.6204 21.79642,74.83385 1.70342,4.675 3.79457,10.525 4.647,13 1.601319,4.64939 6.351859,16.23384 8.816689,21.5 0.77228,1.65 2.60262,5.7 4.0674,9 6.90049,15.54601 23.39721,47.43959 28.44834,55 1.46983,2.2 4.1945,6.7 6.05483,10 3.8528,6.83442 15.63956,23.6419 23.84353,34 19.09421,24.1078 48.53701,53.24412 67.11927,66.4206 7.88324,5.58992 16.47088,11.06008 17.37869,11.0699 0.48328,0.005 3.63328,-1.85104 7,-4.12503 z m -32.57148,-93.0983 c -0.10604,-13.34694 -0.0795,-26.34634 0.059,-28.88755 0.31151,-5.71649 -0.60795,-6.18518 -9.66904,-4.92881 -10.77251,1.49367 -38.13807,3.2372 -45.18711,2.87899 -5.1446,-0.26143 -6.55689,-0.68133 -6.81288,-2.02556 -0.1776,-0.93267 3.8289,-8.58267 8.90335,-17 13.68199,-22.69524 29.71897,-55.17974 27.82044,-56.3531 -0.52235,-0.32283 -3.30575,-0.13558 -6.18534,0.41611 -13.79889,2.64369 -20.73563,2.48652 -20.73563,-0.46982 0,-1.58357 0.20001,-1.92739 9.82989,-16.89743 13.89412,-21.599 15.54826,-24.15109 18.47224,-28.5 1.66406,-2.475 4.3649,-6.975 6.00187,-10 1.63698,-3.025 3.50874,-6.175 4.15948,-7 0.65074,-0.825 5.8238,-9.375 11.49569,-19 11.08769,-18.81544 12.75165,-21.55301 18.2347,-30 1.96357,-3.025 4.18905,-6.85 4.94551,-8.5 0.92206,-2.01119 2.22028,-3.09859 3.93871,-3.29912 2.87786,-0.33583 1.50468,-2.36128 23.44335,34.57922 4.90546,8.25985 10.77812,18.07359 11.76837,19.66598 0.6656,1.07034 3.12269,5.01244 5.46019,8.76022 2.3375,3.74779 4.25,7.03917 4.25,7.31418 0,0.27502 1.575,2.7408 3.5,5.47952 1.925,2.73872 3.5,5.21208 3.5,5.49636 0,0.48684 8.5952,13.85659 20.64626,32.11506 5.69643,8.63063 6.36444,10.78676 3.66311,11.82336 -2.03774,0.78195 -13.95675,-0.1471 -20.61335,-1.60675 -2.64218,-0.57937 -5.01599,-0.84139 -5.27513,-0.58225 -0.62585,0.62584 1.06995,4.49851 13.02905,29.75422 2.20398,4.65446 3.39606,6.72396 14.86857,25.81248 5.39224,8.97187 9.65448,17.07187 9.47166,18 -0.29428,1.49389 -1.99374,1.68031 -14.8113,1.62467 -7.96338,-0.0346 -19.87887,-0.62112 -26.47887,-1.30345 -6.6,-0.68233 -13.8,-1.32904 -16,-1.43715 l -4,-0.19655 -0.5,29 -0.5,29 -25.25,0.26717 -25.25,0.26717 z M 276.88349,336.7 c 0,-20.67778 0.3232,-28.6232 1.2,-29.5 1.45242,-1.45242 6.04244,-1.53608 12.50078,-0.22785 6.93909,1.40562 42.57517,3.23361 45.03056,2.30989 1.99496,-0.7505 1.90266,-1.06437 -2.2885,-7.78204 -2.40202,-3.85 -4.99921,-8.125 -5.77152,-9.5 -0.77232,-1.375 -3.63896,-6.325 -6.37032,-11 -6.73514,-11.52786 -6.58657,-11.24679 -11.62841,-22 -8.79254,-18.75271 -9.74758,-21.18836 -9.10365,-23.2172 0.57211,-1.80257 1.21576,-1.94463 6.28423,-1.38701 15.80714,1.73906 20.34664,2.08993 20.65176,1.59623 0.18382,-0.29743 -2.66709,-5.07054 -6.33536,-10.60692 -3.66826,-5.53638 -8.94955,-13.62541 -11.7362,-17.97562 -2.78664,-4.35021 -5.93118,-9.25948 -6.98787,-10.90948 -3.17478,-4.95741 -3.86248,-6.09054 -5.83804,-9.61941 -1.0409,-1.85933 -4.3034,-7.08902 -7.25,-11.62155 -2.9466,-4.53253 -5.35746,-8.48825 -5.35746,-8.7905 0,-0.30224 -0.8464,-1.7688 -1.8809,-3.25903 -2.27518,-3.2775 -17.1191,-28.2494 -17.1191,-28.79944 0,-0.21429 -2.025,-3.54882 -4.5,-7.41007 -2.475,-3.86125 -4.5,-7.4393 -4.5,-7.95121 0,-2.68197 -2.25407,-1.7063 -3.76882,1.63132 -0.9535,2.10094 -3.08308,5.85231 -4.73241,8.33639 -3.73566,5.62634 -4.46865,6.82167 -9.49463,15.4835 -2.23393,3.85 -8.77515,14.65 -14.53604,24 -5.76088,9.35 -10.77136,17.675 -11.1344,18.5 -0.36303,0.825 -2.324,3.975 -4.35771,7 -2.03371,3.025 -5.13233,7.9051 -6.88583,10.84467 -1.75349,2.93956 -3.63732,5.86456 -4.18627,6.5 -1.08741,1.2587 -5.01616,7.31279 -11.69408,18.0202 l -4.28143,6.86487 7.28581,-0.68357 c 4.00719,-0.37597 9.98581,-0.76516 13.28581,-0.86488 l 6,-0.18129 -0.11548,3.76598 c -0.0728,2.37509 -2.2354,8.09968 -5.85542,15.5 -3.15697,6.45371 -6.28857,12.85902 -6.95911,14.23402 -2.91416,5.97569 -10.9411,20.62922 -12.05122,22 -0.66813,0.825 -1.4774,2.175 -1.79839,3 -0.32099,0.825 -2.81293,4.875 -5.53764,9 -2.72471,4.125 -4.85227,7.61571 -4.72792,7.75712 0.57995,0.65955 46.39143,-1.96524 48.9444,-2.80428 5.00867,-1.64612 10.40442,-1.18825 11.5656,0.98142 0.64176,1.19914 1.03518,12.41058 1.03518,29.5 V 365 h 22.5 22.5 z"
         id="path26" />
      <path
         style="color:#000000;font-style:normal;font-variant:normal;font-weight:normal;font-stretch:normal;font-size:medium;line-height:normal;font-family:sans-serif;font-variant-ligatures:normal;font-variant-position:normal;font-variant-caps:normal;font-variant-numeric:normal;font-variant-alternates:normal;font-variant-east-asian:normal;font-feature-settings:normal;font-variation-settings:normal;text-indent:0;text-align:start;text-decoration:none;text-decoration-line:none;text-decoration-style:solid;text-decoration-color:#000000;letter-spacing:normal;word-spacing:normal;text-transform:none;writing-mode:lr-tb;direction:ltr;text-orientation:mixed;dominant-baseline:auto;baseline-shift:baseline;text-anchor:start;white-space:normal;shape-padding:0;shape-margin:0;inline-size:0;clip-rule:nonzero;display:inline;overflow:visible;visibility:visible;isolation:auto;mix-blend-mode:normal;color-interpolation:sRGB;color-interpolation-filters:linearRGB;solid-color:#000000;solid-opacity:1;vector-effect:none;fill-opacity:1;fill-rule:nonzero;stroke:none;stroke-width:1;stroke-linecap:butt;stroke-linejoin:miter;stroke-miterlimit:4;stroke-dasharray:none;stroke-dashoffset:0;stroke-opacity:1;color-rendering:auto;image-rendering:auto;shape-rendering:auto;text-rendering:auto;enable-background:accumulate;stop-color:#000000;stop-opacity:1"
         d="m 254.45312,3.5 c -0.30253,0 -0.55913,0.0959 -0.90624,0.2363281 -0.34712,0.1404277 -0.76019,0.339082 -1.24219,0.5917969 -0.96401,0.5054299 -2.19529,1.2262221 -3.61914,2.1152344 -2.84772,1.7780246 -6.46162,4.2249346 -10.16407,6.9160156 -7.38149,5.365148 -15.92004,11.308723 -18.90234,13.164063 -3.03182,1.886147 -9.10471,5.765956 -13.50781,8.628906 -4.36567,2.838606 -14.65368,8.950494 -23.96875,14.341797 -4.65754,2.695651 -9.07526,5.213047 -12.39258,7.054687 -1.65866,0.92082 -3.04321,1.672294 -4.04102,2.191406 -0.4989,0.259556 -0.90138,0.461038 -1.1875,0.59375 -0.14305,0.06636 -0.25909,0.115949 -0.33398,0.144532 -0.0749,0.02858 -0.15769,0.02148 -0.0117,0.02148 -0.22734,0 -0.28946,0.04666 -0.44922,0.09961 -0.15976,0.05295 -0.35632,0.125471 -0.59375,0.21875 -0.47485,0.186559 -1.10762,0.451862 -1.85742,0.779297 -1.4996,0.65487 -3.46844,1.555878 -5.55078,2.546875 -4.15354,1.976694 -10.02875,4.73082 -13.04883,6.115235 -3.03044,1.389168 -6.62498,3.101527 -8.02734,3.826172 -1.99146,1.029042 -8.09487,3.582708 -13.98633,5.923828 -2.94573,1.170559 -5.84793,2.291762 -8.17773,3.15625 -2.32981,0.864487 -4.13818,1.479768 -4.70508,1.601562 -1.4967,0.321551 -6.37808,1.909973 -11.062503,3.574219 -18.242353,6.480999 -40.15598,10.741569 -60.058594,11.673828 -6.771007,0.317161 -14.190857,0.802928 -16.585937,1.093758 l -4.695313,0.57031 0.0918,5.64062 c 0.08637,5.31119 1.696709,16.5651 3.839844,28.4336 2.143135,11.8685 4.818158,24.30783 7.048828,31.88671 0.47772,1.6231 1.188422,4.55317 1.566406,6.45704 0.396895,1.99911 2.184134,8.70759 3.996094,15.03906 16.127509,56.35369 37.56105,108.37954 61.853516,150.11523 11.168219,19.18758 34.797439,53.2056 46.574219,67.04102 12.28372,14.43098 38.07831,40.22537 50.21875,50.21094 1.78646,1.46937 3.46724,2.8622 4.73437,3.92382 0.63357,0.53081 1.16315,0.97899 1.55078,1.31055 0.38763,0.33157 0.66668,0.58446 0.67188,0.58984 0.84393,0.87504 3.23275,2.68365 6.56836,5.09766 3.3356,2.41402 7.57262,5.37984 11.9414,8.36914 8.73756,5.97861 17.96228,12.03391 21.61328,13.9961 1.92707,1.03567 5.52765,2.95418 8.00391,4.26367 3.90766,2.06642 6.96522,2.9705 10.62305,2.33398 3.65782,-0.63652 7.86244,-2.75538 14.27929,-6.5957 15.58179,-9.32531 34.10486,-21.72011 39.68165,-26.58789 0.81876,-0.71468 4.20354,-3.56309 7.49023,-6.30078 10.60067,-8.82999 36.25171,-34.1532 46.14844,-45.55664 2.1363,-2.46154 4.72537,-5.39169 5.73437,-6.49024 11.71441,-12.75396 37.22864,-51.17289 53.2461,-80.11523 8.67449,-15.67417 24.41546,-49.45908 27.9746,-60.08399 0.91559,-2.73325 2.28744,-6.34232 3.01954,-7.95117 3.11473,-6.84493 4.98289,-11.96358 10.96484,-30.05078 10.42361,-31.5171 12.17822,-37.3873 16,-53.54102 2.01629,-8.52236 4.07301,-16.89423 4.5332,-18.47656 1.30514,-4.48748 3.29938,-15.02633 4.98438,-25.35547 1.685,-10.32914 3.05273,-20.34885 3.05273,-23.9375 0,-1.01682 0.0393,-1.84722 -0.33203,-2.58984 -0.37136,-0.74262 -1.14771,-1.22806 -2.41992,-1.54102 -2.54442,-0.625919 -7.39077,-0.786741 -17.22852,-1.166015 -8.2344,-0.317462 -17.2978,-1.070095 -19.91601,-1.621094 -2.76717,-0.582346 -8.61267,-1.659906 -13.01953,-2.402343 C 422.73904,92.03874 392.64163,81.863274 369.47266,71.003906 340.53781,57.44206 328.76871,51.249985 309.73047,39.574219 303.90037,35.998732 298.36835,32.627387 297.37891,32.048828 292.39876,29.136811 276.72436,18.344216 267.48438,11.453125 264.57773,9.2853749 261.68995,7.3144788 259.36523,5.8808594 258.20288,5.1640497 257.18291,4.5813592 256.36328,4.171875 255.54365,3.7623908 254.99912,3.5 254.45312,3.5 Z m 0,1 c 0.0602,0 0.6861,0.1783216 1.4629,0.5664062 0.77679,0.3880847 1.77811,0.9594718 2.92382,1.6660157 2.29142,1.4130877 5.16217,3.3700931 8.04688,5.5214841 9.27296,6.915683 24.86974,17.665262 29.98828,20.658203 0.92855,0.542953 6.50547,3.939159 12.33398,7.513672 19.06055,11.689446 30.89342,17.915147 59.83985,31.482422 23.25264,10.898582 53.34085,21.084023 71.25195,24.101563 4.39314,0.740125 10.24763,1.821362 12.98047,2.396484 2.88179,0.606469 11.81644,1.321961 20.08203,1.64063 9.83836,0.37929 14.74275,0.57618 17.0293,1.13867 1.14327,0.28124 1.55317,0.59664 1.76367,1.01757 0.2105,0.42094 0.22656,1.11857 0.22656,2.14258 0,3.32593 -1.35692,13.46572 -3.03906,23.77735 -1.68214,10.31162 -3.6953,20.89335 -4.95898,25.23828 -0.49957,1.71767 -2.52934,9.9958 -4.54688,18.52344 -3.8185,16.13988 -5.55212,21.94526 -15.97461,53.45898 -5.98014,18.08174 -7.82643,23.13809 -10.92578,29.94922 -0.76955,1.69115 -2.13178,5.28208 -3.05859,8.04883 -3.47897,10.38555 -19.27291,44.32678 -27.90039,59.91601 -15.98093,28.87634 -41.58185,67.37545 -53.10743,79.92383 -1.03147,1.12301 -3.61295,4.04287 -5.7539,6.50977 -9.81599,11.31041 -35.54424,36.71 -46.03125,45.44531 -3.28921,2.73979 -6.65444,5.56785 -7.50977,6.31445 -5.38072,4.69664 -23.99122,17.18055 -39.53711,26.48438 -6.38984,3.82415 -10.52472,5.87292 -13.9375,6.46679 -3.41277,0.59388 -6.15771,-0.20882 -9.98437,-2.23242 -2.47374,-1.30815 -6.07316,-3.22631 -7.9961,-4.25976 -3.51159,-1.88727 -12.79716,-7.97052 -21.52343,-13.94141 -4.36314,-2.98545 -8.59512,-5.94731 -11.91993,-8.35352 -3.3248,-2.4062 -5.7865,-4.30952 -6.43359,-4.98046 -0.13231,-0.13718 -0.35013,-0.3209 -0.74219,-0.65625 -0.39206,-0.33536 -0.92536,-0.78424 -1.56054,-1.31641 -1.27037,-1.06433 -2.9517,-2.46056 -4.74024,-3.93164 -12.02402,-9.88981 -37.87502,-35.7336 -50.09179,-50.08594 C 129.4295,390.92295 105.75671,356.84941 94.638672,337.74805 70.399318,296.1036 48.988671,244.14815 32.880859,187.86328 c -1.80826,-6.31853 -3.609097,-13.11005 -3.976562,-14.96094 -0.386376,-1.94613 -1.094331,-4.86606 -1.587891,-6.54296 -2.20802,-7.50193 -4.884452,-19.93769 -7.023437,-31.78321 -2.138985,-11.84552 -3.740802,-23.14404 -3.824219,-28.27344 l -0.07813,-4.73828 3.802734,-0.46093 c 2.27992,-0.27684 9.754726,-0.77334 16.511719,-1.08985 20.010426,-0.937307 41.995676,-5.209261 60.345703,-11.728514 4.665574,-1.657548 9.684194,-3.269801 10.937504,-3.539062 0.77992,-0.167559 2.50319,-0.774101 4.84375,-1.642578 2.34055,-0.868477 5.24791,-1.991287 8.19922,-3.164063 5.9026,-2.345551 11.94804,-4.867137 14.07616,-5.966797 1.3534,-0.699338 4.96482,-2.420509 7.98438,-3.804687 3.02992,-1.388931 8.90384,-4.141966 13.0625,-6.121094 2.07376,-0.986914 4.03588,-1.884449 5.52148,-2.533203 0.7428,-0.324377 1.36746,-0.584991 1.82227,-0.763672 0.2274,-0.08934 0.41241,-0.157898 0.54297,-0.201172 0.13056,-0.04327 0.26881,-0.04883 0.13476,-0.04883 0.21373,0 0.25752,-0.04334 0.36914,-0.08594 0.11162,-0.0426 0.24097,-0.09974 0.39649,-0.171874 0.31102,-0.144269 0.72217,-0.349857 1.22851,-0.613282 1.01268,-0.526849 2.40143,-1.281833 4.06446,-2.205078 3.32605,-1.84649 7.74702,-4.366696 12.4082,-7.064453 9.32235,-5.395513 19.59634,-11.496938 24.01367,-14.369141 4.3969,-2.858912 10.47401,-6.739529 13.49219,-8.617187 3.0677,-1.908467 11.56707,-7.830932 18.96094,-13.205078 3.68523,-2.678566 7.28492,-5.1139395 10.10546,-6.8750002 1.41028,-0.8805304 2.62555,-1.5939539 3.55274,-2.0800782 0.46359,-0.2430621 0.85568,-0.4299725 1.1543,-0.5507812 C 254.22049,4.5413006 254.45255,4.5 254.45312,4.5 Z m 1.0586,2.6523438 c -0.33776,-0.1296089 -0.67107,-0.082997 -1.05078,0.017578 -0.37971,0.1005753 -0.81587,0.2753804 -1.33203,0.5273437 -1.03233,0.5039267 -2.38306,1.3161744 -4.10352,2.4589845 -3.44092,2.28562 -8.34816,5.896711 -14.94727,10.982422 -0.50457,0.388858 -2.12384,1.487167 -4.25976,2.890625 -2.13593,1.403457 -4.80921,3.129032 -7.50195,4.835937 -5.39143,3.417571 -13.94245,8.874354 -19.00391,12.126954 -5.05084,3.245777 -11.23131,6.982226 -13.66211,8.265624 -2.48773,1.313462 -6.76194,3.705415 -9.52148,5.330079 -9.2012,5.417145 -41.01629,20.578061 -54.42969,25.927734 -31.729961,12.654879 -51.956983,18.186892 -73.359376,20.082035 -6.052201,0.53591 -16.11146,1.46782 -22.357422,2.07031 l -11.851563,1.14258 0.710938,7.11914 c 0.365564,3.66366 1.037371,7.9586 1.541015,9.70898 0.448915,1.56018 1.12431,5.63702 1.458985,8.91211 0.342246,3.34918 1.480744,9.64056 2.541015,14.06641 1.053396,4.39718 3.061335,12.94759 4.460938,18.99609 1.400797,6.05362 2.975804,12.55994 3.517578,14.51953 0.5317,1.92316 2.138388,7.77525 3.56836,13 0.715965,2.61598 1.457474,5.21795 2.078124,7.30664 0.620651,2.08869 1.10439,3.6307 1.357422,4.25 0.188067,0.46031 1.17391,3.32759 2.539063,7.4043 1.365153,4.07671 3.137402,9.42592 4.984375,15.0625 5.953932,18.17016 7.909698,23.52094 12.99414,35.53906 0.689835,1.63056 2.530891,6.27429 4.078126,10.28711 0.777932,2.01759 1.576688,3.90842 2.242187,5.33789 0.332749,0.71474 0.631793,1.31237 0.882813,1.76172 0.125509,0.22468 0.239614,0.41206 0.345703,0.56445 0.106088,0.1524 0.170427,0.26782 0.36914,0.39063 0.07591,0.0469 0.257873,0.25754 0.38086,0.55273 0.122986,0.2952 0.201171,0.66488 0.201171,0.99024 0,0.46316 0.185317,0.96863 0.482422,1.79297 0.297106,0.82434 0.722136,1.88832 1.253907,3.14453 1.06354,2.51242 2.546306,5.78742 4.234375,9.37109 3.376136,7.16734 7.571431,15.56555 10.865234,21.54102 1.721871,3.12373 4.500446,8.29963 6.167969,11.49023 1.676996,3.20872 4.157163,7.61996 5.537109,9.84375 1.35985,2.19143 3.225032,5.34519 4.126952,6.97852 1.21222,2.19524 4.35853,7.11874 7.40625,11.7207 1.52386,2.30098 3.02006,4.51681 4.23242,6.25781 1.21237,1.74101 2.09158,2.96323 2.5586,3.44727 0.32122,0.33293 0.62272,0.73229 0.83203,1.08398 0.20931,0.35169 0.30273,0.69703 0.30273,0.71094 0,0.17881 0.0359,0.20169 0.0566,0.25 0.0207,0.0483 0.043,0.0919 0.0684,0.13867 0.0508,0.0935 0.11689,0.2019 0.20117,0.33594 0.16858,0.26808 0.408,0.63046 0.71485,1.08008 0.6137,0.89924 1.49101,2.14508 2.55469,3.63476 2.12735,2.97937 5.00134,6.93264 7.99414,11.00391 5.98559,8.14254 12.41661,16.72497 14.36328,19.02344 12.09794,14.28431 34.20338,36.48544 50.25,50.4707 5.48967,4.78446 25.57484,19.52189 35.29883,25.91211 4.4294,2.91083 10.85339,6.62922 16.30859,9.56445 2.7276,1.46762 5.21104,2.73868 7.08594,3.61524 0.93744,0.43828 1.72129,0.77638 2.32031,0.99609 0.29951,0.10986 0.55104,0.19006 0.76953,0.23828 0.2185,0.0482 0.37906,0.1358 0.70117,-0.0273 0.28833,-0.14603 2.56222,-1.28755 5.03711,-2.5293 4.97947,-2.49838 5.6271,-2.87936 15.26172,-8.98828 1.84284,-1.16847 3.5843,-2.23047 4.90039,-2.99805 0.65805,-0.38379 1.20952,-0.69392 1.60938,-0.90429 0.19993,-0.10519 0.36384,-0.18698 0.47461,-0.23633 0.0554,-0.0247 0.0988,-0.0399 0.11914,-0.0469 0.0204,-0.007 0.0355,0.004 -0.0684,0.004 0.17418,0 0.21876,-0.0365 0.28711,-0.0645 0.0683,-0.028 0.13502,-0.0615 0.21093,-0.10157 0.15184,-0.08 0.33728,-0.18839 0.56055,-0.32617 0.44653,-0.27555 1.04108,-0.66641 1.75,-1.14843 1.41785,-0.96406 3.28615,-2.28977 5.26953,-3.74805 3.94968,-2.90402 8.77997,-6.25814 10.66211,-7.41016 1.9534,-1.19563 4.42106,-2.9634 5.58203,-4.01367 1.07622,-0.97361 5.81922,-5.03649 10.48828,-8.98242 8.60249,-7.27016 39.78669,-38.44274 47.90235,-47.87891 5.08222,-5.90915 17.70426,-22.71183 24.98633,-33.25195 2.13236,-3.08641 6.17949,-9.19735 9.69726,-14.58789 1.75889,-2.69527 3.38473,-5.20927 4.57227,-7.07422 0.59376,-0.93248 1.07829,-1.70224 1.41601,-2.25391 0.16886,-0.27583 0.30113,-0.49618 0.39453,-0.66015 0.0467,-0.082 0.0833,-0.14913 0.11329,-0.20899 0.015,-0.0299 0.0268,-0.0566 0.041,-0.0918 0.0142,-0.0352 0.0449,-0.0389 0.0449,-0.2168 0,0.11425 -0.0158,0.12147 -0.0195,0.13281 0.006,-0.0149 0.0222,-0.0484 0.0449,-0.0937 0.0462,-0.0923 0.12075,-0.23159 0.2168,-0.40625 0.1921,-0.34931 0.47448,-0.84468 0.82227,-1.44336 0.69556,-1.19736 1.65738,-2.81398 2.71484,-4.55859 6.86099,-11.31939 21.11855,-38.58226 26.41211,-50.50391 0.95354,-2.14744 3.1324,-7.05429 4.8418,-10.9043 1.71711,-3.86743 4.24864,-10.16419 5.64257,-14.0332 1.38214,-3.83628 3.44022,-9.01797 4.55079,-11.46289 3.45631,-7.60917 15.04592,-41.01796 18.07617,-52.07422 0.82669,-3.01629 1.96517,-6.85035 2.51562,-8.47265 1.7196,-5.06811 5.18348,-17.73296 6.16797,-22.56055 0.50141,-2.45875 1.86985,-8.53836 3.03516,-13.48438 1.90851,-8.10044 4.09639,-19.07668 5.83203,-28.8125 1.73564,-9.73581 3.01844,-18.17611 3.11328,-21.40039 0.0102,-0.34656 -0.19858,-0.67112 -0.46875,-0.8789 -0.27017,-0.20778 -0.61516,-0.35999 -1.07227,-0.50782 -0.9142,-0.29564 -2.28568,-0.55496 -4.30078,-0.81835 -4.0302,-0.52678 -10.61542,-1.05784 -20.91797,-1.7461 -4.16614,-0.27832 -8.2925,-0.63455 -11.57812,-0.98437 -3.28563,-0.34983 -5.80219,-0.720797 -6.48242,-0.929691 -1.72339,-0.529245 -6.63959,-1.621649 -11.05078,-2.466797 -4.67268,-0.895244 -10.29472,-2.23185 -14.92188,-3.484374 -2.31358,-0.626263 -4.3811,-1.231092 -5.95117,-1.748047 -0.78504,-0.258478 -1.44631,-0.494314 -1.94727,-0.697266 -0.50095,-0.202952 -0.85597,-0.393362 -0.94531,-0.462891 -0.38876,-0.302547 -0.98565,-0.56202 -1.73633,-0.839843 -0.75068,-0.277824 -1.63195,-0.546166 -2.48047,-0.742188 -7.59614,-1.754826 -24.54616,-8.489934 -42.90234,-17.083984 -25.72869,-12.045728 -37.44335,-18.170223 -51.2168,-26.771485 -4.55446,-2.844181 -9.42115,-5.768649 -10.92187,-6.554687 -1.35058,-0.707392 -6.13261,-3.768123 -10.46875,-6.720703 -2.17566,-1.481459 -4.21455,-2.827896 -5.75,-3.806641 -0.76773,-0.489373 -1.40785,-0.887356 -1.88281,-1.166015 -0.23749,-0.13933 -0.43394,-0.248376 -0.58985,-0.328126 -0.0779,-0.03987 -0.1441,-0.0723 -0.21094,-0.09961 -0.0668,-0.02731 -0.0965,-0.06445 -0.28515,-0.06445 0.12516,0 0.13249,0.02104 0.13867,0.02344 0.006,0.0024 -0.006,-0.004 -0.0254,-0.01367 -0.038,-0.0194 -0.1058,-0.05812 -0.19336,-0.111328 -0.17513,-0.10641 -0.43056,-0.270907 -0.74805,-0.484376 -0.63498,-0.426937 -1.52616,-1.049617 -2.60351,-1.818359 -2.15471,-1.537483 -5.05645,-3.660449 -8.18164,-5.996094 -3.13252,-2.34111 -6.09764,-4.46938 -8.35742,-6.015625 -1.1299,-0.773122 -2.08359,-1.400653 -2.79883,-1.839843 C 259.14035,10.024651 258.84469,9.8521537 258.6054,9.7286215 258.48582,9.6667495 258.38054,9.6171574 258.28125,9.578125 258.18196,9.5390926 258.10582,9.5 257.93164,9.5 c -0.34482,0 -0.54883,-0.221802 -0.54883,-0.3925781 0,-0.4823901 -0.27359,-0.8438065 -0.60937,-1.1660157 -0.33579,-0.3222091 -0.77135,-0.6008876 -1.26172,-0.7890624 z m -0.35742,0.9335937 c 0.36257,0.1391329 0.70134,0.3589389 0.92773,0.5761719 0.22639,0.2172329 0.30078,0.4365463 0.30078,0.4453125 0,0.8115363 0.73969,1.3925781 1.54883,1.3925781 -0.10205,0 -0.0647,-0.0095 -0.0156,0.0098 0.049,0.01928 0.12982,0.05547 0.23046,0.107422 0.20129,0.103909 0.48476,0.268423 0.83008,0.480468 0.69066,0.424091 1.63418,1.044998 2.75586,1.8125 2.24336,1.535005 5.19941,3.656345 8.32227,5.990235 3.13016,2.339355 6.03766,4.465998 8.20117,6.009765 1.08175,0.771884 1.97603,1.397641 2.625,1.833985 0.32448,0.218171 0.58791,0.388733 0.78711,0.509765 0.0996,0.06052 0.18165,0.107574 0.25781,0.146485 0.0381,0.01946 0.0749,0.03753 0.11914,0.05469 0.0442,0.01716 0.079,0.04492 0.22266,0.04492 -0.15158,0 -0.11722,-0.01936 -0.0937,-0.0098 0.0235,0.0096 0.072,0.03237 0.13476,0.06445 0.12544,0.06416 0.31103,0.166995 0.53907,0.300781 0.45606,0.26757 1.09,0.661047 1.85156,1.146484 1.52311,0.970875 3.5561,2.312476 5.72461,3.789063 4.35219,2.963509 9.03612,5.977778 10.5664,6.779296 1.38013,0.722873 6.31357,3.681979 10.85743,6.519532 13.80869,8.623276 25.58125,14.776627 51.32226,26.828125 18.38816,8.60902 35.27931,15.34528 43.10156,17.152343 0.80148,0.185155 1.65002,0.44327 2.35743,0.705079 0.7074,0.261808 1.29719,0.556377 1.4707,0.691406 0.27613,0.214891 0.64975,0.383332 1.18359,0.599609 0.53385,0.216277 1.21121,0.457772 2.00977,0.720703 1.59712,0.525863 3.67639,1.136119 6.00195,1.765625 4.65113,1.259014 10.28649,2.598055 14.99414,3.5 4.38881,0.840859 9.37065,1.957239 10.94727,2.441409 0.96977,0.29781 3.36783,0.61522 6.66992,0.9668 3.30209,0.35158 7.43817,0.7091 11.61719,0.98828 10.29665,0.68786 16.87869,1.22044 20.85547,1.74023 1.98838,0.2599 3.32932,0.52066 4.12304,0.77735 0.39687,0.12834 0.65306,0.26003 0.76953,0.34961 0.11647,0.0896 0.0795,0.0754 0.0801,0.0566 -0.0883,3.00376 -1.36667,11.53324 -3.09961,21.2539 -1.73293,9.72067 -3.92087,20.68758 -5.82226,28.75782 -1.16719,4.95398 -2.53298,11.02437 -3.04102,13.51562 -0.96083,4.71157 -4.44528,17.46586 -6.13281,22.43945 -0.56925,1.6777 -1.70369,5.49364 -2.53516,8.52735 -2.99375,10.92306 -14.67478,44.55793 -18.02148,51.92578 -1.1379,2.50508 -3.18806,7.67339 -4.58008,11.53711 -1.38023,3.83099 -3.91555,10.13423 -5.61719,13.9668 -1.70939,3.84999 -3.88827,8.75688 -4.84179,10.90429 -5.25255,11.82929 -19.54339,39.15709 -26.35352,50.39258 -1.06018,1.7491 -2.02446,3.36895 -2.72461,4.57422 -0.35008,0.60263 -0.63309,1.10113 -0.83203,1.46289 -0.0995,0.18088 -0.17757,0.32599 -0.23438,0.43945 -0.0284,0.0567 -0.052,0.1048 -0.0723,0.15235 -0.0101,0.0238 -0.0189,0.0483 -0.0293,0.0801 -10e-4,0.004 -0.002,0.0177 -0.004,0.0215 0.003,-0.007 -7e-5,0.002 -0.008,0.0176 -0.0155,0.0309 -0.0461,0.0887 -0.0879,0.16211 -0.0836,0.14673 -0.21297,0.36175 -0.3789,0.63281 -0.33188,0.54211 -0.8142,1.30849 -1.40625,2.23828 -1.18411,1.85958 -2.80892,4.37328 -4.56641,7.06641 -3.51497,5.38625 -7.56389,11.49919 -9.68164,14.56445 -7.25724,10.50418 -19.91753,27.34936 -24.92187,33.16797 -7.99858,9.30003 -39.35687,40.63968 -47.79102,47.76758 -4.67248,3.94882 -9.37948,7.97961 -10.51172,9.0039 -1.04751,0.94763 -3.53699,2.74148 -5.43359,3.90235 -1.96786,1.20448 -6.76566,4.5424 -10.73243,7.45898 -1.97484,1.45201 -3.83701,2.77051 -5.24023,3.72461 -0.70161,0.47705 -1.28853,0.86313 -1.71289,1.125 -0.21218,0.13093 -0.38517,0.23141 -0.50195,0.29297 -0.0584,0.0308 -0.10279,0.0522 -0.12305,0.0605 -0.0203,0.008 -0.0421,-0.01 0.0918,-0.01 -0.14414,0 -0.1909,0.0266 -0.25586,0.0488 -0.065,0.0222 -0.13061,0.0497 -0.20313,0.082 -0.14503,0.0646 -0.32006,0.15256 -0.53125,0.26367 -0.42238,0.22223 -0.98277,0.53559 -1.64844,0.92383 -1.33133,0.77647 -3.07972,1.8453 -4.93164,3.01953 -9.63348,6.1082 -10.19942,6.44166 -15.17382,8.9375 -2.47511,1.24186 -4.73737,2.37746 -5.04102,2.53125 0.19648,-0.0995 0.10815,-0.025 -0.0352,-0.0566 -0.1433,-0.0316 -0.36552,-0.0983 -0.64062,-0.19922 -0.5502,-0.2018 -1.31733,-0.53336 -2.24024,-0.96484 -1.8458,-0.86296 -4.31853,-2.12813 -7.03515,-3.58985 -5.43325,-2.92342 -11.84931,-6.63783 -16.23438,-9.51953 -9.66187,-6.3494 -29.84775,-21.17287 -35.1914,-25.83008 -15.99426,-13.93962 -38.10277,-36.14565 -50.14258,-50.36132 -1.85293,-2.18779 -8.33867,-10.83549 -14.32031,-18.97266 -2.99082,-4.06858 -5.86345,-8.01713 -7.98633,-10.99023 -1.06144,-1.48656 -1.93681,-2.73096 -2.54297,-3.61915 -0.30308,-0.44409 -0.53925,-0.79869 -0.69531,-1.04687 -0.078,-0.12409 -0.13518,-0.22292 -0.16797,-0.2832 -0.0164,-0.0301 -0.0268,-0.0515 -0.0273,-0.0527 -5.2e-4,-10e-4 0.0234,-0.0149 0.0234,0.14258 0,-0.43753 -0.19049,-0.79778 -0.44336,-1.22266 -0.25286,-0.42487 -0.5907,-0.87177 -0.9707,-1.26562 -0.28794,-0.29843 -1.2534,-1.5949 -2.45898,-3.32617 -1.20559,-1.73128 -2.70014,-3.94228 -4.22071,-6.23828 -3.04113,-4.59201 -6.19988,-9.54552 -7.36328,-11.65235 -0.92033,-1.66667 -2.781852,-4.81291 -4.152342,-7.02148 -1.350415,-2.17621 -3.836377,-6.59617 -5.5,-9.7793 -1.673077,-3.20123 -4.449966,-8.37534 -6.177735,-11.50976 -3.275817,-5.94285 -7.467559,-14.33352 -10.835937,-21.48438 -1.68419,-3.57543 -3.163699,-6.84161 -4.21875,-9.33398 -0.527526,-1.24619 -0.949728,-2.30051 -1.236328,-3.09571 -0.286601,-0.79519 -0.421875,-1.40914 -0.421876,-1.45312 0,-0.47839 -0.10504,-0.9548 -0.279296,-1.37305 -0.174257,-0.41825 -0.40226,-0.78967 -0.777344,-1.02148 0.08597,0.0531 0.0015,-0.003 -0.07422,-0.11133 -0.07575,-0.10882 -0.177489,-0.27375 -0.292969,-0.48047 -0.230959,-0.41344 -0.521467,-0.99662 -0.847656,-1.69727 -0.652378,-1.40129 -1.44617,-3.27479 -2.216797,-5.27343 -1.549866,-4.01965 -3.383558,-8.64892 -4.089843,-10.31836 -5.078838,-12.00488 -7.01495,-17.29714 -12.966797,-35.46094 -1.847578,-5.63842 -3.618276,-10.98882 -4.984375,-15.06836 -1.3661,-4.07954 -2.301147,-6.82515 -2.5625,-7.46484 -0.196398,-0.4807 -0.706134,-2.07619 -1.324219,-4.15625 -0.618085,-2.08006 -1.360155,-4.67809 -2.074219,-7.28711 -1.430108,-5.22525 -3.033686,-11.07316 -3.566406,-13 -0.522646,-1.89041 -2.10869,-8.43409 -3.507813,-14.48047 -1.400296,-6.0515 -3.408146,-14.60109 -4.46289,-19.00391 -1.047889,-4.37415 -2.187337,-10.68277 -2.519531,-13.93359 -0.339766,-3.32491 -0.991582,-7.34807 -1.492188,-9.08789 -0.445876,-1.54962 -1.146816,-5.91337 -1.507812,-9.53125 l -0.611329,-6.1211 10.853516,-1.04492 c 6.241838,-0.60209 16.30181,-1.53283 22.349609,-2.06836 21.517727,-1.905352 41.867947,-7.478474 73.640627,-20.150391 13.51108,-5.388629 45.20313,-20.480422 54.56836,-25.99414 2.74045,-1.613425 7.0182,-4.008579 9.48047,-5.308594 2.5192,-1.330077 8.66727,-5.053066 13.73633,-8.310547 5.05844,-3.250658 13.60931,-8.70523 18.99804,-12.121093 2.69733,-1.709813 5.37402,-3.438511 7.51563,-4.845704 2.14161,-1.407192 3.72686,-2.476687 4.32226,-2.935546 6.59053,-5.079099 11.48728,-8.682039 14.88867,-10.941407 1.7007,-1.1296838 3.02992,-1.9238033 3.99024,-2.3925779 0.48016,-0.2343873 0.86916,-0.386965 1.14844,-0.4609375 0.27927,-0.073972 0.44041,-0.047711 0.4375,-0.048828 z m -0.76563,52.0761715 c -1.25401,-0.01422 -3.03482,0.677197 -5.75195,2.078125 -2.71714,1.400929 -6.32957,3.539308 -11.02149,6.507813 -7.42224,4.695943 -14.88617,9.31382 -16.47461,10.199219 -1.65958,0.92506 -4.35863,2.499531 -6.01757,3.511718 -3.17888,1.939558 -7.85469,4.656687 -15.98633,9.285157 -3.23338,1.840414 -14.26029,7.386956 -25,12.662109 -5.36986,2.63758 -10.67403,5.21085 -14.91602,7.23047 -4.24199,2.01962 -7.45463,3.49694 -8.51367,3.89648 -0.97786,0.36892 -1.97074,0.79813 -2.79297,1.19727 -0.82222,0.39913 -1.44418,0.72913 -1.8125,1.05469 -0.37319,0.32986 -1.41191,0.71484 -2.01758,0.71484 -0.52482,0 -1.21847,0.17803 -2.06445,0.44531 -0.84598,0.26728 -1.806,0.63231 -2.69336,1.03711 -7.12476,3.25027 -15.1131,6.12694 -32.51953,11.70117 -4.71659,1.51044 -17.382584,4.73258 -24.52539,6.23633 -3.335912,0.7023 -7.753141,2.007 -9.941406,2.94727 -0.95667,0.41106 -1.686843,0.72303 -2.261719,1.05664 -0.574876,0.33361 -1.011946,0.71033 -1.277344,1.2207 -0.530795,1.02073 -0.352299,2.28135 -0.09766,4.64844 0.739332,6.87268 2.397704,15.00204 4.148437,20.3125 0.819154,2.48471 2.449846,7.9132 3.613282,12.03125 1.612626,5.70797 3.60598,12.28352 5.328125,17.67969 0.861072,2.69808 1.654772,5.10109 2.298828,6.95507 0.644056,1.85399 1.114037,3.12068 1.423828,3.70118 0.238053,0.44608 0.462132,0.98151 0.621094,1.46679 0.158962,0.48529 0.246094,0.94024 0.246093,1.125 10e-7,0.23526 0.05285,0.38071 0.126954,0.65821 0.0741,0.27749 0.180009,0.63276 0.314453,1.0625 0.268888,0.85947 0.651458,2.01066 1.115234,3.36132 0.927553,2.70134 2.177695,6.20132 3.470703,9.73829 1.293009,3.53696 2.627904,7.11036 3.728516,9.95703 1.100612,2.84667 1.927945,4.90507 2.33789,5.63867 0.250794,0.4488 0.484241,0.97365 0.650391,1.43945 0.16615,0.46581 0.25586,0.901 0.255859,1.03711 10e-7,0.31388 0.09309,0.56483 0.228516,0.99024 0.135424,0.4254 0.326762,0.96141 0.5625,1.58007 0.471476,1.23734 1.117836,2.79921 1.830086,4.39649 1.41737,3.1786 3.97961,8.92943 5.69336,12.77929 1.73113,3.88892 7.92113,16.46942 13.78515,28.02344 9.2106,18.14789 12.68944,24.47734 19.2461,35.01758 0.67492,1.08498 3.45506,5.58683 6.17578,9.99805 5.80296,9.40863 19.8697,28.42225 30.00781,40.57422 11.00681,13.1932 36.97364,38.78411 48.35547,47.64453 5.76644,4.48901 11.78791,8.96793 16.65234,12.42968 2.43222,1.73088 4.57369,3.20767 6.25391,4.30665 1.68021,1.09897 2.84449,1.80766 3.53711,2.0625 1.93009,0.71014 3.75952,0.78345 6.14844,-0.10938 2.38891,-0.89283 5.3754,-2.70814 9.89648,-5.77344 16.37262,-11.10064 26.36915,-19.41846 42.08984,-35.02148 25.32723,-25.13767 43.65825,-48.52551 62.01758,-79.13086 10.5103,-17.52086 27.74781,-51.48318 34.02149,-67.03711 1.97505,-4.89664 5.32129,-12.45729 6.44335,-14.58008 0.54885,-1.03834 1.20942,-3.36403 1.5918,-5.40234 0.18272,-0.97397 0.43889,-1.91957 0.69727,-2.63672 0.12918,-0.35858 0.25951,-0.66162 0.37304,-0.87305 0.11353,-0.21143 0.24548,-0.32564 0.18946,-0.29101 0.1445,-0.0893 0.18895,-0.16435 0.24609,-0.24414 0.0571,-0.0798 0.10944,-0.16548 0.16602,-0.26758 0.11315,-0.2042 0.23841,-0.46817 0.38281,-0.79102 0.28879,-0.6457 0.64654,-1.53033 1.05273,-2.59961 0.8124,-2.13855 1.8177,-5.00968 2.82422,-8.10742 1.0037,-3.08907 2.01168,-6.12233 2.82422,-8.51953 0.81254,-2.3972 1.44396,-4.18757 1.65039,-4.68164 2.46893,-5.90909 6.44568,-18.76595 9.92188,-31.27148 3.4762,-12.50554 6.43878,-24.56471 6.84375,-29.0586 l 0.5039,-5.58594 -7.08203,-2.1875 c -1.85097,-0.57171 -3.73883,-1.09106 -5.29883,-1.46875 -1.55999,-0.37768 -2.72831,-0.62109 -3.38867,-0.62109 -0.57005,0 -1.72912,-0.1722 -3.25976,-0.49414 -1.53065,-0.32195 -3.45166,-0.78935 -5.64649,-1.36719 -4.38965,-1.15568 -9.87207,-2.75145 -15.53515,-4.50586 -11.32617,-3.50882 -23.4015,-7.66483 -28.88672,-10.17383 -1.45964,-0.66765 -2.88803,-1.27266 -4.02149,-1.71484 -0.56672,-0.22109 -1.05965,-0.40192 -1.45117,-0.5293 -0.39152,-0.12737 -0.61783,-0.21484 -0.92383,-0.21484 -0.0407,0 -0.65125,-0.1338 -1.32422,-0.38086 -0.67297,-0.24706 -1.49,-0.5929 -2.27343,-0.9707 -1.61927,-0.78087 -6.06589,-2.77904 -9.91993,-4.45899 -14.57395,-6.3527 -48.71612,-24.219226 -61.43554,-32.148434 -0.82457,-0.514031 -8.47501,-5.284993 -17,-10.601563 -5.22186,-3.256584 -9.34935,-5.681503 -12.4375,-7.300781 -1.54408,-0.809639 -2.8274,-1.417631 -3.86719,-1.830078 -1.03979,-0.412447 -1.82225,-0.63931 -2.45508,-0.646485 z m -0.0117,1 c 0.37672,0.0043 1.10941,0.184169 2.09766,0.576172 0.98825,0.392004 2.24695,0.987716 3.77148,1.78711 3.04908,1.598787 7.16292,4.012446 12.37305,7.261718 8.525,5.316575 16.17457,10.086994 17,10.601563 12.82828,7.997068 46.88584,25.820428 61.56445,32.218748 3.84597,1.67643 8.31199,3.68397 9.88672,4.44336 0.81357,0.39233 1.65365,0.74729 2.36328,1.00781 0.70964,0.26053 1.20788,0.44141 1.66797,0.44141 -0.0556,0 0.25302,0.0482 0.61524,0.16602 0.36221,0.11783 0.84149,0.29325 1.39648,0.50976 1.10999,0.43303 2.52529,1.03311 3.96875,1.69336 5.60916,2.56568 17.65871,6.70343 29.00586,10.21875 5.67358,1.75766 11.16556,3.35638 15.57617,4.51758 2.20531,0.5806 4.14077,1.05152 5.69727,1.37891 1.55649,0.32738 2.71333,0.51562 3.46484,0.51562 0.35488,0 1.61665,0.22195 3.15235,0.59375 1.53569,0.3718 3.40952,0.88572 5.24023,1.45117 l 6.30859,1.94922 -0.43164,4.7793 c -0.37948,4.21115 -3.33977,16.39483 -6.81054,28.88086 -3.47078,12.48602 -7.46594,25.36784 -9.88282,31.15234 -0.25317,0.60593 -0.85955,2.34573 -1.67382,4.74805 -0.81428,2.40231 -1.82317,5.4383 -2.82813,8.53125 -1.00214,3.08427 -2.0025,5.94373 -2.80664,8.06054 -0.40207,1.05841 -0.75613,1.93174 -1.03125,2.54688 -0.13756,0.30757 -0.25628,0.55152 -0.3457,0.71289 -0.0447,0.0807 -0.0834,0.14113 -0.10547,0.17187 -0.022,0.0307 -0.046,0.0296 0.043,-0.0254 -0.27803,0.17183 -0.39622,0.39299 -0.54492,0.66993 -0.14871,0.27693 -0.29289,0.61531 -0.4336,1.00586 -0.28141,0.78109 -0.54602,1.7662 -0.73828,2.79101 -0.36755,1.95926 -1.09509,4.3679 -1.49219,5.11914 -1.19447,2.25976 -4.49858,9.74573 -6.48633,14.67383 -6.22464,15.43237 -23.49005,49.45109 -33.95507,66.89648 -18.32393,30.54635 -36.58296,53.84638 -61.86133,78.93555 -15.69647,15.57898 -25.6101,23.8277 -41.94727,34.9043 -4.50281,3.0529 -7.45963,4.83215 -9.68554,5.66406 -2.22592,0.83191 -3.68129,0.75934 -5.45313,0.10742 -0.42734,-0.15723 -1.67326,-0.87343 -3.33594,-1.96093 -1.66267,-1.08751 -3.79758,-2.55741 -6.22265,-4.28321 -4.85015,-3.45159 -10.86267,-7.92456 -16.61719,-12.40429 -11.2259,-8.73904 -37.28307,-34.40922 -48.20117,-47.4961 -10.10069,-12.10711 -24.18417,-31.153 -29.92383,-40.45898 -2.72099,-4.41166 -5.50031,-8.90982 -6.17969,-10.00196 -6.54564,-10.52253 -9.99603,-16.80043 -19.20312,-34.9414 -5.85994,-11.54598 -12.06524,-24.16548 -13.76172,-27.97656 -1.71386,-3.85014 -4.27581,-9.60031 -5.69336,-12.7793 -0.70521,-1.58151 -1.34779,-3.13125 -1.81055,-4.3457 -0.231378,-0.60723 -0.418597,-1.13249 -0.54492,-1.5293 -0.126323,-0.39682 -0.179687,-0.72885 -0.179688,-0.68555 10e-7,-0.40506 -0.126902,-0.85272 -0.3125,-1.37305 -0.185597,-0.52032 -0.437806,-1.08555 -0.720703,-1.59179 -0.282484,-0.50551 -1.180063,-2.67367 -2.277343,-5.51172 -1.09728,-2.83806 -2.433311,-6.40717 -3.72461,-9.93945 -1.291299,-3.53229 -2.538766,-7.02741 -3.46289,-9.71875 -0.462062,-1.34568 -0.843451,-2.49218 -1.107422,-3.33594 -0.131986,-0.42188 -0.23488,-0.76934 -0.302735,-1.02344 -0.06785,-0.2541 -0.0918,-0.46994 -0.0918,-0.39844 0,-0.41609 -0.119927,-0.89535 -0.296874,-1.43554 -0.176948,-0.54019 -0.415893,-1.118 -0.6875,-1.62696 -0.209575,-0.39271 -0.723631,-1.71729 -1.363282,-3.55859 -0.639651,-1.8413 -1.429771,-4.23914 -2.289062,-6.93164 -1.718583,-5.38501 -3.711699,-11.95468 -5.320313,-17.64844 -1.167364,-4.13195 -2.793874,-9.54928 -3.625,-12.07031 -1.714207,-5.19966 -3.370314,-13.30989 -4.101562,-20.10742 -0.254468,-2.36546 -0.319579,-3.48806 -0.01172,-4.08008 0.15393,-0.29601 0.404006,-0.53288 0.892578,-0.81641 0.488572,-0.28352 1.198612,-0.59326 2.154297,-1.0039 2.043675,-0.87814 6.487865,-2.19954 9.751953,-2.88672 7.191094,-1.51392 19.807796,-4.72101 24.625006,-6.26367 17.41691,-5.57759 25.4519,-8.4672 32.63086,-11.74219 0.84576,-0.38583 1.77668,-0.74032 2.58008,-0.99414 0.80339,-0.25383 1.51716,-0.39844 1.76171,-0.39844 0.9331,0 2.00789,-0.37103 2.67969,-0.96484 0.15419,-0.13629 0.79699,-0.52233 1.58789,-0.90625 0.7909,-0.38393 1.76185,-0.80283 2.70899,-1.16016 1.18856,-0.44841 4.3423,-1.90742 8.58984,-3.92969 4.24754,-2.02226 9.55501,-4.59734 14.92773,-7.23633 10.74546,-5.27797 21.722,-10.793618 25.05274,-12.689449 8.13454,-4.630122 12.81689,-7.350297 16.01367,-9.300781 1.64105,-1.00127 4.34201,-2.577812 5.98242,-3.492188 1.71157,-0.954037 9.09569,-5.529088 16.52344,-10.228515 4.67923,-2.960479 8.27586,-5.086546 10.94531,-6.462891 2.66946,-1.376345 4.45278,-1.976189 5.28125,-1.966797 z m 0.60547,1.177735 -4.05273,2.193359 c -2.13483,1.155756 -8.31172,4.99268 -13.81836,8.576172 -5.49564,3.57633 -11.17228,7.14191 -12.4668,7.84375 -1.41021,0.764566 -9.48388,5.356481 -18.00976,10.240234 -21.25591,12.175701 -46.75973,24.671941 -61.92579,30.349611 -0.97799,0.36612 -1.97256,0.79213 -2.79492,1.18945 -0.82235,0.39732 -1.44357,0.72663 -1.8125,1.05274 -0.37319,0.32986 -1.41191,0.71484 -2.01758,0.71484 -0.52655,0 -1.21827,0.18052 -2.06445,0.45117 -0.84617,0.27065 -1.80783,0.64091 -2.69531,1.05078 -7.50215,3.46478 -19.49654,7.18937 -43.056642,13.34961 -6.68328,1.74747 -11.206685,3.02854 -14.111328,4.03321 -1.452321,0.50233 -2.498864,0.93305 -3.228516,1.33593 -0.729651,0.40289 -1.214626,0.76222 -1.328125,1.35157 -0.139144,0.72251 -0.0046,1.82174 0.277344,3.46093 0.281943,1.6392 0.737406,3.76138 1.339844,6.27344 1.204876,5.02412 2.994038,11.60588 5.128906,18.93555 4.269737,14.65933 9.924754,32.30779 15.070313,46.42969 1.702549,4.67261 3.795093,10.52392 4.644531,12.99023 1.617195,4.69549 6.356323,16.25304 8.835933,21.55078 0.7677,1.64021 2.6008,5.69275 4.06446,8.99023 3.45874,7.79216 9.30838,19.65366 14.92968,30.52149 5.62131,10.86783 10.99229,20.71155 13.5586,24.55273 1.45343,2.17546 4.1819,6.6813 6.03516,9.96875 3.89481,6.90896 15.66597,23.68271 23.88867,34.06446 19.12779,24.1502 48.55802,53.28407 67.2207,66.51757 3.94873,2.8 8.07162,5.5695 11.32617,7.64258 1.62728,1.03655 3.03732,1.89735 4.10547,2.50586 0.53407,0.30426 0.98051,0.54464 1.33594,0.71485 0.17771,0.0851 0.33243,0.15448 0.4707,0.20507 0.13827,0.0506 0.24371,0.0918 0.42383,0.0937 h 0.002 c 0.22322,0.002 0.32664,-0.0535 0.48828,-0.11718 0.16165,-0.0636 0.34814,-0.14919 0.56446,-0.25782 0.43263,-0.21724 0.98453,-0.52493 1.625,-0.90234 1.28092,-0.75481 2.91641,-1.79143 4.60742,-2.93359 25.4407,-17.18349 46.24624,-36.13383 69.74023,-63.51563 5.35629,-6.24265 19.51922,-25.17339 25,-33.41211 15.86404,-23.84681 32.56182,-54.86805 45.03125,-83.65234 0.4712,-1.08771 2.02467,-4.55469 3.44336,-7.68164 0.7137,-1.57306 1.36147,-3.12292 1.83399,-4.36133 0.23626,-0.6192 0.42862,-1.15916 0.56445,-1.5918 0.13583,-0.43263 0.22656,-0.70414 0.22656,-1.01562 0,-0.16884 0.0944,-0.62069 0.26563,-1.10156 0.17119,-0.48088 0.41288,-1.01508 0.66992,-1.46094 0.29346,-0.50902 0.7248,-1.53898 1.32812,-3.07617 0.60333,-1.53719 1.35903,-3.55259 2.22071,-5.91602 1.72336,-4.72686 3.87286,-10.84291 6.07812,-17.26562 4.41053,-12.84544 9.04059,-26.91089 10.93164,-33.5918 0.93278,-3.29539 2.51247,-8.69673 3.50782,-11.99219 1.00417,-3.32464 2.35538,-8.72038 3.01757,-12.04687 1.18469,-5.95128 1.85322,-8.60801 1.625,-10.23438 -0.11411,-0.81318 -0.57988,-1.39052 -1.21679,-1.70703 -0.63692,-0.31651 -1.42031,-0.48269 -2.45899,-0.79883 -2.15206,-0.65501 -6.78514,-1.70299 -10.3789,-2.35547 -3.54561,-0.64373 -9.17508,-1.99815 -12.44336,-2.99218 -3.30396,-1.00489 -9.3783,-2.80713 -13.50586,-4.00782 -5.16843,-1.50348 -9.99108,-3.03806 -13.65625,-4.31836 -1.83259,-0.64014 -3.37608,-1.21595 -4.52344,-1.6914 -1.14736,-0.47545 -1.9444,-0.90959 -2.08008,-1.0293 -0.66817,-0.58953 -1.7267,-0.96289 -2.64453,-0.96289 -0.0695,0 -0.39374,-0.0529 -0.80273,-0.16797 -0.40899,-0.11506 -0.92799,-0.28487 -1.51368,-0.49609 -1.17137,-0.42246 -2.61157,-1.00834 -4.02539,-1.65235 -2.86665,-1.30579 -6.29942,-2.71152 -7.74609,-3.16015 -1.0432,-0.32351 -4.35059,-1.75746 -8.7168,-3.75977 -4.36621,-2.0023 -9.84429,-4.58871 -15.42968,-7.27539 -11.17079,-5.37336 -22.79507,-11.163609 -26.75,-13.453124 -9.23591,-5.346674 -22.10112,-12.928356 -24.91797,-14.683594 -1.97274,-1.229255 -4.92672,-2.976483 -6.5918,-3.898437 -3.6185,-2.003557 -12.48921,-7.635603 -18.17383,-11.542969 z m -0.0625,1.169922 3.96485,2.724609 c 5.71492,3.928196 14.54954,9.541571 18.25585,11.59375 1.63492,0.905252 4.5936,2.655916 6.54688,3.873047 2.87898,1.79395 15.70314,9.348921 24.94531,14.699219 4.05631,2.348201 15.63902,8.112759 26.81836,13.490229 5.58967,2.68874 11.07064,5.27702 15.44531,7.28321 4.37468,2.00619 7.58893,3.41676 8.83985,3.80469 1.30333,0.40418 4.78716,1.82256 7.625,3.11523 1.43844,0.65522 2.89856,1.24974 4.10156,1.68359 0.6015,0.21693 1.13823,0.39273 1.58203,0.51758 0.44381,0.12486 0.76859,0.20508 1.07422,0.20508 0.58267,0 1.60755,0.38042 1.98438,0.71289 0.43159,0.3808 1.18151,0.71585 2.35742,1.20313 1.17591,0.48727 2.73205,1.06871 4.57617,1.71289 3.68824,1.28834 8.52368,2.82421 13.70703,4.33203 4.12244,1.19919 10.1981,3.00338 13.49414,4.00586 3.33172,1.01332 8.95225,2.36317 12.55664,3.01758 3.55624,0.64566 8.21331,1.70542 10.26563,2.33007 1.07287,0.32655 1.85515,0.51489 2.30468,0.73828 0.44954,0.2234 0.59077,0.37122 0.67188,0.94922 0.16222,1.156 -0.4287,3.93985 -1.61523,9.90039 -0.65165,3.27351 -2.00486,8.67777 -2.99415,11.95313 -0.99809,3.30454 -2.57828,8.7032 -3.51367,12.00781 -1.87467,6.62305 -6.50851,20.70439 -10.91601,33.54102 -2.20375,6.41831 -4.35035,12.52855 -6.07032,17.24609 -0.85998,2.35877 -1.61456,4.37008 -2.21289,5.89453 -0.59832,1.52446 -1.06122,2.59026 -1.26367,2.94141 -0.29355,0.50918 -0.55244,1.08655 -0.74414,1.625 -0.19169,0.53845 -0.32422,1.01481 -0.32422,1.4375 0,-0.0157 -0.0534,0.31463 -0.17969,0.71679 -0.12626,0.40217 -0.31343,0.92847 -0.54492,1.53516 -0.46297,1.21338 -1.10487,2.7493 -1.81054,4.30469 -1.42005,3.12992 -2.96933,6.58302 -3.45118,7.69531 -12.44414,28.72591 -29.12552,59.71286 -44.94726,83.4961 -5.43168,8.1649 -19.65359,27.16982 -24.92578,33.31445 -23.45253,27.33346 -44.1733,46.20565 -69.54102,63.33984 -1.67571,1.13183 -3.29811,2.15993 -4.55469,2.90039 -0.62828,0.37023 -1.16728,0.66873 -1.5664,0.86914 -0.19956,0.10021 -0.36419,0.17688 -0.48047,0.22266 -0.11628,0.0458 -0.21568,0.0458 -0.11328,0.0469 0.0666,7.3e-4 -6.9e-4,1.4e-4 -0.0918,-0.0332 -0.0911,-0.0333 -0.22147,-0.0897 -0.38086,-0.16601 -0.31877,-0.15266 -0.75354,-0.3863 -1.27539,-0.6836 -1.04371,-0.59459 -2.44398,-1.4495 -4.0625,-2.48047 -3.23703,-2.06193 -7.35064,-4.82336 -11.28515,-7.61328 -18.50185,-13.11946 -47.955,-42.25882 -67.01563,-66.32422 -8.18524,-10.33445 -19.99,-27.17566 -23.80078,-33.93554 -1.8674,-3.31255 -4.58799,-7.80671 -6.07422,-10.03125 -2.48483,-3.71923 -7.88699,-13.60147 -13.50195,-24.45704 -5.61496,-10.85556 -11.46256,-22.71489 -14.9043,-30.46874 -1.4659,-3.30252 -3.2954,-7.34998 -4.07227,-9.00977 -2.45004,-5.23458 -7.21143,-16.84593 -8.796871,-21.44922 -0.855422,-2.48369 -2.9461,-8.33238 -4.65039,-13.00977 -5.134502,-14.09155 -10.787093,-31.72862 -15.050781,-46.36718 -2.131845,-7.31928 -3.916502,-13.89017 -5.115235,-18.88867 -0.599366,-2.49926 -1.052346,-4.60563 -1.328125,-6.20899 -0.275779,-1.60336 -0.347336,-2.76036 -0.28125,-3.10351 0.0028,-0.0147 0.195103,-0.31238 0.832031,-0.66407 0.636929,-0.35168 1.645559,-0.77282 3.070313,-1.26562 2.849507,-0.9856 7.36282,-2.2666 14.037109,-4.01172 23.575079,-6.16416 35.602279,-9.88792 43.224609,-13.4082 0.84564,-0.39055 1.77688,-0.74896 2.58008,-1.00586 0.8032,-0.25691 1.51694,-0.4043 1.75976,-0.4043 0.9331,0 2.00789,-0.37103 2.67969,-0.96484 0.15358,-0.13575 0.79517,-0.52029 1.58594,-0.90235 0.79077,-0.38206 1.76198,-0.79977 2.70898,-1.15429 15.27223,-5.71742 40.77511,-18.21752 62.07422,-30.417973 8.52412,-4.882745 16.6485,-9.502132 17.98828,-10.228516 1.45549,-0.789112 7.0308,-4.300808 12.53516,-7.882812 5.49335,-3.574842 11.72239,-7.439402 13.75,-8.53711 z m -0.0527,50.066404 c -0.34257,0.0188 -0.63417,0.0905 -0.96289,0.12891 -1.89633,0.22129 -3.36824,1.47519 -4.33594,3.58594 -0.72363,1.57839 -2.95745,5.42923 -4.91016,8.4375 -5.48476,8.44962 -7.15806,11.20156 -18.24609,30.01757 -2.83507,4.81101 -5.5467,9.35347 -7.62891,12.79493 -1.0411,1.72072 -1.92471,3.16559 -2.58789,4.23046 -0.66318,1.06488 -1.13813,1.78853 -1.24023,1.91797 -0.37264,0.47243 -0.99016,1.45502 -1.74805,2.73047 -0.75788,1.27545 -1.6371,2.82303 -2.45898,4.3418 -1.6262,3.00508 -4.32931,7.50898 -5.97657,9.95898 -2.92579,4.35162 -4.58432,6.91065 -18.47851,28.50977 -4.81503,7.48516 -7.26999,11.30817 -8.53711,13.48633 -0.63356,1.08908 -0.97538,1.76939 -1.16406,2.31445 -0.18869,0.54506 -0.20899,0.95882 -0.20899,1.36523 0,0.93462 0.6219,1.7108 1.59571,2.14844 0.9738,0.43765 2.32083,0.64751 4.08593,0.6875 3.53022,0.08 8.73199,-0.5499 15.64844,-1.875 1.42082,-0.27221 2.82135,-0.4537 3.91602,-0.52734 0.54733,-0.0368 1.02042,-0.047 1.36914,-0.0293 0.29092,0.0147 0.41985,0.0612 0.45312,0.0625 0.004,0.0398 0.008,0.0633 0.004,0.13867 -0.0131,0.24423 -0.0859,0.64264 -0.22266,1.14649 -0.27345,1.00769 -0.7926,2.45013 -1.51367,4.22265 -1.44213,3.54505 -3.69191,8.4192 -6.42969,13.96485 -5.47556,11.09129 -12.90129,24.87967 -19.73242,36.21094 -2.54176,4.21619 -4.81721,8.23825 -6.4375,11.33203 -0.81014,1.54688 -1.45665,2.86138 -1.89453,3.85937 -0.21894,0.499 -0.38506,0.91661 -0.49609,1.25781 -0.11104,0.3412 -0.20493,0.55439 -0.13868,0.90235 0.0789,0.41435 0.26999,0.81099 0.59766,1.11718 0.32767,0.3062 0.76489,0.52121 1.32422,0.6875 1.11867,0.3326 2.77389,0.49567 5.35742,0.62696 7.19668,0.36571 34.44511,-1.38255 45.2793,-2.88477 4.51989,-0.6267 6.99272,-0.74056 8.05468,-0.19922 0.53099,0.27067 0.78958,0.64657 0.95313,1.38282 0.16355,0.73625 0.17088,1.80724 0.0937,3.22265 -0.14335,2.63027 -0.16466,15.56974 -0.0586,28.91992 l 0.19531,24.76758 25.75195,-0.27148 25.73633,-0.27344 0.50781,-29.48633 0.49024,-28.48242 3.48633,0.16992 c 2.15578,0.10594 9.37751,0.75372 15.97265,1.43555 6.63208,0.68565 18.54158,1.27194 26.52735,1.30664 6.41129,0.0278 10.03834,-0.002 12.16015,-0.23438 1.06091,-0.11637 1.75273,-0.27364 2.26367,-0.5625 0.51095,-0.28885 0.79004,-0.77134 0.88086,-1.23242 0.0718,-0.36439 -0.0322,-0.57224 -0.15039,-0.92578 -0.11817,-0.35354 -0.29441,-0.79267 -0.52734,-1.3164 -0.46587,-1.04747 -1.15413,-2.43313 -2.01563,-4.07032 -1.72299,-3.27438 -4.13946,-7.54799 -6.83984,-12.04101 -11.47217,-19.08795 -12.64703,-21.12629 -14.8457,-25.76953 -5.97924,-12.62719 -9.39392,-19.90997 -11.22852,-24.09961 -0.9173,-2.09483 -1.43848,-3.42064 -1.68359,-4.22461 -0.12048,-0.39517 -0.16797,-0.65953 -0.17578,-0.80274 0.0538,-0.005 0.0937,-0.011 0.17382,-0.0117 0.26658,-0.002 0.65731,0.0209 1.12305,0.0723 0.93149,0.10282 2.17262,0.3113 3.47852,0.59766 3.3676,0.73844 8.02177,1.33583 12.10742,1.65429 2.04282,0.15924 3.94121,0.24811 5.46875,0.24805 1.52754,-6e-5 2.6297,-0.0506 3.32226,-0.31641 0.7359,-0.28239 1.33977,-0.68373 1.64258,-1.32422 0.30281,-0.64048 0.26477,-1.41893 -0.0254,-2.35546 -0.58031,-1.87306 -2.1872,-4.56293 -5.04101,-8.88672 -6.02473,-9.12802 -11.18642,-17.03393 -14.83985,-22.7168 -1.82671,-2.84143 -3.27633,-5.12791 -4.26758,-6.73047 -0.49562,-0.80128 -0.87705,-1.43151 -1.13086,-1.87109 -0.1269,-0.2198 -0.22246,-0.39262 -0.28125,-0.50781 -0.0294,-0.0576 -0.0485,-0.10143 -0.0566,-0.1211 -0.008,-0.0197 0.0117,-0.0613 0.0117,0.10742 0,-0.26638 -0.0611,-0.29607 -0.11719,-0.41601 -0.0561,-0.11994 -0.13003,-0.25987 -0.22265,-0.42383 -0.18524,-0.32793 -0.44555,-0.75321 -0.76563,-1.25586 -0.64016,-1.0053 -1.51804,-2.31269 -2.48437,-3.6875 -0.9588,-1.36409 -1.8322,-2.66214 -2.46094,-3.64648 -0.31437,-0.49217 -0.56791,-0.9054 -0.73828,-1.20508 -0.0852,-0.14984 -0.14985,-0.27189 -0.1875,-0.35156 -0.0376,-0.0797 -0.0234,-0.19448 -0.0234,0.01 0,-0.16207 -0.0285,-0.19467 -0.0508,-0.25586 -0.0222,-0.0612 -0.0481,-0.1219 -0.0801,-0.1914 -0.0639,-0.13901 -0.1512,-0.30979 -0.26172,-0.51758 -0.22102,-0.41558 -0.53678,-0.97453 -0.92382,-1.64063 -0.77409,-1.33219 -1.83669,-3.09495 -3.00782,-4.97265 -2.33744,-3.7477 -4.79601,-7.69051 -5.46093,-8.75977 -0.97191,-1.56289 -6.85889,-11.39754 -11.76368,-19.65625 -10.96904,-18.46976 -16.10154,-27.18964 -18.88476,-31.29492 -1.39161,-2.05264 -2.17717,-2.97283 -2.95508,-3.40039 -0.38896,-0.21378 -0.78439,-0.27267 -1.12695,-0.25391 z m 0.0547,0.99805 c 0.21887,-0.012 0.36199,0.005 0.59179,0.13086 0.4596,0.2526 1.24026,1.07131 2.60742,3.08789 2.73432,4.03316 7.88389,12.77145 18.85352,31.24219 4.90614,8.26098 10.76484,18.05388 11.77344,19.67578 0.66627,1.07142 3.12338,5.0119 5.46093,8.75976 1.16638,1.87009 2.22761,3.62611 2.99414,4.94532 0.38327,0.6596 0.69368,1.2114 0.9043,1.60742 0.10531,0.19801 0.18458,0.35853 0.23438,0.46679 0.0249,0.0541 0.0419,0.0962 0.0488,0.11524 0.007,0.0191 -0.008,0.0418 -0.008,-0.0859 0,0.273 0.0631,0.2975 0.11914,0.41602 0.056,0.11851 0.13011,0.25713 0.22266,0.41992 0.1851,0.32559 0.44562,0.74901 0.76562,1.25 0.64001,1.00198 1.51817,2.30701 2.48438,3.68164 0.95867,1.36391 1.8304,2.66326 2.45898,3.65039 0.3143,0.49356 0.56805,0.90957 0.73829,1.21094 0.0851,0.15068 0.1499,0.27308 0.1875,0.35351 0.0376,0.0804 0.0234,0.18946 0.0234,-0.006 0,0.19912 0.0394,0.2148 0.0645,0.27539 0.0251,0.0606 0.0533,0.12184 0.0898,0.19336 0.073,0.14306 0.17498,0.3247 0.30664,0.55274 0.26332,0.45608 0.64801,1.09255 1.14648,1.89844 0.99695,1.61177 2.44888,3.89997 4.27735,6.74414 3.65694,5.68833 8.81937,13.59611 14.8457,22.72656 2.84262,4.30684 4.41745,7.011 4.91992,8.63281 0.25124,0.81091 0.22985,1.30582 0.0762,1.63086 -0.15368,0.32504 -0.48094,0.58245 -1.09571,0.81836 -0.3263,0.12521 -1.47643,0.24994 -2.96484,0.25 -1.48841,6e-5 -3.36886,-0.0883 -5.39258,-0.24609 -4.04744,-0.31549 -8.67976,-0.91161 -11.96875,-1.63282 -1.33629,-0.29301 -2.60324,-0.50698 -3.58398,-0.61523 -0.49038,-0.0541 -0.90822,-0.0813 -1.24219,-0.0781 -0.16699,0.002 -0.31112,0.009 -0.44922,0.0332 -0.1381,0.024 -0.27871,0.0307 -0.46094,0.21289 -0.2093,0.2093 -0.26907,0.5098 -0.25586,0.79883 0.0132,0.28903 0.0854,0.61879 0.22071,1.0625 0.27055,0.8874 0.8013,2.22544 1.7246,4.33398 1.84662,4.21708 5.26037,11.49843 11.24024,24.12695 2.20929,4.66568 3.41973,6.76638 14.89258,25.85547 2.69186,4.47885 5.10201,8.74157 6.8125,11.99219 0.85524,1.62531 1.53593,2.99903 1.98633,4.01172 0.22519,0.50634 0.39315,0.92248 0.49414,1.22461 0.10098,0.30212 0.0911,0.55033 0.11718,0.41797 -0.0563,0.28587 -0.10155,0.38821 -0.39257,0.55273 -0.29102,0.16452 -0.87792,0.32944 -1.88086,0.43945 -2.00588,0.22003 -5.63867,0.25633 -12.04493,0.22852 -7.94099,-0.0345 -19.86176,-0.62177 -26.42968,-1.30078 -6.60486,-0.68283 -13.78313,-1.32917 -16.02735,-1.43945 l -4.51562,-0.22266 -0.50977,29.51758 -0.49023,28.51367 -24.76367,0.26172 -24.75,0.26172 -0.1875,-23.76563 c -0.10602,-13.3437 -0.077,-26.40526 0.0566,-28.85742 0.0786,-1.44284 0.0892,-2.57401 -0.11524,-3.49414 -0.20439,-0.92013 -0.68398,-1.65262 -1.47656,-2.05664 -1.58516,-0.80804 -4.10333,-0.53005 -8.64453,0.0996 -10.71084,1.48512 -38.19235,3.22571 -45.09375,2.875 -2.56107,-0.13015 -4.18347,-0.30717 -5.12109,-0.58594 -0.46882,-0.13938 -0.75589,-0.30022 -0.92579,-0.45898 -0.1699,-0.15877 -0.24974,-0.31646 -0.29882,-0.57422 0.0219,0.11478 0.0135,-0.11574 0.10742,-0.4043 0.0939,-0.28856 0.24995,-0.6871 0.46093,-1.16797 0.42197,-0.96173 1.06165,-2.26056 1.86524,-3.79492 1.60717,-3.06873 3.87356,-7.08011 6.40625,-11.28125 6.85086,-11.36398 14.28464,-25.1651 19.77344,-36.2832 2.74439,-5.55906 5.00253,-10.44622 6.46093,-14.03125 0.72921,-1.79252 1.25716,-3.25585 1.55079,-4.33789 0.14681,-0.54103 0.23788,-0.98386 0.25781,-1.35547 0.01,-0.18581 0.004,-0.35412 -0.041,-0.52735 -0.0447,-0.17322 -0.14514,-0.37679 -0.34765,-0.50195 -0.31791,-0.19647 -0.60751,-0.20188 -1.01758,-0.22266 -0.41007,-0.0208 -0.91257,-0.009 -1.48633,0.0293 -1.14752,0.0772 -2.57834,0.26544 -4.03711,0.54492 -6.88244,1.31859 -12.04962,1.93223 -15.4375,1.85547 -1.69394,-0.0384 -2.94117,-0.25893 -3.69922,-0.59961 -0.75805,-0.34068 -1.00586,-0.69277 -1.00586,-1.23633 0,-0.38536 0.005,-0.60646 0.1543,-1.03906 0.14975,-0.4326 0.46185,-1.07064 1.08203,-2.13672 1.24036,-2.13215 3.70078,-5.96629 8.51563,-13.45117 13.89404,-21.59888 15.54268,-24.14403 18.46484,-28.49023 1.68086,-2.5 4.3796,-6.9961 6.02734,-10.04102 0.8151,-1.50623 1.68953,-3.04654 2.43946,-4.30859 0.74992,-1.26205 1.39572,-2.26657 1.67382,-2.61914 0.22327,-0.28306 0.63766,-0.93871 1.30469,-2.00977 0.66704,-1.07106 1.55321,-2.51916 2.5957,-4.24219 2.08499,-3.44604 4.79599,-7.99069 7.63282,-12.80468 11.08735,-18.81487 12.74131,-21.53807 18.22265,-29.98243 1.97444,-3.04173 4.19118,-6.84089 4.98047,-8.5625 0.87642,-1.91163 2.00244,-2.83194 3.54297,-3.01171 0.39074,-0.0456 0.68347,-0.11106 0.90235,-0.12305 z m -0.55274,2.57422 c -0.98231,0.42519 -1.92061,1.58711 -2.70898,3.32422 -0.93029,2.04978 -3.06459,5.81152 -4.69532,8.26757 -3.73704,5.62842 -4.48321,6.84696 -9.50976,15.50977 -2.225,3.83462 -8.76994,14.64077 -14.5293,23.98828 -2.88124,4.67631 -5.57438,9.09596 -7.59375,12.45117 -1.00968,1.67761 -1.85038,3.08927 -2.46289,4.13477 -0.61251,1.0455 -0.9727,1.66402 -1.10937,1.97461 -0.14233,0.32345 -0.73347,1.34863 -1.51954,2.61133 -0.78606,1.2627 -1.78138,2.80298 -2.79492,4.31054 -2.04143,3.03648 -5.13885,7.91415 -6.90039,10.86719 -0.87376,1.46479 -1.78213,2.92736 -2.53711,4.09961 -0.75498,1.17225 -1.38827,2.08544 -1.59961,2.33008 -0.60821,0.70402 -1.83529,2.50777 -3.79101,5.52148 -1.95573,3.01371 -4.6074,7.20539 -7.94727,12.56055 l -4.8164,7.72266 8.29101,-0.77735 c 3.99309,-0.37465 9.97494,-0.76419 13.25391,-0.86328 l 5.46875,-0.16602 -0.0996,3.23438 c -0.0321,1.0483 -0.57021,3.0732 -1.56446,5.70508 -0.99424,2.63187 -2.43531,5.90205 -4.24023,9.5918 -3.157,6.45377 -6.28776,12.85797 -6.95898,14.23437 -1.44838,2.97001 -4.18405,8.12779 -6.69141,12.70508 -1.25368,2.28864 -2.45085,4.4346 -3.40234,6.08984 -0.95149,1.65524 -1.70769,2.87625 -1.89649,3.10938 -0.71175,0.87886 -1.51787,2.21493 -1.875,3.13281 -0.0511,0.13134 -0.26862,0.55426 -0.58594,1.10742 -0.31732,0.55316 -0.74215,1.26154 -1.24218,2.07422 -1.00008,1.62536 -2.3026,3.66641 -3.66211,5.72461 -1.36512,2.06668 -2.57974,3.97297 -3.44141,5.38672 -0.43083,0.70687 -0.77224,1.29019 -1.00391,1.71484 -0.11583,0.21233 -0.20518,0.38387 -0.26757,0.52539 -0.0312,0.0708 -0.0549,0.13123 -0.0762,0.20899 -0.0107,0.0389 -0.0223,0.0799 -0.0254,0.15234 -0.003,0.0724 -0.0175,0.20846 0.12891,0.375 0.15057,0.17124 0.23127,0.16057 0.29883,0.17969 0.0676,0.0191 0.1258,0.028 0.1914,0.0371 0.13121,0.0181 0.28804,0.0303 0.48047,0.0391 0.38488,0.0176 0.91292,0.0228 1.57422,0.0176 1.3226,-0.0104 3.17198,-0.0632 5.38281,-0.14649 4.42167,-0.16663 10.28432,-0.45937 16.20899,-0.79882 5.92467,-0.33946 11.91042,-0.72596 16.57812,-1.08008 2.33386,-0.17706 4.33653,-0.34655 5.8418,-0.49805 0.75264,-0.0758 1.38144,-0.14639 1.86719,-0.21289 0.48575,-0.0665 0.80619,-0.11624 1.05273,-0.19727 2.44068,-0.80213 4.98771,-1.08909 7.02735,-0.91601 2.03963,0.17308 3.50594,0.84454 3.9414,1.6582 0.009,0.0164 0.10672,0.31878 0.17578,0.75391 0.0691,0.43513 0.13628,1.02955 0.19922,1.76562 0.12589,1.47214 0.23511,3.51317 0.32422,6.05274 0.17823,5.07913 0.27539,12.15053 0.27539,20.6914 V 365.5 h 23 23 v -28.80078 c 0,-10.33629 0.0817,-17.48856 0.27149,-22.1543 0.0949,-2.33287 0.21708,-4.04484 0.36718,-5.20898 0.0751,-0.58208 0.15925,-1.02857 0.24219,-1.33399 0.0829,-0.30542 0.19229,-0.46768 0.17383,-0.44922 0.54338,-0.54338 1.94659,-0.96402 4.02734,-1.00195 2.08076,-0.0379 4.81499,0.26298 8.01954,0.91211 3.59144,0.7275 14.17951,1.51943 24.27148,2.03711 5.04598,0.25884 9.95019,0.44422 13.75391,0.50781 1.90185,0.0318 3.52753,0.0341 4.76367,-0.002 0.61807,-0.018 1.13808,-0.0454 1.55273,-0.084 0.41466,-0.0386 0.7054,-0.0743 0.96485,-0.17188 0.51067,-0.19212 0.94904,-0.35111 1.27539,-0.73047 0.32634,-0.37936 0.37561,-0.9447 0.20312,-1.53125 -0.34498,-1.17309 -1.42297,-2.8935 -3.51953,-6.2539 -2.39971,-3.8463 -5.00514,-8.13501 -5.75977,-9.47852 -0.7801,-1.38886 -3.64295,-6.33165 -6.375,-11.00781 -6.73531,-11.52815 -6.5654,-11.20734 -11.60742,-21.96094 -4.39569,-9.37512 -6.83067,-14.67319 -8.07617,-17.84961 -0.62275,-1.58821 -0.94602,-2.64382 -1.07226,-3.39062 -0.12625,-0.74681 -0.0712,-1.16754 0.0703,-1.61329 0.13542,-0.42668 0.26596,-0.70906 0.41406,-0.88281 0.1481,-0.17375 0.31398,-0.27843 0.67187,-0.35742 0.71579,-0.15798 2.13866,-0.0788 4.66602,0.19922 7.90511,0.8697 12.99378,1.39228 16.15625,1.63672 1.58124,0.12221 2.67753,0.17578 3.42383,0.16601 0.37315,-0.005 0.65635,-0.0228 0.89062,-0.0664 0.23428,-0.0436 0.47126,-0.0642 0.66211,-0.37305 0.16606,-0.26869 0.0842,-0.38088 0.0625,-0.47852 -0.0217,-0.0976 -0.0543,-0.18596 -0.0937,-0.28515 -0.0789,-0.1984 -0.19408,-0.43838 -0.34765,-0.73438 -0.30714,-0.592 -0.7647,-1.39512 -1.3418,-2.36133 -1.15421,-1.93241 -2.78531,-4.51348 -4.62305,-7.2871 -3.66645,-5.53365 -8.94869,-13.6231 -11.73242,-17.96876 -2.78663,-4.35019 -5.93163,-9.26022 -6.98828,-10.91015 -3.1738,-4.95589 -3.84858,-6.06823 -5.82227,-9.59375 -1.06322,-1.89921 -4.3171,-7.11191 -7.26757,-11.65039 -1.47104,-2.26278 -2.80801,-4.38147 -3.77539,-5.96875 -0.4837,-0.79364 -0.87567,-1.45468 -1.14258,-1.92969 -0.13346,-0.2375 -0.23634,-0.42934 -0.30078,-0.56055 -0.0322,-0.0656 -0.0543,-0.11682 -0.0645,-0.14257 -0.0101,-0.0258 0.006,-0.0633 0.006,0.084 0,-0.30893 -0.0902,-0.41693 -0.19531,-0.64063 -0.10511,-0.22369 -0.24876,-0.48962 -0.42383,-0.79296 -0.35014,-0.60669 -0.82497,-1.35557 -1.34961,-2.11133 -1.08884,-1.56853 -5.40068,-8.67374 -9.39453,-15.39258 -1.99692,-3.35942 -3.9222,-6.63289 -5.34765,-9.09961 -0.71273,-1.23336 -1.30151,-2.26525 -1.70899,-3.00195 -0.20374,-0.36835 -0.36219,-0.66437 -0.4668,-0.86914 -0.0523,-0.10239 -0.0917,-0.18381 -0.11328,-0.23243 -0.0108,-0.0243 -0.0176,-0.0411 -0.0176,-0.041 5e-5,1.3e-4 0.0176,-0.009 0.0176,0.12305 0,-0.21027 -0.0371,-0.2112 -0.0605,-0.26758 -0.0234,-0.0564 -0.0506,-0.11361 -0.084,-0.17969 -0.0667,-0.13216 -0.15891,-0.29846 -0.27539,-0.50391 -0.23295,-0.4109 -0.56527,-0.97242 -0.97461,-1.64648 -0.81869,-1.34812 -1.94424,-3.14851 -3.18359,-5.08203 -1.23307,-1.92371 -2.35469,-3.77887 -3.16407,-5.20899 -0.40468,-0.71505 -0.73207,-1.32487 -0.95312,-1.77734 -0.11052,-0.22624 -0.19406,-0.41346 -0.24609,-0.54687 -0.052,-0.13342 -0.0586,-0.24928 -0.0586,-0.14844 0,-0.74053 -0.13564,-1.31577 -0.52343,-1.70117 -0.3878,-0.3854 -0.99908,-0.41182 -1.49024,-0.19922 z m 0.78516,0.9082 c 0.0822,0.0817 0.22851,0.39173 0.22851,0.99219 0,0.22881 0.0586,0.33639 0.12696,0.51172 0.0684,0.17532 0.1613,0.38152 0.27929,0.62304 0.23599,0.48305 0.56953,1.10593 0.98047,1.83203 0.82188,1.45221 1.95143,3.31637 3.19336,5.25391 1.23565,1.92773 2.35931,3.72447 3.17188,5.0625 0.40628,0.66902 0.7349,1.22389 0.95898,1.61914 0.11204,0.19763 0.19828,0.3566 0.25195,0.46289 0.0268,0.0531 0.0453,0.0934 0.0527,0.11133 0.007,0.0179 -0.0156,0.0682 -0.0156,-0.11523 0,0.14915 0.0247,0.16816 0.0391,0.20898 0.0143,0.0408 0.0295,0.0761 0.0469,0.11524 0.0347,0.0783 0.0797,0.16972 0.13672,0.28124 0.11395,0.22306 0.27583,0.52297 0.48242,0.89649 0.41319,0.74703 1.00236,1.78321 1.7168,3.01953 1.42887,2.47263 3.35701,5.74933 5.35547,9.11133 3.9969,6.72399 8.2453,13.7422 9.43164,15.45117 0.50986,0.73447 0.97495,1.46631 1.30664,2.04102 0.16584,0.28735 0.29884,0.53589 0.38476,0.71875 0.0859,0.18285 0.0996,0.37265 0.0996,0.21484 0,0.18507 0.0359,0.21364 0.0625,0.28125 0.0266,0.0676 0.0602,0.13646 0.0996,0.2168 0.0789,0.16068 0.18757,0.3627 0.32617,0.60937 0.27721,0.49334 0.67281,1.1613 1.16016,1.96094 0.9747,1.59928 2.31545,3.72439 3.79102,5.99414 2.94273,4.52658 6.21384,9.77429 7.23242,11.59375 1.97743,3.53222 2.67776,4.6856 5.85351,9.64453 1.05674,1.65007 4.20164,6.55994 6.98828,10.91016 2.78957,4.35477 8.07017,12.44331 11.74024,17.98242 1.83053,2.76275 3.45725,5.33546 4.59961,7.24805 0.57118,0.95629 1.02216,1.74897 1.3125,2.30859 0.0993,0.19146 0.14993,0.31095 0.20898,0.44141 -0.13974,0.0152 -0.26663,0.032 -0.50781,0.0352 -0.68465,0.009 -1.76827,-0.0409 -3.33594,-0.16211 -3.13534,-0.24234 -8.22101,-0.7654 -16.12304,-1.63476 -2.54111,-0.27957 -3.97405,-0.40593 -4.99024,-0.18164 -0.50809,0.11214 -0.92687,0.34311 -1.21875,0.68554 -0.29188,0.34244 -0.45483,0.75392 -0.60547,1.22852 -0.18049,0.56867 -0.25,1.21552 -0.10351,2.08203 0.14648,0.86651 0.49236,1.97145 1.12695,3.58984 1.26917,3.2368 3.70667,8.53257 8.10352,17.91016 5.04165,10.75282 4.91346,10.51149 11.64843,22.03906 2.73068,4.67384 5.60266,9.63105 6.36719,10.99219 0.79,1.40649 3.37887,5.66778 5.7832,9.52148 2.09461,3.35727 3.15798,5.15303 3.40821,6.00391 0.12511,0.42544 0.0845,0.49716 -0.002,0.59766 -0.0864,0.1005 -0.38234,0.26413 -0.86914,0.44726 -0.0475,0.0179 -0.32457,0.0759 -0.70507,0.11133 -0.38051,0.0354 -0.88534,0.0624 -1.49024,0.0801 -1.20979,0.0353 -2.82406,0.0336 -4.7168,0.002 -3.78547,-0.0633 -8.68335,-0.24746 -13.7207,-0.50586 -10.07469,-0.51679 -20.7754,-1.34141 -24.12305,-2.01953 -3.25379,-0.6591 -6.04438,-0.97159 -8.23632,-0.93164 -2.19195,0.04 -3.80777,0.38589 -4.7168,1.29492 -0.23766,0.23767 -0.33103,0.51684 -0.43359,0.89453 -0.10257,0.3777 -0.18903,0.8576 -0.26758,1.4668 -0.1571,1.2184 -0.2795,2.94907 -0.375,5.29688 -0.19101,4.69561 -0.27149,11.85381 -0.27149,22.19531 V 364.5 h -22 -22 v -27.06641 c 0,-8.54854 -0.0984,-15.62783 -0.27734,-20.72656 -0.0895,-2.54936 -0.1978,-4.6022 -0.32617,-6.10351 -0.0642,-0.75066 -0.1337,-1.36167 -0.20899,-1.83594 -0.0753,-0.47428 -0.12957,-0.78495 -0.28125,-1.06836 -0.72572,-1.35601 -2.53758,-1.9988 -4.73828,-2.18555 -2.2007,-0.18674 -4.85583,0.12086 -7.42383,0.96485 -0.0726,0.0238 -0.41087,0.0924 -0.87695,0.15625 -0.46608,0.0638 -1.0846,0.13395 -1.83008,0.20898 -1.49096,0.15006 -3.48931,0.3194 -5.81836,0.49609 -4.65809,0.3534 -10.63877,0.73895 -16.55859,1.07813 -5.91982,0.33918 -11.77858,0.63064 -16.18945,0.79687 -2.20544,0.0831 -4.04982,0.13627 -5.35352,0.14649 -0.61671,0.005 -1.0903,-0.003 -1.43945,-0.0176 0.009,-0.0166 0.0101,-0.0218 0.0195,-0.0391 0.21742,-0.39854 0.55437,-0.97277 0.98047,-1.67188 0.8522,-1.39821 2.06423,-3.2991 3.42383,-5.35742 1.36519,-2.0668 2.67041,-4.11286 3.67773,-5.75 0.50366,-0.81857 0.93247,-1.53441 1.25781,-2.10156 0.32535,-0.56715 0.541,-0.96103 0.65039,-1.24219 0.28485,-0.73212 1.09619,-2.09605 1.72071,-2.86719 0.36626,-0.45226 1.02947,-1.57566 1.98632,-3.24023 0.95685,-1.66457 2.15602,-3.81437 3.41211,-6.10742 2.51219,-4.5861 5.24711,-9.74237 6.71289,-12.74805 0.66986,-1.3736 3.80205,-7.77878 6.95899,-14.23242 1.8151,-3.71057 3.26708,-7.00346 4.27734,-9.67774 1.01026,-2.67427 1.58824,-4.70055 1.62891,-6.02734 l 0.13281,-4.29687 -6.53125,0.19726 c -3.32103,0.10036 -9.29707,0.4899 -13.31836,0.86719 l -6.28125,0.58984 3.74805,-6.00976 c 3.33805,-5.35225 5.98947,-9.54006 7.93945,-12.54493 1.94998,-3.00486 3.22979,-4.85743 3.70899,-5.4121 0.33761,-0.39081 0.92104,-1.25937 1.68359,-2.44336 0.76254,-1.184 1.67301,-2.65218 2.55273,-4.12696 1.74547,-2.9261 4.84706,-7.80874 6.87305,-10.82226 1.02017,-1.51744 2.02085,-3.06505 2.81445,-4.33985 0.79361,-1.2748 1.36524,-2.23673 1.58594,-2.73828 0.0448,-0.10191 0.4456,-0.83339 1.05469,-1.87305 0.60909,-1.03965 1.45056,-2.44752 2.45898,-4.12304 2.01686,-3.35104 4.70826,-7.76967 7.58789,-12.44336 5.76243,-9.35249 12.30012,-20.14634 14.54297,-24.01172 5.02541,-8.66085 5.74424,-9.83277 9.47852,-15.45703 1.66793,-2.5121 3.79476,-6.25415 4.77148,-8.40625 0.72638,-1.60052 1.6719,-2.59376 2.19531,-2.82031 0.26171,-0.11328 0.3065,-0.0914 0.38868,-0.01 z"
         id="path28" />
    </g>
  </g>
</svg>
