<?xml version="1.0" encoding="UTF-8" standalone="no"?>
<svg
   xmlns:dc="http://purl.org/dc/elements/1.1/"
   xmlns:cc="http://creativecommons.org/ns#"
   xmlns:rdf="http://www.w3.org/1999/02/22-rdf-syntax-ns#"
   xmlns:svg="http://www.w3.org/2000/svg"
   xmlns="http://www.w3.org/2000/svg"
   xmlns:sodipodi="http://sodipodi.sourceforge.net/DTD/sodipodi-0.dtd"
   xmlns:inkscape="http://www.inkscape.org/namespaces/inkscape"
   height="100mm"
   width="100mm"
   data-name="Layer 1"
   viewBox="0 0 377.95278 377.95277"
   x="0px"
   y="0px"
   version="1.1"
   id="svg82"
   sodipodi:docname="Turntable.svg"
   inkscape:version="1.0 (4035a4fb49, 2020-05-01)">
  <metadata
     id="metadata88">
    <rdf:RDF>
      <cc:Work
         rdf:about="">
        <dc:format>image/svg+xml</dc:format>
        <dc:type
           rdf:resource="http://purl.org/dc/dcmitype/StillImage" />
        <dc:title>Record Player</dc:title>
      </cc:Work>
    </rdf:RDF>
  </metadata>
  <defs
     id="defs86" />
  <sodipodi:namedview
     units="mm"
     inkscape:document-units="mm"
     inkscape:document-rotation="0"
     pagecolor="#ffffff"
     bordercolor="#666666"
     borderopacity="1"
     objecttolerance="10"
     gridtolerance="10"
     guidetolerance="10"
     inkscape:pageopacity="0"
     inkscape:pageshadow="2"
     inkscape:window-width="1274"
     inkscape:window-height="728"
     id="namedview84"
     showgrid="false"
     inkscape:zoom="0.8046875"
     inkscape:cx="256"
     inkscape:cy="220.58252"
     inkscape:window-x="26"
     inkscape:window-y="0"
     inkscape:window-maximized="0"
     inkscape:current-layer="svg82" />
  <title
     id="title60">Record Player</title>
  <g
     style="fill:none;stroke:#000000"
     data-name="Group"
     id="g76"
     transform="matrix(0.81455335,0,0,0.81455335,-19.142003,-58.240564)">
    <path
       style="fill:none;stroke:#000000"
       data-name="Compound Path"
       d="M 186.726,363.662 A 129.147,129.147 0 1 0 57.578,234.515 129.293,129.293 0 0 0 186.726,363.662 Z m 0,-242.294 A 113.147,113.147 0 1 1 73.578,234.515 113.275,113.275 0 0 1 186.726,121.368 Z"
       id="path62" />
    <path
       style="fill:none;stroke:#000000"
       data-name="Compound Path"
       d="m 133.684,236.068 a 56.148,56.148 0 1 0 56.148,-56.149 56.212,56.212 0 0 0 -56.148,56.149 z m 96.3,0 a 40.148,40.148 0 1 1 -40.148,-40.149 40.193,40.193 0 0 1 40.144,40.149 z"
       id="path64" />
    <path
       style="fill:none;stroke:#000000"
       data-name="Path"
       d="m 188.274,310.386 a 7.809,7.809 0 1 0 0,15.614 v 0 c 50.627,0 91.839,-40.8 91.867,-91.431 0,-4.418 -3.577,-7.569 -8,-7.569 v 0 a 7.8,7.8 0 0 0 -8,7.753 75.814,75.814 0 0 1 -75.867,75.633 z"
       id="path66" />
    <path
       style="fill:none;stroke:#000000"
       data-name="Path"
       d="m 112.407,234.762 a 76.127,76.127 0 0 1 75.876,-76 7.883,7.883 0 1 0 0,-15.765 v 0 c -50.628,0 -91.838,41.3 -91.867,91.931 a 8.054,8.054 0 0 0 8,8.069 v 0 a 8.211,8.211 0 0 0 7.991,-8.235 z"
       id="path68" />
    <path
       style="fill:none;stroke:#000000"
       data-name="Compound Path"
       d="m 167.92,236.068 a 21.912,21.912 0 1 0 21.912,-21.911 21.936,21.936 0 0 0 -21.912,21.911 z m 27.823,0 a 5.912,5.912 0 1 1 -5.911,-5.911 5.917,5.917 0 0 1 5.911,5.911 z"
       id="path70" />
    <path
       style="fill:none;stroke:#000000"
       data-name="Compound Path"
       d="M 487,116.97 A 44.97,44.97 0 0 0 442.03,72 H 68.97 A 44.97,44.97 0 0 0 24,116.97 V 394.03 A 44.97,44.97 0 0 0 68.97,439 H 442.03 A 44.97,44.97 0 0 0 487,394.03 Z M 69.3,88 H 377 v 147.174 a 31.9,31.9 0 0 1 -7.084,20.322 l -28.333,34.585 -5.009,-3.3 a 7.96,7.96 0 0 0 -11.058,2.365 l -18.185,28.211 a 8,8 0 0 0 2.208,10.937 l 20.255,13.863 a 8,8 0 0 0 11.135,-2.1 l 19.192,-28.212 a 8,8 0 0 0 -2.245,-11.2 l -2.712,-1.769 27.112,-33.219 A 47.927,47.927 0 0 0 393,235.174 V 88 h 49.7 A 29.628,29.628 0 0 1 472,117.364 V 377 H 40 V 117.364 A 29.628,29.628 0 0 1 69.3,88 Z m 273,221.589 -10.091,14.834 -7.209,-4.935 9.616,-14.911 z M 442.7,424 H 69.3 A 29.628,29.628 0 0 1 40,394.636 V 393 h 432 v 1.636 A 29.628,29.628 0 0 1 442.7,424 Z"
       id="path72" />
    <path
       style="fill:none;stroke:#000000"
       data-name="Compound Path"
       d="m 433.455,159.111 a 29.258,29.258 0 1 0 -29.255,-29.257 29.291,29.291 0 0 0 29.255,29.257 z m 0,-42.515 A 13.258,13.258 0 1 1 420.2,129.854 13.272,13.272 0 0 1 433.455,116.6 Z"
       id="path74" />
  </g>
</svg>
