  0
SECTION
  2
HEADER
  9
$ACADVER
  1
AC1014
  9
$HANDSEED
  5
FFFF
  9
$MEASUREMENT
 70
     1
  0
ENDSEC
  0
SECTION
  2
TABLES
  0
TABLE
  2
VPORT
  5
8
330
0
100
AcDbSymbolTable
 70
     4
  0
VPORT
  5
2E
330
8
100
AcDbSymbolTableRecord
100
AcDbViewportTableRecord
  2
*ACTIVE
 70
     0
 10
0.0
 20
0.0
 11
1.0
 21
1.0
 12
210.0
 22
148.5
 13
0.0
 23
0.0
 14
10.0
 24
10.0
 15
10.0
 25
10.0
 16
0.0
 26
0.0
 36
1.0
 17
0.0
 27
0.0
 37
0.0
 40
341.0
 41
1.24
 42
50.0
 43
0.0
 44
0.0
 50
0.0
 51
0.0
 71
     0
 72
   100
 73
     1
 74
     3
 75
     0
 76
     0
 77
     0
 78
     0
  0
ENDTAB
  0
TABLE
  2
LTYPE
  5
5
330
0
100
AcDbSymbolTable
 70
     1
  0
LTYPE
  5
14
330
5
100
AcDbSymbolTableRecord
100
AcDbLinetypeTableRecord
  2
BYBLOCK
 70
     0
  3

 72
    65
 73
     0
 40
0.0
  0
LTYPE
  5
15
330
5
100
AcDbSymbolTableRecord
100
AcDbLinetypeTableRecord
  2
BYLAYER
 70
     0
  3

 72
    65
 73
     0
 40
0.0
  0
LTYPE
  5
16
330
5
100
AcDbSymbolTableRecord
100
AcDbLinetypeTableRecord
  2
CONTINUOUS
 70
     0
  3
Solid line
 72
    65
 73
     0
 40
0.0
  0
ENDTAB
  0
TABLE
  2
LAYER
  5
2
100
AcDbSymbolTable
 70
1
  0
LAYER
  5
50
100
AcDbSymbolTableRecord
100
AcDbLayerTableRecord
  2
0
 70
0
  6
CONTINUOUS
  0
ENDTAB
  0
TABLE
  2
STYLE
  5
3
330
0
100
AcDbSymbolTable
 70
     1
  0
STYLE
  5
11
330
3
100
AcDbSymbolTableRecord
100
AcDbTextStyleTableRecord
  2
STANDARD
 70
     0
 40
0.0
 41
1.0
 50
0.0
 71
     0
 42
2.5
  3
txt
  4

  0
ENDTAB
  0
TABLE
  2
VIEW
  5
6
330
0
100
AcDbSymbolTable
 70
     0
  0
ENDTAB
  0
TABLE
  2
UCS
  5
7
330
0
100
AcDbSymbolTable
 70
     0
  0
ENDTAB
  0
TABLE
  2
APPID
  5
9
330
0
100
AcDbSymbolTable
 70
     2
  0
APPID
  5
12
330
9
100
AcDbSymbolTableRecord
100
AcDbRegAppTableRecord
  2
ACAD
 70
     0
  0
ENDTAB
  0
TABLE
  2
DIMSTYLE
  5
A
330
0
100
AcDbSymbolTable
 70
     1
  0
DIMSTYLE
105
27
330
A
100
AcDbSymbolTableRecord
100
AcDbDimStyleTableRecord
  2
ISO-25
 70
     0
  3

  4

  5

  6

  7

 40
1.0
 41
2.5
 42
0.625
 43
3.75
 44
1.25
 45
0.0
 46
0.0
 47
0.0
 48
0.0
140
2.5
141
2.5
142
0.0
143
0.03937007874016
144
1.0
145
0.0
146
1.0
147
0.625
 71
     0
 72
     0
 73
     0
 74
     0
 75
     0
 76
     0
 77
     1
 78
     8
170
     0
171
     3
172
     1
173
     0
174
     0
175
     0
176
     0
177
     0
178
     0
270
     2
271
     2
272
     2
273
     2
274
     3
340
11
275
     0
280
     0
281
     0
282
     0
283
     0
284
     8
285
     0
286
     0
287
     3
288
     0
  0
ENDTAB
  0
TABLE
  2
BLOCK_RECORD
  5
1
330
0
100
AcDbSymbolTable
 70
     1
  0
BLOCK_RECORD
  5
1F
330
1
100
AcDbSymbolTableRecord
100
AcDbBlockTableRecord
  2
*MODEL_SPACE
  0
BLOCK_RECORD
  5
1B
330
1
100
AcDbSymbolTableRecord
100
AcDbBlockTableRecord
  2
*PAPER_SPACE
  0
ENDTAB
  0
ENDSEC
  0
SECTION
  2
BLOCKS
  0
BLOCK
  5
20
330
1F
100
AcDbEntity
  8
0
100
AcDbBlockBegin
  2
*MODEL_SPACE
 70
     0
 10
0.0
 20
0.0
 30
0.0
  3
*MODEL_SPACE
  1

  0
ENDBLK
  5
21
330
1F
100
AcDbEntity
  8
0
100
AcDbBlockEnd
  0
BLOCK
  5
1C
330
1B
100
AcDbEntity
 67
     1
  8
0
100
AcDbBlockBegin
  2
*PAPER_SPACE
  1

  0
ENDBLK
  5
1D
330
1B
100
AcDbEntity
 67
     1
  8
0
100
AcDbBlockEnd
  0
ENDSEC
  0
SECTION
  2
ENTITIES
  0
SPLINE
  5
100
100
AcDbEntity
  8
0
 62
7
100
AcDbSpline
 70
8
 71
3
 72
8
 73
4
 74
0
 40
0
 40
0
 40
0
 40
0
 40
1
 40
1
 40
1
 40
1
 10
12.500000
 20
23.742388
 30
0.0
 10
18.711420
 20
23.742388
 30
0.0
 10
23.742385
 20
18.711423
 30
0.0
 10
23.742385
 20
12.500004
 30
0.0
  0
SPLINE
  5
101
100
AcDbEntity
  8
0
 62
7
100
AcDbSpline
 70
8
 71
3
 72
8
 73
4
 74
0
 40
0
 40
0
 40
0
 40
0
 40
1
 40
1
 40
1
 40
1
 10
23.742385
 20
12.500004
 30
0.0
 10
23.735336
 20
6.291407
 30
0.0
 10
18.708597
 20
1.264703
 30
0.0
 10
12.500000
 20
1.257619
 30
0.0
  0
SPLINE
  5
102
100
AcDbEntity
  8
0
 62
7
100
AcDbSpline
 70
8
 71
3
 72
8
 73
4
 74
0
 40
0
 40
0
 40
0
 40
0
 40
1
 40
1
 40
1
 40
1
 10
12.500000
 20
1.257619
 30
0.0
 10
6.288581
 20
1.257619
 30
0.0
 10
1.257616
 20
6.288584
 30
0.0
 10
1.257616
 20
12.500004
 30
0.0
  0
SPLINE
  5
103
100
AcDbEntity
  8
0
 62
7
100
AcDbSpline
 70
8
 71
3
 72
8
 73
4
 74
0
 40
0
 40
0
 40
0
 40
0
 40
1
 40
1
 40
1
 40
1
 10
1.257616
 20
12.500004
 30
0.0
 10
1.257616
 20
18.711423
 30
0.0
 10
6.288581
 20
23.742388
 30
0.0
 10
12.500000
 20
23.742388
 30
0.0
  0
LINE
  5
104
100
AcDbEntity
  8
0
 62
7
100
AcDbLine
 10
12.500000
 20
23.742388
 30
0.0
 11
12.500000
 21
23.742388
 31
0.0
  0
SPLINE
  5
105
100
AcDbEntity
  8
0
 62
7
100
AcDbSpline
 70
8
 71
3
 72
8
 73
4
 74
0
 40
0
 40
0
 40
0
 40
0
 40
1
 40
1
 40
1
 40
1
 10
12.500000
 20
24.151203
 30
0.0
 10
6.067642
 20
24.151203
 30
0.0
 10
0.848801
 20
18.932363
 30
0.0
 10
0.848801
 20
12.500004
 30
0.0
  0
SPLINE
  5
106
100
AcDbEntity
  8
0
 62
7
100
AcDbSpline
 70
8
 71
3
 72
8
 73
4
 74
0
 40
0
 40
0
 40
0
 40
0
 40
1
 40
1
 40
1
 40
1
 10
0.848801
 20
12.500004
 30
0.0
 10
0.848801
 20
6.067645
 30
0.0
 10
6.067642
 20
0.848804
 30
0.0
 10
12.500000
 20
0.848804
 30
0.0
  0
SPLINE
  5
107
100
AcDbEntity
  8
0
 62
7
100
AcDbSpline
 70
8
 71
3
 72
8
 73
4
 74
0
 40
0
 40
0
 40
0
 40
0
 40
1
 40
1
 40
1
 40
1
 10
12.500000
 20
0.848804
 30
0.0
 10
18.929205
 20
0.856182
 30
0.0
 10
24.143864
 20
6.070799
 30
0.0
 10
24.151200
 20
12.500004
 30
0.0
  0
SPLINE
  5
108
100
AcDbEntity
  8
0
 62
7
100
AcDbSpline
 70
8
 71
3
 72
8
 73
4
 74
0
 40
0
 40
0
 40
0
 40
0
 40
1
 40
1
 40
1
 40
1
 10
24.151200
 20
12.500004
 30
0.0
 10
24.151200
 20
18.932363
 30
0.0
 10
18.932359
 20
24.151203
 30
0.0
 10
12.500000
 20
24.151203
 30
0.0
  0
LINE
  5
109
100
AcDbEntity
  8
0
 62
7
100
AcDbLine
 10
12.500000
 20
24.151203
 30
0.0
 11
12.500000
 21
24.151203
 31
0.0
  0
SPLINE
  5
10a
100
AcDbEntity
  8
0
 62
7
100
AcDbSpline
 70
8
 71
3
 72
8
 73
4
 74
0
 40
0
 40
0
 40
0
 40
0
 40
1
 40
1
 40
1
 40
1
 10
12.500000
 20
24.560016
 30
0.0
 10
19.159971
 20
24.552475
 30
0.0
 10
24.552479
 20
19.159974
 30
0.0
 10
24.560015
 20
12.500004
 30
0.0
  0
SPLINE
  5
10b
100
AcDbEntity
  8
0
 62
7
100
AcDbSpline
 70
8
 71
3
 72
8
 73
4
 74
0
 40
0
 40
0
 40
0
 40
0
 40
1
 40
1
 40
1
 40
1
 10
24.560015
 20
12.500004
 30
0.0
 10
24.560015
 20
5.837022
 30
0.0
 10
19.162982
 20
0.439990
 30
0.0
 10
12.500000
 20
0.439990
 30
0.0
  0
SPLINE
  5
10c
100
AcDbEntity
  8
0
 62
7
100
AcDbSpline
 70
8
 71
3
 72
8
 73
4
 74
0
 40
0
 40
0
 40
0
 40
0
 40
1
 40
1
 40
1
 40
1
 10
12.500000
 20
0.439990
 30
0.0
 10
5.837019
 20
0.439990
 30
0.0
 10
0.439988
 20
5.837022
 30
0.0
 10
0.439988
 20
12.500004
 30
0.0
  0
SPLINE
  5
10d
100
AcDbEntity
  8
0
 62
7
100
AcDbSpline
 70
8
 71
3
 72
8
 73
4
 74
0
 40
0
 40
0
 40
0
 40
0
 40
1
 40
1
 40
1
 40
1
 10
0.439988
 20
12.500004
 30
0.0
 10
0.439988
 20
19.162985
 30
0.0
 10
5.837019
 20
24.560016
 30
0.0
 10
12.500000
 20
24.560016
 30
0.0
  0
LINE
  5
10e
100
AcDbEntity
  8
0
 62
7
100
AcDbLine
 10
12.500000
 20
24.560016
 30
0.0
 11
12.500000
 21
24.560016
 31
0.0
  0
SPLINE
  5
10f
100
AcDbEntity
  8
0
 62
7
100
AcDbSpline
 70
8
 71
3
 72
8
 73
4
 74
0
 40
0
 40
0
 40
0
 40
0
 40
1
 40
1
 40
1
 40
1
 10
12.500000
 20
24.968831
 30
0.0
 10
5.616078
 20
24.968831
 30
0.0
 10
0.031173
 20
19.383926
 30
0.0
 10
0.031173
 20
12.500004
 30
0.0
  0
SPLINE
  5
110
100
AcDbEntity
  8
0
 62
7
100
AcDbSpline
 70
8
 71
3
 72
8
 73
4
 74
0
 40
0
 40
0
 40
0
 40
0
 40
1
 40
1
 40
1
 40
1
 10
0.031173
 20
12.500004
 30
0.0
 10
0.031173
 20
5.616081
 30
0.0
 10
5.616078
 20
0.031177
 30
0.0
 10
12.500000
 20
0.031177
 30
0.0
  0
SPLINE
  5
111
100
AcDbEntity
  8
0
 62
7
100
AcDbSpline
 70
8
 71
3
 72
8
 73
4
 74
0
 40
0
 40
0
 40
0
 40
0
 40
1
 40
1
 40
1
 40
1
 10
12.500000
 20
0.031177
 30
0.0
 10
19.383923
 20
0.031177
 30
0.0
 10
24.968828
 20
5.616081
 30
0.0
 10
24.968828
 20
12.500004
 30
0.0
  0
SPLINE
  5
112
100
AcDbEntity
  8
0
 62
7
100
AcDbSpline
 70
8
 71
3
 72
8
 73
4
 74
0
 40
0
 40
0
 40
0
 40
0
 40
1
 40
1
 40
1
 40
1
 10
24.968828
 20
12.500004
 30
0.0
 10
24.961123
 20
19.380587
 30
0.0
 10
19.380584
 20
24.961046
 30
0.0
 10
12.500000
 20
24.968831
 30
0.0
  0
LINE
  5
113
100
AcDbEntity
  8
0
 62
7
100
AcDbLine
 10
12.500000
 20
24.968831
 30
0.0
 11
12.500000
 21
24.968831
 31
0.0
  0
SPLINE
  5
114
100
AcDbEntity
  8
0
 62
7
100
AcDbSpline
 70
8
 71
3
 72
8
 73
4
 74
0
 40
0
 40
0
 40
0
 40
0
 40
1
 40
1
 40
1
 40
1
 10
12.500000
 20
15.974923
 30
0.0
 10
14.421566
 20
15.974923
 30
0.0
 10
15.974920
 20
14.421569
 30
0.0
 10
15.974920
 20
12.500004
 30
0.0
  0
SPLINE
  5
115
100
AcDbEntity
  8
0
 62
7
100
AcDbSpline
 70
8
 71
3
 72
8
 73
4
 74
0
 40
0
 40
0
 40
0
 40
0
 40
1
 40
1
 40
1
 40
1
 10
15.974920
 20
12.500004
 30
0.0
 10
15.974920
 20
10.578439
 30
0.0
 10
14.421566
 20
9.025085
 30
0.0
 10
12.500000
 20
9.025085
 30
0.0
  0
SPLINE
  5
116
100
AcDbEntity
  8
0
 62
7
100
AcDbSpline
 70
8
 71
3
 72
8
 73
4
 74
0
 40
0
 40
0
 40
0
 40
0
 40
1
 40
1
 40
1
 40
1
 10
12.500000
 20
9.025085
 30
0.0
 10
10.579209
 20
9.027216
 30
0.0
 10
9.027212
 20
10.579212
 30
0.0
 10
9.025081
 20
12.500004
 30
0.0
  0
SPLINE
  5
117
100
AcDbEntity
  8
0
 62
7
100
AcDbSpline
 70
8
 71
3
 72
8
 73
4
 74
0
 40
0
 40
0
 40
0
 40
0
 40
1
 40
1
 40
1
 40
1
 10
9.025081
 20
12.500004
 30
0.0
 10
9.025081
 20
14.421569
 30
0.0
 10
10.578435
 20
15.974923
 30
0.0
 10
12.500000
 20
15.974923
 30
0.0
  0
LINE
  5
118
100
AcDbEntity
  8
0
 62
7
100
AcDbLine
 10
12.500000
 20
15.974923
 30
0.0
 11
12.500000
 21
15.974923
 31
0.0
  0
SPLINE
  5
119
100
AcDbEntity
  8
0
 62
7
100
AcDbSpline
 70
8
 71
3
 72
8
 73
4
 74
0
 40
0
 40
0
 40
0
 40
0
 40
1
 40
1
 40
1
 40
1
 10
12.500000
 20
16.383737
 30
0.0
 10
10.357496
 20
16.383737
 30
0.0
 10
8.616268
 20
14.642509
 30
0.0
 10
8.616268
 20
12.500004
 30
0.0
  0
SPLINE
  5
11a
100
AcDbEntity
  8
0
 62
7
100
AcDbSpline
 70
8
 71
3
 72
8
 73
4
 74
0
 40
0
 40
0
 40
0
 40
0
 40
1
 40
1
 40
1
 40
1
 10
8.616268
 20
12.500004
 30
0.0
 10
8.618563
 20
10.358593
 30
0.0
 10
10.358589
 20
8.618642
 30
0.0
 10
12.500000
 20
8.616272
 30
0.0
  0
SPLINE
  5
11b
100
AcDbEntity
  8
0
 62
7
100
AcDbSpline
 70
8
 71
3
 72
8
 73
4
 74
0
 40
0
 40
0
 40
0
 40
0
 40
1
 40
1
 40
1
 40
1
 10
12.500000
 20
8.616272
 30
0.0
 10
14.642505
 20
8.616272
 30
0.0
 10
16.383733
 20
10.357499
 30
0.0
 10
16.383733
 20
12.500004
 30
0.0
  0
SPLINE
  5
11c
100
AcDbEntity
  8
0
 62
7
100
AcDbSpline
 70
8
 71
3
 72
8
 73
4
 74
0
 40
0
 40
0
 40
0
 40
0
 40
1
 40
1
 40
1
 40
1
 10
16.383733
 20
12.500004
 30
0.0
 10
16.383733
 20
14.642509
 30
0.0
 10
14.642505
 20
16.383737
 30
0.0
 10
12.500000
 20
16.383737
 30
0.0
  0
LINE
  5
11d
100
AcDbEntity
  8
0
 62
7
100
AcDbLine
 10
12.500000
 20
16.383737
 30
0.0
 11
12.500000
 21
16.383737
 31
0.0
  0
SPLINE
  5
11e
100
AcDbEntity
  8
0
 62
7
100
AcDbSpline
 70
8
 71
3
 72
8
 73
4
 74
0
 40
0
 40
0
 40
0
 40
0
 40
1
 40
1
 40
1
 40
1
 10
12.500000
 20
16.792551
 30
0.0
 10
14.873130
 20
16.792551
 30
0.0
 10
16.792547
 20
14.873133
 30
0.0
 10
16.792547
 20
12.500004
 30
0.0
  0
SPLINE
  5
11f
100
AcDbEntity
  8
0
 62
7
100
AcDbSpline
 70
8
 71
3
 72
8
 73
4
 74
0
 40
0
 40
0
 40
0
 40
0
 40
1
 40
1
 40
1
 40
1
 10
16.792547
 20
12.500004
 30
0.0
 10
16.789761
 20
10.127917
 30
0.0
 10
14.872089
 20
8.210270
 30
0.0
 10
12.500000
 20
8.207457
 30
0.0
  0
SPLINE
  5
120
100
AcDbEntity
  8
0
 62
7
100
AcDbSpline
 70
8
 71
3
 72
8
 73
4
 74
0
 40
0
 40
0
 40
0
 40
0
 40
1
 40
1
 40
1
 40
1
 10
12.500000
 20
8.207457
 30
0.0
 10
10.126871
 20
8.207457
 30
0.0
 10
8.207453
 20
10.126875
 30
0.0
 10
8.207453
 20
12.500004
 30
0.0
  0
SPLINE
  5
121
100
AcDbEntity
  8
0
 62
7
100
AcDbSpline
 70
8
 71
3
 72
8
 73
4
 74
0
 40
0
 40
0
 40
0
 40
0
 40
1
 40
1
 40
1
 40
1
 10
8.207453
 20
12.500004
 30
0.0
 10
8.207453
 20
14.873133
 30
0.0
 10
10.126871
 20
16.792551
 30
0.0
 10
12.500000
 20
16.792551
 30
0.0
  0
LINE
  5
122
100
AcDbEntity
  8
0
 62
7
100
AcDbLine
 10
12.500000
 20
16.792551
 30
0.0
 11
12.500000
 21
16.792551
 31
0.0
  0
SPLINE
  5
123
100
AcDbEntity
  8
0
 62
7
100
AcDbSpline
 70
8
 71
3
 72
8
 73
4
 74
0
 40
0
 40
0
 40
0
 40
0
 40
1
 40
1
 40
1
 40
1
 10
12.500000
 20
17.201364
 30
0.0
 10
9.905932
 20
17.201364
 30
0.0
 10
7.798640
 20
15.094073
 30
0.0
 10
7.798640
 20
12.500004
 30
0.0
  0
SPLINE
  5
124
100
AcDbEntity
  8
0
 62
7
100
AcDbSpline
 70
8
 71
3
 72
8
 73
4
 74
0
 40
0
 40
0
 40
0
 40
0
 40
1
 40
1
 40
1
 40
1
 10
7.798640
 20
12.500004
 30
0.0
 10
7.798640
 20
9.905935
 30
0.0
 10
9.905932
 20
7.798644
 30
0.0
 10
12.500000
 20
7.798644
 30
0.0
  0
SPLINE
  5
125
100
AcDbEntity
  8
0
 62
7
100
AcDbSpline
 70
8
 71
3
 72
8
 73
4
 74
0
 40
0
 40
0
 40
0
 40
0
 40
1
 40
1
 40
1
 40
1
 10
12.500000
 20
7.798644
 30
0.0
 10
15.092684
 20
7.801758
 30
0.0
 10
17.198303
 20
9.907319
 30
0.0
 10
17.201361
 20
12.500004
 30
0.0
  0
SPLINE
  5
126
100
AcDbEntity
  8
0
 62
7
100
AcDbSpline
 70
8
 71
3
 72
8
 73
4
 74
0
 40
0
 40
0
 40
0
 40
0
 40
1
 40
1
 40
1
 40
1
 10
17.201361
 20
12.500004
 30
0.0
 10
17.201361
 20
15.094073
 30
0.0
 10
15.094069
 20
17.201364
 30
0.0
 10
12.500000
 20
17.201364
 30
0.0
  0
LINE
  5
127
100
AcDbEntity
  8
0
 62
7
100
AcDbLine
 10
12.500000
 20
17.201364
 30
0.0
 11
12.500000
 21
17.201364
 31
0.0
  0
SPLINE
  5
128
100
AcDbEntity
  8
0
 62
7
100
AcDbSpline
 70
8
 71
3
 72
8
 73
4
 74
0
 40
0
 40
0
 40
0
 40
0
 40
1
 40
1
 40
1
 40
1
 10
12.500000
 20
13.930853
 30
0.0
 10
13.292658
 20
13.930853
 30
0.0
 10
13.930849
 20
13.292661
 30
0.0
 10
13.930849
 20
12.500004
 30
0.0
  0
SPLINE
  5
129
100
AcDbEntity
  8
0
 62
7
100
AcDbSpline
 70
8
 71
3
 72
8
 73
4
 74
0
 40
0
 40
0
 40
0
 40
0
 40
1
 40
1
 40
1
 40
1
 10
13.930849
 20
12.500004
 30
0.0
 10
13.930849
 20
11.707347
 30
0.0
 10
13.292658
 20
11.069155
 30
0.0
 10
12.500000
 20
11.069155
 30
0.0
  0
SPLINE
  5
12a
100
AcDbEntity
  8
0
 62
7
100
AcDbSpline
 70
8
 71
3
 72
8
 73
4
 74
0
 40
0
 40
0
 40
0
 40
0
 40
1
 40
1
 40
1
 40
1
 10
12.500000
 20
11.069155
 30
0.0
 10
11.707343
 20
11.069155
 30
0.0
 10
11.069151
 20
11.707347
 30
0.0
 10
11.069151
 20
12.500004
 30
0.0
  0
SPLINE
  5
12b
100
AcDbEntity
  8
0
 62
7
100
AcDbSpline
 70
8
 71
3
 72
8
 73
4
 74
0
 40
0
 40
0
 40
0
 40
0
 40
1
 40
1
 40
1
 40
1
 10
11.069151
 20
12.500004
 30
0.0
 10
11.069151
 20
13.292661
 30
0.0
 10
11.707343
 20
13.930853
 30
0.0
 10
12.500000
 20
13.930853
 30
0.0
  0
LINE
  5
12c
100
AcDbEntity
  8
0
 62
7
100
AcDbLine
 10
12.500000
 20
13.930853
 30
0.0
 11
12.500000
 21
13.930853
 31
0.0
  0
SPLINE
  5
12d
100
AcDbEntity
  8
0
 62
7
100
AcDbSpline
 70
8
 71
3
 72
8
 73
4
 74
0
 40
0
 40
0
 40
0
 40
0
 40
1
 40
1
 40
1
 40
1
 10
12.500000
 20
14.339666
 30
0.0
 10
11.486404
 20
14.339666
 30
0.0
 10
10.660338
 20
13.513601
 30
0.0
 10
10.660338
 20
12.500004
 30
0.0
  0
SPLINE
  5
12e
100
AcDbEntity
  8
0
 62
7
100
AcDbSpline
 70
8
 71
3
 72
8
 73
4
 74
0
 40
0
 40
0
 40
0
 40
0
 40
1
 40
1
 40
1
 40
1
 10
10.660338
 20
12.500004
 30
0.0
 10
10.660338
 20
11.486407
 30
0.0
 10
11.486404
 20
10.660340
 30
0.0
 10
12.500000
 20
10.660340
 30
0.0
  0
SPLINE
  5
12f
100
AcDbEntity
  8
0
 62
7
100
AcDbSpline
 70
8
 71
3
 72
8
 73
4
 74
0
 40
0
 40
0
 40
0
 40
0
 40
1
 40
1
 40
1
 40
1
 10
12.500000
 20
10.660340
 30
0.0
 10
13.513597
 20
10.660340
 30
0.0
 10
14.339664
 20
11.486407
 30
0.0
 10
14.339664
 20
12.500004
 30
0.0
  0
SPLINE
  5
130
100
AcDbEntity
  8
0
 62
7
100
AcDbSpline
 70
8
 71
3
 72
8
 73
4
 74
0
 40
0
 40
0
 40
0
 40
0
 40
1
 40
1
 40
1
 40
1
 10
14.339664
 20
12.500004
 30
0.0
 10
14.339664
 20
13.513601
 30
0.0
 10
13.513597
 20
14.339666
 30
0.0
 10
12.500000
 20
14.339666
 30
0.0
  0
LINE
  5
131
100
AcDbEntity
  8
0
 62
7
100
AcDbLine
 10
12.500000
 20
14.339666
 30
0.0
 11
12.500000
 21
14.339666
 31
0.0
  0
SPLINE
  5
132
100
AcDbEntity
  8
0
 62
7
100
AcDbSpline
 70
8
 71
3
 72
8
 73
4
 74
0
 40
0
 40
0
 40
0
 40
0
 40
1
 40
1
 40
1
 40
1
 10
12.500000
 20
14.748481
 30
0.0
 10
13.744222
 20
14.748481
 30
0.0
 10
14.748477
 20
13.744225
 30
0.0
 10
14.748477
 20
12.500004
 30
0.0
  0
SPLINE
  5
133
100
AcDbEntity
  8
0
 62
7
100
AcDbSpline
 70
8
 71
3
 72
8
 73
4
 74
0
 40
0
 40
0
 40
0
 40
0
 40
1
 40
1
 40
1
 40
1
 10
14.748477
 20
12.500004
 30
0.0
 10
14.747251
 20
11.256199
 30
0.0
 10
13.743805
 20
10.252766
 30
0.0
 10
12.500000
 20
10.251527
 30
0.0
  0
SPLINE
  5
134
100
AcDbEntity
  8
0
 62
7
100
AcDbSpline
 70
8
 71
3
 72
8
 73
4
 74
0
 40
0
 40
0
 40
0
 40
0
 40
1
 40
1
 40
1
 40
1
 10
12.500000
 20
10.251527
 30
0.0
 10
11.255779
 20
10.251527
 30
0.0
 10
10.251523
 20
11.255783
 30
0.0
 10
10.251523
 20
12.500004
 30
0.0
  0
SPLINE
  5
135
100
AcDbEntity
  8
0
 62
7
100
AcDbSpline
 70
8
 71
3
 72
8
 73
4
 74
0
 40
0
 40
0
 40
0
 40
0
 40
1
 40
1
 40
1
 40
1
 10
10.251523
 20
12.500004
 30
0.0
 10
10.251523
 20
13.744225
 30
0.0
 10
11.255779
 20
14.748481
 30
0.0
 10
12.500000
 20
14.748481
 30
0.0
  0
LINE
  5
136
100
AcDbEntity
  8
0
 62
7
100
AcDbLine
 10
12.500000
 20
14.748481
 30
0.0
 11
12.500000
 21
14.748481
 31
0.0
  0
SPLINE
  5
137
100
AcDbEntity
  8
0
 62
7
100
AcDbSpline
 70
8
 71
3
 72
8
 73
4
 74
0
 40
0
 40
0
 40
0
 40
0
 40
1
 40
1
 40
1
 40
1
 10
12.500000
 20
15.157296
 30
0.0
 10
11.034840
 20
15.157296
 30
0.0
 10
9.842709
 20
13.965165
 30
0.0
 10
9.842709
 20
12.500004
 30
0.0
  0
SPLINE
  5
138
100
AcDbEntity
  8
0
 62
7
100
AcDbSpline
 70
8
 71
3
 72
8
 73
4
 74
0
 40
0
 40
0
 40
0
 40
0
 40
1
 40
1
 40
1
 40
1
 10
9.842709
 20
12.500004
 30
0.0
 10
9.842709
 20
11.034843
 30
0.0
 10
11.034840
 20
9.842712
 30
0.0
 10
12.500000
 20
9.842712
 30
0.0
  0
SPLINE
  5
139
100
AcDbEntity
  8
0
 62
7
100
AcDbSpline
 70
8
 71
3
 72
8
 73
4
 74
0
 40
0
 40
0
 40
0
 40
0
 40
1
 40
1
 40
1
 40
1
 10
12.500000
 20
9.842712
 30
0.0
 10
13.964456
 20
9.844185
 30
0.0
 10
15.155830
 20
11.035548
 30
0.0
 10
15.157292
 20
12.500004
 30
0.0
  0
SPLINE
  5
13a
100
AcDbEntity
  8
0
 62
7
100
AcDbSpline
 70
8
 71
3
 72
8
 73
4
 74
0
 40
0
 40
0
 40
0
 40
0
 40
1
 40
1
 40
1
 40
1
 10
15.157292
 20
12.500004
 30
0.0
 10
15.157292
 20
13.965165
 30
0.0
 10
13.965161
 20
15.157296
 30
0.0
 10
12.500000
 20
15.157296
 30
0.0
  0
LINE
  5
13b
100
AcDbEntity
  8
0
 62
7
100
AcDbLine
 10
12.500000
 20
15.157296
 30
0.0
 11
12.500000
 21
15.157296
 31
0.0
  0
SPLINE
  5
13c
100
AcDbEntity
  8
0
 62
7
100
AcDbSpline
 70
8
 71
3
 72
8
 73
4
 74
0
 40
0
 40
0
 40
0
 40
0
 40
1
 40
1
 40
1
 40
1
 10
12.500000
 20
19.654249
 30
0.0
 10
12.615312
 20
19.654249
 30
0.0
 10
12.704407
 20
19.565151
 30
0.0
 10
12.704407
 20
19.449841
 30
0.0
  0
SPLINE
  5
13d
100
AcDbEntity
  8
0
 62
7
100
AcDbSpline
 70
8
 71
3
 72
8
 73
4
 74
0
 40
0
 40
0
 40
0
 40
0
 40
1
 40
1
 40
1
 40
1
 10
12.704407
 20
19.449841
 30
0.0
 10
12.704407
 20
19.395546
 30
0.0
 10
12.682915
 20
19.343710
 30
0.0
 10
12.644522
 20
19.305317
 30
0.0
  0
SPLINE
  5
13e
100
AcDbEntity
  8
0
 62
7
100
AcDbSpline
 70
8
 71
3
 72
8
 73
4
 74
0
 40
0
 40
0
 40
0
 40
0
 40
1
 40
1
 40
1
 40
1
 10
12.644522
 20
19.305317
 30
0.0
 10
12.606128
 20
19.266923
 30
0.0
 10
12.554292
 20
19.245431
 30
0.0
 10
12.499997
 20
19.245431
 30
0.0
  0
SPLINE
  5
13f
100
AcDbEntity
  8
0
 62
7
100
AcDbSpline
 70
8
 71
3
 72
8
 73
4
 74
0
 40
0
 40
0
 40
0
 40
0
 40
1
 40
1
 40
1
 40
1
 10
12.499997
 20
19.245431
 30
0.0
 10
8.778965
 20
19.241005
 30
0.0
 10
5.758978
 20
16.221033
 30
0.0
 10
5.754566
 20
12.500001
 30
0.0
  0
SPLINE
  5
140
100
AcDbEntity
  8
0
 62
7
100
AcDbSpline
 70
8
 71
3
 72
8
 73
4
 74
0
 40
0
 40
0
 40
0
 40
0
 40
1
 40
1
 40
1
 40
1
 10
5.754566
 20
12.500001
 30
0.0
 10
5.754566
 20
12.384689
 30
0.0
 10
5.665468
 20
12.295594
 30
0.0
 10
5.550160
 20
12.295594
 30
0.0
  0
SPLINE
  5
141
100
AcDbEntity
  8
0
 62
7
100
AcDbSpline
 70
8
 71
3
 72
8
 73
4
 74
0
 40
0
 40
0
 40
0
 40
0
 40
1
 40
1
 40
1
 40
1
 10
5.550160
 20
12.295594
 30
0.0
 10
5.434848
 20
12.295594
 30
0.0
 10
5.345752
 20
12.384693
 30
0.0
 10
5.345752
 20
12.500001
 30
0.0
  0
SPLINE
  5
142
100
AcDbEntity
  8
0
 62
7
100
AcDbSpline
 70
8
 71
3
 72
8
 73
4
 74
0
 40
0
 40
0
 40
0
 40
0
 40
1
 40
1
 40
1
 40
1
 10
5.345752
 20
12.500001
 30
0.0
 10
5.350342
 20
16.451809
 30
0.0
 10
8.548189
 20
19.649644
 30
0.0
 10
12.499997
 20
19.654246
 30
0.0
  0
LINE
  5
143
100
AcDbEntity
  8
0
 62
7
100
AcDbLine
 10
12.499997
 20
19.654246
 30
0.0
 11
12.500000
 21
19.654249
 31
0.0
  0
SPLINE
  5
144
100
AcDbEntity
  8
0
 62
7
100
AcDbSpline
 70
8
 71
3
 72
8
 73
4
 74
0
 40
0
 40
0
 40
0
 40
0
 40
1
 40
1
 40
1
 40
1
 10
12.500000
 20
20.063062
 30
0.0
 10
8.327589
 20
20.058144
 30
0.0
 10
4.941801
 20
16.672415
 30
0.0
 10
4.936942
 20
12.500004
 30
0.0
  0
SPLINE
  5
145
100
AcDbEntity
  8
0
 62
7
100
AcDbSpline
 70
8
 71
3
 72
8
 73
4
 74
0
 40
0
 40
0
 40
0
 40
0
 40
1
 40
1
 40
1
 40
1
 10
4.936942
 20
12.500004
 30
0.0
 10
4.936942
 20
12.163753
 30
0.0
 10
5.213911
 20
11.886783
 30
0.0
 10
5.550163
 20
11.886783
 30
0.0
  0
SPLINE
  5
146
100
AcDbEntity
  8
0
 62
7
100
AcDbSpline
 70
8
 71
3
 72
8
 73
4
 74
0
 40
0
 40
0
 40
0
 40
0
 40
1
 40
1
 40
1
 40
1
 10
5.550163
 20
11.886783
 30
0.0
 10
5.886414
 20
11.886783
 30
0.0
 10
6.163383
 20
12.163753
 30
0.0
 10
6.163383
 20
12.500004
 30
0.0
  0
SPLINE
  5
147
100
AcDbEntity
  8
0
 62
7
100
AcDbSpline
 70
8
 71
3
 72
8
 73
4
 74
0
 40
0
 40
0
 40
0
 40
0
 40
1
 40
1
 40
1
 40
1
 10
6.163383
 20
12.500004
 30
0.0
 10
6.167481
 20
16.000440
 30
0.0
 10
8.999565
 20
18.832471
 30
0.0
 10
12.500000
 20
18.836622
 30
0.0
  0
SPLINE
  5
148
100
AcDbEntity
  8
0
 62
7
100
AcDbSpline
 70
8
 71
3
 72
8
 73
4
 74
0
 40
0
 40
0
 40
0
 40
0
 40
1
 40
1
 40
1
 40
1
 10
12.500000
 20
18.836622
 30
0.0
 10
12.662558
 20
18.836622
 30
0.0
 10
12.818622
 20
18.901326
 30
0.0
 10
12.933567
 20
19.016276
 30
0.0
  0
SPLINE
  5
149
100
AcDbEntity
  8
0
 62
7
100
AcDbSpline
 70
8
 71
3
 72
8
 73
4
 74
0
 40
0
 40
0
 40
0
 40
0
 40
1
 40
1
 40
1
 40
1
 10
12.933567
 20
19.016276
 30
0.0
 10
13.048518
 20
19.131226
 30
0.0
 10
13.113222
 20
19.287284
 30
0.0
 10
13.113222
 20
19.449841
 30
0.0
  0
SPLINE
  5
14a
100
AcDbEntity
  8
0
 62
7
100
AcDbSpline
 70
8
 71
3
 72
8
 73
4
 74
0
 40
0
 40
0
 40
0
 40
0
 40
1
 40
1
 40
1
 40
1
 10
13.113222
 20
19.449841
 30
0.0
 10
13.113222
 20
19.786094
 30
0.0
 10
12.836251
 20
20.063062
 30
0.0
 10
12.500000
 20
20.063062
 30
0.0
  0
LINE
  5
14b
100
AcDbEntity
  8
0
 62
7
100
AcDbLine
 10
12.500000
 20
20.063062
 30
0.0
 11
12.500000
 21
20.063062
 31
0.0
  0
SPLINE
  5
14c
100
AcDbEntity
  8
0
 62
7
100
AcDbSpline
 70
8
 71
3
 72
8
 73
4
 74
0
 40
0
 40
0
 40
0
 40
0
 40
1
 40
1
 40
1
 40
1
 10
19.449840
 20
12.704411
 30
0.0
 10
19.565151
 20
12.704411
 30
0.0
 10
19.654246
 20
12.615312
 30
0.0
 10
19.654246
 20
12.500004
 30
0.0
  0
SPLINE
  5
14d
100
AcDbEntity
  8
0
 62
7
100
AcDbSpline
 70
8
 71
3
 72
8
 73
4
 74
0
 40
0
 40
0
 40
0
 40
0
 40
1
 40
1
 40
1
 40
1
 10
19.654246
 20
12.500004
 30
0.0
 10
19.649656
 20
8.548194
 30
0.0
 10
16.451810
 20
5.350360
 30
0.0
 10
12.500000
 20
5.345758
 30
0.0
  0
SPLINE
  5
14e
100
AcDbEntity
  8
0
 62
7
100
AcDbSpline
 70
8
 71
3
 72
8
 73
4
 74
0
 40
0
 40
0
 40
0
 40
0
 40
1
 40
1
 40
1
 40
1
 10
12.500000
 20
5.345758
 30
0.0
 10
12.384689
 20
5.345758
 30
0.0
 10
12.295594
 20
5.434857
 30
0.0
 10
12.295594
 20
5.550165
 30
0.0
  0
SPLINE
  5
14f
100
AcDbEntity
  8
0
 62
7
100
AcDbSpline
 70
8
 71
3
 72
8
 73
4
 74
0
 40
0
 40
0
 40
0
 40
0
 40
1
 40
1
 40
1
 40
1
 10
12.295594
 20
5.550165
 30
0.0
 10
12.295594
 20
5.665476
 30
0.0
 10
12.384692
 20
5.754573
 30
0.0
 10
12.500000
 20
5.754573
 30
0.0
  0
SPLINE
  5
150
100
AcDbEntity
  8
0
 62
7
100
AcDbSpline
 70
8
 71
3
 72
8
 73
4
 74
0
 40
0
 40
0
 40
0
 40
0
 40
1
 40
1
 40
1
 40
1
 10
12.500000
 20
5.754573
 30
0.0
 10
16.221033
 20
5.758999
 30
0.0
 10
19.241020
 20
8.778972
 30
0.0
 10
19.245431
 20
12.500004
 30
0.0
  0
SPLINE
  5
151
100
AcDbEntity
  8
0
 62
7
100
AcDbSpline
 70
8
 71
3
 72
8
 73
4
 74
0
 40
0
 40
0
 40
0
 40
0
 40
1
 40
1
 40
1
 40
1
 10
19.245431
 20
12.500004
 30
0.0
 10
19.245431
 20
12.615315
 30
0.0
 10
19.334530
 20
12.704411
 30
0.0
 10
19.449840
 20
12.704411
 30
0.0
  0
LINE
  5
152
100
AcDbEntity
  8
0
 62
7
100
AcDbLine
 10
19.449840
 20
12.704411
 30
0.0
 11
19.449840
 21
12.704411
 31
0.0
  0
SPLINE
  5
153
100
AcDbEntity
  8
0
 62
7
100
AcDbSpline
 70
8
 71
3
 72
8
 73
4
 74
0
 40
0
 40
0
 40
0
 40
0
 40
1
 40
1
 40
1
 40
1
 10
19.449840
 20
13.113225
 30
0.0
 10
19.113587
 20
13.113225
 30
0.0
 10
18.836618
 20
12.836255
 30
0.0
 10
18.836618
 20
12.500004
 30
0.0
  0
SPLINE
  5
154
100
AcDbEntity
  8
0
 62
7
100
AcDbSpline
 70
8
 71
3
 72
8
 73
4
 74
0
 40
0
 40
0
 40
0
 40
0
 40
1
 40
1
 40
1
 40
1
 10
18.836618
 20
12.500004
 30
0.0
 10
18.832520
 20
8.999568
 30
0.0
 10
16.000436
 20
6.167535
 30
0.0
 10
12.500000
 20
6.163386
 30
0.0
  0
SPLINE
  5
155
100
AcDbEntity
  8
0
 62
7
100
AcDbSpline
 70
8
 71
3
 72
8
 73
4
 74
0
 40
0
 40
0
 40
0
 40
0
 40
1
 40
1
 40
1
 40
1
 10
12.500000
 20
6.163386
 30
0.0
 10
12.163750
 20
6.163386
 30
0.0
 10
11.886779
 20
5.886417
 30
0.0
 10
11.886779
 20
5.550165
 30
0.0
  0
SPLINE
  5
156
100
AcDbEntity
  8
0
 62
7
100
AcDbSpline
 70
8
 71
3
 72
8
 73
4
 74
0
 40
0
 40
0
 40
0
 40
0
 40
1
 40
1
 40
1
 40
1
 10
11.886779
 20
5.550165
 30
0.0
 10
11.886779
 20
5.213914
 30
0.0
 10
12.163750
 20
4.936945
 30
0.0
 10
12.500000
 20
4.936945
 30
0.0
  0
SPLINE
  5
157
100
AcDbEntity
  8
0
 62
7
100
AcDbSpline
 70
8
 71
3
 72
8
 73
4
 74
0
 40
0
 40
0
 40
0
 40
0
 40
1
 40
1
 40
1
 40
1
 10
12.500000
 20
4.936945
 30
0.0
 10
16.672411
 20
4.941863
 30
0.0
 10
20.058200
 20
8.327593
 30
0.0
 10
20.063059
 20
12.500004
 30
0.0
  0
SPLINE
  5
158
100
AcDbEntity
  8
0
 62
7
100
AcDbSpline
 70
8
 71
3
 72
8
 73
4
 74
0
 40
0
 40
0
 40
0
 40
0
 40
1
 40
1
 40
1
 40
1
 10
20.063059
 20
12.500004
 30
0.0
 10
20.063059
 20
12.836255
 30
0.0
 10
19.786090
 20
13.113225
 30
0.0
 10
19.449840
 20
13.113225
 30
0.0
  0
LINE
  5
159
100
AcDbEntity
  8
0
 62
7
100
AcDbLine
 10
19.449840
 20
13.113225
 30
0.0
 11
19.449840
 21
13.113225
 31
0.0
  0
SPLINE
  5
15a
100
AcDbEntity
  8
0
 62
7
100
AcDbSpline
 70
8
 71
3
 72
8
 73
4
 74
0
 40
0
 40
0
 40
0
 40
0
 40
1
 40
1
 40
1
 40
1
 10
12.500000
 20
21.289505
 30
0.0
 10
12.615312
 20
21.289505
 30
0.0
 10
12.704407
 20
21.200407
 30
0.0
 10
12.704407
 20
21.085098
 30
0.0
  0
SPLINE
  5
15b
100
AcDbEntity
  8
0
 62
7
100
AcDbSpline
 70
8
 71
3
 72
8
 73
4
 74
0
 40
0
 40
0
 40
0
 40
0
 40
1
 40
1
 40
1
 40
1
 10
12.704407
 20
21.085098
 30
0.0
 10
12.704407
 20
20.969787
 30
0.0
 10
12.615308
 20
20.880690
 30
0.0
 10
12.500000
 20
20.880690
 30
0.0
  0
SPLINE
  5
15c
100
AcDbEntity
  8
0
 62
7
100
AcDbSpline
 70
8
 71
3
 72
8
 73
4
 74
0
 40
0
 40
0
 40
0
 40
0
 40
1
 40
1
 40
1
 40
1
 10
12.500000
 20
20.880690
 30
0.0
 10
7.876210
 20
20.875444
 30
0.0
 10
4.124619
 20
17.123794
 30
0.0
 10
4.119314
 20
12.500004
 30
0.0
  0
SPLINE
  5
15d
100
AcDbEntity
  8
0
 62
7
100
AcDbSpline
 70
8
 71
3
 72
8
 73
4
 74
0
 40
0
 40
0
 40
0
 40
0
 40
1
 40
1
 40
1
 40
1
 10
4.119314
 20
12.500004
 30
0.0
 10
4.119314
 20
12.384693
 30
0.0
 10
4.030216
 20
12.295597
 30
0.0
 10
3.914906
 20
12.295597
 30
0.0
  0
SPLINE
  5
15e
100
AcDbEntity
  8
0
 62
7
100
AcDbSpline
 70
8
 71
3
 72
8
 73
4
 74
0
 40
0
 40
0
 40
0
 40
0
 40
1
 40
1
 40
1
 40
1
 10
3.914906
 20
12.295597
 30
0.0
 10
3.799594
 20
12.295597
 30
0.0
 10
3.710499
 20
12.384696
 30
0.0
 10
3.710499
 20
12.500004
 30
0.0
  0
SPLINE
  5
15f
100
AcDbEntity
  8
0
 62
7
100
AcDbSpline
 70
8
 71
3
 72
8
 73
4
 74
0
 40
0
 40
0
 40
0
 40
0
 40
1
 40
1
 40
1
 40
1
 10
3.710499
 20
12.500004
 30
0.0
 10
3.716073
 20
17.354561
 30
0.0
 10
7.645443
 20
21.283998
 30
0.0
 10
12.500000
 20
21.289505
 30
0.0
  0
LINE
  5
160
100
AcDbEntity
  8
0
 62
7
100
AcDbLine
 10
12.500000
 20
21.289505
 30
0.0
 11
12.500000
 21
21.289505
 31
0.0
  0
SPLINE
  5
161
100
AcDbEntity
  8
0
 62
7
100
AcDbSpline
 70
8
 71
3
 72
8
 73
4
 74
0
 40
0
 40
0
 40
0
 40
0
 40
1
 40
1
 40
1
 40
1
 10
12.500000
 20
21.698320
 30
0.0
 10
7.424832
 20
21.692582
 30
0.0
 10
3.307444
 20
17.575172
 30
0.0
 10
3.301685
 20
12.500004
 30
0.0
  0
SPLINE
  5
162
100
AcDbEntity
  8
0
 62
7
100
AcDbSpline
 70
8
 71
3
 72
8
 73
4
 74
0
 40
0
 40
0
 40
0
 40
0
 40
1
 40
1
 40
1
 40
1
 10
3.301685
 20
12.500004
 30
0.0
 10
3.301685
 20
12.163753
 30
0.0
 10
3.578655
 20
11.886783
 30
0.0
 10
3.914906
 20
11.886783
 30
0.0
  0
SPLINE
  5
163
100
AcDbEntity
  8
0
 62
7
100
AcDbSpline
 70
8
 71
3
 72
8
 73
4
 74
0
 40
0
 40
0
 40
0
 40
0
 40
1
 40
1
 40
1
 40
1
 10
3.914906
 20
11.886783
 30
0.0
 10
4.251158
 20
11.886783
 30
0.0
 10
4.528127
 20
12.163753
 30
0.0
 10
4.528127
 20
12.500004
 30
0.0
  0
SPLINE
  5
164
100
AcDbEntity
  8
0
 62
7
100
AcDbSpline
 70
8
 71
3
 72
8
 73
4
 74
0
 40
0
 40
0
 40
0
 40
0
 40
1
 40
1
 40
1
 40
1
 10
4.528127
 20
12.500004
 30
0.0
 10
4.533209
 20
16.903187
 30
0.0
 10
8.096817
 20
20.466821
 30
0.0
 10
12.500000
 20
20.471877
 30
0.0
  0
SPLINE
  5
165
100
AcDbEntity
  8
0
 62
7
100
AcDbSpline
 70
8
 71
3
 72
8
 73
4
 74
0
 40
0
 40
0
 40
0
 40
0
 40
1
 40
1
 40
1
 40
1
 10
12.500000
 20
20.471877
 30
0.0
 10
12.836251
 20
20.471877
 30
0.0
 10
13.113222
 20
20.748846
 30
0.0
 10
13.113222
 20
21.085098
 30
0.0
  0
SPLINE
  5
166
100
AcDbEntity
  8
0
 62
7
100
AcDbSpline
 70
8
 71
3
 72
8
 73
4
 74
0
 40
0
 40
0
 40
0
 40
0
 40
1
 40
1
 40
1
 40
1
 10
13.113222
 20
21.085098
 30
0.0
 10
13.113222
 20
21.421349
 30
0.0
 10
12.836251
 20
21.698320
 30
0.0
 10
12.500000
 20
21.698320
 30
0.0
  0
LINE
  5
167
100
AcDbEntity
  8
0
 62
7
100
AcDbLine
 10
12.500000
 20
21.698320
 30
0.0
 11
12.500000
 21
21.698320
 31
0.0
  0
SPLINE
  5
168
100
AcDbEntity
  8
0
 62
7
100
AcDbSpline
 70
8
 71
3
 72
8
 73
4
 74
0
 40
0
 40
0
 40
0
 40
0
 40
1
 40
1
 40
1
 40
1
 10
21.085095
 20
12.704411
 30
0.0
 10
21.200407
 20
12.704411
 30
0.0
 10
21.289502
 20
12.615312
 30
0.0
 10
21.289502
 20
12.500004
 30
0.0
  0
SPLINE
  5
169
100
AcDbEntity
  8
0
 62
7
100
AcDbSpline
 70
8
 71
3
 72
8
 73
4
 74
0
 40
0
 40
0
 40
0
 40
0
 40
1
 40
1
 40
1
 40
1
 10
21.289502
 20
12.500004
 30
0.0
 10
21.283928
 20
7.645447
 30
0.0
 10
17.354557
 20
3.716011
 30
0.0
 10
12.500000
 20
3.710503
 30
0.0
  0
SPLINE
  5
16a
100
AcDbEntity
  8
0
 62
7
100
AcDbSpline
 70
8
 71
3
 72
8
 73
4
 74
0
 40
0
 40
0
 40
0
 40
0
 40
1
 40
1
 40
1
 40
1
 10
12.500000
 20
3.710503
 30
0.0
 10
12.384689
 20
3.710503
 30
0.0
 10
12.295594
 20
3.799601
 30
0.0
 10
12.295594
 20
3.914909
 30
0.0
  0
SPLINE
  5
16b
100
AcDbEntity
  8
0
 62
7
100
AcDbSpline
 70
8
 71
3
 72
8
 73
4
 74
0
 40
0
 40
0
 40
0
 40
0
 40
1
 40
1
 40
1
 40
1
 10
12.295594
 20
3.914909
 30
0.0
 10
12.295594
 20
4.030221
 30
0.0
 10
12.384692
 20
4.119316
 30
0.0
 10
12.500000
 20
4.119316
 30
0.0
  0
SPLINE
  5
16c
100
AcDbEntity
  8
0
 62
7
100
AcDbSpline
 70
8
 71
3
 72
8
 73
4
 74
0
 40
0
 40
0
 40
0
 40
0
 40
1
 40
1
 40
1
 40
1
 10
12.500000
 20
4.119316
 30
0.0
 10
17.123792
 20
4.124562
 30
0.0
 10
20.875377
 20
7.876213
 30
0.0
 10
20.880689
 20
12.500004
 30
0.0
  0
SPLINE
  5
16d
100
AcDbEntity
  8
0
 62
7
100
AcDbSpline
 70
8
 71
3
 72
8
 73
4
 74
0
 40
0
 40
0
 40
0
 40
0
 40
1
 40
1
 40
1
 40
1
 10
20.880689
 20
12.500004
 30
0.0
 10
20.880689
 20
12.615315
 30
0.0
 10
20.969787
 20
12.704411
 30
0.0
 10
21.085095
 20
12.704411
 30
0.0
  0
LINE
  5
16e
100
AcDbEntity
  8
0
 62
7
100
AcDbLine
 10
21.085095
 20
12.704411
 30
0.0
 11
21.085095
 21
12.704411
 31
0.0
  0
SPLINE
  5
16f
100
AcDbEntity
  8
0
 62
7
100
AcDbSpline
 70
8
 71
3
 72
8
 73
4
 74
0
 40
0
 40
0
 40
0
 40
0
 40
1
 40
1
 40
1
 40
1
 10
21.085095
 20
13.113225
 30
0.0
 10
20.748843
 20
13.113225
 30
0.0
 10
20.471874
 20
12.836255
 30
0.0
 10
20.471874
 20
12.500004
 30
0.0
  0
SPLINE
  5
170
100
AcDbEntity
  8
0
 62
7
100
AcDbSpline
 70
8
 71
3
 72
8
 73
4
 74
0
 40
0
 40
0
 40
0
 40
0
 40
1
 40
1
 40
1
 40
1
 10
20.471874
 20
12.500004
 30
0.0
 10
20.466792
 20
8.096821
 30
0.0
 10
16.903184
 20
4.533186
 30
0.0
 10
12.500000
 20
4.528130
 30
0.0
  0
SPLINE
  5
171
100
AcDbEntity
  8
0
 62
7
100
AcDbSpline
 70
8
 71
3
 72
8
 73
4
 74
0
 40
0
 40
0
 40
0
 40
0
 40
1
 40
1
 40
1
 40
1
 10
12.500000
 20
4.528130
 30
0.0
 10
12.163750
 20
4.528130
 30
0.0
 10
11.886779
 20
4.251162
 30
0.0
 10
11.886779
 20
3.914909
 30
0.0
  0
SPLINE
  5
172
100
AcDbEntity
  8
0
 62
7
100
AcDbSpline
 70
8
 71
3
 72
8
 73
4
 74
0
 40
0
 40
0
 40
0
 40
0
 40
1
 40
1
 40
1
 40
1
 10
11.886779
 20
3.914909
 30
0.0
 10
11.886779
 20
3.578658
 30
0.0
 10
12.163750
 20
3.301688
 30
0.0
 10
12.500000
 20
3.301688
 30
0.0
  0
SPLINE
  5
173
100
AcDbEntity
  8
0
 62
7
100
AcDbSpline
 70
8
 71
3
 72
8
 73
4
 74
0
 40
0
 40
0
 40
0
 40
0
 40
1
 40
1
 40
1
 40
1
 10
12.500000
 20
3.301688
 30
0.0
 10
17.575169
 20
3.307426
 30
0.0
 10
21.692559
 20
7.424836
 30
0.0
 10
21.698316
 20
12.500004
 30
0.0
  0
SPLINE
  5
174
100
AcDbEntity
  8
0
 62
7
100
AcDbSpline
 70
8
 71
3
 72
8
 73
4
 74
0
 40
0
 40
0
 40
0
 40
0
 40
1
 40
1
 40
1
 40
1
 10
21.698316
 20
12.500004
 30
0.0
 10
21.698316
 20
12.836255
 30
0.0
 10
21.421346
 20
13.113225
 30
0.0
 10
21.085095
 20
13.113225
 30
0.0
  0
LINE
  5
175
100
AcDbEntity
  8
0
 62
7
100
AcDbLine
 10
21.085095
 20
13.113225
 30
0.0
 11
21.085095
 21
13.113225
 31
0.0
  0
SPLINE
  5
176
100
AcDbEntity
  8
0
 62
7
100
AcDbSpline
 70
8
 71
3
 72
8
 73
4
 74
0
 40
0
 40
0
 40
0
 40
0
 40
1
 40
1
 40
1
 40
1
 10
12.500000
 20
22.924761
 30
0.0
 10
12.615312
 20
22.924761
 30
0.0
 10
12.704407
 20
22.835662
 30
0.0
 10
12.704407
 20
22.720354
 30
0.0
  0
SPLINE
  5
177
100
AcDbEntity
  8
0
 62
7
100
AcDbSpline
 70
8
 71
3
 72
8
 73
4
 74
0
 40
0
 40
0
 40
0
 40
0
 40
1
 40
1
 40
1
 40
1
 10
12.704407
 20
22.720354
 30
0.0
 10
12.704407
 20
22.605043
 30
0.0
 10
12.615308
 20
22.515947
 30
0.0
 10
12.500000
 20
22.515947
 30
0.0
  0
SPLINE
  5
178
100
AcDbEntity
  8
0
 62
7
100
AcDbSpline
 70
8
 71
3
 72
8
 73
4
 74
0
 40
0
 40
0
 40
0
 40
0
 40
1
 40
1
 40
1
 40
1
 10
12.500000
 20
22.515947
 30
0.0
 10
12.237053
 20
22.515947
 30
0.0
 10
11.973510
 20
22.505620
 30
0.0
 10
11.715109
 20
22.484013
 30
0.0
  0
LINE
  5
179
100
AcDbEntity
  8
0
 62
7
100
AcDbLine
 10
11.715109
 20
22.484013
 30
0.0
 11
11.670404
 21
22.484013
 31
0.0
  0
SPLINE
  5
17a
100
AcDbEntity
  8
0
 62
7
100
AcDbSpline
 70
8
 71
3
 72
8
 73
4
 74
0
 40
0
 40
0
 40
0
 40
0
 40
1
 40
1
 40
1
 40
1
 10
11.670404
 20
22.484013
 30
0.0
 10
11.598453
 20
22.482500
 30
0.0
 10
11.530879
 20
22.516390
 30
0.0
 10
11.492346
 20
22.577439
 30
0.0
  0
SPLINE
  5
17b
100
AcDbEntity
  8
0
 62
7
100
AcDbSpline
 70
8
 71
3
 72
8
 73
4
 74
0
 40
0
 40
0
 40
0
 40
0
 40
1
 40
1
 40
1
 40
1
 10
11.492346
 20
22.577439
 30
0.0
 10
11.453133
 20
22.639570
 30
0.0
 10
11.450166
 20
22.716816
 30
0.0
 10
11.484313
 20
22.781847
 30
0.0
  0
SPLINE
  5
17c
100
AcDbEntity
  8
0
 62
7
100
AcDbSpline
 70
8
 71
3
 72
8
 73
4
 74
0
 40
0
 40
0
 40
0
 40
0
 40
1
 40
1
 40
1
 40
1
 10
11.484313
 20
22.781847
 30
0.0
 10
11.518510
 20
22.846880
 30
0.0
 10
11.584166
 20
22.888339
 30
0.0
 10
11.657581
 20
22.891241
 30
0.0
  0
LINE
  5
17d
100
AcDbEntity
  8
0
 62
7
100
AcDbLine
 10
11.657581
 20
22.891241
 30
0.0
 11
11.661515
 21
22.891241
 31
0.0
  0
LINE
  5
17e
100
AcDbEntity
  8
0
 62
7
100
AcDbLine
 10
11.661515
 20
22.891241
 30
0.0
 11
11.666269
 21
22.892059
 31
0.0
  0
SPLINE
  5
17f
100
AcDbEntity
  8
0
 62
7
100
AcDbSpline
 70
8
 71
3
 72
8
 73
4
 74
0
 40
0
 40
0
 40
0
 40
0
 40
1
 40
1
 40
1
 40
1
 10
11.666269
 20
22.892059
 30
0.0
 10
11.938369
 20
22.914075
 30
0.0
 10
12.218938
 20
22.924797
 30
0.0
 10
12.499851
 20
22.924797
 30
0.0
  0
LINE
  5
180
100
AcDbEntity
  8
0
 62
7
100
AcDbLine
 10
12.499851
 20
22.924797
 30
0.0
 11
12.500000
 21
22.924761
 31
0.0
  0
SPLINE
  5
181
100
AcDbEntity
  8
0
 62
7
100
AcDbSpline
 70
8
 71
3
 72
8
 73
4
 74
0
 40
0
 40
0
 40
0
 40
0
 40
1
 40
1
 40
1
 40
1
 10
12.500000
 20
23.333575
 30
0.0
 10
12.211254
 20
23.333575
 30
0.0
 10
11.922253
 20
23.321772
 30
0.0
 10
11.640853
 20
23.299247
 30
0.0
  0
SPLINE
  5
182
100
AcDbEntity
  8
0
 62
7
100
AcDbSpline
 70
8
 71
3
 72
8
 73
4
 74
0
 40
0
 40
0
 40
0
 40
0
 40
1
 40
1
 40
1
 40
1
 10
11.640853
 20
23.299247
 30
0.0
 10
11.422620
 20
23.290231
 30
0.0
 10
11.224333
 20
23.166051
 30
0.0
 10
11.122648
 20
22.972675
 30
0.0
  0
SPLINE
  5
183
100
AcDbEntity
  8
0
 62
7
100
AcDbSpline
 70
8
 71
3
 72
8
 73
4
 74
0
 40
0
 40
0
 40
0
 40
0
 40
1
 40
1
 40
1
 40
1
 10
11.122648
 20
22.972675
 30
0.0
 10
11.020779
 20
22.778957
 30
0.0
 10
11.029779
 20
22.544534
 30
0.0
 10
11.146599
 20
22.359454
 30
0.0
  0
SPLINE
  5
184
100
AcDbEntity
  8
0
 62
7
100
AcDbSpline
 70
8
 71
3
 72
8
 73
4
 74
0
 40
0
 40
0
 40
0
 40
0
 40
1
 40
1
 40
1
 40
1
 10
11.146599
 20
22.359454
 30
0.0
 10
11.262205
 20
22.176313
 30
0.0
 10
11.468597
 20
22.070685
 30
0.0
 10
11.684764
 20
22.076798
 30
0.0
  0
LINE
  5
185
100
AcDbEntity
  8
0
 62
7
100
AcDbLine
 10
11.684764
 20
22.076798
 30
0.0
 11
11.682305
 21
22.075203
 31
0.0
  0
LINE
  5
186
100
AcDbEntity
  8
0
 62
7
100
AcDbLine
 10
11.682305
 20
22.075203
 30
0.0
 11
11.687059
 21
22.075203
 31
0.0
  0
SPLINE
  5
187
100
AcDbEntity
  8
0
 62
7
100
AcDbSpline
 70
8
 71
3
 72
8
 73
4
 74
0
 40
0
 40
0
 40
0
 40
0
 40
1
 40
1
 40
1
 40
1
 10
11.687059
 20
22.075203
 30
0.0
 10
11.688327
 20
22.075246
 30
0.0
 10
11.689027
 20
22.073569
 30
0.0
 10
11.690174
 20
22.073610
 30
0.0
  0
LINE
  5
188
100
AcDbEntity
  8
0
 62
7
100
AcDbLine
 10
11.690174
 20
22.073610
 30
0.0
 11
11.723715
 21
22.075203
 31
0.0
  0
LINE
  5
189
100
AcDbEntity
  8
0
 62
7
100
AcDbLine
 10
11.723715
 20
22.075203
 30
0.0
 11
11.778813
 21
22.076798
 31
0.0
  0
SPLINE
  5
18a
100
AcDbEntity
  8
0
 62
7
100
AcDbSpline
 70
8
 71
3
 72
8
 73
4
 74
0
 40
0
 40
0
 40
0
 40
0
 40
1
 40
1
 40
1
 40
1
 10
11.778813
 20
22.076798
 30
0.0
 10
11.795830
 20
22.078147
 30
0.0
 10
11.813633
 20
22.077943
 30
0.0
 10
11.830715
 20
22.079257
 30
0.0
  0
SPLINE
  5
18b
100
AcDbEntity
  8
0
 62
7
100
AcDbSpline
 70
8
 71
3
 72
8
 73
4
 74
0
 40
0
 40
0
 40
0
 40
0
 40
1
 40
1
 40
1
 40
1
 10
11.830715
 20
22.079257
 30
0.0
 10
12.050887
 20
22.095487
 30
0.0
 10
12.274868
 20
22.107208
 30
0.0
 10
12.499835
 20
22.107208
 30
0.0
  0
SPLINE
  5
18c
100
AcDbEntity
  8
0
 62
7
100
AcDbSpline
 70
8
 71
3
 72
8
 73
4
 74
0
 40
0
 40
0
 40
0
 40
0
 40
1
 40
1
 40
1
 40
1
 10
12.499835
 20
22.107208
 30
0.0
 10
12.836086
 20
22.107208
 30
0.0
 10
13.113056
 20
22.384177
 30
0.0
 10
13.113056
 20
22.720428
 30
0.0
  0
SPLINE
  5
18d
100
AcDbEntity
  8
0
 62
7
100
AcDbSpline
 70
8
 71
3
 72
8
 73
4
 74
0
 40
0
 40
0
 40
0
 40
0
 40
1
 40
1
 40
1
 40
1
 10
13.113056
 20
22.720428
 30
0.0
 10
13.113056
 20
23.056680
 30
0.0
 10
12.836086
 20
23.333649
 30
0.0
 10
12.499835
 20
23.333649
 30
0.0
  0
LINE
  5
18e
100
AcDbEntity
  8
0
 62
7
100
AcDbLine
 10
12.499835
 20
23.333649
 30
0.0
 11
12.500000
 21
23.333575
 31
0.0
  0
LINE
  5
18f
100
AcDbEntity
  8
0
 62
7
100
AcDbLine
 10
10.000007
 20
22.621344
 30
0.0
 11
10.002466
 21
22.621344
 31
0.0
  0
SPLINE
  5
190
100
AcDbEntity
  8
0
 62
7
100
AcDbSpline
 70
8
 71
3
 72
8
 73
4
 74
0
 40
0
 40
0
 40
0
 40
0
 40
1
 40
1
 40
1
 40
1
 10
10.002466
 20
22.621344
 30
0.0
 10
10.074351
 20
22.640885
 30
0.0
 10
10.150827
 20
22.620364
 30
0.0
 10
10.202881
 20
22.567049
 30
0.0
  0
SPLINE
  5
191
100
AcDbEntity
  8
0
 62
7
100
AcDbSpline
 70
8
 71
3
 72
8
 73
4
 74
0
 40
0
 40
0
 40
0
 40
0
 40
1
 40
1
 40
1
 40
1
 10
10.202881
 20
22.567049
 30
0.0
 10
10.254946
 20
22.513754
 30
0.0
 10
10.273602
 20
22.437246
 30
0.0
 10
10.252389
 20
22.365836
 30
0.0
  0
SPLINE
  5
192
100
AcDbEntity
  8
0
 62
7
100
AcDbSpline
 70
8
 71
3
 72
8
 73
4
 74
0
 40
0
 40
0
 40
0
 40
0
 40
1
 40
1
 40
1
 40
1
 10
10.252389
 20
22.365836
 30
0.0
 10
10.231159
 20
22.294426
 30
0.0
 10
10.173389
 20
22.240721
 30
0.0
 10
10.100684
 20
22.224508
 30
0.0
  0
LINE
  5
193
100
AcDbEntity
  8
0
 62
7
100
AcDbLine
 10
10.100684
 20
22.224508
 30
0.0
 11
10.098225
 21
22.224508
 31
0.0
  0
LINE
  5
194
100
AcDbEntity
  8
0
 62
7
100
AcDbLine
 10
10.098225
 20
22.224508
 30
0.0
 11
10.096630
 21
22.223692
 31
0.0
  0
SPLINE
  5
195
100
AcDbEntity
  8
0
 62
7
100
AcDbSpline
 70
8
 71
3
 72
8
 73
4
 74
0
 40
0
 40
0
 40
0
 40
0
 40
1
 40
1
 40
1
 40
1
 10
10.096630
 20
22.223692
 30
0.0
 10
6.484502
 20
21.336730
 30
0.0
 10
3.663137
 20
18.516079
 30
0.0
 10
2.775504
 20
14.904163
 30
0.0
  0
SPLINE
  5
196
100
AcDbEntity
  8
0
 62
7
100
AcDbSpline
 70
8
 71
3
 72
8
 73
4
 74
0
 40
0
 40
0
 40
0
 40
0
 40
1
 40
1
 40
1
 40
1
 10
2.775504
 20
14.904163
 30
0.0
 10
2.752717
 20
14.812015
 30
0.0
 10
2.672406
 20
14.748638
 30
0.0
 10
2.577485
 20
14.748458
 30
0.0
  0
SPLINE
  5
197
100
AcDbEntity
  8
0
 62
7
100
AcDbSpline
 70
8
 71
3
 72
8
 73
4
 74
0
 40
0
 40
0
 40
0
 40
0
 40
1
 40
1
 40
1
 40
1
 10
2.577485
 20
14.748458
 30
0.0
 10
2.561009
 20
14.748801
 30
0.0
 10
2.544812
 20
14.750917
 30
0.0
 10
2.528780
 20
14.754851
 30
0.0
  0
SPLINE
  5
198
100
AcDbEntity
  8
0
 62
7
100
AcDbSpline
 70
8
 71
3
 72
8
 73
4
 74
0
 40
0
 40
0
 40
0
 40
0
 40
1
 40
1
 40
1
 40
1
 10
2.528780
 20
14.754851
 30
0.0
 10
2.416878
 20
14.782605
 30
0.0
 10
2.352550
 20
14.890474
 30
0.0
 10
2.380272
 20
15.002376
 30
0.0
  0
SPLINE
  5
199
100
AcDbEntity
  8
0
 62
7
100
AcDbSpline
 70
8
 71
3
 72
8
 73
4
 74
0
 40
0
 40
0
 40
0
 40
0
 40
1
 40
1
 40
1
 40
1
 10
2.380272
 20
15.002376
 30
0.0
 10
3.303886
 20
18.761904
 30
0.0
 10
6.238099
 20
21.696913
 30
0.0
 10
9.997627
 20
22.620529
 30
0.0
  0
LINE
  5
19a
100
AcDbEntity
  8
0
 62
7
100
AcDbLine
 10
9.997627
 20
22.620529
 30
0.0
 11
10.000007
 21
22.621344
 31
0.0
  0
SPLINE
  5
19b
100
AcDbEntity
  8
0
 62
7
100
AcDbSpline
 70
8
 71
3
 72
8
 73
4
 74
0
 40
0
 40
0
 40
0
 40
0
 40
1
 40
1
 40
1
 40
1
 10
9.895409
 20
23.015785
 30
0.0
 10
5.991494
 20
22.054754
 30
0.0
 10
2.942950
 20
19.005133
 30
0.0
 10
1.983421
 20
15.100604
 30
0.0
  0
SPLINE
  5
19c
100
AcDbEntity
  8
0
 62
7
100
AcDbSpline
 70
8
 71
3
 72
8
 73
4
 74
0
 40
0
 40
0
 40
0
 40
0
 40
1
 40
1
 40
1
 40
1
 10
1.983421
 20
15.100604
 30
0.0
 10
1.902601
 20
14.774278
 30
0.0
 10
2.104257
 20
14.438943
 30
0.0
 10
2.430560
 20
14.358032
 30
0.0
  0
LINE
  5
19d
100
AcDbEntity
  8
0
 62
7
100
AcDbLine
 10
2.430560
 20
14.358032
 30
0.0
 11
2.431378
 21
14.358032
 31
0.0
  0
SPLINE
  5
19e
100
AcDbEntity
  8
0
 62
7
100
AcDbSpline
 70
8
 71
3
 72
8
 73
4
 74
0
 40
0
 40
0
 40
0
 40
0
 40
1
 40
1
 40
1
 40
1
 10
2.431378
 20
14.358032
 30
0.0
 10
2.478558
 20
14.346556
 30
0.0
 10
2.527312
 20
14.340163
 30
0.0
 10
2.575903
 20
14.339671
 30
0.0
  0
LINE
  5
19f
100
AcDbEntity
  8
0
 62
7
100
AcDbLine
 10
2.575903
 20
14.339671
 30
0.0
 11
2.576678
 21
14.339671
 31
0.0
  0
LINE
  5
1a0
100
AcDbEntity
  8
0
 62
7
100
AcDbLine
 10
2.576678
 20
14.339671
 30
0.0
 11
2.578273
 21
14.339671
 31
0.0
  0
SPLINE
  5
1a1
100
AcDbEntity
  8
0
 62
7
100
AcDbSpline
 70
8
 71
3
 72
8
 73
4
 74
0
 40
0
 40
0
 40
0
 40
0
 40
1
 40
1
 40
1
 40
1
 10
2.578273
 20
14.339671
 30
0.0
 10
2.858798
 20
14.340161
 30
0.0
 10
3.105006
 20
14.533648
 30
0.0
 10
3.172331
 20
14.805974
 30
0.0
  0
SPLINE
  5
1a2
100
AcDbEntity
  8
0
 62
7
100
AcDbSpline
 70
8
 71
3
 72
8
 73
4
 74
0
 40
0
 40
0
 40
0
 40
0
 40
1
 40
1
 40
1
 40
1
 10
3.172331
 20
14.805974
 30
0.0
 10
4.023644
 20
18.271217
 30
0.0
 10
6.728693
 20
20.975959
 30
0.0
 10
10.194032
 20
21.826875
 30
0.0
  0
LINE
  5
1a3
100
AcDbEntity
  8
0
 62
7
100
AcDbLine
 10
10.194032
 20
21.826875
 30
0.0
 11
10.190097
 21
21.826057
 31
0.0
  0
SPLINE
  5
1a4
100
AcDbEntity
  8
0
 62
7
100
AcDbSpline
 70
8
 71
3
 72
8
 73
4
 74
0
 40
0
 40
0
 40
0
 40
0
 40
1
 40
1
 40
1
 40
1
 10
10.190097
 20
21.826057
 30
0.0
 10
10.406882
 20
21.874402
 30
0.0
 10
10.581176
 20
22.037146
 30
0.0
 10
10.644438
 20
22.250041
 30
0.0
  0
SPLINE
  5
1a5
100
AcDbEntity
  8
0
 62
7
100
AcDbSpline
 70
8
 71
3
 72
8
 73
4
 74
0
 40
0
 40
0
 40
0
 40
0
 40
1
 40
1
 40
1
 40
1
 10
10.644438
 20
22.250041
 30
0.0
 10
10.707700
 20
22.462938
 30
0.0
 10
10.650340
 20
22.694010
 30
0.0
 10
10.495127
 20
22.852882
 30
0.0
  0
SPLINE
  5
1a6
100
AcDbEntity
  8
0
 62
7
100
AcDbSpline
 70
8
 71
3
 72
8
 73
4
 74
0
 40
0
 40
0
 40
0
 40
0
 40
1
 40
1
 40
1
 40
1
 10
10.495127
 20
22.852882
 30
0.0
 10
10.339930
 20
23.011751
 30
0.0
 10
10.109796
 20
23.074034
 30
0.0
 10
9.895479
 20
23.015767
 30
0.0
  0
LINE
  5
1a7
100
AcDbEntity
  8
0
 62
7
100
AcDbLine
 10
9.895479
 20
23.015767
 30
0.0
 11
9.895409
 21
23.015785
 31
0.0
  0
SPLINE
  5
1a8
100
AcDbEntity
  8
0
 62
7
100
AcDbSpline
 70
8
 71
3
 72
8
 73
4
 74
0
 40
0
 40
0
 40
0
 40
0
 40
1
 40
1
 40
1
 40
1
 10
2.328357
 20
13.522837
 30
0.0
 10
2.382603
 20
13.518574
 30
0.0
 10
2.432865
 20
13.492460
 30
0.0
 10
2.468094
 20
13.450968
 30
0.0
  0
SPLINE
  5
1a9
100
AcDbEntity
  8
0
 62
7
100
AcDbSpline
 70
8
 71
3
 72
8
 73
4
 74
0
 40
0
 40
0
 40
0
 40
0
 40
1
 40
1
 40
1
 40
1
 10
2.468094
 20
13.450968
 30
0.0
 10
2.503324
 20
13.409476
 30
0.0
 10
2.520521
 20
13.355886
 30
0.0
 10
2.515996
 20
13.301656
 30
0.0
  0
SPLINE
  5
1aa
100
AcDbEntity
  8
0
 62
7
100
AcDbSpline
 70
8
 71
3
 72
8
 73
4
 74
0
 40
0
 40
0
 40
0
 40
0
 40
1
 40
1
 40
1
 40
1
 10
2.515996
 20
13.301656
 30
0.0
 10
2.494668
 20
13.038256
 30
0.0
 10
2.484062
 20
12.768563
 30
0.0
 10
2.484062
 20
12.499997
 30
0.0
  0
SPLINE
  5
1ab
100
AcDbEntity
  8
0
 62
7
100
AcDbSpline
 70
8
 71
3
 72
8
 73
4
 74
0
 40
0
 40
0
 40
0
 40
0
 40
1
 40
1
 40
1
 40
1
 10
2.484062
 20
12.499997
 30
0.0
 10
2.484062
 20
12.384686
 30
0.0
 10
2.394963
 20
12.295591
 30
0.0
 10
2.279655
 20
12.295591
 30
0.0
  0
SPLINE
  5
1ac
100
AcDbEntity
  8
0
 62
7
100
AcDbSpline
 70
8
 71
3
 72
8
 73
4
 74
0
 40
0
 40
0
 40
0
 40
0
 40
1
 40
1
 40
1
 40
1
 10
2.279655
 20
12.295591
 30
0.0
 10
2.164344
 20
12.295591
 30
0.0
 10
2.075249
 20
12.384689
 30
0.0
 10
2.075249
 20
12.499997
 30
0.0
  0
SPLINE
  5
1ad
100
AcDbEntity
  8
0
 62
7
100
AcDbSpline
 70
8
 71
3
 72
8
 73
4
 74
0
 40
0
 40
0
 40
0
 40
0
 40
1
 40
1
 40
1
 40
1
 10
2.075249
 20
12.499997
 30
0.0
 10
2.075249
 20
12.780911
 30
0.0
 10
2.085904
 20
13.061774
 30
0.0
 10
2.107986
 20
13.335192
 30
0.0
  0
SPLINE
  5
1ae
100
AcDbEntity
  8
0
 62
7
100
AcDbSpline
 70
8
 71
3
 72
8
 73
4
 74
0
 40
0
 40
0
 40
0
 40
0
 40
1
 40
1
 40
1
 40
1
 10
2.107986
 20
13.335192
 30
0.0
 10
2.112249
 20
13.389324
 30
0.0
 10
2.137708
 20
13.439717
 30
0.0
 10
2.179052
 20
13.474930
 30
0.0
  0
SPLINE
  5
1af
100
AcDbEntity
  8
0
 62
7
100
AcDbSpline
 70
8
 71
3
 72
8
 73
4
 74
0
 40
0
 40
0
 40
0
 40
0
 40
1
 40
1
 40
1
 40
1
 10
2.179052
 20
13.474930
 30
0.0
 10
2.220396
 20
13.510127
 30
0.0
 10
2.274232
 20
13.527192
 30
0.0
 10
2.328363
 20
13.522832
 30
0.0
  0
LINE
  5
1b0
100
AcDbEntity
  8
0
 62
7
100
AcDbLine
 10
2.328363
 20
13.522832
 30
0.0
 11
2.328357
 21
13.522837
 31
0.0
  0
SPLINE
  5
1b1
100
AcDbEntity
  8
0
 62
7
100
AcDbSpline
 70
8
 71
3
 72
8
 73
4
 74
0
 40
0
 40
0
 40
0
 40
0
 40
1
 40
1
 40
1
 40
1
 10
2.361094
 20
13.930055
 30
0.0
 10
2.199013
 20
13.943169
 30
0.0
 10
2.037757
 20
13.890940
 30
0.0
 10
1.913954
 20
13.785530
 30
0.0
  0
SPLINE
  5
1b2
100
AcDbEntity
  8
0
 62
7
100
AcDbSpline
 70
8
 71
3
 72
8
 73
4
 74
0
 40
0
 40
0
 40
0
 40
0
 40
1
 40
1
 40
1
 40
1
 10
1.913954
 20
13.785530
 30
0.0
 10
1.790150
 20
13.680120
 30
0.0
 10
1.713735
 20
13.530017
 30
0.0
 10
1.700763
 20
13.367933
 30
0.0
  0
SPLINE
  5
1b3
100
AcDbEntity
  8
0
 62
7
100
AcDbSpline
 70
8
 71
3
 72
8
 73
4
 74
0
 40
0
 40
0
 40
0
 40
0
 40
1
 40
1
 40
1
 40
1
 10
1.700763
 20
13.367933
 30
0.0
 10
1.677813
 20
13.082911
 30
0.0
 10
1.666419
 20
12.791429
 30
0.0
 10
1.666419
 20
12.500002
 30
0.0
  0
SPLINE
  5
1b4
100
AcDbEntity
  8
0
 62
7
100
AcDbSpline
 70
8
 71
3
 72
8
 73
4
 74
0
 40
0
 40
0
 40
0
 40
0
 40
1
 40
1
 40
1
 40
1
 10
1.666419
 20
12.500002
 30
0.0
 10
1.666419
 20
12.163752
 30
0.0
 10
1.943390
 20
11.886781
 30
0.0
 10
2.279640
 20
11.886781
 30
0.0
  0
SPLINE
  5
1b5
100
AcDbEntity
  8
0
 62
7
100
AcDbSpline
 70
8
 71
3
 72
8
 73
4
 74
0
 40
0
 40
0
 40
0
 40
0
 40
1
 40
1
 40
1
 40
1
 10
2.279640
 20
11.886781
 30
0.0
 10
2.615891
 20
11.886781
 30
0.0
 10
2.892862
 20
12.163752
 30
0.0
 10
2.892862
 20
12.500002
 30
0.0
  0
SPLINE
  5
1b6
100
AcDbEntity
  8
0
 62
7
100
AcDbSpline
 70
8
 71
3
 72
8
 73
4
 74
0
 40
0
 40
0
 40
0
 40
0
 40
1
 40
1
 40
1
 40
1
 10
2.892862
 20
12.500002
 30
0.0
 10
2.892862
 20
12.757989
 30
0.0
 10
2.902862
 20
13.016419
 30
0.0
 10
2.923206
 20
13.268125
 30
0.0
  0
SPLINE
  5
1b7
100
AcDbEntity
  8
0
 62
7
100
AcDbSpline
 70
8
 71
3
 72
8
 73
4
 74
0
 40
0
 40
0
 40
0
 40
0
 40
1
 40
1
 40
1
 40
1
 10
2.923206
 20
13.268125
 30
0.0
 10
2.936812
 20
13.430502
 30
0.0
 10
2.884944
 20
13.591853
 30
0.0
 10
2.779485
 20
13.716065
 30
0.0
  0
SPLINE
  5
1b8
100
AcDbEntity
  8
0
 62
7
100
AcDbSpline
 70
8
 71
3
 72
8
 73
4
 74
0
 40
0
 40
0
 40
0
 40
0
 40
1
 40
1
 40
1
 40
1
 10
2.779485
 20
13.716065
 30
0.0
 10
2.674026
 20
13.840278
 30
0.0
 10
2.523517
 20
13.917092
 30
0.0
 10
2.361090
 20
13.930053
 30
0.0
  0
LINE
  5
1b9
100
AcDbEntity
  8
0
 62
7
100
AcDbLine
 10
2.361090
 20
13.930053
 30
0.0
 11
2.361094
 21
13.930055
 31
0.0
  0
SPLINE
  5
1ba
100
AcDbEntity
  8
0
 62
7
100
AcDbSpline
 70
8
 71
3
 72
8
 73
4
 74
0
 40
0
 40
0
 40
0
 40
0
 40
1
 40
1
 40
1
 40
1
 10
22.365833
 20
10.251527
 30
0.0
 10
22.437243
 20
10.272757
 30
0.0
 10
22.513751
 20
10.254150
 30
0.0
 10
22.567046
 20
10.202019
 30
0.0
  0
SPLINE
  5
1bb
100
AcDbEntity
  8
0
 62
7
100
AcDbSpline
 70
8
 71
3
 72
8
 73
4
 74
0
 40
0
 40
0
 40
0
 40
0
 40
1
 40
1
 40
1
 40
1
 10
22.567046
 20
10.202019
 30
0.0
 10
22.620341
 20
10.149953
 30
0.0
 10
22.640882
 20
10.074298
 30
0.0
 10
22.621341
 20
10.002403
 30
0.0
  0
LINE
  5
1bc
100
AcDbEntity
  8
0
 62
7
100
AcDbLine
 10
22.621341
 20
10.002403
 30
0.0
 11
22.620523
 21
9.999944
 31
0.0
  0
LINE
  5
1bd
100
AcDbEntity
  8
0
 62
7
100
AcDbLine
 10
22.620523
 20
9.999944
 30
0.0
 11
22.619707
 21
9.997485
 31
0.0
  0
SPLINE
  5
1be
100
AcDbEntity
  8
0
 62
7
100
AcDbSpline
 70
8
 71
3
 72
8
 73
4
 74
0
 40
0
 40
0
 40
0
 40
0
 40
1
 40
1
 40
1
 40
1
 10
22.619707
 20
9.997485
 30
0.0
 10
21.696379
 20
6.239132
 30
0.0
 10
18.763384
 20
3.305511
 30
0.0
 10
15.005544
 20
2.380929
 30
0.0
  0
SPLINE
  5
1bf
100
AcDbEntity
  8
0
 62
7
100
AcDbSpline
 70
8
 71
3
 72
8
 73
4
 74
0
 40
0
 40
0
 40
0
 40
0
 40
1
 40
1
 40
1
 40
1
 10
15.005544
 20
2.380929
 30
0.0
 10
14.895413
 20
2.357044
 30
0.0
 10
14.790707
 20
2.421470
 30
0.0
 10
14.763610
 20
2.531044
 30
0.0
  0
SPLINE
  5
1c0
100
AcDbEntity
  8
0
 62
7
100
AcDbSpline
 70
8
 71
3
 72
8
 73
4
 74
0
 40
0
 40
0
 40
0
 40
0
 40
1
 40
1
 40
1
 40
1
 10
14.763610
 20
2.531044
 30
0.0
 10
14.736413
 20
2.641044
 30
0.0
 10
14.798790
 20
2.747245
 30
0.0
 10
14.908135
 20
2.776970
 30
0.0
  0
LINE
  5
1c1
100
AcDbEntity
  8
0
 62
7
100
AcDbLine
 10
14.908135
 20
2.776970
 30
0.0
 11
14.903380
 21
2.776153
 31
0.0
  0
SPLINE
  5
1c2
100
AcDbEntity
  8
0
 62
7
100
AcDbSpline
 70
8
 71
3
 72
8
 73
4
 74
0
 40
0
 40
0
 40
0
 40
0
 40
1
 40
1
 40
1
 40
1
 10
14.903380
 20
2.776153
 30
0.0
 10
18.515156
 20
3.663509
 30
0.0
 10
21.336349
 20
6.483904
 30
0.0
 10
22.223707
 20
10.095681
 30
0.0
  0
LINE
  5
1c3
100
AcDbEntity
  8
0
 62
7
100
AcDbLine
 10
22.223707
 20
10.095681
 30
0.0
 11
22.223707
 21
10.098140
 31
0.0
  0
LINE
  5
1c4
100
AcDbEntity
  8
0
 62
7
100
AcDbLine
 10
22.223707
 20
10.098140
 30
0.0
 11
22.224523
 21
10.100599
 31
0.0
  0
SPLINE
  5
1c5
100
AcDbEntity
  8
0
 62
7
100
AcDbSpline
 70
8
 71
3
 72
8
 73
4
 74
0
 40
0
 40
0
 40
0
 40
0
 40
1
 40
1
 40
1
 40
1
 10
22.224523
 20
10.100599
 30
0.0
 10
22.240752
 20
10.173321
 30
0.0
 10
22.294441
 20
10.230288
 30
0.0
 10
22.365851
 20
10.251517
 30
0.0
  0
LINE
  5
1c6
100
AcDbEntity
  8
0
 62
7
100
AcDbLine
 10
22.365851
 20
10.251517
 30
0.0
 11
22.365833
 21
10.251527
 31
0.0
  0
SPLINE
  5
1c7
100
AcDbEntity
  8
0
 62
7
100
AcDbSpline
 70
8
 71
3
 72
8
 73
4
 74
0
 40
0
 40
0
 40
0
 40
0
 40
1
 40
1
 40
1
 40
1
 10
22.249256
 20
10.643573
 30
0.0
 10
22.036361
 20
10.580311
 30
0.0
 10
21.873613
 20
10.406017
 30
0.0
 10
21.825272
 20
10.189247
 30
0.0
  0
LINE
  5
1c8
100
AcDbEntity
  8
0
 62
7
100
AcDbLine
 10
21.825272
 20
10.189247
 30
0.0
 11
21.826090
 21
10.193181
 31
0.0
  0
SPLINE
  5
1c9
100
AcDbEntity
  8
0
 62
7
100
AcDbSpline
 70
8
 71
3
 72
8
 73
4
 74
0
 40
0
 40
0
 40
0
 40
0
 40
1
 40
1
 40
1
 40
1
 10
21.826090
 20
10.193181
 30
0.0
 10
20.974849
 20
6.728411
 30
0.0
 10
18.270756
 20
4.024317
 30
0.0
 10
14.805985
 20
3.173078
 30
0.0
  0
LINE
  5
1ca
100
AcDbEntity
  8
0
 62
7
100
AcDbLine
 10
14.805985
 20
3.173078
 30
0.0
 11
14.803526
 21
3.172260
 31
0.0
  0
LINE
  5
1cb
100
AcDbEntity
  8
0
 62
7
100
AcDbLine
 10
14.803526
 20
3.172260
 30
0.0
 11
14.801067
 21
3.171442
 31
0.0
  0
SPLINE
  5
1cc
100
AcDbEntity
  8
0
 62
7
100
AcDbSpline
 70
8
 71
3
 72
8
 73
4
 74
0
 40
0
 40
0
 40
0
 40
0
 40
1
 40
1
 40
1
 40
1
 10
14.801067
 20
3.171442
 30
0.0
 10
14.481736
 20
3.084622
 30
0.0
 10
14.287259
 20
2.754106
 30
0.0
 10
14.366702
 20
2.432862
 30
0.0
  0
SPLINE
  5
1cd
100
AcDbEntity
  8
0
 62
7
100
AcDbSpline
 70
8
 71
3
 72
8
 73
4
 74
0
 40
0
 40
0
 40
0
 40
0
 40
1
 40
1
 40
1
 40
1
 10
14.366702
 20
2.432862
 30
0.0
 10
14.446144
 20
2.111617
 30
0.0
 10
14.772713
 20
1.909703
 30
0.0
 10
15.095700
 20
1.981729
 30
0.0
  0
LINE
  5
1ce
100
AcDbEntity
  8
0
 62
7
100
AcDbLine
 10
15.095700
 20
1.981729
 30
0.0
 11
15.097295
 21
1.981729
 31
0.0
  0
LINE
  5
1cf
100
AcDbEntity
  8
0
 62
7
100
AcDbLine
 10
15.097295
 20
1.981729
 30
0.0
 11
15.099754
 21
1.982547
 31
0.0
  0
SPLINE
  5
1d0
100
AcDbEntity
  8
0
 62
7
100
AcDbSpline
 70
8
 71
3
 72
8
 73
4
 74
0
 40
0
 40
0
 40
0
 40
0
 40
1
 40
1
 40
1
 40
1
 10
15.099754
 20
1.982547
 30
0.0
 10
19.004890
 20
2.941934
 30
0.0
 10
22.054049
 20
5.991611
 30
0.0
 10
23.014936
 20
9.896132
 30
0.0
  0
SPLINE
  5
1d1
100
AcDbEntity
  8
0
 62
7
100
AcDbSpline
 70
8
 71
3
 72
8
 73
4
 74
0
 40
0
 40
0
 40
0
 40
0
 40
1
 40
1
 40
1
 40
1
 10
23.014936
 20
9.896132
 30
0.0
 10
23.072362
 20
10.109935
 30
0.0
 10
23.010510
 20
10.339422
 30
0.0
 10
22.852051
 20
10.494183
 30
0.0
  0
SPLINE
  5
1d2
100
AcDbEntity
  8
0
 62
7
100
AcDbSpline
 70
8
 71
3
 72
8
 73
4
 74
0
 40
0
 40
0
 40
0
 40
0
 40
1
 40
1
 40
1
 40
1
 10
22.852051
 20
10.494183
 30
0.0
 10
22.693182
 20
10.649380
 30
0.0
 10
22.462105
 20
10.706758
 30
0.0
 10
22.249208
 20
10.643494
 30
0.0
  0
LINE
  5
1d3
100
AcDbEntity
  8
0
 62
7
100
AcDbLine
 10
22.249208
 20
10.643494
 30
0.0
 11
22.249256
 21
10.643573
 31
0.0
  0
SPLINE
  5
1d4
100
AcDbEntity
  8
0
 62
7
100
AcDbSpline
 70
8
 71
3
 72
8
 73
4
 74
0
 40
0
 40
0
 40
0
 40
0
 40
1
 40
1
 40
1
 40
1
 10
22.720351
 20
12.704411
 30
0.0
 10
22.835662
 20
12.704411
 30
0.0
 10
22.924757
 20
12.615312
 30
0.0
 10
22.924757
 20
12.500004
 30
0.0
  0
SPLINE
  5
1d5
100
AcDbEntity
  8
0
 62
7
100
AcDbSpline
 70
8
 71
3
 72
8
 73
4
 74
0
 40
0
 40
0
 40
0
 40
0
 40
1
 40
1
 40
1
 40
1
 10
22.924757
 20
12.500004
 30
0.0
 10
22.924757
 20
12.219627
 30
0.0
 10
22.913938
 20
11.938843
 30
0.0
 10
22.893610
 20
11.666407
 30
0.0
  0
SPLINE
  5
1d6
100
AcDbEntity
  8
0
 62
7
100
AcDbSpline
 70
8
 71
3
 72
8
 73
4
 74
0
 40
0
 40
0
 40
0
 40
0
 40
1
 40
1
 40
1
 40
1
 10
22.893610
 20
11.666407
 30
0.0
 10
22.884921
 20
11.558063
 30
0.0
 10
22.797888
 20
11.477616
 30
0.0
 10
22.689203
 20
11.477970
 30
0.0
  0
LINE
  5
1d7
100
AcDbEntity
  8
0
 62
7
100
AcDbLine
 10
22.689203
 20
11.477970
 30
0.0
 11
22.688385
 21
11.477970
 31
0.0
  0
LINE
  5
1d8
100
AcDbEntity
  8
0
 62
7
100
AcDbLine
 10
22.688385
 20
11.477970
 30
0.0
 11
22.670025
 21
11.477970
 31
0.0
  0
SPLINE
  5
1d9
100
AcDbEntity
  8
0
 62
7
100
AcDbSpline
 70
8
 71
3
 72
8
 73
4
 74
0
 40
0
 40
0
 40
0
 40
0
 40
1
 40
1
 40
1
 40
1
 10
22.670025
 20
11.477970
 30
0.0
 10
22.616484
 20
11.482724
 30
0.0
 10
22.566713
 20
11.508019
 30
0.0
 10
22.531893
 20
11.549035
 30
0.0
  0
SPLINE
  5
1da
100
AcDbEntity
  8
0
 62
7
100
AcDbSpline
 70
8
 71
3
 72
8
 73
4
 74
0
 40
0
 40
0
 40
0
 40
0
 40
1
 40
1
 40
1
 40
1
 10
22.531893
 20
11.549035
 30
0.0
 10
22.496664
 20
11.590511
 30
0.0
 10
22.479467
 20
11.644117
 30
0.0
 10
22.483992
 20
11.698347
 30
0.0
  0
SPLINE
  5
1db
100
AcDbEntity
  8
0
 62
7
100
AcDbSpline
 70
8
 71
3
 72
8
 73
4
 74
0
 40
0
 40
0
 40
0
 40
0
 40
1
 40
1
 40
1
 40
1
 10
22.483992
 20
11.698347
 30
0.0
 10
22.505336
 20
11.961747
 30
0.0
 10
22.515943
 20
12.231440
 30
0.0
 10
22.515943
 20
12.500006
 30
0.0
  0
SPLINE
  5
1dc
100
AcDbEntity
  8
0
 62
7
100
AcDbSpline
 70
8
 71
3
 72
8
 73
4
 74
0
 40
0
 40
0
 40
0
 40
0
 40
1
 40
1
 40
1
 40
1
 10
22.515943
 20
12.500006
 30
0.0
 10
22.515943
 20
12.615317
 30
0.0
 10
22.605041
 20
12.704412
 30
0.0
 10
22.720351
 20
12.704412
 30
0.0
  0
LINE
  5
1dd
100
AcDbEntity
  8
0
 62
7
100
AcDbLine
 10
22.720351
 20
12.704412
 30
0.0
 11
22.720351
 21
12.704411
 31
0.0
  0
SPLINE
  5
1de
100
AcDbEntity
  8
0
 62
7
100
AcDbSpline
 70
8
 71
3
 72
8
 73
4
 74
0
 40
0
 40
0
 40
0
 40
0
 40
1
 40
1
 40
1
 40
1
 10
22.720351
 20
13.113225
 30
0.0
 10
22.384100
 20
13.113225
 30
0.0
 10
22.107130
 20
12.836255
 30
0.0
 10
22.107130
 20
12.500004
 30
0.0
  0
SPLINE
  5
1df
100
AcDbEntity
  8
0
 62
7
100
AcDbSpline
 70
8
 71
3
 72
8
 73
4
 74
0
 40
0
 40
0
 40
0
 40
0
 40
1
 40
1
 40
1
 40
1
 10
22.107130
 20
12.500004
 30
0.0
 10
22.107130
 20
12.242017
 30
0.0
 10
22.097130
 20
11.983588
 30
0.0
 10
22.076785
 20
11.731881
 30
0.0
  0
SPLINE
  5
1e0
100
AcDbEntity
  8
0
 62
7
100
AcDbSpline
 70
8
 71
3
 72
8
 73
4
 74
0
 40
0
 40
0
 40
0
 40
0
 40
1
 40
1
 40
1
 40
1
 10
22.076785
 20
11.731881
 30
0.0
 10
22.063179
 20
11.569504
 30
0.0
 10
22.115048
 20
11.408153
 30
0.0
 10
22.220507
 20
11.283942
 30
0.0
  0
SPLINE
  5
1e1
100
AcDbEntity
  8
0
 62
7
100
AcDbSpline
 70
8
 71
3
 72
8
 73
4
 74
0
 40
0
 40
0
 40
0
 40
0
 40
1
 40
1
 40
1
 40
1
 10
22.220507
 20
11.283942
 30
0.0
 10
22.325966
 20
11.159729
 30
0.0
 10
22.476474
 20
11.082914
 30
0.0
 10
22.638902
 20
11.069953
 30
0.0
  0
LINE
  5
1e2
100
AcDbEntity
  8
0
 62
7
100
AcDbLine
 10
22.638902
 20
11.069953
 30
0.0
 11
22.646934
 21
11.069135
 31
0.0
  0
LINE
  5
1e3
100
AcDbEntity
  8
0
 62
7
100
AcDbLine
 10
22.646934
 20
11.069135
 30
0.0
 11
22.655787
 21
11.069135
 31
0.0
  0
LINE
  5
1e4
100
AcDbEntity
  8
0
 62
7
100
AcDbLine
 10
22.655787
 20
11.069135
 30
0.0
 11
22.687721
 21
11.069135
 31
0.0
  0
SPLINE
  5
1e5
100
AcDbEntity
  8
0
 62
7
100
AcDbSpline
 70
8
 71
3
 72
8
 73
4
 74
0
 40
0
 40
0
 40
0
 40
0
 40
1
 40
1
 40
1
 40
1
 10
22.687721
 20
11.069135
 30
0.0
 10
23.006244
 20
11.068114
 30
0.0
 10
23.275462
 20
11.316158
 30
0.0
 10
23.300943
 20
11.633650
 30
0.0
  0
LINE
  5
1e6
100
AcDbEntity
  8
0
 62
7
100
AcDbLine
 10
23.300943
 20
11.633650
 30
0.0
 11
23.300943
 21
11.634468
 31
0.0
  0
SPLINE
  5
1e7
100
AcDbEntity
  8
0
 62
7
100
AcDbSpline
 70
8
 71
3
 72
8
 73
4
 74
0
 40
0
 40
0
 40
0
 40
0
 40
1
 40
1
 40
1
 40
1
 10
23.300943
 20
11.634468
 30
0.0
 10
23.322172
 20
11.917529
 30
0.0
 10
23.333680
 20
12.208578
 30
0.0
 10
23.333680
 20
12.500004
 30
0.0
  0
SPLINE
  5
1e8
100
AcDbEntity
  8
0
 62
7
100
AcDbSpline
 70
8
 71
3
 72
8
 73
4
 74
0
 40
0
 40
0
 40
0
 40
0
 40
1
 40
1
 40
1
 40
1
 10
23.333680
 20
12.500004
 30
0.0
 10
23.333680
 20
12.836255
 30
0.0
 10
23.056710
 20
13.113225
 30
0.0
 10
22.720459
 20
13.113225
 30
0.0
  0
LINE
  5
1e9
100
AcDbEntity
  8
0
 62
7
100
AcDbLine
 10
22.720459
 20
13.113225
 30
0.0
 11
22.720351
 21
13.113225
 31
0.0
  0
SPLINE
  5
1ea
100
AcDbEntity
  8
0
 62
7
100
AcDbSpline
 70
8
 71
3
 72
8
 73
4
 74
0
 40
0
 40
0
 40
0
 40
0
 40
1
 40
1
 40
1
 40
1
 10
13.301659
 20
2.515999
 30
0.0
 10
13.416643
 20
2.525180
 30
0.0
 10
13.512010
 20
2.443344
 30
0.0
 10
13.521236
 20
2.328360
 30
0.0
  0
SPLINE
  5
1eb
100
AcDbEntity
  8
0
 62
7
100
AcDbSpline
 70
8
 71
3
 72
8
 73
4
 74
0
 40
0
 40
0
 40
0
 40
0
 40
1
 40
1
 40
1
 40
1
 10
13.521236
 20
2.328360
 30
0.0
 10
13.530417
 20
2.213376
 30
0.0
 10
13.448581
 20
2.117209
 30
0.0
 10
13.333597
 20
2.107983
 30
0.0
  0
SPLINE
  5
1ec
100
AcDbEntity
  8
0
 62
7
100
AcDbSpline
 70
8
 71
3
 72
8
 73
4
 74
0
 40
0
 40
0
 40
0
 40
0
 40
1
 40
1
 40
1
 40
1
 10
13.333597
 20
2.107983
 30
0.0
 10
13.061482
 20
2.085967
 30
0.0
 10
12.780913
 20
2.075245
 30
0.0
 10
12.500000
 20
2.075245
 30
0.0
  0
SPLINE
  5
1ed
100
AcDbEntity
  8
0
 62
7
100
AcDbSpline
 70
8
 71
3
 72
8
 73
4
 74
0
 40
0
 40
0
 40
0
 40
0
 40
1
 40
1
 40
1
 40
1
 10
12.500000
 20
2.075245
 30
0.0
 10
12.384689
 20
2.075245
 30
0.0
 10
12.295594
 20
2.164344
 30
0.0
 10
12.295594
 20
2.279652
 30
0.0
  0
SPLINE
  5
1ee
100
AcDbEntity
  8
0
 62
7
100
AcDbSpline
 70
8
 71
3
 72
8
 73
4
 74
0
 40
0
 40
0
 40
0
 40
0
 40
1
 40
1
 40
1
 40
1
 10
12.295594
 20
2.279652
 30
0.0
 10
12.295594
 20
2.394963
 30
0.0
 10
12.384692
 20
2.484060
 30
0.0
 10
12.500000
 20
2.484060
 30
0.0
  0
SPLINE
  5
1ef
100
AcDbEntity
  8
0
 62
7
100
AcDbSpline
 70
8
 71
3
 72
8
 73
4
 74
0
 40
0
 40
0
 40
0
 40
0
 40
1
 40
1
 40
1
 40
1
 10
12.500000
 20
2.484060
 30
0.0
 10
12.768566
 20
2.484060
 30
0.0
 10
13.038259
 20
2.494716
 30
0.0
 10
13.301659
 20
2.515994
 30
0.0
  0
LINE
  5
1f0
100
AcDbEntity
  8
0
 62
7
100
AcDbLine
 10
13.301659
 20
2.515994
 30
0.0
 11
13.301659
 21
2.515999
 31
0.0
  0
SPLINE
  5
1f1
100
AcDbEntity
  8
0
 62
7
100
AcDbSpline
 70
8
 71
3
 72
8
 73
4
 74
0
 40
0
 40
0
 40
0
 40
0
 40
1
 40
1
 40
1
 40
1
 10
13.268123
 20
2.923216
 30
0.0
 10
13.016417
 20
2.902839
 30
0.0
 10
12.757987
 20
2.892872
 30
0.0
 10
12.500000
 20
2.892872
 30
0.0
  0
SPLINE
  5
1f2
100
AcDbEntity
  8
0
 62
7
100
AcDbSpline
 70
8
 71
3
 72
8
 73
4
 74
0
 40
0
 40
0
 40
0
 40
0
 40
1
 40
1
 40
1
 40
1
 10
12.500000
 20
2.892872
 30
0.0
 10
12.163750
 20
2.892872
 30
0.0
 10
11.886779
 20
2.615901
 30
0.0
 10
11.886779
 20
2.279650
 30
0.0
  0
SPLINE
  5
1f3
100
AcDbEntity
  8
0
 62
7
100
AcDbSpline
 70
8
 71
3
 72
8
 73
4
 74
0
 40
0
 40
0
 40
0
 40
0
 40
1
 40
1
 40
1
 40
1
 10
11.886779
 20
2.279650
 30
0.0
 10
11.886779
 20
1.943398
 30
0.0
 10
12.163750
 20
1.666429
 30
0.0
 10
12.500000
 20
1.666429
 30
0.0
  0
SPLINE
  5
1f4
100
AcDbEntity
  8
0
 62
7
100
AcDbSpline
 70
8
 71
3
 72
8
 73
4
 74
0
 40
0
 40
0
 40
0
 40
0
 40
1
 40
1
 40
1
 40
1
 10
12.500000
 20
1.666429
 30
0.0
 10
12.791159
 20
1.666429
 30
0.0
 10
13.082710
 20
1.677904
 30
0.0
 10
13.366335
 20
1.700757
 30
0.0
  0
SPLINE
  5
1f5
100
AcDbEntity
  8
0
 62
7
100
AcDbSpline
 70
8
 71
3
 72
8
 73
4
 74
0
 40
0
 40
0
 40
0
 40
0
 40
1
 40
1
 40
1
 40
1
 10
13.366335
 20
1.700757
 30
0.0
 10
13.701556
 20
1.727658
 30
0.0
 10
13.956151
 20
2.025867
 30
0.0
 10
13.929253
 20
2.361086
 30
0.0
  0
SPLINE
  5
1f6
100
AcDbEntity
  8
0
 62
7
100
AcDbSpline
 70
8
 71
3
 72
8
 73
4
 74
0
 40
0
 40
0
 40
0
 40
0
 40
1
 40
1
 40
1
 40
1
 10
13.929253
 20
2.361086
 30
0.0
 10
13.902351
 20
2.696308
 30
0.0
 10
13.604143
 20
2.950104
 30
0.0
 10
13.268922
 20
2.923206
 30
0.0
  0
LINE
  5
1f7
100
AcDbEntity
  8
0
 62
7
100
AcDbLine
 10
13.268922
 20
2.923206
 30
0.0
 11
13.268123
 21
2.923216
 31
0.0
  0
ENDSEC
  0
SECTION
  2
OBJECTS
  0
DICTIONARY
  5
C
330
0
100
AcDbDictionary
  3
ACAD_GROUP
350
D
  3
ACAD_MLINESTYLE
350
17
  0
DICTIONARY
  5
D
330
C
100
AcDbDictionary
  0
DICTIONARY
  5
1A
330
C
100
AcDbDictionary
  0
DICTIONARY
  5
17
330
C
100
AcDbDictionary
  3
STANDARD
350
18
  0
DICTIONARY
  5
19
330
C
100
AcDbDictionary
  0
ENDSEC
  0
EOF
