  0
SECTION
  2
HEADER
  9
$ACADVER
  1
AC1014
  9
$HANDSEED
  5
FFFF
  9
$MEASUREMENT
 70
     1
  0
ENDSEC
  0
SECTION
  2
TABLES
  0
TABLE
  2
VPORT
  5
8
330
0
100
AcDbSymbolTable
 70
     4
  0
VPORT
  5
2E
330
8
100
AcDbSymbolTableRecord
100
AcDbViewportTableRecord
  2
*ACTIVE
 70
     0
 10
0.0
 20
0.0
 11
1.0
 21
1.0
 12
210.0
 22
148.5
 13
0.0
 23
0.0
 14
10.0
 24
10.0
 15
10.0
 25
10.0
 16
0.0
 26
0.0
 36
1.0
 17
0.0
 27
0.0
 37
0.0
 40
341.0
 41
1.24
 42
50.0
 43
0.0
 44
0.0
 50
0.0
 51
0.0
 71
     0
 72
   100
 73
     1
 74
     3
 75
     0
 76
     0
 77
     0
 78
     0
  0
ENDTAB
  0
TABLE
  2
LTYPE
  5
5
330
0
100
AcDbSymbolTable
 70
     1
  0
LTYPE
  5
14
330
5
100
AcDbSymbolTableRecord
100
AcDbLinetypeTableRecord
  2
BYBLOCK
 70
     0
  3

 72
    65
 73
     0
 40
0.0
  0
LTYPE
  5
15
330
5
100
AcDbSymbolTableRecord
100
AcDbLinetypeTableRecord
  2
BYLAYER
 70
     0
  3

 72
    65
 73
     0
 40
0.0
  0
LTYPE
  5
16
330
5
100
AcDbSymbolTableRecord
100
AcDbLinetypeTableRecord
  2
CONTINUOUS
 70
     0
  3
Solid line
 72
    65
 73
     0
 40
0.0
  0
ENDTAB
  0
TABLE
  2
LAYER
  5
2
100
AcDbSymbolTable
 70
1
  0
LAYER
  5
50
100
AcDbSymbolTableRecord
100
AcDbLayerTableRecord
  2
0
 70
0
  6
CONTINUOUS
  0
ENDTAB
  0
TABLE
  2
STYLE
  5
3
330
0
100
AcDbSymbolTable
 70
     1
  0
STYLE
  5
11
330
3
100
AcDbSymbolTableRecord
100
AcDbTextStyleTableRecord
  2
STANDARD
 70
     0
 40
0.0
 41
1.0
 50
0.0
 71
     0
 42
2.5
  3
txt
  4

  0
ENDTAB
  0
TABLE
  2
VIEW
  5
6
330
0
100
AcDbSymbolTable
 70
     0
  0
ENDTAB
  0
TABLE
  2
UCS
  5
7
330
0
100
AcDbSymbolTable
 70
     0
  0
ENDTAB
  0
TABLE
  2
APPID
  5
9
330
0
100
AcDbSymbolTable
 70
     2
  0
APPID
  5
12
330
9
100
AcDbSymbolTableRecord
100
AcDbRegAppTableRecord
  2
ACAD
 70
     0
  0
ENDTAB
  0
TABLE
  2
DIMSTYLE
  5
A
330
0
100
AcDbSymbolTable
 70
     1
  0
DIMSTYLE
105
27
330
A
100
AcDbSymbolTableRecord
100
AcDbDimStyleTableRecord
  2
ISO-25
 70
     0
  3

  4

  5

  6

  7

 40
1.0
 41
2.5
 42
0.625
 43
3.75
 44
1.25
 45
0.0
 46
0.0
 47
0.0
 48
0.0
140
2.5
141
2.5
142
0.0
143
0.03937007874016
144
1.0
145
0.0
146
1.0
147
0.625
 71
     0
 72
     0
 73
     0
 74
     0
 75
     0
 76
     0
 77
     1
 78
     8
170
     0
171
     3
172
     1
173
     0
174
     0
175
     0
176
     0
177
     0
178
     0
270
     2
271
     2
272
     2
273
     2
274
     3
340
11
275
     0
280
     0
281
     0
282
     0
283
     0
284
     8
285
     0
286
     0
287
     3
288
     0
  0
ENDTAB
  0
TABLE
  2
BLOCK_RECORD
  5
1
330
0
100
AcDbSymbolTable
 70
     1
  0
BLOCK_RECORD
  5
1F
330
1
100
AcDbSymbolTableRecord
100
AcDbBlockTableRecord
  2
*MODEL_SPACE
  0
BLOCK_RECORD
  5
1B
330
1
100
AcDbSymbolTableRecord
100
AcDbBlockTableRecord
  2
*PAPER_SPACE
  0
ENDTAB
  0
ENDSEC
  0
SECTION
  2
BLOCKS
  0
BLOCK
  5
20
330
1F
100
AcDbEntity
  8
0
100
AcDbBlockBegin
  2
*MODEL_SPACE
 70
     0
 10
0.0
 20
0.0
 30
0.0
  3
*MODEL_SPACE
  1

  0
ENDBLK
  5
21
330
1F
100
AcDbEntity
  8
0
100
AcDbBlockEnd
  0
BLOCK
  5
1C
330
1B
100
AcDbEntity
 67
     1
  8
0
100
AcDbBlockBegin
  2
*PAPER_SPACE
  1

  0
ENDBLK
  5
1D
330
1B
100
AcDbEntity
 67
     1
  8
0
100
AcDbBlockEnd
  0
ENDSEC
  0
SECTION
  2
ENTITIES
  0
SPLINE
  5
100
100
AcDbEntity
  8
0
 62
7
100
AcDbSpline
 70
8
 71
3
 72
8
 73
4
 74
0
 40
0
 40
0
 40
0
 40
0
 40
1
 40
1
 40
1
 40
1
 10
74.558881
 20
123.363134
 30
0.0
 10
99.466680
 20
123.363134
 30
0.0
 10
119.640861
 20
103.188953
 30
0.0
 10
119.640861
 20
78.281154
 30
0.0
  0
SPLINE
  5
101
100
AcDbEntity
  8
0
 62
7
100
AcDbSpline
 70
8
 71
3
 72
8
 73
4
 74
0
 40
0
 40
0
 40
0
 40
0
 40
1
 40
1
 40
1
 40
1
 10
119.640861
 20
78.281154
 30
0.0
 10
119.612451
 20
53.384677
 30
0.0
 10
99.455358
 20
33.227579
 30
0.0
 10
74.558881
 20
33.199174
 30
0.0
  0
SPLINE
  5
102
100
AcDbEntity
  8
0
 62
7
100
AcDbSpline
 70
8
 71
3
 72
8
 73
4
 74
0
 40
0
 40
0
 40
0
 40
0
 40
1
 40
1
 40
1
 40
1
 10
74.558881
 20
33.199174
 30
0.0
 10
49.651083
 20
33.199174
 30
0.0
 10
29.476902
 20
53.373355
 30
0.0
 10
29.476902
 20
78.281154
 30
0.0
  0
SPLINE
  5
103
100
AcDbEntity
  8
0
 62
7
100
AcDbSpline
 70
8
 71
3
 72
8
 73
4
 74
0
 40
0
 40
0
 40
0
 40
0
 40
1
 40
1
 40
1
 40
1
 10
29.476902
 20
78.281154
 30
0.0
 10
29.476902
 20
103.188953
 30
0.0
 10
49.651083
 20
123.363134
 30
0.0
 10
74.558881
 20
123.363134
 30
0.0
  0
LINE
  5
104
100
AcDbEntity
  8
0
 62
7
100
AcDbLine
 10
74.558881
 20
123.363134
 30
0.0
 11
74.558881
 21
123.363134
 31
0.0
  0
SPLINE
  5
105
100
AcDbEntity
  8
0
 62
7
100
AcDbSpline
 70
8
 71
3
 72
8
 73
4
 74
0
 40
0
 40
0
 40
0
 40
0
 40
1
 40
1
 40
1
 40
1
 10
74.558881
 20
125.002478
 30
0.0
 10
48.765115
 20
125.002478
 30
0.0
 10
27.837557
 20
104.074920
 30
0.0
 10
27.837557
 20
78.281154
 30
0.0
  0
SPLINE
  5
106
100
AcDbEntity
  8
0
 62
7
100
AcDbSpline
 70
8
 71
3
 72
8
 73
4
 74
0
 40
0
 40
0
 40
0
 40
0
 40
1
 40
1
 40
1
 40
1
 10
27.837557
 20
78.281154
 30
0.0
 10
27.837557
 20
52.487388
 30
0.0
 10
48.765115
 20
31.559830
 30
0.0
 10
74.558881
 20
31.559830
 30
0.0
  0
SPLINE
  5
107
100
AcDbEntity
  8
0
 62
7
100
AcDbSpline
 70
8
 71
3
 72
8
 73
4
 74
0
 40
0
 40
0
 40
0
 40
0
 40
1
 40
1
 40
1
 40
1
 10
74.558881
 20
31.559830
 30
0.0
 10
100.340001
 20
31.589240
 30
0.0
 10
121.250791
 20
52.500034
 30
0.0
 10
121.280205
 20
78.281154
 30
0.0
  0
SPLINE
  5
108
100
AcDbEntity
  8
0
 62
7
100
AcDbSpline
 70
8
 71
3
 72
8
 73
4
 74
0
 40
0
 40
0
 40
0
 40
0
 40
1
 40
1
 40
1
 40
1
 10
121.280205
 20
78.281154
 30
0.0
 10
121.280205
 20
104.074920
 30
0.0
 10
100.352647
 20
125.002478
 30
0.0
 10
74.558881
 20
125.002478
 30
0.0
  0
LINE
  5
109
100
AcDbEntity
  8
0
 62
7
100
AcDbLine
 10
74.558881
 20
125.002478
 30
0.0
 11
74.558881
 21
125.002478
 31
0.0
  0
SPLINE
  5
10a
100
AcDbEntity
  8
0
 62
7
100
AcDbSpline
 70
8
 71
3
 72
8
 73
4
 74
0
 40
0
 40
0
 40
0
 40
0
 40
1
 40
1
 40
1
 40
1
 10
74.558881
 20
126.641823
 30
0.0
 10
101.265372
 20
126.611610
 30
0.0
 10
122.889334
 20
104.987645
 30
0.0
 10
122.919550
 20
78.281154
 30
0.0
  0
SPLINE
  5
10b
100
AcDbEntity
  8
0
 62
7
100
AcDbSpline
 70
8
 71
3
 72
8
 73
4
 74
0
 40
0
 40
0
 40
0
 40
0
 40
1
 40
1
 40
1
 40
1
 10
122.919550
 20
78.281154
 30
0.0
 10
122.919550
 20
51.562586
 30
0.0
 10
101.277449
 20
29.920485
 30
0.0
 10
74.558881
 20
29.920485
 30
0.0
  0
SPLINE
  5
10c
100
AcDbEntity
  8
0
 62
7
100
AcDbSpline
 70
8
 71
3
 72
8
 73
4
 74
0
 40
0
 40
0
 40
0
 40
0
 40
1
 40
1
 40
1
 40
1
 10
74.558881
 20
29.920485
 30
0.0
 10
47.840313
 20
29.920485
 30
0.0
 10
26.198212
 20
51.562586
 30
0.0
 10
26.198212
 20
78.281154
 30
0.0
  0
SPLINE
  5
10d
100
AcDbEntity
  8
0
 62
7
100
AcDbSpline
 70
8
 71
3
 72
8
 73
4
 74
0
 40
0
 40
0
 40
0
 40
0
 40
1
 40
1
 40
1
 40
1
 10
26.198212
 20
78.281154
 30
0.0
 10
26.198212
 20
104.999722
 30
0.0
 10
47.840313
 20
126.641823
 30
0.0
 10
74.558881
 20
126.641823
 30
0.0
  0
LINE
  5
10e
100
AcDbEntity
  8
0
 62
7
100
AcDbLine
 10
74.558881
 20
126.641823
 30
0.0
 11
74.558881
 21
126.641823
 31
0.0
  0
SPLINE
  5
10f
100
AcDbEntity
  8
0
 62
7
100
AcDbSpline
 70
8
 71
3
 72
8
 73
4
 74
0
 40
0
 40
0
 40
0
 40
0
 40
1
 40
1
 40
1
 40
1
 10
74.558881
 20
128.281168
 30
0.0
 10
46.954346
 20
128.281168
 30
0.0
 10
24.558868
 20
105.885689
 30
0.0
 10
24.558868
 20
78.281154
 30
0.0
  0
SPLINE
  5
110
100
AcDbEntity
  8
0
 62
7
100
AcDbSpline
 70
8
 71
3
 72
8
 73
4
 74
0
 40
0
 40
0
 40
0
 40
0
 40
1
 40
1
 40
1
 40
1
 10
24.558868
 20
78.281154
 30
0.0
 10
24.558868
 20
50.676619
 30
0.0
 10
46.954346
 20
28.281140
 30
0.0
 10
74.558881
 20
28.281140
 30
0.0
  0
SPLINE
  5
111
100
AcDbEntity
  8
0
 62
7
100
AcDbSpline
 70
8
 71
3
 72
8
 73
4
 74
0
 40
0
 40
0
 40
0
 40
0
 40
1
 40
1
 40
1
 40
1
 10
74.558881
 20
28.281140
 30
0.0
 10
102.163417
 20
28.281140
 30
0.0
 10
124.558895
 20
50.676619
 30
0.0
 10
124.558895
 20
78.281154
 30
0.0
  0
SPLINE
  5
112
100
AcDbEntity
  8
0
 62
7
100
AcDbSpline
 70
8
 71
3
 72
8
 73
4
 74
0
 40
0
 40
0
 40
0
 40
0
 40
1
 40
1
 40
1
 40
1
 10
124.558895
 20
78.281154
 30
0.0
 10
124.527682
 20
105.872301
 30
0.0
 10
102.150028
 20
128.249951
 30
0.0
 10
74.558881
 20
128.281168
 30
0.0
  0
LINE
  5
113
100
AcDbEntity
  8
0
 62
7
100
AcDbLine
 10
74.558881
 20
128.281168
 30
0.0
 11
74.558881
 21
128.281168
 31
0.0
  0
SPLINE
  5
114
100
AcDbEntity
  8
0
 62
7
100
AcDbSpline
 70
8
 71
3
 72
8
 73
4
 74
0
 40
0
 40
0
 40
0
 40
0
 40
1
 40
1
 40
1
 40
1
 10
74.558881
 20
92.215584
 30
0.0
 10
82.264364
 20
92.215584
 30
0.0
 10
88.493311
 20
85.986636
 30
0.0
 10
88.493311
 20
78.281154
 30
0.0
  0
SPLINE
  5
115
100
AcDbEntity
  8
0
 62
7
100
AcDbSpline
 70
8
 71
3
 72
8
 73
4
 74
0
 40
0
 40
0
 40
0
 40
0
 40
1
 40
1
 40
1
 40
1
 10
88.493311
 20
78.281154
 30
0.0
 10
88.493311
 20
70.575672
 30
0.0
 10
82.264364
 20
64.346724
 30
0.0
 10
74.558881
 20
64.346724
 30
0.0
  0
SPLINE
  5
116
100
AcDbEntity
  8
0
 62
7
100
AcDbSpline
 70
8
 71
3
 72
8
 73
4
 74
0
 40
0
 40
0
 40
0
 40
0
 40
1
 40
1
 40
1
 40
1
 10
74.558881
 20
64.346724
 30
0.0
 10
66.856504
 20
64.355249
 30
0.0
 10
60.632995
 20
70.578775
 30
0.0
 10
60.624451
 20
78.281154
 30
0.0
  0
SPLINE
  5
117
100
AcDbEntity
  8
0
 62
7
100
AcDbSpline
 70
8
 71
3
 72
8
 73
4
 74
0
 40
0
 40
0
 40
0
 40
0
 40
1
 40
1
 40
1
 40
1
 10
60.624451
 20
78.281154
 30
0.0
 10
60.624451
 20
85.986636
 30
0.0
 10
66.853399
 20
92.215584
 30
0.0
 10
74.558881
 20
92.215584
 30
0.0
  0
LINE
  5
118
100
AcDbEntity
  8
0
 62
7
100
AcDbLine
 10
74.558881
 20
92.215584
 30
0.0
 11
74.558881
 21
92.215584
 31
0.0
  0
SPLINE
  5
119
100
AcDbEntity
  8
0
 62
7
100
AcDbSpline
 70
8
 71
3
 72
8
 73
4
 74
0
 40
0
 40
0
 40
0
 40
0
 40
1
 40
1
 40
1
 40
1
 10
74.558881
 20
93.854929
 30
0.0
 10
65.967431
 20
93.854929
 30
0.0
 10
58.985106
 20
86.872604
 30
0.0
 10
58.985106
 20
78.281154
 30
0.0
  0
SPLINE
  5
11a
100
AcDbEntity
  8
0
 62
7
100
AcDbSpline
 70
8
 71
3
 72
8
 73
4
 74
0
 40
0
 40
0
 40
0
 40
0
 40
1
 40
1
 40
1
 40
1
 10
58.985106
 20
78.281154
 30
0.0
 10
58.994615
 20
69.694093
 30
0.0
 10
65.971818
 20
62.716886
 30
0.0
 10
74.558881
 20
62.707379
 30
0.0
  0
SPLINE
  5
11b
100
AcDbEntity
  8
0
 62
7
100
AcDbSpline
 70
8
 71
3
 72
8
 73
4
 74
0
 40
0
 40
0
 40
0
 40
0
 40
1
 40
1
 40
1
 40
1
 10
74.558881
 20
62.707379
 30
0.0
 10
83.150331
 20
62.707379
 30
0.0
 10
90.132656
 20
69.689704
 30
0.0
 10
90.132656
 20
78.281154
 30
0.0
  0
SPLINE
  5
11c
100
AcDbEntity
  8
0
 62
7
100
AcDbSpline
 70
8
 71
3
 72
8
 73
4
 74
0
 40
0
 40
0
 40
0
 40
0
 40
1
 40
1
 40
1
 40
1
 10
90.132656
 20
78.281154
 30
0.0
 10
90.132656
 20
86.872604
 30
0.0
 10
83.150331
 20
93.854929
 30
0.0
 10
74.558881
 20
93.854929
 30
0.0
  0
LINE
  5
11d
100
AcDbEntity
  8
0
 62
7
100
AcDbLine
 10
74.558881
 20
93.854929
 30
0.0
 11
74.558881
 21
93.854929
 31
0.0
  0
SPLINE
  5
11e
100
AcDbEntity
  8
0
 62
7
100
AcDbSpline
 70
8
 71
3
 72
8
 73
4
 74
0
 40
0
 40
0
 40
0
 40
0
 40
1
 40
1
 40
1
 40
1
 10
74.558881
 20
95.494274
 30
0.0
 10
84.075133
 20
95.494274
 30
0.0
 10
91.772001
 20
87.797406
 30
0.0
 10
91.772001
 20
78.281154
 30
0.0
  0
SPLINE
  5
11f
100
AcDbEntity
  8
0
 62
7
100
AcDbSpline
 70
8
 71
3
 72
8
 73
4
 74
0
 40
0
 40
0
 40
0
 40
0
 40
1
 40
1
 40
1
 40
1
 10
91.772001
 20
78.281154
 30
0.0
 10
91.760853
 20
68.769086
 30
0.0
 10
84.070956
 20
61.079313
 30
0.0
 10
74.558881
 20
61.068035
 30
0.0
  0
SPLINE
  5
120
100
AcDbEntity
  8
0
 62
7
100
AcDbSpline
 70
8
 71
3
 72
8
 73
4
 74
0
 40
0
 40
0
 40
0
 40
0
 40
1
 40
1
 40
1
 40
1
 10
74.558881
 20
61.068035
 30
0.0
 10
65.042629
 20
61.068035
 30
0.0
 10
57.345762
 20
68.764902
 30
0.0
 10
57.345762
 20
78.281154
 30
0.0
  0
SPLINE
  5
121
100
AcDbEntity
  8
0
 62
7
100
AcDbSpline
 70
8
 71
3
 72
8
 73
4
 74
0
 40
0
 40
0
 40
0
 40
0
 40
1
 40
1
 40
1
 40
1
 10
57.345762
 20
78.281154
 30
0.0
 10
57.345762
 20
87.797406
 30
0.0
 10
65.042629
 20
95.494274
 30
0.0
 10
74.558881
 20
95.494274
 30
0.0
  0
LINE
  5
122
100
AcDbEntity
  8
0
 62
7
100
AcDbLine
 10
74.558881
 20
95.494274
 30
0.0
 11
74.558881
 21
95.494274
 31
0.0
  0
SPLINE
  5
123
100
AcDbEntity
  8
0
 62
7
100
AcDbSpline
 70
8
 71
3
 72
8
 73
4
 74
0
 40
0
 40
0
 40
0
 40
0
 40
1
 40
1
 40
1
 40
1
 10
74.558881
 20
97.133618
 30
0.0
 10
64.156662
 20
97.133618
 30
0.0
 10
55.706417
 20
88.683373
 30
0.0
 10
55.706417
 20
78.281154
 30
0.0
  0
SPLINE
  5
124
100
AcDbEntity
  8
0
 62
7
100
AcDbSpline
 70
8
 71
3
 72
8
 73
4
 74
0
 40
0
 40
0
 40
0
 40
0
 40
1
 40
1
 40
1
 40
1
 10
55.706417
 20
78.281154
 30
0.0
 10
55.706417
 20
67.878935
 30
0.0
 10
64.156662
 20
59.428690
 30
0.0
 10
74.558881
 20
59.428690
 30
0.0
  0
SPLINE
  5
125
100
AcDbEntity
  8
0
 62
7
100
AcDbSpline
 70
8
 71
3
 72
8
 73
4
 74
0
 40
0
 40
0
 40
0
 40
0
 40
1
 40
1
 40
1
 40
1
 10
74.558881
 20
59.428690
 30
0.0
 10
84.955543
 20
59.440985
 30
0.0
 10
93.399081
 20
67.884486
 30
0.0
 10
93.411345
 20
78.281154
 30
0.0
  0
SPLINE
  5
126
100
AcDbEntity
  8
0
 62
7
100
AcDbSpline
 70
8
 71
3
 72
8
 73
4
 74
0
 40
0
 40
0
 40
0
 40
0
 40
1
 40
1
 40
1
 40
1
 10
93.411345
 20
78.281154
 30
0.0
 10
93.411345
 20
88.683373
 30
0.0
 10
84.961100
 20
97.133618
 30
0.0
 10
74.558881
 20
97.133618
 30
0.0
  0
LINE
  5
127
100
AcDbEntity
  8
0
 62
7
100
AcDbLine
 10
74.558881
 20
97.133618
 30
0.0
 11
74.558881
 21
97.133618
 31
0.0
  0
SPLINE
  5
128
100
AcDbEntity
  8
0
 62
7
100
AcDbSpline
 70
8
 71
3
 72
8
 73
4
 74
0
 40
0
 40
0
 40
0
 40
0
 40
1
 40
1
 40
1
 40
1
 10
74.558881
 20
84.018861
 30
0.0
 10
77.737438
 20
84.018861
 30
0.0
 10
80.296588
 20
81.459711
 30
0.0
 10
80.296588
 20
78.281154
 30
0.0
  0
SPLINE
  5
129
100
AcDbEntity
  8
0
 62
7
100
AcDbSpline
 70
8
 71
3
 72
8
 73
4
 74
0
 40
0
 40
0
 40
0
 40
0
 40
1
 40
1
 40
1
 40
1
 10
80.296588
 20
78.281154
 30
0.0
 10
80.296588
 20
75.102597
 30
0.0
 10
77.737438
 20
72.543448
 30
0.0
 10
74.558881
 20
72.543448
 30
0.0
  0
SPLINE
  5
12a
100
AcDbEntity
  8
0
 62
7
100
AcDbSpline
 70
8
 71
3
 72
8
 73
4
 74
0
 40
0
 40
0
 40
0
 40
0
 40
1
 40
1
 40
1
 40
1
 10
74.558881
 20
72.543448
 30
0.0
 10
71.380325
 20
72.543448
 30
0.0
 10
68.821175
 20
75.102597
 30
0.0
 10
68.821175
 20
78.281154
 30
0.0
  0
SPLINE
  5
12b
100
AcDbEntity
  8
0
 62
7
100
AcDbSpline
 70
8
 71
3
 72
8
 73
4
 74
0
 40
0
 40
0
 40
0
 40
0
 40
1
 40
1
 40
1
 40
1
 10
68.821175
 20
78.281154
 30
0.0
 10
68.821175
 20
81.459711
 30
0.0
 10
71.380325
 20
84.018861
 30
0.0
 10
74.558881
 20
84.018861
 30
0.0
  0
LINE
  5
12c
100
AcDbEntity
  8
0
 62
7
100
AcDbLine
 10
74.558881
 20
84.018861
 30
0.0
 11
74.558881
 21
84.018861
 31
0.0
  0
SPLINE
  5
12d
100
AcDbEntity
  8
0
 62
7
100
AcDbSpline
 70
8
 71
3
 72
8
 73
4
 74
0
 40
0
 40
0
 40
0
 40
0
 40
1
 40
1
 40
1
 40
1
 10
74.558881
 20
85.658205
 30
0.0
 10
70.494357
 20
85.658205
 30
0.0
 10
67.181830
 20
82.345678
 30
0.0
 10
67.181830
 20
78.281154
 30
0.0
  0
SPLINE
  5
12e
100
AcDbEntity
  8
0
 62
7
100
AcDbSpline
 70
8
 71
3
 72
8
 73
4
 74
0
 40
0
 40
0
 40
0
 40
0
 40
1
 40
1
 40
1
 40
1
 10
67.181830
 20
78.281154
 30
0.0
 10
67.181830
 20
74.216630
 30
0.0
 10
70.494357
 20
70.904103
 30
0.0
 10
74.558881
 20
70.904103
 30
0.0
  0
SPLINE
  5
12f
100
AcDbEntity
  8
0
 62
7
100
AcDbSpline
 70
8
 71
3
 72
8
 73
4
 74
0
 40
0
 40
0
 40
0
 40
0
 40
1
 40
1
 40
1
 40
1
 10
74.558881
 20
70.904103
 30
0.0
 10
78.623405
 20
70.904103
 30
0.0
 10
81.935932
 20
74.216630
 30
0.0
 10
81.935932
 20
78.281154
 30
0.0
  0
SPLINE
  5
130
100
AcDbEntity
  8
0
 62
7
100
AcDbSpline
 70
8
 71
3
 72
8
 73
4
 74
0
 40
0
 40
0
 40
0
 40
0
 40
1
 40
1
 40
1
 40
1
 10
81.935932
 20
78.281154
 30
0.0
 10
81.935932
 20
82.345678
 30
0.0
 10
78.623405
 20
85.658205
 30
0.0
 10
74.558881
 20
85.658205
 30
0.0
  0
LINE
  5
131
100
AcDbEntity
  8
0
 62
7
100
AcDbLine
 10
74.558881
 20
85.658205
 30
0.0
 11
74.558881
 21
85.658205
 31
0.0
  0
SPLINE
  5
132
100
AcDbEntity
  8
0
 62
7
100
AcDbSpline
 70
8
 71
3
 72
8
 73
4
 74
0
 40
0
 40
0
 40
0
 40
0
 40
1
 40
1
 40
1
 40
1
 10
74.558881
 20
87.297550
 30
0.0
 10
79.548207
 20
87.297550
 30
0.0
 10
83.575277
 20
83.270482
 30
0.0
 10
83.575277
 20
78.281154
 30
0.0
  0
SPLINE
  5
133
100
AcDbEntity
  8
0
 62
7
100
AcDbSpline
 70
8
 71
3
 72
8
 73
4
 74
0
 40
0
 40
0
 40
0
 40
0
 40
1
 40
1
 40
1
 40
1
 10
83.575277
 20
78.281154
 30
0.0
 10
83.570359
 20
73.293495
 30
0.0
 10
79.546538
 20
69.269727
 30
0.0
 10
74.558881
 20
69.264758
 30
0.0
  0
SPLINE
  5
134
100
AcDbEntity
  8
0
 62
7
100
AcDbSpline
 70
8
 71
3
 72
8
 73
4
 74
0
 40
0
 40
0
 40
0
 40
0
 40
1
 40
1
 40
1
 40
1
 10
74.558881
 20
69.264758
 30
0.0
 10
69.569554
 20
69.264758
 30
0.0
 10
65.542485
 20
73.291828
 30
0.0
 10
65.542485
 20
78.281154
 30
0.0
  0
SPLINE
  5
135
100
AcDbEntity
  8
0
 62
7
100
AcDbSpline
 70
8
 71
3
 72
8
 73
4
 74
0
 40
0
 40
0
 40
0
 40
0
 40
1
 40
1
 40
1
 40
1
 10
65.542485
 20
78.281154
 30
0.0
 10
65.542485
 20
83.270482
 30
0.0
 10
69.569554
 20
87.297550
 30
0.0
 10
74.558881
 20
87.297550
 30
0.0
  0
LINE
  5
136
100
AcDbEntity
  8
0
 62
7
100
AcDbLine
 10
74.558881
 20
87.297550
 30
0.0
 11
74.558881
 21
87.297550
 31
0.0
  0
SPLINE
  5
137
100
AcDbEntity
  8
0
 62
7
100
AcDbSpline
 70
8
 71
3
 72
8
 73
4
 74
0
 40
0
 40
0
 40
0
 40
0
 40
1
 40
1
 40
1
 40
1
 10
74.558881
 20
88.936895
 30
0.0
 10
68.683586
 20
88.936895
 30
0.0
 10
63.903141
 20
84.156449
 30
0.0
 10
63.903141
 20
78.281154
 30
0.0
  0
SPLINE
  5
138
100
AcDbEntity
  8
0
 62
7
100
AcDbSpline
 70
8
 71
3
 72
8
 73
4
 74
0
 40
0
 40
0
 40
0
 40
0
 40
1
 40
1
 40
1
 40
1
 10
63.903141
 20
78.281154
 30
0.0
 10
63.903141
 20
72.405861
 30
0.0
 10
68.683586
 20
67.625413
 30
0.0
 10
74.558881
 20
67.625413
 30
0.0
  0
SPLINE
  5
139
100
AcDbEntity
  8
0
 62
7
100
AcDbSpline
 70
8
 71
3
 72
8
 73
4
 74
0
 40
0
 40
0
 40
0
 40
0
 40
1
 40
1
 40
1
 40
1
 10
74.558881
 20
67.625413
 30
0.0
 10
80.431352
 20
67.631315
 30
0.0
 10
85.208760
 20
72.408685
 30
0.0
 10
85.214622
 20
78.281154
 30
0.0
  0
SPLINE
  5
13a
100
AcDbEntity
  8
0
 62
7
100
AcDbSpline
 70
8
 71
3
 72
8
 73
4
 74
0
 40
0
 40
0
 40
0
 40
0
 40
1
 40
1
 40
1
 40
1
 10
85.214622
 20
78.281154
 30
0.0
 10
85.214622
 20
84.156449
 30
0.0
 10
80.434175
 20
88.936895
 30
0.0
 10
74.558881
 20
88.936895
 30
0.0
  0
LINE
  5
13b
100
AcDbEntity
  8
0
 62
7
100
AcDbLine
 10
74.558881
 20
88.936895
 30
0.0
 11
74.558881
 21
88.936895
 31
0.0
  0
SPLINE
  5
13c
100
AcDbEntity
  8
0
 62
7
100
AcDbSpline
 70
8
 71
3
 72
8
 73
4
 74
0
 40
0
 40
0
 40
0
 40
0
 40
1
 40
1
 40
1
 40
1
 10
74.558881
 20
106.969686
 30
0.0
 10
75.021283
 20
106.969686
 30
0.0
 10
75.378554
 20
106.612416
 30
0.0
 10
75.378554
 20
106.150014
 30
0.0
  0
SPLINE
  5
13d
100
AcDbEntity
  8
0
 62
7
100
AcDbSpline
 70
8
 71
3
 72
8
 73
4
 74
0
 40
0
 40
0
 40
0
 40
0
 40
1
 40
1
 40
1
 40
1
 10
75.378554
 20
106.150014
 30
0.0
 10
75.378554
 20
105.932311
 30
0.0
 10
75.292357
 20
105.724422
 30
0.0
 10
75.138416
 20
105.570480
 30
0.0
  0
SPLINE
  5
13e
100
AcDbEntity
  8
0
 62
7
100
AcDbSpline
 70
8
 71
3
 72
8
 73
4
 74
0
 40
0
 40
0
 40
0
 40
0
 40
1
 40
1
 40
1
 40
1
 10
75.138416
 20
105.570480
 30
0.0
 10
74.984481
 20
105.416545
 30
0.0
 10
74.776585
 20
105.330342
 30
0.0
 10
74.558881
 20
105.330342
 30
0.0
  0
SPLINE
  5
13f
100
AcDbEntity
  8
0
 62
7
100
AcDbSpline
 70
8
 71
3
 72
8
 73
4
 74
0
 40
0
 40
0
 40
0
 40
0
 40
1
 40
1
 40
1
 40
1
 10
74.558881
 20
105.330342
 30
0.0
 10
59.637538
 20
105.312653
 30
0.0
 10
47.527382
 20
93.202497
 30
0.0
 10
47.509693
 20
78.281154
 30
0.0
  0
SPLINE
  5
140
100
AcDbEntity
  8
0
 62
7
100
AcDbSpline
 70
8
 71
3
 72
8
 73
4
 74
0
 40
0
 40
0
 40
0
 40
0
 40
1
 40
1
 40
1
 40
1
 10
47.509693
 20
78.281154
 30
0.0
 10
47.509693
 20
77.818752
 30
0.0
 10
47.152423
 20
77.461482
 30
0.0
 10
46.690021
 20
77.461482
 30
0.0
  0
SPLINE
  5
141
100
AcDbEntity
  8
0
 62
7
100
AcDbSpline
 70
8
 71
3
 72
8
 73
4
 74
0
 40
0
 40
0
 40
0
 40
0
 40
1
 40
1
 40
1
 40
1
 10
46.690021
 20
77.461482
 30
0.0
 10
46.227619
 20
77.461482
 30
0.0
 10
45.870349
 20
77.818752
 30
0.0
 10
45.870349
 20
78.281154
 30
0.0
  0
SPLINE
  5
142
100
AcDbEntity
  8
0
 62
7
100
AcDbSpline
 70
8
 71
3
 72
8
 73
4
 74
0
 40
0
 40
0
 40
0
 40
0
 40
1
 40
1
 40
1
 40
1
 10
45.870349
 20
78.281154
 30
0.0
 10
45.888808
 20
94.127912
 30
0.0
 10
58.712123
 20
106.951234
 30
0.0
 10
74.558881
 20
106.969686
 30
0.0
  0
LINE
  5
143
100
AcDbEntity
  8
0
 62
7
100
AcDbLine
 10
74.558881
 20
106.969686
 30
0.0
 11
74.558881
 21
106.969686
 31
0.0
  0
SPLINE
  5
144
100
AcDbEntity
  8
0
 62
7
100
AcDbSpline
 70
8
 71
3
 72
8
 73
4
 74
0
 40
0
 40
0
 40
0
 40
0
 40
1
 40
1
 40
1
 40
1
 10
74.558881
 20
108.609031
 30
0.0
 10
57.827506
 20
108.589556
 30
0.0
 10
44.250489
 20
95.012529
 30
0.0
 10
44.231004
 20
78.281154
 30
0.0
  0
SPLINE
  5
145
100
AcDbEntity
  8
0
 62
7
100
AcDbSpline
 70
8
 71
3
 72
8
 73
4
 74
0
 40
0
 40
0
 40
0
 40
0
 40
1
 40
1
 40
1
 40
1
 10
44.231004
 20
78.281154
 30
0.0
 10
44.231004
 20
76.932785
 30
0.0
 10
45.341652
 20
75.822137
 30
0.0
 10
46.690021
 20
75.822137
 30
0.0
  0
SPLINE
  5
146
100
AcDbEntity
  8
0
 62
7
100
AcDbSpline
 70
8
 71
3
 72
8
 73
4
 74
0
 40
0
 40
0
 40
0
 40
0
 40
1
 40
1
 40
1
 40
1
 10
46.690021
 20
75.822137
 30
0.0
 10
48.038390
 20
75.822137
 30
0.0
 10
49.149038
 20
76.932785
 30
0.0
 10
49.149038
 20
78.281154
 30
0.0
  0
SPLINE
  5
147
100
AcDbEntity
  8
0
 62
7
100
AcDbSpline
 70
8
 71
3
 72
8
 73
4
 74
0
 40
0
 40
0
 40
0
 40
0
 40
1
 40
1
 40
1
 40
1
 10
49.149038
 20
78.281154
 30
0.0
 10
49.165678
 20
92.317904
 30
0.0
 10
60.522131
 20
103.674358
 30
0.0
 10
74.558881
 20
103.690997
 30
0.0
  0
SPLINE
  5
148
100
AcDbEntity
  8
0
 62
7
100
AcDbSpline
 70
8
 71
3
 72
8
 73
4
 74
0
 40
0
 40
0
 40
0
 40
0
 40
1
 40
1
 40
1
 40
1
 10
74.558881
 20
103.690997
 30
0.0
 10
75.210739
 20
103.690997
 30
0.0
 10
75.836550
 20
103.950482
 30
0.0
 10
76.297483
 20
104.411412
 30
0.0
  0
SPLINE
  5
149
100
AcDbEntity
  8
0
 62
7
100
AcDbSpline
 70
8
 71
3
 72
8
 73
4
 74
0
 40
0
 40
0
 40
0
 40
0
 40
1
 40
1
 40
1
 40
1
 10
76.297483
 20
104.411412
 30
0.0
 10
76.758413
 20
104.872345
 30
0.0
 10
77.017898
 20
105.498157
 30
0.0
 10
77.017898
 20
106.150014
 30
0.0
  0
SPLINE
  5
14a
100
AcDbEntity
  8
0
 62
7
100
AcDbSpline
 70
8
 71
3
 72
8
 73
4
 74
0
 40
0
 40
0
 40
0
 40
0
 40
1
 40
1
 40
1
 40
1
 10
77.017898
 20
106.150014
 30
0.0
 10
77.017898
 20
107.498383
 30
0.0
 10
75.907250
 20
108.609031
 30
0.0
 10
74.558881
 20
108.609031
 30
0.0
  0
LINE
  5
14b
100
AcDbEntity
  8
0
 62
7
100
AcDbLine
 10
74.558881
 20
108.609031
 30
0.0
 11
74.558881
 21
108.609031
 31
0.0
  0
SPLINE
  5
14c
100
AcDbEntity
  8
0
 62
7
100
AcDbSpline
 70
8
 71
3
 72
8
 73
4
 74
0
 40
0
 40
0
 40
0
 40
0
 40
1
 40
1
 40
1
 40
1
 10
102.427741
 20
79.100826
 30
0.0
 10
102.890143
 20
79.100826
 30
0.0
 10
103.247414
 20
78.743556
 30
0.0
 10
103.247414
 20
78.281154
 30
0.0
  0
SPLINE
  5
14d
100
AcDbEntity
  8
0
 62
7
100
AcDbSpline
 70
8
 71
3
 72
8
 73
4
 74
0
 40
0
 40
0
 40
0
 40
0
 40
1
 40
1
 40
1
 40
1
 10
103.247414
 20
78.281154
 30
0.0
 10
103.228955
 20
62.434396
 30
0.0
 10
90.405640
 20
49.611074
 30
0.0
 10
74.558881
 20
49.592622
 30
0.0
  0
SPLINE
  5
14e
100
AcDbEntity
  8
0
 62
7
100
AcDbSpline
 70
8
 71
3
 72
8
 73
4
 74
0
 40
0
 40
0
 40
0
 40
0
 40
1
 40
1
 40
1
 40
1
 10
74.558881
 20
49.592622
 30
0.0
 10
74.096479
 20
49.592622
 30
0.0
 10
73.739209
 20
49.949892
 30
0.0
 10
73.739209
 20
50.412294
 30
0.0
  0
SPLINE
  5
14f
100
AcDbEntity
  8
0
 62
7
100
AcDbSpline
 70
8
 71
3
 72
8
 73
4
 74
0
 40
0
 40
0
 40
0
 40
0
 40
1
 40
1
 40
1
 40
1
 10
73.739209
 20
50.412294
 30
0.0
 10
73.739209
 20
50.874696
 30
0.0
 10
74.096479
 20
51.231966
 30
0.0
 10
74.558881
 20
51.231966
 30
0.0
  0
SPLINE
  5
150
100
AcDbEntity
  8
0
 62
7
100
AcDbSpline
 70
8
 71
3
 72
8
 73
4
 74
0
 40
0
 40
0
 40
0
 40
0
 40
1
 40
1
 40
1
 40
1
 10
74.558881
 20
51.231966
 30
0.0
 10
89.480225
 20
51.249655
 30
0.0
 10
101.590380
 20
63.359811
 30
0.0
 10
101.608069
 20
78.281154
 30
0.0
  0
SPLINE
  5
151
100
AcDbEntity
  8
0
 62
7
100
AcDbSpline
 70
8
 71
3
 72
8
 73
4
 74
0
 40
0
 40
0
 40
0
 40
0
 40
1
 40
1
 40
1
 40
1
 10
101.608069
 20
78.281154
 30
0.0
 10
101.608069
 20
78.743556
 30
0.0
 10
101.965340
 20
79.100826
 30
0.0
 10
102.427741
 20
79.100826
 30
0.0
  0
LINE
  5
152
100
AcDbEntity
  8
0
 62
7
100
AcDbLine
 10
102.427741
 20
79.100826
 30
0.0
 11
102.427741
 21
79.100826
 31
0.0
  0
SPLINE
  5
153
100
AcDbEntity
  8
0
 62
7
100
AcDbSpline
 70
8
 71
3
 72
8
 73
4
 74
0
 40
0
 40
0
 40
0
 40
0
 40
1
 40
1
 40
1
 40
1
 10
102.427741
 20
80.740171
 30
0.0
 10
101.079372
 20
80.740171
 30
0.0
 10
99.968724
 20
79.629523
 30
0.0
 10
99.968724
 20
78.281154
 30
0.0
  0
SPLINE
  5
154
100
AcDbEntity
  8
0
 62
7
100
AcDbSpline
 70
8
 71
3
 72
8
 73
4
 74
0
 40
0
 40
0
 40
0
 40
0
 40
1
 40
1
 40
1
 40
1
 10
99.968724
 20
78.281154
 30
0.0
 10
99.952085
 20
64.244404
 30
0.0
 10
88.595631
 20
52.887950
 30
0.0
 10
74.558881
 20
52.871311
 30
0.0
  0
SPLINE
  5
155
100
AcDbEntity
  8
0
 62
7
100
AcDbSpline
 70
8
 71
3
 72
8
 73
4
 74
0
 40
0
 40
0
 40
0
 40
0
 40
1
 40
1
 40
1
 40
1
 10
74.558881
 20
52.871311
 30
0.0
 10
73.210512
 20
52.871311
 30
0.0
 10
72.099864
 20
51.760663
 30
0.0
 10
72.099864
 20
50.412294
 30
0.0
  0
SPLINE
  5
156
100
AcDbEntity
  8
0
 62
7
100
AcDbSpline
 70
8
 71
3
 72
8
 73
4
 74
0
 40
0
 40
0
 40
0
 40
0
 40
1
 40
1
 40
1
 40
1
 10
72.099864
 20
50.412294
 30
0.0
 10
72.099864
 20
49.063925
 30
0.0
 10
73.210512
 20
47.953277
 30
0.0
 10
74.558881
 20
47.953277
 30
0.0
  0
SPLINE
  5
157
100
AcDbEntity
  8
0
 62
7
100
AcDbSpline
 70
8
 71
3
 72
8
 73
4
 74
0
 40
0
 40
0
 40
0
 40
0
 40
1
 40
1
 40
1
 40
1
 10
74.558881
 20
47.953277
 30
0.0
 10
91.290256
 20
47.972752
 30
0.0
 10
104.867273
 20
61.549779
 30
0.0
 10
104.886758
 20
78.281154
 30
0.0
  0
SPLINE
  5
158
100
AcDbEntity
  8
0
 62
7
100
AcDbSpline
 70
8
 71
3
 72
8
 73
4
 74
0
 40
0
 40
0
 40
0
 40
0
 40
1
 40
1
 40
1
 40
1
 10
104.886758
 20
78.281154
 30
0.0
 10
104.886758
 20
79.629523
 30
0.0
 10
103.776111
 20
80.740171
 30
0.0
 10
102.427741
 20
80.740171
 30
0.0
  0
LINE
  5
159
100
AcDbEntity
  8
0
 62
7
100
AcDbLine
 10
102.427741
 20
80.740171
 30
0.0
 11
102.427741
 21
80.740171
 31
0.0
  0
SPLINE
  5
15a
100
AcDbEntity
  8
0
 62
7
100
AcDbSpline
 70
8
 71
3
 72
8
 73
4
 74
0
 40
0
 40
0
 40
0
 40
0
 40
1
 40
1
 40
1
 40
1
 10
74.558881
 20
113.527065
 30
0.0
 10
75.021283
 20
113.527065
 30
0.0
 10
75.378554
 20
113.169795
 30
0.0
 10
75.378554
 20
112.707393
 30
0.0
  0
SPLINE
  5
15b
100
AcDbEntity
  8
0
 62
7
100
AcDbSpline
 70
8
 71
3
 72
8
 73
4
 74
0
 40
0
 40
0
 40
0
 40
0
 40
1
 40
1
 40
1
 40
1
 10
75.378554
 20
112.707393
 30
0.0
 10
75.378554
 20
112.244991
 30
0.0
 10
75.021283
 20
111.887721
 30
0.0
 10
74.558881
 20
111.887721
 30
0.0
  0
SPLINE
  5
15c
100
AcDbEntity
  8
0
 62
7
100
AcDbSpline
 70
8
 71
3
 72
8
 73
4
 74
0
 40
0
 40
0
 40
0
 40
0
 40
1
 40
1
 40
1
 40
1
 10
74.558881
 20
111.887721
 30
0.0
 10
56.017474
 20
111.866426
 30
0.0
 10
40.973593
 20
96.822561
 30
0.0
 10
40.952315
 20
78.281154
 30
0.0
  0
SPLINE
  5
15d
100
AcDbEntity
  8
0
 62
7
100
AcDbSpline
 70
8
 71
3
 72
8
 73
4
 74
0
 40
0
 40
0
 40
0
 40
0
 40
1
 40
1
 40
1
 40
1
 10
40.952315
 20
78.281154
 30
0.0
 10
40.952315
 20
77.818752
 30
0.0
 10
40.595044
 20
77.461482
 30
0.0
 10
40.132642
 20
77.461482
 30
0.0
  0
SPLINE
  5
15e
100
AcDbEntity
  8
0
 62
7
100
AcDbSpline
 70
8
 71
3
 72
8
 73
4
 74
0
 40
0
 40
0
 40
0
 40
0
 40
1
 40
1
 40
1
 40
1
 10
40.132642
 20
77.461482
 30
0.0
 10
39.670242
 20
77.461482
 30
0.0
 10
39.312970
 20
77.818752
 30
0.0
 10
39.312970
 20
78.281154
 30
0.0
  0
SPLINE
  5
15f
100
AcDbEntity
  8
0
 62
7
100
AcDbSpline
 70
8
 71
3
 72
8
 73
4
 74
0
 40
0
 40
0
 40
0
 40
0
 40
1
 40
1
 40
1
 40
1
 10
39.312970
 20
78.281154
 30
0.0
 10
39.335052
 20
97.747936
 30
0.0
 10
55.092099
 20
113.504982
 30
0.0
 10
74.558881
 20
113.527065
 30
0.0
  0
LINE
  5
160
100
AcDbEntity
  8
0
 62
7
100
AcDbLine
 10
74.558881
 20
113.527065
 30
0.0
 11
74.558881
 21
113.527065
 31
0.0
  0
SPLINE
  5
161
100
AcDbEntity
  8
0
 62
7
100
AcDbSpline
 70
8
 71
3
 72
8
 73
4
 74
0
 40
0
 40
0
 40
0
 40
0
 40
1
 40
1
 40
1
 40
1
 10
74.558881
 20
115.166410
 30
0.0
 10
54.207446
 20
115.143328
 30
0.0
 10
37.696714
 20
98.632589
 30
0.0
 10
37.673625
 20
78.281154
 30
0.0
  0
SPLINE
  5
162
100
AcDbEntity
  8
0
 62
7
100
AcDbSpline
 70
8
 71
3
 72
8
 73
4
 74
0
 40
0
 40
0
 40
0
 40
0
 40
1
 40
1
 40
1
 40
1
 10
37.673625
 20
78.281154
 30
0.0
 10
37.673625
 20
76.932785
 30
0.0
 10
38.784275
 20
75.822137
 30
0.0
 10
40.132642
 20
75.822137
 30
0.0
  0
SPLINE
  5
163
100
AcDbEntity
  8
0
 62
7
100
AcDbSpline
 70
8
 71
3
 72
8
 73
4
 74
0
 40
0
 40
0
 40
0
 40
0
 40
1
 40
1
 40
1
 40
1
 10
40.132642
 20
75.822137
 30
0.0
 10
41.481011
 20
75.822137
 30
0.0
 10
42.591659
 20
76.932785
 30
0.0
 10
42.591659
 20
78.281154
 30
0.0
  0
SPLINE
  5
164
100
AcDbEntity
  8
0
 62
7
100
AcDbSpline
 70
8
 71
3
 72
8
 73
4
 74
0
 40
0
 40
0
 40
0
 40
0
 40
1
 40
1
 40
1
 40
1
 10
42.591659
 20
78.281154
 30
0.0
 10
42.611922
 20
95.937924
 30
0.0
 10
56.902111
 20
110.228105
 30
0.0
 10
74.558881
 20
110.248376
 30
0.0
  0
SPLINE
  5
165
100
AcDbEntity
  8
0
 62
7
100
AcDbSpline
 70
8
 71
3
 72
8
 73
4
 74
0
 40
0
 40
0
 40
0
 40
0
 40
1
 40
1
 40
1
 40
1
 10
74.558881
 20
110.248376
 30
0.0
 10
75.907250
 20
110.248376
 30
0.0
 10
77.017898
 20
111.359024
 30
0.0
 10
77.017898
 20
112.707393
 30
0.0
  0
SPLINE
  5
166
100
AcDbEntity
  8
0
 62
7
100
AcDbSpline
 70
8
 71
3
 72
8
 73
4
 74
0
 40
0
 40
0
 40
0
 40
0
 40
1
 40
1
 40
1
 40
1
 10
77.017898
 20
112.707393
 30
0.0
 10
77.017898
 20
114.055762
 30
0.0
 10
75.907250
 20
115.166410
 30
0.0
 10
74.558881
 20
115.166410
 30
0.0
  0
LINE
  5
167
100
AcDbEntity
  8
0
 62
7
100
AcDbLine
 10
74.558881
 20
115.166410
 30
0.0
 11
74.558881
 21
115.166410
 31
0.0
  0
SPLINE
  5
168
100
AcDbEntity
  8
0
 62
7
100
AcDbSpline
 70
8
 71
3
 72
8
 73
4
 74
0
 40
0
 40
0
 40
0
 40
0
 40
1
 40
1
 40
1
 40
1
 10
108.985120
 20
79.100826
 30
0.0
 10
109.447522
 20
79.100826
 30
0.0
 10
109.804792
 20
78.743556
 30
0.0
 10
109.804792
 20
78.281154
 30
0.0
  0
SPLINE
  5
169
100
AcDbEntity
  8
0
 62
7
100
AcDbSpline
 70
8
 71
3
 72
8
 73
4
 74
0
 40
0
 40
0
 40
0
 40
0
 40
1
 40
1
 40
1
 40
1
 10
109.804792
 20
78.281154
 30
0.0
 10
109.782711
 20
58.814372
 30
0.0
 10
94.025664
 20
43.057331
 30
0.0
 10
74.558881
 20
43.035243
 30
0.0
  0
SPLINE
  5
16a
100
AcDbEntity
  8
0
 62
7
100
AcDbSpline
 70
8
 71
3
 72
8
 73
4
 74
0
 40
0
 40
0
 40
0
 40
0
 40
1
 40
1
 40
1
 40
1
 10
74.558881
 20
43.035243
 30
0.0
 10
74.096479
 20
43.035243
 30
0.0
 10
73.739209
 20
43.392513
 30
0.0
 10
73.739209
 20
43.854915
 30
0.0
  0
SPLINE
  5
16b
100
AcDbEntity
  8
0
 62
7
100
AcDbSpline
 70
8
 71
3
 72
8
 73
4
 74
0
 40
0
 40
0
 40
0
 40
0
 40
1
 40
1
 40
1
 40
1
 10
73.739209
 20
43.854915
 30
0.0
 10
73.739209
 20
44.317317
 30
0.0
 10
74.096479
 20
44.674587
 30
0.0
 10
74.558881
 20
44.674587
 30
0.0
  0
SPLINE
  5
16c
100
AcDbEntity
  8
0
 62
7
100
AcDbSpline
 70
8
 71
3
 72
8
 73
4
 74
0
 40
0
 40
0
 40
0
 40
0
 40
1
 40
1
 40
1
 40
1
 10
74.558881
 20
44.674587
 30
0.0
 10
93.100288
 20
44.695883
 30
0.0
 10
108.144153
 20
59.739747
 30
0.0
 10
108.165448
 20
78.281154
 30
0.0
  0
SPLINE
  5
16d
100
AcDbEntity
  8
0
 62
7
100
AcDbSpline
 70
8
 71
3
 72
8
 73
4
 74
0
 40
0
 40
0
 40
0
 40
0
 40
1
 40
1
 40
1
 40
1
 10
108.165448
 20
78.281154
 30
0.0
 10
108.165448
 20
78.743556
 30
0.0
 10
108.522718
 20
79.100826
 30
0.0
 10
108.985120
 20
79.100826
 30
0.0
  0
LINE
  5
16e
100
AcDbEntity
  8
0
 62
7
100
AcDbLine
 10
108.985120
 20
79.100826
 30
0.0
 11
108.985120
 21
79.100826
 31
0.0
  0
SPLINE
  5
16f
100
AcDbEntity
  8
0
 62
7
100
AcDbSpline
 70
8
 71
3
 72
8
 73
4
 74
0
 40
0
 40
0
 40
0
 40
0
 40
1
 40
1
 40
1
 40
1
 10
108.985120
 20
80.740171
 30
0.0
 10
107.636751
 20
80.740171
 30
0.0
 10
106.526103
 20
79.629523
 30
0.0
 10
106.526103
 20
78.281154
 30
0.0
  0
SPLINE
  5
170
100
AcDbEntity
  8
0
 62
7
100
AcDbSpline
 70
8
 71
3
 72
8
 73
4
 74
0
 40
0
 40
0
 40
0
 40
0
 40
1
 40
1
 40
1
 40
1
 10
106.526103
 20
78.281154
 30
0.0
 10
106.505824
 20
60.624384
 30
0.0
 10
92.215652
 20
46.334203
 30
0.0
 10
74.558881
 20
46.313932
 30
0.0
  0
SPLINE
  5
171
100
AcDbEntity
  8
0
 62
7
100
AcDbSpline
 70
8
 71
3
 72
8
 73
4
 74
0
 40
0
 40
0
 40
0
 40
0
 40
1
 40
1
 40
1
 40
1
 10
74.558881
 20
46.313932
 30
0.0
 10
73.210512
 20
46.313932
 30
0.0
 10
72.099864
 20
45.203284
 30
0.0
 10
72.099864
 20
43.854915
 30
0.0
  0
SPLINE
  5
172
100
AcDbEntity
  8
0
 62
7
100
AcDbSpline
 70
8
 71
3
 72
8
 73
4
 74
0
 40
0
 40
0
 40
0
 40
0
 40
1
 40
1
 40
1
 40
1
 10
72.099864
 20
43.854915
 30
0.0
 10
72.099864
 20
42.506546
 30
0.0
 10
73.210512
 20
41.395898
 30
0.0
 10
74.558881
 20
41.395898
 30
0.0
  0
SPLINE
  5
173
100
AcDbEntity
  8
0
 62
7
100
AcDbSpline
 70
8
 71
3
 72
8
 73
4
 74
0
 40
0
 40
0
 40
0
 40
0
 40
1
 40
1
 40
1
 40
1
 10
74.558881
 20
41.395898
 30
0.0
 10
94.910316
 20
41.418996
 30
0.0
 10
111.421050
 20
57.929719
 30
0.0
 10
111.444137
 20
78.281154
 30
0.0
  0
SPLINE
  5
174
100
AcDbEntity
  8
0
 62
7
100
AcDbSpline
 70
8
 71
3
 72
8
 73
4
 74
0
 40
0
 40
0
 40
0
 40
0
 40
1
 40
1
 40
1
 40
1
 10
111.444137
 20
78.281154
 30
0.0
 10
111.444137
 20
79.629523
 30
0.0
 10
110.333489
 20
80.740171
 30
0.0
 10
108.985120
 20
80.740171
 30
0.0
  0
LINE
  5
175
100
AcDbEntity
  8
0
 62
7
100
AcDbLine
 10
108.985120
 20
80.740171
 30
0.0
 11
108.985120
 21
80.740171
 31
0.0
  0
SPLINE
  5
176
100
AcDbEntity
  8
0
 62
7
100
AcDbSpline
 70
8
 71
3
 72
8
 73
4
 74
0
 40
0
 40
0
 40
0
 40
0
 40
1
 40
1
 40
1
 40
1
 10
74.558881
 20
120.084444
 30
0.0
 10
75.021283
 20
120.084444
 30
0.0
 10
75.378554
 20
119.727174
 30
0.0
 10
75.378554
 20
119.264772
 30
0.0
  0
SPLINE
  5
177
100
AcDbEntity
  8
0
 62
7
100
AcDbSpline
 70
8
 71
3
 72
8
 73
4
 74
0
 40
0
 40
0
 40
0
 40
0
 40
1
 40
1
 40
1
 40
1
 10
75.378554
 20
119.264772
 30
0.0
 10
75.378554
 20
118.802370
 30
0.0
 10
75.021283
 20
118.445099
 30
0.0
 10
74.558881
 20
118.445099
 30
0.0
  0
SPLINE
  5
178
100
AcDbEntity
  8
0
 62
7
100
AcDbSpline
 70
8
 71
3
 72
8
 73
4
 74
0
 40
0
 40
0
 40
0
 40
0
 40
1
 40
1
 40
1
 40
1
 10
74.558881
 20
118.445099
 30
0.0
 10
73.504463
 20
118.445099
 30
0.0
 10
72.447654
 20
118.403886
 30
0.0
 10
71.411467
 20
118.317017
 30
0.0
  0
LINE
  5
179
100
AcDbEntity
  8
0
 62
7
100
AcDbLine
 10
71.411467
 20
118.317017
 30
0.0
 11
71.232164
 21
118.317017
 31
0.0
  0
SPLINE
  5
17a
100
AcDbEntity
  8
0
 62
7
100
AcDbSpline
 70
8
 71
3
 72
8
 73
4
 74
0
 40
0
 40
0
 40
0
 40
0
 40
1
 40
1
 40
1
 40
1
 10
71.232164
 20
118.317017
 30
0.0
 10
70.943611
 20
118.310952
 30
0.0
 10
70.672670
 20
118.446854
 30
0.0
 10
70.518152
 20
118.691634
 30
0.0
  0
SPLINE
  5
17b
100
AcDbEntity
  8
0
 62
7
100
AcDbSpline
 70
8
 71
3
 72
8
 73
4
 74
0
 40
0
 40
0
 40
0
 40
0
 40
1
 40
1
 40
1
 40
1
 10
70.518152
 20
118.691634
 30
0.0
 10
70.360890
 20
118.940762
 30
0.0
 10
70.349013
 20
119.250549
 30
0.0
 10
70.486136
 20
119.511306
 30
0.0
  0
SPLINE
  5
17c
100
AcDbEntity
  8
0
 62
7
100
AcDbSpline
 70
8
 71
3
 72
8
 73
4
 74
0
 40
0
 40
0
 40
0
 40
0
 40
1
 40
1
 40
1
 40
1
 10
70.486136
 20
119.511306
 30
0.0
 10
70.623251
 20
119.772062
 30
0.0
 10
70.886554
 20
119.938331
 30
0.0
 10
71.180936
 20
119.949959
 30
0.0
  0
LINE
  5
17d
100
AcDbEntity
  8
0
 62
7
100
AcDbLine
 10
71.180936
 20
119.949959
 30
0.0
 11
71.197002
 21
119.949959
 31
0.0
  0
LINE
  5
17e
100
AcDbEntity
  8
0
 62
7
100
AcDbLine
 10
71.197002
 20
119.949959
 30
0.0
 11
71.216215
 21
119.953238
 31
0.0
  0
SPLINE
  5
17f
100
AcDbEntity
  8
0
 62
7
100
AcDbSpline
 70
8
 71
3
 72
8
 73
4
 74
0
 40
0
 40
0
 40
0
 40
0
 40
1
 40
1
 40
1
 40
1
 10
71.216215
 20
119.953238
 30
0.0
 10
72.307340
 20
120.041500
 30
0.0
 10
73.432417
 20
120.084516
 30
0.0
 10
74.558881
 20
120.084516
 30
0.0
  0
LINE
  5
180
100
AcDbEntity
  8
0
 62
7
100
AcDbLine
 10
74.558881
 20
120.084516
 30
0.0
 11
74.558881
 21
120.084444
 31
0.0
  0
SPLINE
  5
181
100
AcDbEntity
  8
0
 62
7
100
AcDbSpline
 70
8
 71
3
 72
8
 73
4
 74
0
 40
0
 40
0
 40
0
 40
0
 40
1
 40
1
 40
1
 40
1
 10
74.558881
 20
121.723789
 30
0.0
 10
73.401007
 20
121.723789
 30
0.0
 10
72.242110
 20
121.676477
 30
0.0
 10
71.113697
 20
121.586117
 30
0.0
  0
SPLINE
  5
182
100
AcDbEntity
  8
0
 62
7
100
AcDbSpline
 70
8
 71
3
 72
8
 73
4
 74
0
 40
0
 40
0
 40
0
 40
0
 40
1
 40
1
 40
1
 40
1
 10
71.113697
 20
121.586117
 30
0.0
 10
70.238583
 20
121.549871
 30
0.0
 10
69.443455
 20
121.051977
 30
0.0
 10
69.035698
 20
120.276562
 30
0.0
  0
SPLINE
  5
183
100
AcDbEntity
  8
0
 62
7
100
AcDbSpline
 70
8
 71
3
 72
8
 73
4
 74
0
 40
0
 40
0
 40
0
 40
0
 40
1
 40
1
 40
1
 40
1
 10
69.035698
 20
120.276562
 30
0.0
 10
68.627206
 20
119.499754
 30
0.0
 10
68.663262
 20
118.559713
 30
0.0
 10
69.131747
 20
117.817545
 30
0.0
  0
SPLINE
  5
184
100
AcDbEntity
  8
0
 62
7
100
AcDbSpline
 70
8
 71
3
 72
8
 73
4
 74
0
 40
0
 40
0
 40
0
 40
0
 40
1
 40
1
 40
1
 40
1
 10
69.131747
 20
117.817545
 30
0.0
 10
69.595331
 20
117.083150
 30
0.0
 10
70.422959
 20
116.659583
 30
0.0
 10
71.289790
 20
116.684092
 30
0.0
  0
LINE
  5
185
100
AcDbEntity
  8
0
 62
7
100
AcDbLine
 10
71.289790
 20
116.684092
 30
0.0
 11
71.280118
 21
116.677699
 31
0.0
  0
LINE
  5
186
100
AcDbEntity
  8
0
 62
7
100
AcDbLine
 10
71.280118
 20
116.677699
 30
0.0
 11
71.299331
 21
116.677699
 31
0.0
  0
SPLINE
  5
187
100
AcDbEntity
  8
0
 62
7
100
AcDbSpline
 70
8
 71
3
 72
8
 73
4
 74
0
 40
0
 40
0
 40
0
 40
0
 40
1
 40
1
 40
1
 40
1
 10
71.299331
 20
116.677699
 30
0.0
 10
71.304413
 20
116.677868
 30
0.0
 10
71.307036
 20
116.671142
 30
0.0
 10
71.312118
 20
116.671306
 30
0.0
  0
LINE
  5
188
100
AcDbEntity
  8
0
 62
7
100
AcDbLine
 10
71.312118
 20
116.671306
 30
0.0
 11
71.446593
 21
116.677699
 31
0.0
  0
LINE
  5
189
100
AcDbEntity
  8
0
 62
7
100
AcDbLine
 10
71.446593
 20
116.677699
 30
0.0
 11
71.667521
 21
116.684092
 31
0.0
  0
SPLINE
  5
18a
100
AcDbEntity
  8
0
 62
7
100
AcDbSpline
 70
8
 71
3
 72
8
 73
4
 74
0
 40
0
 40
0
 40
0
 40
0
 40
1
 40
1
 40
1
 40
1
 10
71.667521
 20
116.684092
 30
0.0
 10
71.735751
 20
116.689502
 30
0.0
 10
71.807144
 20
116.688683
 30
0.0
 10
71.875641
 20
116.693765
 30
0.0
  0
SPLINE
  5
18b
100
AcDbEntity
  8
0
 62
7
100
AcDbSpline
 70
8
 71
3
 72
8
 73
4
 74
0
 40
0
 40
0
 40
0
 40
0
 40
1
 40
1
 40
1
 40
1
 10
71.875641
 20
116.693765
 30
0.0
 10
72.758532
 20
116.758797
 30
0.0
 10
73.656688
 20
116.805830
 30
0.0
 10
74.558807
 20
116.805830
 30
0.0
  0
SPLINE
  5
18c
100
AcDbEntity
  8
0
 62
7
100
AcDbSpline
 70
8
 71
3
 72
8
 73
4
 74
0
 40
0
 40
0
 40
0
 40
0
 40
1
 40
1
 40
1
 40
1
 10
74.558807
 20
116.805830
 30
0.0
 10
75.907177
 20
116.805830
 30
0.0
 10
77.017824
 20
117.916478
 30
0.0
 10
77.017824
 20
119.264847
 30
0.0
  0
SPLINE
  5
18d
100
AcDbEntity
  8
0
 62
7
100
AcDbSpline
 70
8
 71
3
 72
8
 73
4
 74
0
 40
0
 40
0
 40
0
 40
0
 40
1
 40
1
 40
1
 40
1
 10
77.017824
 20
119.264847
 30
0.0
 10
77.017824
 20
120.613216
 30
0.0
 10
75.907177
 20
121.723864
 30
0.0
 10
74.558807
 20
121.723864
 30
0.0
  0
LINE
  5
18e
100
AcDbEntity
  8
0
 62
7
100
AcDbLine
 10
74.558807
 20
121.723864
 30
0.0
 11
74.558881
 21
121.723789
 31
0.0
  0
LINE
  5
18f
100
AcDbEntity
  8
0
 62
7
100
AcDbLine
 10
64.533905
 20
118.867744
 30
0.0
 11
64.543577
 21
118.867744
 31
0.0
  0
SPLINE
  5
190
100
AcDbEntity
  8
0
 62
7
100
AcDbSpline
 70
8
 71
3
 72
8
 73
4
 74
0
 40
0
 40
0
 40
0
 40
0
 40
1
 40
1
 40
1
 40
1
 10
64.543577
 20
118.867744
 30
0.0
 10
64.831864
 20
118.946121
 30
0.0
 10
65.138477
 20
118.863809
 30
0.0
 10
65.347239
 20
118.650018
 30
0.0
  0
SPLINE
  5
191
100
AcDbEntity
  8
0
 62
7
100
AcDbSpline
 70
8
 71
3
 72
8
 73
4
 74
0
 40
0
 40
0
 40
0
 40
0
 40
1
 40
1
 40
1
 40
1
 10
65.347239
 20
118.650018
 30
0.0
 10
65.556005
 20
118.436313
 30
0.0
 10
65.630851
 20
118.129527
 30
0.0
 10
65.545754
 20
117.843153
 30
0.0
  0
SPLINE
  5
192
100
AcDbEntity
  8
0
 62
7
100
AcDbSpline
 70
8
 71
3
 72
8
 73
4
 74
0
 40
0
 40
0
 40
0
 40
0
 40
1
 40
1
 40
1
 40
1
 10
65.545754
 20
117.843153
 30
0.0
 10
65.460656
 20
117.556776
 30
0.0
 10
65.228993
 20
117.341452
 30
0.0
 10
64.937403
 20
117.276425
 30
0.0
  0
LINE
  5
193
100
AcDbEntity
  8
0
 62
7
100
AcDbLine
 10
64.937403
 20
117.276425
 30
0.0
 11
64.927731
 21
117.276425
 31
0.0
  0
LINE
  5
194
100
AcDbEntity
  8
0
 62
7
100
AcDbLine
 10
64.927731
 20
117.276425
 30
0.0
 11
64.921338
 21
117.273147
 31
0.0
  0
SPLINE
  5
195
100
AcDbEntity
  8
0
 62
7
100
AcDbSpline
 70
8
 71
3
 72
8
 73
4
 74
0
 40
0
 40
0
 40
0
 40
0
 40
1
 40
1
 40
1
 40
1
 10
64.921338
 20
117.273147
 30
0.0
 10
50.436702
 20
113.716433
 30
0.0
 10
39.123022
 20
102.405616
 30
0.0
 10
35.563610
 20
87.921827
 30
0.0
  0
SPLINE
  5
196
100
AcDbEntity
  8
0
 62
7
100
AcDbSpline
 70
8
 71
3
 72
8
 73
4
 74
0
 40
0
 40
0
 40
0
 40
0
 40
1
 40
1
 40
1
 40
1
 10
35.563610
 20
87.921827
 30
0.0
 10
35.472266
 20
87.552342
 30
0.0
 10
35.150161
 20
87.298143
 30
0.0
 10
34.769552
 20
87.297468
 30
0.0
  0
SPLINE
  5
197
100
AcDbEntity
  8
0
 62
7
100
AcDbSpline
 70
8
 71
3
 72
8
 73
4
 74
0
 40
0
 40
0
 40
0
 40
0
 40
1
 40
1
 40
1
 40
1
 10
34.769552
 20
87.297468
 30
0.0
 10
34.703487
 20
87.298842
 30
0.0
 10
34.638519
 20
87.307304
 30
0.0
 10
34.574239
 20
87.323091
 30
0.0
  0
SPLINE
  5
198
100
AcDbEntity
  8
0
 62
7
100
AcDbSpline
 70
8
 71
3
 72
8
 73
4
 74
0
 40
0
 40
0
 40
0
 40
0
 40
1
 40
1
 40
1
 40
1
 10
34.574239
 20
87.323091
 30
0.0
 10
34.125529
 20
87.434353
 30
0.0
 10
33.867562
 20
87.866921
 30
0.0
 10
33.978696
 20
88.315663
 30
0.0
  0
SPLINE
  5
199
100
AcDbEntity
  8
0
 62
7
100
AcDbSpline
 70
8
 71
3
 72
8
 73
4
 74
0
 40
0
 40
0
 40
0
 40
0
 40
1
 40
1
 40
1
 40
1
 10
33.978696
 20
88.315663
 30
0.0
 10
37.682394
 20
103.391374
 30
0.0
 10
49.448587
 20
115.160769
 30
0.0
 10
64.524298
 20
118.864467
 30
0.0
  0
LINE
  5
19a
100
AcDbEntity
  8
0
 62
7
100
AcDbLine
 10
64.524298
 20
118.864467
 30
0.0
 11
64.533905
 21
118.867744
 31
0.0
  0
SPLINE
  5
19b
100
AcDbEntity
  8
0
 62
7
100
AcDbSpline
 70
8
 71
3
 72
8
 73
4
 74
0
 40
0
 40
0
 40
0
 40
0
 40
1
 40
1
 40
1
 40
1
 10
64.114462
 20
120.449454
 30
0.0
 10
48.459761
 20
116.595717
 30
0.0
 10
36.235099
 20
104.366730
 30
0.0
 10
32.387379
 20
88.709563
 30
0.0
  0
SPLINE
  5
19c
100
AcDbEntity
  8
0
 62
7
100
AcDbSpline
 70
8
 71
3
 72
8
 73
4
 74
0
 40
0
 40
0
 40
0
 40
0
 40
1
 40
1
 40
1
 40
1
 10
32.387379
 20
88.709563
 30
0.0
 10
32.063304
 20
87.400998
 30
0.0
 10
32.871939
 20
86.056302
 30
0.0
 10
34.180413
 20
85.731848
 30
0.0
  0
LINE
  5
19d
100
AcDbEntity
  8
0
 62
7
100
AcDbLine
 10
34.180413
 20
85.731848
 30
0.0
 11
34.183691
 21
85.731848
 31
0.0
  0
SPLINE
  5
19e
100
AcDbEntity
  8
0
 62
7
100
AcDbSpline
 70
8
 71
3
 72
8
 73
4
 74
0
 40
0
 40
0
 40
0
 40
0
 40
1
 40
1
 40
1
 40
1
 10
34.183691
 20
85.731848
 30
0.0
 10
34.372877
 20
85.685651
 30
0.0
 10
34.568408
 20
85.660192
 30
0.0
 10
34.763226
 20
85.658209
 30
0.0
  0
LINE
  5
19f
100
AcDbEntity
  8
0
 62
7
100
AcDbLine
 10
34.763226
 20
85.658209
 30
0.0
 11
34.766341
 21
85.658209
 31
0.0
  0
LINE
  5
1a0
100
AcDbEntity
  8
0
 62
7
100
AcDbLine
 10
34.766341
 20
85.658209
 30
0.0
 11
34.772734
 21
85.658209
 31
0.0
  0
SPLINE
  5
1a1
100
AcDbEntity
  8
0
 62
7
100
AcDbSpline
 70
8
 71
3
 72
8
 73
4
 74
0
 40
0
 40
0
 40
0
 40
0
 40
1
 40
1
 40
1
 40
1
 10
34.772734
 20
85.658209
 30
0.0
 10
35.897636
 20
85.660176
 30
0.0
 10
36.884932
 20
86.436060
 30
0.0
 10
37.154907
 20
87.528086
 30
0.0
  0
SPLINE
  5
1a2
100
AcDbEntity
  8
0
 62
7
100
AcDbSpline
 70
8
 71
3
 72
8
 73
4
 74
0
 40
0
 40
0
 40
0
 40
0
 40
1
 40
1
 40
1
 40
1
 10
37.154907
 20
87.528086
 30
0.0
 10
40.568672
 20
101.423710
 30
0.0
 10
51.415921
 20
112.269731
 30
0.0
 10
65.311936
 20
115.681907
 30
0.0
  0
LINE
  5
1a3
100
AcDbEntity
  8
0
 62
7
100
AcDbLine
 10
65.311936
 20
115.681907
 30
0.0
 11
65.295870
 21
115.678628
 31
0.0
  0
SPLINE
  5
1a4
100
AcDbEntity
  8
0
 62
7
100
AcDbSpline
 70
8
 71
3
 72
8
 73
4
 74
0
 40
0
 40
0
 40
0
 40
0
 40
1
 40
1
 40
1
 40
1
 10
65.295870
 20
115.678628
 30
0.0
 10
66.165181
 20
115.872469
 30
0.0
 10
66.864095
 20
116.525092
 30
0.0
 10
67.117778
 20
117.378802
 30
0.0
  0
SPLINE
  5
1a5
100
AcDbEntity
  8
0
 62
7
100
AcDbSpline
 70
8
 71
3
 72
8
 73
4
 74
0
 40
0
 40
0
 40
0
 40
0
 40
1
 40
1
 40
1
 40
1
 10
67.117778
 20
117.378802
 30
0.0
 10
67.371458
 20
118.232516
 30
0.0
 10
67.141384
 20
119.159121
 30
0.0
 10
66.519031
 20
119.796197
 30
0.0
  0
SPLINE
  5
1a6
100
AcDbEntity
  8
0
 62
7
100
AcDbSpline
 70
8
 71
3
 72
8
 73
4
 74
0
 40
0
 40
0
 40
0
 40
0
 40
1
 40
1
 40
1
 40
1
 10
66.519031
 20
119.796197
 30
0.0
 10
65.896687
 20
120.433272
 30
0.0
 10
64.973857
 20
120.683016
 30
0.0
 10
64.114446
 20
120.449372
 30
0.0
  0
LINE
  5
1a7
100
AcDbEntity
  8
0
 62
7
100
AcDbLine
 10
64.114446
 20
120.449372
 30
0.0
 11
64.114462
 21
120.449454
 31
0.0
  0
SPLINE
  5
1a8
100
AcDbEntity
  8
0
 62
7
100
AcDbSpline
 70
8
 71
3
 72
8
 73
4
 74
0
 40
0
 40
0
 40
0
 40
0
 40
1
 40
1
 40
1
 40
1
 10
33.770577
 20
82.382717
 30
0.0
 10
33.988111
 20
82.365357
 30
0.0
 10
34.189655
 20
82.260898
 30
0.0
 10
34.330900
 20
82.094552
 30
0.0
  0
SPLINE
  5
1a9
100
AcDbEntity
  8
0
 62
7
100
AcDbSpline
 70
8
 71
3
 72
8
 73
4
 74
0
 40
0
 40
0
 40
0
 40
0
 40
1
 40
1
 40
1
 40
1
 10
34.330900
 20
82.094552
 30
0.0
 10
34.472146
 20
81.928199
 30
0.0
 10
34.541160
 20
81.713278
 30
0.0
 10
34.523011
 20
81.495807
 30
0.0
  0
SPLINE
  5
1aa
100
AcDbEntity
  8
0
 62
7
100
AcDbSpline
 70
8
 71
3
 72
8
 73
4
 74
0
 40
0
 40
0
 40
0
 40
0
 40
1
 40
1
 40
1
 40
1
 10
34.523011
 20
81.495807
 30
0.0
 10
34.437503
 20
80.439574
 30
0.0
 10
34.394929
 20
79.358105
 30
0.0
 10
34.394929
 20
78.281154
 30
0.0
  0
SPLINE
  5
1ab
100
AcDbEntity
  8
0
 62
7
100
AcDbSpline
 70
8
 71
3
 72
8
 73
4
 74
0
 40
0
 40
0
 40
0
 40
0
 40
1
 40
1
 40
1
 40
1
 10
34.394929
 20
78.281154
 30
0.0
 10
34.394929
 20
77.818752
 30
0.0
 10
34.037659
 20
77.461482
 30
0.0
 10
33.575257
 20
77.461482
 30
0.0
  0
SPLINE
  5
1ac
100
AcDbEntity
  8
0
 62
7
100
AcDbSpline
 70
8
 71
3
 72
8
 73
4
 74
0
 40
0
 40
0
 40
0
 40
0
 40
1
 40
1
 40
1
 40
1
 10
33.575257
 20
77.461482
 30
0.0
 10
33.112857
 20
77.461482
 30
0.0
 10
32.755585
 20
77.818752
 30
0.0
 10
32.755585
 20
78.281154
 30
0.0
  0
SPLINE
  5
1ad
100
AcDbEntity
  8
0
 62
7
100
AcDbSpline
 70
8
 71
3
 72
8
 73
4
 74
0
 40
0
 40
0
 40
0
 40
0
 40
1
 40
1
 40
1
 40
1
 10
32.755585
 20
78.281154
 30
0.0
 10
32.755585
 20
79.407618
 30
0.0
 10
32.798568
 20
80.533883
 30
0.0
 10
32.886863
 20
81.630284
 30
0.0
  0
SPLINE
  5
1ae
100
AcDbEntity
  8
0
 62
7
100
AcDbSpline
 70
8
 71
3
 72
8
 73
4
 74
0
 40
0
 40
0
 40
0
 40
0
 40
1
 40
1
 40
1
 40
1
 10
32.886863
 20
81.630284
 30
0.0
 10
32.904240
 20
81.847355
 30
0.0
 10
33.006027
 20
82.049434
 30
0.0
 10
33.171829
 20
82.190608
 30
0.0
  0
SPLINE
  5
1af
100
AcDbEntity
  8
0
 62
7
100
AcDbSpline
 70
8
 71
3
 72
8
 73
4
 74
0
 40
0
 40
0
 40
0
 40
0
 40
1
 40
1
 40
1
 40
1
 10
33.171829
 20
82.190608
 30
0.0
 10
33.337634
 20
82.331772
 30
0.0
 10
33.553513
 20
82.400180
 30
0.0
 10
33.770573
 20
82.382717
 30
0.0
  0
LINE
  5
1b0
100
AcDbEntity
  8
0
 62
7
100
AcDbLine
 10
33.770573
 20
82.382717
 30
0.0
 11
33.770577
 21
82.382717
 31
0.0
  0
SPLINE
  5
1b1
100
AcDbEntity
  8
0
 62
7
100
AcDbSpline
 70
8
 71
3
 72
8
 73
4
 74
0
 40
0
 40
0
 40
0
 40
0
 40
1
 40
1
 40
1
 40
1
 10
33.901852
 20
84.015659
 30
0.0
 10
33.251919
 20
84.067938
 30
0.0
 10
32.605273
 20
83.858823
 30
0.0
 10
32.108819
 20
83.436124
 30
0.0
  0
SPLINE
  5
1b2
100
AcDbEntity
  8
0
 62
7
100
AcDbSpline
 70
8
 71
3
 72
8
 73
4
 74
0
 40
0
 40
0
 40
0
 40
0
 40
1
 40
1
 40
1
 40
1
 10
32.108819
 20
83.436124
 30
0.0
 10
31.612365
 20
83.013423
 30
0.0
 10
31.305945
 20
82.411513
 30
0.0
 10
31.253927
 20
81.761560
 30
0.0
  0
SPLINE
  5
1b3
100
AcDbEntity
  8
0
 62
7
100
AcDbSpline
 70
8
 71
3
 72
8
 73
4
 74
0
 40
0
 40
0
 40
0
 40
0
 40
1
 40
1
 40
1
 40
1
 10
31.253927
 20
81.761560
 30
0.0
 10
31.161894
 20
80.618617
 30
0.0
 10
31.116238
 20
79.449772
 30
0.0
 10
31.116238
 20
78.281154
 30
0.0
  0
SPLINE
  5
1b4
100
AcDbEntity
  8
0
 62
7
100
AcDbSpline
 70
8
 71
3
 72
8
 73
4
 74
0
 40
0
 40
0
 40
0
 40
0
 40
1
 40
1
 40
1
 40
1
 10
31.116238
 20
78.281154
 30
0.0
 10
31.116238
 20
76.932785
 30
0.0
 10
32.226888
 20
75.822137
 30
0.0
 10
33.575255
 20
75.822137
 30
0.0
  0
SPLINE
  5
1b5
100
AcDbEntity
  8
0
 62
7
100
AcDbSpline
 70
8
 71
3
 72
8
 73
4
 74
0
 40
0
 40
0
 40
0
 40
0
 40
1
 40
1
 40
1
 40
1
 10
33.575255
 20
75.822137
 30
0.0
 10
34.923624
 20
75.822137
 30
0.0
 10
36.034272
 20
76.932785
 30
0.0
 10
36.034272
 20
78.281154
 30
0.0
  0
SPLINE
  5
1b6
100
AcDbEntity
  8
0
 62
7
100
AcDbSpline
 70
8
 71
3
 72
8
 73
4
 74
0
 40
0
 40
0
 40
0
 40
0
 40
1
 40
1
 40
1
 40
1
 10
36.034272
 20
78.281154
 30
0.0
 10
36.034272
 20
79.315679
 30
0.0
 10
36.074240
 20
80.351986
 30
0.0
 10
36.155944
 20
81.361329
 30
0.0
  0
SPLINE
  5
1b7
100
AcDbEntity
  8
0
 62
7
100
AcDbSpline
 70
8
 71
3
 72
8
 73
4
 74
0
 40
0
 40
0
 40
0
 40
0
 40
1
 40
1
 40
1
 40
1
 10
36.155944
 20
81.361329
 30
0.0
 10
36.210289
 20
82.012471
 30
0.0
 10
36.002518
 20
82.659480
 30
0.0
 10
35.579613
 20
83.157564
 30
0.0
  0
SPLINE
  5
1b8
100
AcDbEntity
  8
0
 62
7
100
AcDbSpline
 70
8
 71
3
 72
8
 73
4
 74
0
 40
0
 40
0
 40
0
 40
0
 40
1
 40
1
 40
1
 40
1
 10
35.579613
 20
83.157564
 30
0.0
 10
35.156703
 20
83.655646
 30
0.0
 10
34.553183
 20
83.963690
 30
0.0
 10
33.901845
 20
84.015659
 30
0.0
  0
LINE
  5
1b9
100
AcDbEntity
  8
0
 62
7
100
AcDbLine
 10
33.901845
 20
84.015659
 30
0.0
 11
33.901852
 21
84.015659
 31
0.0
  0
SPLINE
  5
1ba
100
AcDbEntity
  8
0
 62
7
100
AcDbSpline
 70
8
 71
3
 72
8
 73
4
 74
0
 40
0
 40
0
 40
0
 40
0
 40
1
 40
1
 40
1
 40
1
 10
114.120879
 20
69.264758
 30
0.0
 10
114.407253
 20
69.349857
 30
0.0
 10
114.714038
 20
69.275086
 30
0.0
 10
114.927745
 20
69.066243
 30
0.0
  0
SPLINE
  5
1bb
100
AcDbEntity
  8
0
 62
7
100
AcDbSpline
 70
8
 71
3
 72
8
 73
4
 74
0
 40
0
 40
0
 40
0
 40
0
 40
1
 40
1
 40
1
 40
1
 10
114.927745
 20
69.066243
 30
0.0
 10
115.141453
 20
68.857476
 30
0.0
 10
115.223845
 20
68.554058
 30
0.0
 10
115.145469
 20
68.265782
 30
0.0
  0
LINE
  5
1bc
100
AcDbEntity
  8
0
 62
7
100
AcDbLine
 10
115.145469
 20
68.265782
 30
0.0
 11
115.142191
 21
68.256110
 31
0.0
  0
LINE
  5
1bd
100
AcDbEntity
  8
0
 62
7
100
AcDbLine
 10
115.142191
 20
68.256110
 30
0.0
 11
115.138912
 21
68.246438
 31
0.0
  0
SPLINE
  5
1be
100
AcDbEntity
  8
0
 62
7
100
AcDbSpline
 70
8
 71
3
 72
8
 73
4
 74
0
 40
0
 40
0
 40
0
 40
0
 40
1
 40
1
 40
1
 40
1
 10
115.138912
 20
68.246438
 30
0.0
 10
111.436372
 20
53.175436
 30
0.0
 10
99.675054
 20
41.411614
 30
0.0
 10
84.606117
 20
37.704038
 30
0.0
  0
SPLINE
  5
1bf
100
AcDbEntity
  8
0
 62
7
100
AcDbSpline
 70
8
 71
3
 72
8
 73
4
 74
0
 40
0
 40
0
 40
0
 40
0
 40
1
 40
1
 40
1
 40
1
 10
84.606117
 20
37.704038
 30
0.0
 10
84.164517
 20
37.608284
 30
0.0
 10
83.744618
 20
37.866595
 30
0.0
 10
83.635957
 20
38.305984
 30
0.0
  0
SPLINE
  5
1c0
100
AcDbEntity
  8
0
 62
7
100
AcDbSpline
 70
8
 71
3
 72
8
 73
4
 74
0
 40
0
 40
0
 40
0
 40
0
 40
1
 40
1
 40
1
 40
1
 10
83.635957
 20
38.305984
 30
0.0
 10
83.526875
 20
38.747069
 30
0.0
 10
83.777039
 20
39.172952
 30
0.0
 10
84.215492
 20
39.292153
 30
0.0
  0
LINE
  5
1c1
100
AcDbEntity
  8
0
 62
7
100
AcDbLine
 10
84.215492
 20
39.292153
 30
0.0
 11
84.196279
 21
39.288875
 31
0.0
  0
SPLINE
  5
1c2
100
AcDbEntity
  8
0
 62
7
100
AcDbSpline
 70
8
 71
3
 72
8
 73
4
 74
0
 40
0
 40
0
 40
0
 40
0
 40
1
 40
1
 40
1
 40
1
 10
84.196279
 20
39.288875
 30
0.0
 10
98.679507
 20
42.847177
 30
0.0
 10
109.992493
 20
54.156961
 30
0.0
 10
113.550795
 20
68.640189
 30
0.0
  0
LINE
  5
1c3
100
AcDbEntity
  8
0
 62
7
100
AcDbLine
 10
113.550795
 20
68.640189
 30
0.0
 11
113.550795
 21
68.650025
 31
0.0
  0
LINE
  5
1c4
100
AcDbEntity
  8
0
 62
7
100
AcDbLine
 10
113.550795
 20
68.650025
 30
0.0
 11
113.554074
 21
68.659697
 31
0.0
  0
SPLINE
  5
1c5
100
AcDbEntity
  8
0
 62
7
100
AcDbSpline
 70
8
 71
3
 72
8
 73
4
 74
0
 40
0
 40
0
 40
0
 40
0
 40
1
 40
1
 40
1
 40
1
 10
113.554074
 20
68.659697
 30
0.0
 10
113.619107
 20
68.951288
 30
0.0
 10
113.834425
 20
69.179750
 30
0.0
 10
114.120800
 20
69.264847
 30
0.0
  0
LINE
  5
1c6
100
AcDbEntity
  8
0
 62
7
100
AcDbLine
 10
114.120800
 20
69.264847
 30
0.0
 11
114.120879
 21
69.264758
 31
0.0
  0
SPLINE
  5
1c7
100
AcDbEntity
  8
0
 62
7
100
AcDbSpline
 70
8
 71
3
 72
8
 73
4
 74
0
 40
0
 40
0
 40
0
 40
0
 40
1
 40
1
 40
1
 40
1
 10
113.653410
 20
70.836863
 30
0.0
 10
112.799698
 20
70.583183
 30
0.0
 10
112.147077
 20
69.884266
 30
0.0
 10
111.953231
 20
69.015014
 30
0.0
  0
LINE
  5
1c8
100
AcDbEntity
  8
0
 62
7
100
AcDbLine
 10
111.953231
 20
69.015014
 30
0.0
 11
111.956509
 21
69.031079
 31
0.0
  0
SPLINE
  5
1c9
100
AcDbEntity
  8
0
 62
7
100
AcDbSpline
 70
8
 71
3
 72
8
 73
4
 74
0
 40
0
 40
0
 40
0
 40
0
 40
1
 40
1
 40
1
 40
1
 10
111.956509
 20
69.031079
 30
0.0
 10
108.543036
 20
55.137348
 30
0.0
 10
97.699619
 20
44.293930
 30
0.0
 10
83.805887
 20
40.880457
 30
0.0
  0
LINE
  5
1ca
100
AcDbEntity
  8
0
 62
7
100
AcDbLine
 10
83.805887
 20
40.880457
 30
0.0
 11
83.796215
 21
40.877178
 31
0.0
  0
LINE
  5
1cb
100
AcDbEntity
  8
0
 62
7
100
AcDbLine
 10
83.796215
 20
40.877178
 30
0.0
 11
83.786543
 21
40.873900
 31
0.0
  0
SPLINE
  5
1cc
100
AcDbEntity
  8
0
 62
7
100
AcDbSpline
 70
8
 71
3
 72
8
 73
4
 74
0
 40
0
 40
0
 40
0
 40
0
 40
1
 40
1
 40
1
 40
1
 10
83.786543
 20
40.873900
 30
0.0
 10
82.506026
 20
40.525772
 30
0.0
 10
81.726175
 20
39.200383
 30
0.0
 10
82.044739
 20
37.912192
 30
0.0
  0
SPLINE
  5
1cd
100
AcDbEntity
  8
0
 62
7
100
AcDbSpline
 70
8
 71
3
 72
8
 73
4
 74
0
 40
0
 40
0
 40
0
 40
0
 40
1
 40
1
 40
1
 40
1
 10
82.044739
 20
37.912192
 30
0.0
 10
82.363303
 20
36.624003
 30
0.0
 10
83.672843
 20
35.814319
 30
0.0
 10
84.968023
 20
36.103149
 30
0.0
  0
LINE
  5
1ce
100
AcDbEntity
  8
0
 62
7
100
AcDbLine
 10
84.968023
 20
36.103149
 30
0.0
 11
84.974417
 21
36.103149
 31
0.0
  0
LINE
  5
1cf
100
AcDbEntity
  8
0
 62
7
100
AcDbLine
 10
84.974417
 20
36.103149
 30
0.0
 11
84.984089
 21
36.106428
 31
0.0
  0
SPLINE
  5
1d0
100
AcDbEntity
  8
0
 62
7
100
AcDbSpline
 70
8
 71
3
 72
8
 73
4
 74
0
 40
0
 40
0
 40
0
 40
0
 40
1
 40
1
 40
1
 40
1
 10
84.984089
 20
36.106428
 30
0.0
 10
100.643688
 20
39.953570
 30
0.0
 10
112.870821
 20
52.182776
 30
0.0
 10
116.723980
 20
67.839913
 30
0.0
  0
SPLINE
  5
1d1
100
AcDbEntity
  8
0
 62
7
100
AcDbSpline
 70
8
 71
3
 72
8
 73
4
 74
0
 40
0
 40
0
 40
0
 40
0
 40
1
 40
1
 40
1
 40
1
 10
116.723980
 20
67.839913
 30
0.0
 10
116.954257
 20
68.697268
 30
0.0
 10
116.706078
 20
69.617509
 30
0.0
 10
116.070804
 20
70.238096
 30
0.0
  0
SPLINE
  5
1d2
100
AcDbEntity
  8
0
 62
7
100
AcDbSpline
 70
8
 71
3
 72
8
 73
4
 74
0
 40
0
 40
0
 40
0
 40
0
 40
1
 40
1
 40
1
 40
1
 10
116.070804
 20
70.238096
 30
0.0
 10
115.433728
 20
70.860441
 30
0.0
 10
114.507122
 20
71.090523
 30
0.0
 10
113.653410
 20
70.836841
 30
0.0
  0
LINE
  5
1d3
100
AcDbEntity
  8
0
 62
7
100
AcDbLine
 10
113.653410
 20
70.836841
 30
0.0
 11
113.653410
 21
70.836863
 31
0.0
  0
SPLINE
  5
1d4
100
AcDbEntity
  8
0
 62
7
100
AcDbSpline
 70
8
 71
3
 72
8
 73
4
 74
0
 40
0
 40
0
 40
0
 40
0
 40
1
 40
1
 40
1
 40
1
 10
115.542499
 20
79.100826
 30
0.0
 10
116.004901
 20
79.100826
 30
0.0
 10
116.362171
 20
78.743556
 30
0.0
 10
116.362171
 20
78.281154
 30
0.0
  0
SPLINE
  5
1d5
100
AcDbEntity
  8
0
 62
7
100
AcDbSpline
 70
8
 71
3
 72
8
 73
4
 74
0
 40
0
 40
0
 40
0
 40
0
 40
1
 40
1
 40
1
 40
1
 10
116.362171
 20
78.281154
 30
0.0
 10
116.362171
 20
77.156841
 30
0.0
 10
116.319073
 20
76.030899
 30
0.0
 10
116.237302
 20
74.938429
 30
0.0
  0
SPLINE
  5
1d6
100
AcDbEntity
  8
0
 62
7
100
AcDbSpline
 70
8
 71
3
 72
8
 73
4
 74
0
 40
0
 40
0
 40
0
 40
0
 40
1
 40
1
 40
1
 40
1
 10
116.237302
 20
74.938429
 30
0.0
 10
116.202434
 20
74.503956
 30
0.0
 10
115.853445
 20
74.181374
 30
0.0
 10
115.417630
 20
74.182792
 30
0.0
  0
LINE
  5
1d7
100
AcDbEntity
  8
0
 62
7
100
AcDbLine
 10
115.417630
 20
74.182792
 30
0.0
 11
115.414351
 21
74.182792
 31
0.0
  0
LINE
  5
1d8
100
AcDbEntity
  8
0
 62
7
100
AcDbLine
 10
115.414351
 20
74.182792
 30
0.0
 11
115.340712
 21
74.182792
 31
0.0
  0
SPLINE
  5
1d9
100
AcDbEntity
  8
0
 62
7
100
AcDbSpline
 70
8
 71
3
 72
8
 73
4
 74
0
 40
0
 40
0
 40
0
 40
0
 40
1
 40
1
 40
1
 40
1
 10
115.340712
 20
74.182792
 30
0.0
 10
115.126030
 20
74.201874
 30
0.0
 10
114.926433
 20
74.303300
 30
0.0
 10
114.786792
 20
74.467756
 30
0.0
  0
SPLINE
  5
1da
100
AcDbEntity
  8
0
 62
7
100
AcDbSpline
 70
8
 71
3
 72
8
 73
4
 74
0
 40
0
 40
0
 40
0
 40
0
 40
1
 40
1
 40
1
 40
1
 10
114.786792
 20
74.467756
 30
0.0
 10
114.645546
 20
74.634107
 30
0.0
 10
114.576533
 20
74.849029
 30
0.0
 10
114.594682
 20
75.066501
 30
0.0
  0
SPLINE
  5
1db
100
AcDbEntity
  8
0
 62
7
100
AcDbSpline
 70
8
 71
3
 72
8
 73
4
 74
0
 40
0
 40
0
 40
0
 40
0
 40
1
 40
1
 40
1
 40
1
 10
114.594682
 20
75.066501
 30
0.0
 10
114.680256
 20
76.122734
 30
0.0
 10
114.722830
 20
77.204203
 30
0.0
 10
114.722830
 20
78.281154
 30
0.0
  0
SPLINE
  5
1dc
100
AcDbEntity
  8
0
 62
7
100
AcDbSpline
 70
8
 71
3
 72
8
 73
4
 74
0
 40
0
 40
0
 40
0
 40
0
 40
1
 40
1
 40
1
 40
1
 10
114.722830
 20
78.281154
 30
0.0
 10
114.722830
 20
78.743556
 30
0.0
 10
115.080100
 20
79.100826
 30
0.0
 10
115.542502
 20
79.100826
 30
0.0
  0
LINE
  5
1dd
100
AcDbEntity
  8
0
 62
7
100
AcDbLine
 10
115.542502
 20
79.100826
 30
0.0
 11
115.542499
 21
79.100826
 31
0.0
  0
SPLINE
  5
1de
100
AcDbEntity
  8
0
 62
7
100
AcDbSpline
 70
8
 71
3
 72
8
 73
4
 74
0
 40
0
 40
0
 40
0
 40
0
 40
1
 40
1
 40
1
 40
1
 10
115.542499
 20
80.740171
 30
0.0
 10
114.194130
 20
80.740171
 30
0.0
 10
113.083482
 20
79.629523
 30
0.0
 10
113.083482
 20
78.281154
 30
0.0
  0
SPLINE
  5
1df
100
AcDbEntity
  8
0
 62
7
100
AcDbSpline
 70
8
 71
3
 72
8
 73
4
 74
0
 40
0
 40
0
 40
0
 40
0
 40
1
 40
1
 40
1
 40
1
 10
113.083482
 20
78.281154
 30
0.0
 10
113.083482
 20
77.246629
 30
0.0
 10
113.043515
 20
76.210322
 30
0.0
 10
112.961810
 20
75.200979
 30
0.0
  0
SPLINE
  5
1e0
100
AcDbEntity
  8
0
 62
7
100
AcDbSpline
 70
8
 71
3
 72
8
 73
4
 74
0
 40
0
 40
0
 40
0
 40
0
 40
1
 40
1
 40
1
 40
1
 10
112.961810
 20
75.200979
 30
0.0
 10
112.907465
 20
74.549838
 30
0.0
 10
113.115236
 20
73.902828
 30
0.0
 10
113.538143
 20
73.404745
 30
0.0
  0
SPLINE
  5
1e1
100
AcDbEntity
  8
0
 62
7
100
AcDbSpline
 70
8
 71
3
 72
8
 73
4
 74
0
 40
0
 40
0
 40
0
 40
0
 40
1
 40
1
 40
1
 40
1
 10
113.538143
 20
73.404745
 30
0.0
 10
113.961051
 20
72.906662
 30
0.0
 10
114.564571
 20
72.598618
 30
0.0
 10
115.215909
 20
72.546649
 30
0.0
  0
LINE
  5
1e2
100
AcDbEntity
  8
0
 62
7
100
AcDbLine
 10
115.215909
 20
72.546649
 30
0.0
 11
115.247925
 21
72.543371
 31
0.0
  0
LINE
  5
1e3
100
AcDbEntity
  8
0
 62
7
100
AcDbLine
 10
115.247925
 20
72.543371
 30
0.0
 11
115.283138
 21
72.543371
 31
0.0
  0
LINE
  5
1e4
100
AcDbEntity
  8
0
 62
7
100
AcDbLine
 10
115.283138
 20
72.543371
 30
0.0
 11
115.411220
 21
72.543371
 31
0.0
  0
SPLINE
  5
1e5
100
AcDbEntity
  8
0
 62
7
100
AcDbSpline
 70
8
 71
3
 72
8
 73
4
 74
0
 40
0
 40
0
 40
0
 40
0
 40
1
 40
1
 40
1
 40
1
 10
115.411220
 20
72.543371
 30
0.0
 10
116.688501
 20
72.539272
 30
0.0
 10
117.768065
 20
73.533933
 30
0.0
 10
117.870237
 20
74.807074
 30
0.0
  0
LINE
  5
1e6
100
AcDbEntity
  8
0
 62
7
100
AcDbLine
 10
117.870237
 20
74.807074
 30
0.0
 11
117.870237
 21
74.810353
 31
0.0
  0
SPLINE
  5
1e7
100
AcDbEntity
  8
0
 62
7
100
AcDbSpline
 70
8
 71
3
 72
8
 73
4
 74
0
 40
0
 40
0
 40
0
 40
0
 40
1
 40
1
 40
1
 40
1
 10
117.870237
 20
74.810353
 30
0.0
 10
117.955368
 20
75.945429
 30
0.0
 10
118.001516
 20
77.112536
 30
0.0
 10
118.001516
 20
78.281154
 30
0.0
  0
SPLINE
  5
1e8
100
AcDbEntity
  8
0
 62
7
100
AcDbSpline
 70
8
 71
3
 72
8
 73
4
 74
0
 40
0
 40
0
 40
0
 40
0
 40
1
 40
1
 40
1
 40
1
 10
118.001516
 20
78.281154
 30
0.0
 10
118.001516
 20
79.629523
 30
0.0
 10
116.890868
 20
80.740171
 30
0.0
 10
115.542499
 20
80.740171
 30
0.0
  0
LINE
  5
1e9
100
AcDbEntity
  8
0
 62
7
100
AcDbLine
 10
115.542499
 20
80.740171
 30
0.0
 11
115.542499
 21
80.740171
 31
0.0
  0
SPLINE
  5
1ea
100
AcDbEntity
  8
0
 62
7
100
AcDbSpline
 70
8
 71
3
 72
8
 73
4
 74
0
 40
0
 40
0
 40
0
 40
0
 40
1
 40
1
 40
1
 40
1
 10
77.773531
 20
38.245282
 30
0.0
 10
78.234635
 20
38.282282
 30
0.0
 10
78.617041
 20
37.953948
 30
0.0
 10
78.654038
 20
37.492849
 30
0.0
  0
SPLINE
  5
1eb
100
AcDbEntity
  8
0
 62
7
100
AcDbSpline
 70
8
 71
3
 72
8
 73
4
 74
0
 40
0
 40
0
 40
0
 40
0
 40
1
 40
1
 40
1
 40
1
 10
78.654038
 20
37.492849
 30
0.0
 10
78.691038
 20
37.031744
 30
0.0
 10
78.362704
 20
36.646136
 30
0.0
 10
77.901603
 20
36.609139
 30
0.0
  0
SPLINE
  5
1ec
100
AcDbEntity
  8
0
 62
7
100
AcDbSpline
 70
8
 71
3
 72
8
 73
4
 74
0
 40
0
 40
0
 40
0
 40
0
 40
1
 40
1
 40
1
 40
1
 10
77.901603
 20
36.609139
 30
0.0
 10
76.810423
 20
36.520877
 30
0.0
 10
75.685345
 20
36.477861
 30
0.0
 10
74.558881
 20
36.477861
 30
0.0
  0
SPLINE
  5
1ed
100
AcDbEntity
  8
0
 62
7
100
AcDbSpline
 70
8
 71
3
 72
8
 73
4
 74
0
 40
0
 40
0
 40
0
 40
0
 40
1
 40
1
 40
1
 40
1
 10
74.558881
 20
36.477861
 30
0.0
 10
74.096479
 20
36.477861
 30
0.0
 10
73.739209
 20
36.835131
 30
0.0
 10
73.739209
 20
37.297533
 30
0.0
  0
SPLINE
  5
1ee
100
AcDbEntity
  8
0
 62
7
100
AcDbSpline
 70
8
 71
3
 72
8
 73
4
 74
0
 40
0
 40
0
 40
0
 40
0
 40
1
 40
1
 40
1
 40
1
 10
73.739209
 20
37.297533
 30
0.0
 10
73.739209
 20
37.759935
 30
0.0
 10
74.096479
 20
38.117205
 30
0.0
 10
74.558881
 20
38.117205
 30
0.0
  0
SPLINE
  5
1ef
100
AcDbEntity
  8
0
 62
7
100
AcDbSpline
 70
8
 71
3
 72
8
 73
4
 74
0
 40
0
 40
0
 40
0
 40
0
 40
1
 40
1
 40
1
 40
1
 10
74.558881
 20
38.117205
 30
0.0
 10
75.635832
 20
38.117205
 30
0.0
 10
76.717301
 20
38.159779
 30
0.0
 10
77.773535
 20
38.245287
 30
0.0
  0
LINE
  5
1f0
100
AcDbEntity
  8
0
 62
7
100
AcDbLine
 10
77.773535
 20
38.245287
 30
0.0
 11
77.773531
 21
38.245282
 31
0.0
  0
SPLINE
  5
1f1
100
AcDbEntity
  8
0
 62
7
100
AcDbSpline
 70
8
 71
3
 72
8
 73
4
 74
0
 40
0
 40
0
 40
0
 40
0
 40
1
 40
1
 40
1
 40
1
 10
77.639056
 20
39.878224
 30
0.0
 10
76.629713
 20
39.796519
 30
0.0
 10
75.593406
 20
39.756552
 30
0.0
 10
74.558881
 20
39.756552
 30
0.0
  0
SPLINE
  5
1f2
100
AcDbEntity
  8
0
 62
7
100
AcDbSpline
 70
8
 71
3
 72
8
 73
4
 74
0
 40
0
 40
0
 40
0
 40
0
 40
1
 40
1
 40
1
 40
1
 10
74.558881
 20
39.756552
 30
0.0
 10
73.210512
 20
39.756552
 30
0.0
 10
72.099864
 20
38.645904
 30
0.0
 10
72.099864
 20
37.297535
 30
0.0
  0
SPLINE
  5
1f3
100
AcDbEntity
  8
0
 62
7
100
AcDbSpline
 70
8
 71
3
 72
8
 73
4
 74
0
 40
0
 40
0
 40
0
 40
0
 40
1
 40
1
 40
1
 40
1
 10
72.099864
 20
37.297535
 30
0.0
 10
72.099864
 20
35.949165
 30
0.0
 10
73.210512
 20
34.838518
 30
0.0
 10
74.558881
 20
34.838518
 30
0.0
  0
SPLINE
  5
1f4
100
AcDbEntity
  8
0
 62
7
100
AcDbSpline
 70
8
 71
3
 72
8
 73
4
 74
0
 40
0
 40
0
 40
0
 40
0
 40
1
 40
1
 40
1
 40
1
 10
74.558881
 20
34.838518
 30
0.0
 10
75.726426
 20
34.838518
 30
0.0
 10
76.895551
 20
34.884304
 30
0.0
 10
78.032884
 20
34.976190
 30
0.0
  0
SPLINE
  5
1f5
100
AcDbEntity
  8
0
 62
7
100
AcDbSpline
 70
8
 71
3
 72
8
 73
4
 74
0
 40
0
 40
0
 40
0
 40
0
 40
1
 40
1
 40
1
 40
1
 10
78.032884
 20
34.976190
 30
0.0
 10
79.377122
 20
35.084042
 30
0.0
 10
80.398047
 20
36.279882
 30
0.0
 10
80.290184
 20
37.624117
 30
0.0
  0
SPLINE
  5
1f6
100
AcDbEntity
  8
0
 62
7
100
AcDbSpline
 70
8
 71
3
 72
8
 73
4
 74
0
 40
0
 40
0
 40
0
 40
0
 40
1
 40
1
 40
1
 40
1
 10
80.290184
 20
37.624117
 30
0.0
 10
80.182332
 20
38.968355
 30
0.0
 10
78.986492
 20
39.986078
 30
0.0
 10
77.642257
 20
39.878216
 30
0.0
  0
LINE
  5
1f7
100
AcDbEntity
  8
0
 62
7
100
AcDbLine
 10
77.642257
 20
39.878216
 30
0.0
 11
77.639056
 21
39.878224
 31
0.0
  0
ENDSEC
  0
SECTION
  2
OBJECTS
  0
DICTIONARY
  5
C
330
0
100
AcDbDictionary
  3
ACAD_GROUP
350
D
  3
ACAD_MLINESTYLE
350
17
  0
DICTIONARY
  5
D
330
C
100
AcDbDictionary
  0
DICTIONARY
  5
1A
330
C
100
AcDbDictionary
  0
DICTIONARY
  5
17
330
C
100
AcDbDictionary
  3
STANDARD
350
18
  0
DICTIONARY
  5
19
330
C
100
AcDbDictionary
  0
ENDSEC
  0
EOF
